%TF.GenerationSoftware,KiCad,Pcbnew,9.0.0*%
%TF.CreationDate,2025-03-10T01:27:30-04:00*%
%TF.ProjectId,cinna-chan-light,63696e6e-612d-4636-9861-6e2d6c696768,rev?*%
%TF.SameCoordinates,Original*%
%TF.FileFunction,Copper,L1,Top*%
%TF.FilePolarity,Positive*%
%FSLAX46Y46*%
G04 Gerber Fmt 4.6, Leading zero omitted, Abs format (unit mm)*
G04 Created by KiCad (PCBNEW 9.0.0) date 2025-03-10 01:27:30*
%MOMM*%
%LPD*%
G01*
G04 APERTURE LIST*
G04 APERTURE END LIST*
%TA.AperFunction,NonConductor*%
G36*
X172420761Y-59999115D02*
G01*
X172714626Y-60014518D01*
X172721920Y-60015119D01*
X172788757Y-60022650D01*
X172794216Y-60023390D01*
X173050659Y-60064008D01*
X173058793Y-60065579D01*
X173118245Y-60079148D01*
X173122595Y-60080226D01*
X173380424Y-60149313D01*
X173389224Y-60152029D01*
X173434883Y-60168005D01*
X173438302Y-60169259D01*
X173531725Y-60205122D01*
X173699756Y-60269625D01*
X173709114Y-60273667D01*
X173731173Y-60284289D01*
X173733614Y-60285498D01*
X174001468Y-60421979D01*
X174012697Y-60428463D01*
X174280912Y-60602648D01*
X174291413Y-60610277D01*
X174539945Y-60811538D01*
X174549579Y-60820212D01*
X174775735Y-61046372D01*
X174784395Y-61055990D01*
X174880081Y-61174155D01*
X174985664Y-61304542D01*
X174993293Y-61315043D01*
X175167465Y-61583253D01*
X175173955Y-61594494D01*
X175310014Y-61861534D01*
X175311322Y-61864178D01*
X175322574Y-61887625D01*
X175326544Y-61896837D01*
X175427110Y-62158828D01*
X175428431Y-62162438D01*
X175444060Y-62207319D01*
X175446726Y-62215989D01*
X175515997Y-62474530D01*
X175517112Y-62479022D01*
X175520328Y-62493112D01*
X175523309Y-62506172D01*
X175523333Y-62506382D01*
X175523356Y-62506377D01*
X175530375Y-62537370D01*
X175531912Y-62545363D01*
X175572711Y-62802980D01*
X175573457Y-62808490D01*
X175579165Y-62859140D01*
X175579190Y-62859367D01*
X175580776Y-62873677D01*
X175581361Y-62880848D01*
X175596848Y-63176432D01*
X175597018Y-63182920D01*
X175597018Y-73875500D01*
X175577333Y-73942539D01*
X175524529Y-73988294D01*
X175473018Y-73999500D01*
X175051569Y-73999500D01*
X174984530Y-73979815D01*
X174963888Y-73963181D01*
X173000207Y-71999500D01*
X171500207Y-71999500D01*
X171499792Y-71999500D01*
X171499791Y-71999500D01*
X167999793Y-75499500D01*
X167999500Y-75499792D01*
X167999500Y-75499793D01*
X167999500Y-83999793D01*
X167999500Y-84000207D01*
X171999793Y-88000500D01*
X173000207Y-88000500D01*
X175385337Y-85615370D01*
X175446660Y-85581885D01*
X175516352Y-85586869D01*
X175572285Y-85628741D01*
X175596702Y-85694205D01*
X175597018Y-85703051D01*
X175597018Y-110795197D01*
X175596848Y-110801689D01*
X175581442Y-111095554D01*
X175580832Y-111102945D01*
X175573325Y-111169576D01*
X175572578Y-111175093D01*
X175531945Y-111431616D01*
X175530363Y-111439809D01*
X175516844Y-111499038D01*
X175515727Y-111503540D01*
X175446654Y-111761311D01*
X175443921Y-111770173D01*
X175427960Y-111815784D01*
X175426683Y-111819265D01*
X175326346Y-112080647D01*
X175322301Y-112090013D01*
X175311597Y-112112239D01*
X175310362Y-112114730D01*
X175173983Y-112382385D01*
X175167494Y-112393626D01*
X174993310Y-112661841D01*
X174985681Y-112672341D01*
X174784423Y-112920872D01*
X174775738Y-112930518D01*
X174549597Y-113156656D01*
X174539952Y-113165340D01*
X174291416Y-113366601D01*
X174280925Y-113374223D01*
X174056858Y-113519732D01*
X174012710Y-113548403D01*
X174001470Y-113554892D01*
X173733806Y-113691273D01*
X173731312Y-113692509D01*
X173709074Y-113703218D01*
X173699711Y-113707261D01*
X173438359Y-113807585D01*
X173434877Y-113808862D01*
X173389250Y-113824828D01*
X173380388Y-113827562D01*
X173122605Y-113896635D01*
X173118106Y-113897751D01*
X173058876Y-113911271D01*
X173050679Y-113912853D01*
X172794102Y-113953491D01*
X172788589Y-113954238D01*
X172722086Y-113961732D01*
X172714691Y-113962342D01*
X172420221Y-113977776D01*
X172413731Y-113977946D01*
X93180763Y-113977946D01*
X93174274Y-113977776D01*
X93166498Y-113977368D01*
X92880522Y-113962381D01*
X92873129Y-113961771D01*
X92806206Y-113954231D01*
X92800693Y-113953485D01*
X92544536Y-113912917D01*
X92536339Y-113911334D01*
X92476544Y-113897686D01*
X92472044Y-113896570D01*
X92214846Y-113827655D01*
X92205984Y-113824921D01*
X92159596Y-113808689D01*
X92156114Y-113807412D01*
X91895538Y-113707389D01*
X91886174Y-113703345D01*
X91862842Y-113692109D01*
X91860349Y-113690874D01*
X91593543Y-113554932D01*
X91582303Y-113548443D01*
X91314085Y-113374264D01*
X91303584Y-113366635D01*
X91055038Y-113165370D01*
X91045393Y-113156685D01*
X90819256Y-112930553D01*
X90810571Y-112920907D01*
X90609304Y-112672367D01*
X90601675Y-112661868D01*
X90542732Y-112571106D01*
X90427483Y-112393644D01*
X90421005Y-112382423D01*
X90285672Y-112116825D01*
X90284438Y-112114334D01*
X90283283Y-112111937D01*
X90272434Y-112089408D01*
X90268406Y-112080081D01*
X90168968Y-111821045D01*
X90167738Y-111817693D01*
X90150840Y-111769403D01*
X90148126Y-111760603D01*
X90079677Y-111505162D01*
X90078570Y-111500703D01*
X90064451Y-111438841D01*
X90062884Y-111430724D01*
X90022611Y-111176478D01*
X90021878Y-111171062D01*
X90014079Y-111101844D01*
X90013472Y-111094489D01*
X89998189Y-110802938D01*
X89998019Y-110796447D01*
X89998019Y-108345528D01*
X167249500Y-108345528D01*
X167249500Y-108654471D01*
X167284086Y-108961437D01*
X167284089Y-108961455D01*
X167352831Y-109262635D01*
X167352835Y-109262647D01*
X167454862Y-109554222D01*
X167454868Y-109554236D01*
X167588903Y-109832562D01*
X167588905Y-109832565D01*
X167753265Y-110094143D01*
X167945880Y-110335674D01*
X168164326Y-110554120D01*
X168405857Y-110746735D01*
X168667435Y-110911095D01*
X168945771Y-111045135D01*
X168945777Y-111045137D01*
X169237352Y-111147164D01*
X169237364Y-111147168D01*
X169538548Y-111215911D01*
X169538554Y-111215911D01*
X169538562Y-111215913D01*
X169743206Y-111238970D01*
X169845529Y-111250499D01*
X169845532Y-111250500D01*
X169845535Y-111250500D01*
X170154468Y-111250500D01*
X170154469Y-111250499D01*
X170311356Y-111232822D01*
X170461437Y-111215913D01*
X170461442Y-111215912D01*
X170461452Y-111215911D01*
X170762636Y-111147168D01*
X171054229Y-111045135D01*
X171332565Y-110911095D01*
X171594143Y-110746735D01*
X171835674Y-110554120D01*
X172054120Y-110335674D01*
X172246735Y-110094143D01*
X172411095Y-109832565D01*
X172545135Y-109554229D01*
X172647168Y-109262636D01*
X172715911Y-108961452D01*
X172750500Y-108654465D01*
X172750500Y-108345535D01*
X172715911Y-108038548D01*
X172647168Y-107737364D01*
X172545135Y-107445771D01*
X172411095Y-107167435D01*
X172246735Y-106905857D01*
X172054120Y-106664326D01*
X171835674Y-106445880D01*
X171594143Y-106253265D01*
X171332565Y-106088905D01*
X171332562Y-106088903D01*
X171054236Y-105954868D01*
X171054222Y-105954862D01*
X170762647Y-105852835D01*
X170762635Y-105852831D01*
X170461455Y-105784089D01*
X170461437Y-105784086D01*
X170154471Y-105749500D01*
X170154465Y-105749500D01*
X169845535Y-105749500D01*
X169845528Y-105749500D01*
X169538562Y-105784086D01*
X169538544Y-105784089D01*
X169237364Y-105852831D01*
X169237352Y-105852835D01*
X168945777Y-105954862D01*
X168945763Y-105954868D01*
X168667437Y-106088903D01*
X168405858Y-106253264D01*
X168164326Y-106445879D01*
X167945879Y-106664326D01*
X167753264Y-106905858D01*
X167588903Y-107167437D01*
X167454868Y-107445763D01*
X167454862Y-107445777D01*
X167352835Y-107737352D01*
X167352831Y-107737364D01*
X167284089Y-108038544D01*
X167284086Y-108038562D01*
X167249500Y-108345528D01*
X89998019Y-108345528D01*
X89998019Y-78781669D01*
X139999500Y-78781669D01*
X139999500Y-79218330D01*
X140037557Y-79653320D01*
X140037557Y-79653324D01*
X140113379Y-80083327D01*
X140113383Y-80083344D01*
X140226392Y-80505105D01*
X140375740Y-80915434D01*
X140375746Y-80915449D01*
X140560272Y-81311164D01*
X140560277Y-81311174D01*
X140778603Y-81689326D01*
X140778615Y-81689343D01*
X140821477Y-81750558D01*
X140824055Y-81754239D01*
X140825031Y-81755873D01*
X140829673Y-81762262D01*
X140830273Y-81763119D01*
X140830301Y-81763158D01*
X141029057Y-82047013D01*
X141082169Y-82110308D01*
X141082171Y-82110311D01*
X141084957Y-82113631D01*
X141088872Y-82119020D01*
X141104165Y-82136525D01*
X141104977Y-82137492D01*
X141105004Y-82137523D01*
X141309734Y-82381509D01*
X141376762Y-82448537D01*
X141384204Y-82457055D01*
X141408712Y-82480487D01*
X141618493Y-82690268D01*
X141618498Y-82690272D01*
X141694139Y-82753743D01*
X141697215Y-82756324D01*
X141708648Y-82767255D01*
X141740797Y-82792893D01*
X141821614Y-82860707D01*
X141952986Y-82970942D01*
X141985347Y-82993601D01*
X142043807Y-83034535D01*
X142059593Y-83047124D01*
X142097882Y-83072398D01*
X142310674Y-83221397D01*
X142413839Y-83280959D01*
X142434211Y-83294407D01*
X142477184Y-83317531D01*
X142688826Y-83439723D01*
X142804433Y-83493631D01*
X142829488Y-83507115D01*
X142875765Y-83526894D01*
X143025610Y-83596768D01*
X143084550Y-83624253D01*
X143084554Y-83624254D01*
X143084568Y-83624261D01*
X143212530Y-83670835D01*
X143242240Y-83683534D01*
X143290505Y-83699216D01*
X143494888Y-83773605D01*
X143494889Y-83773605D01*
X143494894Y-83773607D01*
X143547663Y-83787746D01*
X143635000Y-83811147D01*
X143669145Y-83822243D01*
X143718138Y-83833424D01*
X143916663Y-83886619D01*
X144068496Y-83913391D01*
X144106766Y-83922127D01*
X144155392Y-83928713D01*
X144346682Y-83962443D01*
X144509648Y-83976700D01*
X144551578Y-83982381D01*
X144598822Y-83984502D01*
X144781671Y-84000499D01*
X144781672Y-84000500D01*
X144955022Y-84000500D01*
X145000000Y-84002520D01*
X145044978Y-84000500D01*
X145218328Y-84000500D01*
X145218328Y-84000499D01*
X145401182Y-83984502D01*
X145448422Y-83982381D01*
X145490357Y-83976700D01*
X145653318Y-83962443D01*
X145844619Y-83928711D01*
X145893234Y-83922127D01*
X145931500Y-83913391D01*
X146083337Y-83886619D01*
X146281847Y-83833428D01*
X146330855Y-83822243D01*
X146365009Y-83811145D01*
X146452988Y-83787571D01*
X146505099Y-83773609D01*
X146505104Y-83773607D01*
X146505112Y-83773605D01*
X146709500Y-83699213D01*
X146757760Y-83683534D01*
X146787460Y-83670838D01*
X146874621Y-83639114D01*
X146915420Y-83624266D01*
X146915424Y-83624263D01*
X146915432Y-83624261D01*
X147124248Y-83526887D01*
X147170512Y-83507115D01*
X147195563Y-83493633D01*
X147311174Y-83439723D01*
X147522826Y-83317525D01*
X147565789Y-83294407D01*
X147586151Y-83280964D01*
X147689326Y-83221397D01*
X147855005Y-83105387D01*
X147900744Y-83073361D01*
X147901120Y-83073096D01*
X147902145Y-83072379D01*
X147940407Y-83047124D01*
X147956185Y-83034540D01*
X148047012Y-82970943D01*
X148259223Y-82792876D01*
X148291352Y-82767255D01*
X148302779Y-82756328D01*
X148381507Y-82690268D01*
X148591309Y-82480465D01*
X148615796Y-82457055D01*
X148623230Y-82448544D01*
X148690268Y-82381507D01*
X148895833Y-82136525D01*
X148911128Y-82119020D01*
X148915042Y-82113631D01*
X148970943Y-82047012D01*
X149170338Y-81762245D01*
X149174969Y-81755873D01*
X149175940Y-81754244D01*
X149221397Y-81689326D01*
X149439723Y-81311174D01*
X149624261Y-80915432D01*
X149773605Y-80505112D01*
X149886619Y-80083337D01*
X149962443Y-79653318D01*
X150000500Y-79218327D01*
X150000500Y-78781673D01*
X149962443Y-78346682D01*
X149886619Y-77916663D01*
X149809110Y-77627398D01*
X149773607Y-77494894D01*
X149773604Y-77494886D01*
X149763967Y-77468407D01*
X149763961Y-77468392D01*
X149751483Y-77434108D01*
X162499499Y-77434108D01*
X162499499Y-77565891D01*
X162533607Y-77693187D01*
X162566553Y-77750250D01*
X162599499Y-77807314D01*
X162599501Y-77807316D01*
X162618170Y-77825985D01*
X162620181Y-77829114D01*
X162628555Y-77836370D01*
X162692685Y-77900500D01*
X162712034Y-77911671D01*
X162722291Y-77917593D01*
X162728289Y-77922790D01*
X162742658Y-77929352D01*
X162806813Y-77966392D01*
X162847832Y-77977383D01*
X162858408Y-77982213D01*
X162874483Y-77984524D01*
X162934107Y-78000500D01*
X162934108Y-78000500D01*
X162985595Y-78000500D01*
X162999999Y-78002571D01*
X163014403Y-78000500D01*
X163065890Y-78000500D01*
X163065891Y-78000500D01*
X163125519Y-77984522D01*
X163141590Y-77982213D01*
X163152166Y-77977382D01*
X163193185Y-77966392D01*
X163257345Y-77929348D01*
X163271709Y-77922790D01*
X163277702Y-77917595D01*
X163307313Y-77900500D01*
X163371448Y-77836364D01*
X163379817Y-77829114D01*
X163381825Y-77825987D01*
X163400499Y-77807314D01*
X163466391Y-77693186D01*
X163500499Y-77565892D01*
X163500499Y-77434108D01*
X163466391Y-77306814D01*
X163400499Y-77192686D01*
X163381827Y-77174014D01*
X163379817Y-77170886D01*
X163371442Y-77163629D01*
X163307312Y-77099499D01*
X163301660Y-77096236D01*
X163277703Y-77082404D01*
X163271709Y-77077210D01*
X163257342Y-77070648D01*
X163252221Y-77067692D01*
X163193185Y-77033608D01*
X163193183Y-77033607D01*
X163162160Y-77025294D01*
X163162160Y-77025293D01*
X163152157Y-77022612D01*
X163141590Y-77017787D01*
X163125525Y-77015477D01*
X163118381Y-77013563D01*
X163118377Y-77013563D01*
X163065892Y-76999500D01*
X163065891Y-76999500D01*
X163014403Y-76999500D01*
X162999999Y-76997429D01*
X162985595Y-76999500D01*
X162934103Y-76999500D01*
X162881615Y-77013563D01*
X162881616Y-77013564D01*
X162874477Y-77015476D01*
X162858408Y-77017787D01*
X162847840Y-77022612D01*
X162837837Y-77025293D01*
X162837834Y-77025295D01*
X162806816Y-77033607D01*
X162806814Y-77033607D01*
X162747767Y-77067697D01*
X162747766Y-77067696D01*
X162742635Y-77070658D01*
X162728289Y-77077210D01*
X162722300Y-77082399D01*
X162712051Y-77088317D01*
X162712044Y-77088323D01*
X162692685Y-77099500D01*
X162692681Y-77099503D01*
X162631676Y-77160506D01*
X162628533Y-77163648D01*
X162620181Y-77170886D01*
X162618175Y-77174006D01*
X162609801Y-77182381D01*
X162599500Y-77192683D01*
X162599498Y-77192685D01*
X162533608Y-77306810D01*
X162533608Y-77306811D01*
X162533608Y-77306812D01*
X162533607Y-77306814D01*
X162499499Y-77434108D01*
X149751483Y-77434108D01*
X149624261Y-77084568D01*
X149616393Y-77067696D01*
X149439727Y-76688835D01*
X149439719Y-76688819D01*
X149408618Y-76634950D01*
X149221397Y-76310674D01*
X149203102Y-76284546D01*
X149178526Y-76249447D01*
X149175947Y-76245764D01*
X149174969Y-76244127D01*
X149170321Y-76237729D01*
X149169696Y-76236837D01*
X149169695Y-76236836D01*
X149169694Y-76236834D01*
X149114042Y-76157354D01*
X149069932Y-76094358D01*
X157499499Y-76094358D01*
X157499499Y-76095052D01*
X157499499Y-76226142D01*
X157516553Y-76289789D01*
X157533607Y-76353437D01*
X157566553Y-76410500D01*
X157599499Y-76467564D01*
X157599501Y-76467566D01*
X157618170Y-76486235D01*
X157620181Y-76489364D01*
X157628555Y-76496620D01*
X157692685Y-76560750D01*
X157712034Y-76571921D01*
X157722291Y-76577843D01*
X157728289Y-76583040D01*
X157742658Y-76589602D01*
X157806813Y-76626642D01*
X157847832Y-76637633D01*
X157858408Y-76642463D01*
X157874483Y-76644774D01*
X157934107Y-76660750D01*
X157934108Y-76660750D01*
X157985595Y-76660750D01*
X157999999Y-76662821D01*
X158014403Y-76660750D01*
X158065890Y-76660750D01*
X158065891Y-76660750D01*
X158125519Y-76644772D01*
X158141590Y-76642463D01*
X158152166Y-76637632D01*
X158193185Y-76626642D01*
X158257345Y-76589598D01*
X158271709Y-76583040D01*
X158277702Y-76577845D01*
X158307313Y-76560750D01*
X158371448Y-76496614D01*
X158379817Y-76489364D01*
X158381825Y-76486237D01*
X158400499Y-76467564D01*
X158466391Y-76353436D01*
X158500499Y-76226142D01*
X158500499Y-76094358D01*
X158466391Y-75967064D01*
X158400499Y-75852936D01*
X158381827Y-75834264D01*
X158379817Y-75831136D01*
X158371442Y-75823879D01*
X158307312Y-75759749D01*
X158301660Y-75756486D01*
X158277703Y-75742654D01*
X158271709Y-75737460D01*
X158257342Y-75730898D01*
X158252221Y-75727942D01*
X158193185Y-75693858D01*
X158193183Y-75693857D01*
X158162160Y-75685544D01*
X158162160Y-75685543D01*
X158152157Y-75682862D01*
X158141590Y-75678037D01*
X158125525Y-75675727D01*
X158118381Y-75673813D01*
X158118377Y-75673813D01*
X158065892Y-75659750D01*
X158065891Y-75659750D01*
X158014403Y-75659750D01*
X157999999Y-75657679D01*
X157985595Y-75659750D01*
X157934103Y-75659750D01*
X157881615Y-75673813D01*
X157881616Y-75673814D01*
X157874477Y-75675726D01*
X157858408Y-75678037D01*
X157847840Y-75682862D01*
X157837837Y-75685543D01*
X157837834Y-75685545D01*
X157806816Y-75693857D01*
X157806814Y-75693857D01*
X157747767Y-75727947D01*
X157747766Y-75727946D01*
X157742635Y-75730908D01*
X157728289Y-75737460D01*
X157722300Y-75742649D01*
X157712051Y-75748567D01*
X157712044Y-75748573D01*
X157692685Y-75759750D01*
X157692681Y-75759753D01*
X157631676Y-75820756D01*
X157628533Y-75823898D01*
X157620181Y-75831136D01*
X157618175Y-75834256D01*
X157609801Y-75842631D01*
X157599500Y-75852933D01*
X157599498Y-75852935D01*
X157533608Y-75967060D01*
X157533608Y-75967061D01*
X157533608Y-75967062D01*
X157533607Y-75967064D01*
X157499499Y-76094358D01*
X149069932Y-76094358D01*
X148970948Y-75952994D01*
X148970946Y-75952993D01*
X148970943Y-75952988D01*
X148915040Y-75886365D01*
X148911128Y-75880980D01*
X148895789Y-75863423D01*
X148894991Y-75862472D01*
X148894990Y-75862470D01*
X148746531Y-75685545D01*
X148690268Y-75618493D01*
X148623237Y-75551462D01*
X148615796Y-75542945D01*
X148591287Y-75519512D01*
X148381509Y-75309734D01*
X148378399Y-75307124D01*
X148302785Y-75243676D01*
X148291352Y-75232745D01*
X148259212Y-75207114D01*
X148258020Y-75206114D01*
X148047013Y-75029057D01*
X147959362Y-74967684D01*
X147956194Y-74965466D01*
X147940407Y-74952876D01*
X147902146Y-74927620D01*
X147900742Y-74926637D01*
X147900741Y-74926636D01*
X147689343Y-74778615D01*
X147689326Y-74778603D01*
X147589378Y-74720898D01*
X147589378Y-74720897D01*
X147586151Y-74719034D01*
X147565789Y-74705593D01*
X147522827Y-74682474D01*
X147521190Y-74681529D01*
X147385811Y-74603368D01*
X147311180Y-74560280D01*
X147311164Y-74560272D01*
X147198804Y-74507877D01*
X147195564Y-74506366D01*
X147191368Y-74504108D01*
X155429499Y-74504108D01*
X155429499Y-74504802D01*
X155429499Y-74635892D01*
X155441981Y-74682475D01*
X155463607Y-74763187D01*
X155489814Y-74808578D01*
X155529499Y-74877314D01*
X155529501Y-74877316D01*
X155548170Y-74895985D01*
X155550181Y-74899114D01*
X155558555Y-74906370D01*
X155622685Y-74970500D01*
X155642034Y-74981671D01*
X155652291Y-74987593D01*
X155658289Y-74992790D01*
X155672658Y-74999352D01*
X155736813Y-75036392D01*
X155777832Y-75047383D01*
X155788408Y-75052213D01*
X155804483Y-75054524D01*
X155864107Y-75070500D01*
X155864108Y-75070500D01*
X155915595Y-75070500D01*
X155929999Y-75072571D01*
X155944403Y-75070500D01*
X155995890Y-75070500D01*
X155995891Y-75070500D01*
X156055519Y-75054522D01*
X156071590Y-75052213D01*
X156082166Y-75047382D01*
X156123185Y-75036392D01*
X156187345Y-74999348D01*
X156201709Y-74992790D01*
X156207702Y-74987595D01*
X156237313Y-74970500D01*
X156301448Y-74906364D01*
X156309817Y-74899114D01*
X156311825Y-74895987D01*
X156330499Y-74877314D01*
X156396391Y-74763186D01*
X156430499Y-74635892D01*
X156430499Y-74504108D01*
X156396391Y-74376814D01*
X156395774Y-74375746D01*
X156369549Y-74330323D01*
X156330499Y-74262686D01*
X156311827Y-74244014D01*
X156309817Y-74240886D01*
X156301442Y-74233629D01*
X156237312Y-74169499D01*
X156231197Y-74165969D01*
X156207703Y-74152404D01*
X156201709Y-74147210D01*
X156187342Y-74140648D01*
X156182221Y-74137692D01*
X156123185Y-74103608D01*
X156123183Y-74103607D01*
X156092160Y-74095294D01*
X156092160Y-74095293D01*
X156082157Y-74092612D01*
X156071590Y-74087787D01*
X156055525Y-74085477D01*
X156048381Y-74083563D01*
X156048377Y-74083563D01*
X155995892Y-74069500D01*
X155995891Y-74069500D01*
X155944403Y-74069500D01*
X155929999Y-74067429D01*
X155915595Y-74069500D01*
X155864103Y-74069500D01*
X155811615Y-74083563D01*
X155811616Y-74083564D01*
X155804477Y-74085476D01*
X155788408Y-74087787D01*
X155777840Y-74092612D01*
X155767837Y-74095293D01*
X155767834Y-74095295D01*
X155736816Y-74103607D01*
X155736814Y-74103607D01*
X155677767Y-74137697D01*
X155677766Y-74137696D01*
X155672635Y-74140658D01*
X155658289Y-74147210D01*
X155652300Y-74152399D01*
X155642051Y-74158317D01*
X155642044Y-74158323D01*
X155622685Y-74169500D01*
X155622681Y-74169503D01*
X155561676Y-74230506D01*
X155558533Y-74233648D01*
X155550181Y-74240886D01*
X155548175Y-74244006D01*
X155539801Y-74252381D01*
X155529500Y-74262683D01*
X155529498Y-74262685D01*
X155463608Y-74376810D01*
X155463608Y-74376811D01*
X155463608Y-74376812D01*
X155463607Y-74376814D01*
X155429499Y-74504108D01*
X147191368Y-74504108D01*
X147170512Y-74492885D01*
X147124250Y-74473111D01*
X147122413Y-74472255D01*
X146915449Y-74375746D01*
X146915428Y-74375737D01*
X146790657Y-74330322D01*
X146790657Y-74330323D01*
X146787443Y-74329153D01*
X146757760Y-74316466D01*
X146709525Y-74300793D01*
X146707460Y-74300042D01*
X146505105Y-74226392D01*
X146368139Y-74189693D01*
X146368138Y-74189693D01*
X146365014Y-74188856D01*
X146330855Y-74177757D01*
X146281856Y-74166573D01*
X146279612Y-74165972D01*
X146279611Y-74165971D01*
X146083344Y-74113383D01*
X146083346Y-74113383D01*
X146083337Y-74113381D01*
X146046066Y-74106809D01*
X145934557Y-74087146D01*
X145934557Y-74087145D01*
X145931481Y-74086602D01*
X145893234Y-74077873D01*
X145844619Y-74071287D01*
X145842154Y-74070853D01*
X145842146Y-74070852D01*
X145653323Y-74037557D01*
X145493293Y-74023556D01*
X145493292Y-74023556D01*
X145490350Y-74023298D01*
X145448422Y-74017619D01*
X145401206Y-74015498D01*
X145398549Y-74015266D01*
X145398548Y-74015265D01*
X145218332Y-73999500D01*
X145218327Y-73999500D01*
X145044978Y-73999500D01*
X145000000Y-73997480D01*
X144955022Y-73999500D01*
X144781666Y-73999500D01*
X144601448Y-74015265D01*
X144601449Y-74015266D01*
X144598789Y-74015498D01*
X144551578Y-74017619D01*
X144509653Y-74023298D01*
X144506706Y-74023556D01*
X144506705Y-74023555D01*
X144506705Y-74023556D01*
X144346677Y-74037557D01*
X144346675Y-74037557D01*
X144157855Y-74070850D01*
X144157856Y-74070851D01*
X144155375Y-74071288D01*
X144106766Y-74077873D01*
X144068496Y-74086607D01*
X144065427Y-74087149D01*
X143916668Y-74113380D01*
X143916654Y-74113383D01*
X143720397Y-74165969D01*
X143718127Y-74166576D01*
X143669145Y-74177757D01*
X143635015Y-74188846D01*
X143631848Y-74189695D01*
X143631846Y-74189694D01*
X143494902Y-74226391D01*
X143494868Y-74226401D01*
X143292544Y-74300039D01*
X143292545Y-74300040D01*
X143290470Y-74300795D01*
X143242240Y-74316466D01*
X143212560Y-74329151D01*
X143209334Y-74330326D01*
X143209333Y-74330326D01*
X143084561Y-74375741D01*
X143084558Y-74375742D01*
X142877594Y-74472250D01*
X142877595Y-74472251D01*
X142875742Y-74473115D01*
X142829488Y-74492885D01*
X142804448Y-74506359D01*
X142801211Y-74507869D01*
X142801198Y-74507876D01*
X142688826Y-74560276D01*
X142688819Y-74560280D01*
X142478797Y-74681536D01*
X142478796Y-74681537D01*
X142477169Y-74682475D01*
X142434211Y-74705593D01*
X142413863Y-74719023D01*
X142410630Y-74720891D01*
X142410627Y-74720894D01*
X142310669Y-74778606D01*
X142099286Y-74926615D01*
X142099287Y-74926616D01*
X142097835Y-74927632D01*
X142059593Y-74952876D01*
X142043821Y-74965452D01*
X142040650Y-74967674D01*
X141952985Y-75029059D01*
X141741949Y-75206136D01*
X141741950Y-75206137D01*
X141740735Y-75207155D01*
X141708648Y-75232745D01*
X141697225Y-75243666D01*
X141694133Y-75246261D01*
X141694130Y-75246262D01*
X141618510Y-75309716D01*
X141618496Y-75309729D01*
X141409717Y-75518507D01*
X141409716Y-75518507D01*
X141408665Y-75519557D01*
X141384204Y-75542945D01*
X141376788Y-75551432D01*
X141373831Y-75554390D01*
X141373817Y-75554406D01*
X141309740Y-75618484D01*
X141309728Y-75618497D01*
X141105012Y-75862464D01*
X141105013Y-75862465D01*
X141104162Y-75863478D01*
X141088872Y-75880980D01*
X141084965Y-75886356D01*
X141082172Y-75889686D01*
X141029061Y-75952982D01*
X140830283Y-76236865D01*
X140830282Y-76236864D01*
X140829598Y-76237840D01*
X140825031Y-76244127D01*
X140824060Y-76245750D01*
X140821488Y-76249426D01*
X140821486Y-76249429D01*
X140778612Y-76310660D01*
X140778598Y-76310682D01*
X140560280Y-76688819D01*
X140560272Y-76688835D01*
X140375746Y-77084550D01*
X140375740Y-77084565D01*
X140226392Y-77494894D01*
X140113383Y-77916655D01*
X140113379Y-77916672D01*
X140037557Y-78346675D01*
X140037557Y-78346679D01*
X139999500Y-78781669D01*
X89998019Y-78781669D01*
X89998019Y-73359568D01*
X132999500Y-73359568D01*
X132999500Y-73640431D01*
X133030942Y-73919494D01*
X133030945Y-73919513D01*
X133040035Y-73959336D01*
X133040035Y-73959337D01*
X133041398Y-73965312D01*
X133041854Y-73968916D01*
X133045157Y-73981783D01*
X133045529Y-73983410D01*
X133045537Y-73983442D01*
X133093439Y-74193316D01*
X133093440Y-74193318D01*
X133114346Y-74253065D01*
X133116092Y-74258056D01*
X133120008Y-74273306D01*
X133132231Y-74304178D01*
X133133066Y-74306564D01*
X133133066Y-74306566D01*
X133186196Y-74458401D01*
X133186205Y-74458423D01*
X133224167Y-74537251D01*
X133226101Y-74541268D01*
X133235696Y-74565501D01*
X133252429Y-74595938D01*
X133253877Y-74598945D01*
X133253885Y-74598960D01*
X133256008Y-74603368D01*
X133308055Y-74711445D01*
X133308057Y-74711449D01*
X133308059Y-74711452D01*
X133369087Y-74808577D01*
X133369087Y-74808578D01*
X133371020Y-74811654D01*
X133387093Y-74840891D01*
X133404088Y-74864283D01*
X133406314Y-74867825D01*
X133406318Y-74867831D01*
X133457474Y-74949244D01*
X133457477Y-74949248D01*
X133472179Y-74967684D01*
X133549538Y-75064689D01*
X133551275Y-75066868D01*
X133571813Y-75095135D01*
X133585111Y-75109296D01*
X133588234Y-75113212D01*
X133632583Y-75168824D01*
X133770883Y-75307124D01*
X133786940Y-75324223D01*
X133792972Y-75329213D01*
X133831175Y-75367416D01*
X134050752Y-75542523D01*
X134288555Y-75691945D01*
X134541592Y-75813801D01*
X134680686Y-75862472D01*
X134806670Y-75906556D01*
X134806672Y-75906557D01*
X134806676Y-75906557D01*
X134806682Y-75906560D01*
X134866377Y-75920185D01*
X134877661Y-75923852D01*
X134906772Y-75929404D01*
X135080491Y-75969055D01*
X135163872Y-75978449D01*
X135186357Y-75982739D01*
X135221627Y-75984957D01*
X135334541Y-75997679D01*
X135359573Y-76000500D01*
X135468656Y-76000500D01*
X135500000Y-76002472D01*
X135531344Y-76000500D01*
X135640427Y-76000500D01*
X135663332Y-75997918D01*
X135778365Y-75984957D01*
X135813643Y-75982739D01*
X135836123Y-75978450D01*
X135919509Y-75969055D01*
X136093231Y-75929403D01*
X136122339Y-75923852D01*
X136133621Y-75920185D01*
X136193318Y-75906560D01*
X136458408Y-75813801D01*
X136711445Y-75691945D01*
X136949248Y-75542523D01*
X137168825Y-75367416D01*
X137207033Y-75329207D01*
X137213060Y-75324223D01*
X137229100Y-75307140D01*
X137367416Y-75168825D01*
X137414893Y-75109290D01*
X137428187Y-75095135D01*
X137448717Y-75066876D01*
X137542523Y-74949248D01*
X137595904Y-74864291D01*
X137612907Y-74840891D01*
X137628982Y-74811648D01*
X137691945Y-74711445D01*
X137747572Y-74595933D01*
X137764304Y-74565501D01*
X137773898Y-74541266D01*
X137813801Y-74458408D01*
X137867772Y-74304166D01*
X137879992Y-74273306D01*
X137883907Y-74258056D01*
X137906560Y-74193318D01*
X137954840Y-73981787D01*
X137958146Y-73968916D01*
X137958600Y-73965314D01*
X137969055Y-73919509D01*
X138000500Y-73640425D01*
X138000500Y-73359575D01*
X137969055Y-73080491D01*
X137958599Y-73034683D01*
X137958146Y-73031084D01*
X137954839Y-73018207D01*
X137906560Y-72806682D01*
X137906555Y-72806669D01*
X137885657Y-72746946D01*
X137883907Y-72741943D01*
X137879992Y-72726694D01*
X137867769Y-72695825D01*
X137813801Y-72541592D01*
X137775813Y-72462709D01*
X137772273Y-72454627D01*
X137764304Y-72434499D01*
X137764089Y-72434108D01*
X153839299Y-72434108D01*
X153839299Y-72565891D01*
X153873407Y-72693187D01*
X153874908Y-72695786D01*
X153939299Y-72807314D01*
X153939301Y-72807316D01*
X153957970Y-72825985D01*
X153959981Y-72829114D01*
X153968355Y-72836370D01*
X154032485Y-72900500D01*
X154051834Y-72911671D01*
X154062091Y-72917593D01*
X154068089Y-72922790D01*
X154082458Y-72929352D01*
X154146613Y-72966392D01*
X154187632Y-72977383D01*
X154198208Y-72982213D01*
X154214283Y-72984524D01*
X154273907Y-73000500D01*
X154273908Y-73000500D01*
X154325395Y-73000500D01*
X154339799Y-73002571D01*
X154354203Y-73000500D01*
X154405690Y-73000500D01*
X154405691Y-73000500D01*
X154465319Y-72984522D01*
X154481390Y-72982213D01*
X154491966Y-72977382D01*
X154532985Y-72966392D01*
X154597145Y-72929348D01*
X154611509Y-72922790D01*
X154617502Y-72917595D01*
X154647113Y-72900500D01*
X154711248Y-72836364D01*
X154719617Y-72829114D01*
X154721625Y-72825987D01*
X154740299Y-72807314D01*
X154806191Y-72693186D01*
X154840299Y-72565892D01*
X154840299Y-72434108D01*
X154806191Y-72306814D01*
X154740299Y-72192686D01*
X154721627Y-72174014D01*
X154719617Y-72170886D01*
X154711242Y-72163629D01*
X154647112Y-72099499D01*
X154641460Y-72096236D01*
X154617503Y-72082404D01*
X154611509Y-72077210D01*
X154597142Y-72070648D01*
X154592021Y-72067692D01*
X154532985Y-72033608D01*
X154532983Y-72033607D01*
X154501960Y-72025294D01*
X154501960Y-72025293D01*
X154491957Y-72022612D01*
X154481390Y-72017787D01*
X154465325Y-72015477D01*
X154458181Y-72013563D01*
X154458177Y-72013563D01*
X154405692Y-71999500D01*
X154405691Y-71999500D01*
X154354203Y-71999500D01*
X154339799Y-71997429D01*
X154325395Y-71999500D01*
X154273903Y-71999500D01*
X154221415Y-72013563D01*
X154221416Y-72013564D01*
X154214277Y-72015476D01*
X154198208Y-72017787D01*
X154187640Y-72022612D01*
X154177637Y-72025293D01*
X154177634Y-72025295D01*
X154146616Y-72033607D01*
X154146614Y-72033607D01*
X154087567Y-72067697D01*
X154087566Y-72067696D01*
X154082435Y-72070658D01*
X154068089Y-72077210D01*
X154062100Y-72082399D01*
X154051851Y-72088317D01*
X154051844Y-72088323D01*
X154032485Y-72099500D01*
X154032481Y-72099503D01*
X153971476Y-72160506D01*
X153968333Y-72163648D01*
X153959981Y-72170886D01*
X153957975Y-72174006D01*
X153949601Y-72182381D01*
X153939300Y-72192683D01*
X153939298Y-72192685D01*
X153873408Y-72306810D01*
X153873408Y-72306811D01*
X153873408Y-72306812D01*
X153873407Y-72306814D01*
X153848161Y-72401036D01*
X153839299Y-72434108D01*
X137764089Y-72434108D01*
X137749171Y-72406972D01*
X137746116Y-72401041D01*
X137691948Y-72288560D01*
X137691945Y-72288556D01*
X137691945Y-72288555D01*
X137628984Y-72188354D01*
X137612907Y-72159109D01*
X137595901Y-72135703D01*
X137593691Y-72132185D01*
X137593683Y-72132172D01*
X137542521Y-72050749D01*
X137542520Y-72050747D01*
X137450453Y-71935298D01*
X137450453Y-71935299D01*
X137448718Y-71933123D01*
X137428187Y-71904865D01*
X137414893Y-71890709D01*
X137367416Y-71831175D01*
X137229116Y-71692875D01*
X137213060Y-71675777D01*
X137207027Y-71670786D01*
X137168824Y-71632583D01*
X137113060Y-71588113D01*
X136949248Y-71457477D01*
X136711445Y-71308055D01*
X136711442Y-71308053D01*
X136458411Y-71186200D01*
X136193329Y-71093443D01*
X136193320Y-71093440D01*
X136139055Y-71081054D01*
X136139055Y-71081053D01*
X136133611Y-71079810D01*
X136122339Y-71076148D01*
X136093242Y-71070597D01*
X136091045Y-71070096D01*
X135919502Y-71030943D01*
X135919503Y-71030943D01*
X135840834Y-71022080D01*
X135840834Y-71022079D01*
X135836109Y-71021546D01*
X135813643Y-71017261D01*
X135778369Y-71015041D01*
X135775317Y-71014698D01*
X135775313Y-71014698D01*
X135640429Y-70999500D01*
X135640425Y-70999500D01*
X135531329Y-70999500D01*
X135500000Y-70997529D01*
X135468671Y-70999500D01*
X135359570Y-70999500D01*
X135224687Y-71014698D01*
X135224686Y-71014698D01*
X135221637Y-71015041D01*
X135186357Y-71017261D01*
X135163887Y-71021547D01*
X135159168Y-71022079D01*
X135159166Y-71022080D01*
X135080496Y-71030943D01*
X135080493Y-71030944D01*
X134908956Y-71070094D01*
X134908957Y-71070095D01*
X134906743Y-71070600D01*
X134877661Y-71076148D01*
X134866388Y-71079810D01*
X134860963Y-71081049D01*
X134860949Y-71081053D01*
X134806676Y-71093441D01*
X134806670Y-71093443D01*
X134541588Y-71186200D01*
X134288557Y-71308053D01*
X134050753Y-71457476D01*
X133831179Y-71632579D01*
X133797106Y-71666652D01*
X133792965Y-71670791D01*
X133786940Y-71675777D01*
X133770913Y-71692843D01*
X133769514Y-71694243D01*
X133769511Y-71694244D01*
X133632587Y-71831171D01*
X133632584Y-71831174D01*
X133588234Y-71886784D01*
X133588235Y-71886785D01*
X133585101Y-71890713D01*
X133571813Y-71904865D01*
X133551301Y-71933096D01*
X133549545Y-71935299D01*
X133549537Y-71935309D01*
X133457481Y-72050746D01*
X133457466Y-72050767D01*
X133406321Y-72132159D01*
X133406322Y-72132160D01*
X133404078Y-72135730D01*
X133387093Y-72159109D01*
X133371029Y-72188329D01*
X133369087Y-72191420D01*
X133308059Y-72288547D01*
X133308052Y-72288559D01*
X133253884Y-72401036D01*
X133253885Y-72401037D01*
X133252423Y-72404071D01*
X133235696Y-72434499D01*
X133226108Y-72458715D01*
X133224166Y-72462748D01*
X133224162Y-72462760D01*
X133186199Y-72541591D01*
X133186198Y-72541593D01*
X133133062Y-72693445D01*
X133132223Y-72695840D01*
X133120008Y-72726694D01*
X133116096Y-72741926D01*
X133114344Y-72746936D01*
X133093443Y-72806669D01*
X133093439Y-72806683D01*
X133045539Y-73016549D01*
X133045162Y-73018196D01*
X133041854Y-73031084D01*
X133041398Y-73034686D01*
X133040037Y-73040653D01*
X133040036Y-73040660D01*
X133030945Y-73080491D01*
X133030944Y-73080495D01*
X133030943Y-73080502D01*
X132999500Y-73359568D01*
X89998019Y-73359568D01*
X89998019Y-67499998D01*
X122497429Y-67499998D01*
X122498238Y-67505625D01*
X122499500Y-67523273D01*
X122499500Y-67565893D01*
X122513563Y-67618378D01*
X122513563Y-67618379D01*
X122515476Y-67625520D01*
X122517787Y-67641591D01*
X122522613Y-67652158D01*
X122525291Y-67662154D01*
X122525294Y-67662161D01*
X122533607Y-67693184D01*
X122533608Y-67693186D01*
X122567692Y-67752222D01*
X122570648Y-67757343D01*
X122577210Y-67771710D01*
X122582404Y-67777704D01*
X122596236Y-67801661D01*
X122599499Y-67807313D01*
X122663629Y-67871443D01*
X122670886Y-67879818D01*
X122674014Y-67881828D01*
X122692686Y-67900500D01*
X122806814Y-67966392D01*
X122934108Y-68000500D01*
X122999793Y-68000500D01*
X162948136Y-68000500D01*
X162948139Y-68000501D01*
X162999499Y-68000501D01*
X163065889Y-68000501D01*
X163065891Y-68000501D01*
X163193186Y-67966393D01*
X163208697Y-67957437D01*
X163208880Y-67957385D01*
X163209687Y-67956865D01*
X163271797Y-67921006D01*
X163307312Y-67900503D01*
X163307312Y-67900502D01*
X163307311Y-67900502D01*
X163307314Y-67900501D01*
X163325158Y-67882656D01*
X163329279Y-67880009D01*
X163338832Y-67868982D01*
X163400500Y-67807315D01*
X163416937Y-67778844D01*
X163423002Y-67771847D01*
X163430660Y-67755076D01*
X163466393Y-67693186D01*
X163476995Y-67653617D01*
X163482456Y-67641662D01*
X163485068Y-67623486D01*
X163500501Y-67565892D01*
X163500501Y-67516156D01*
X163502824Y-67500000D01*
X163500501Y-67483843D01*
X163500501Y-67434109D01*
X163500500Y-67434104D01*
X163485069Y-67376514D01*
X163482456Y-67358338D01*
X163476994Y-67346378D01*
X163466393Y-67306814D01*
X163466391Y-67306810D01*
X163433616Y-67250042D01*
X163430661Y-67244924D01*
X163423002Y-67228153D01*
X163416936Y-67221152D01*
X163411016Y-67210899D01*
X163411015Y-67210898D01*
X163400500Y-67192685D01*
X163338840Y-67131025D01*
X163329279Y-67119991D01*
X163325156Y-67117341D01*
X163307315Y-67099500D01*
X163307310Y-67099496D01*
X163212267Y-67044623D01*
X163209696Y-67043139D01*
X163208880Y-67042615D01*
X163208691Y-67042559D01*
X163203343Y-67039471D01*
X163193190Y-67033609D01*
X163193188Y-67033608D01*
X163193186Y-67033607D01*
X163065891Y-66999499D01*
X162999999Y-66999499D01*
X162999499Y-66999499D01*
X162948145Y-66999499D01*
X162948136Y-66999500D01*
X123000500Y-66999500D01*
X123000000Y-66999500D01*
X122934108Y-66999500D01*
X122806814Y-67033608D01*
X122806813Y-67033608D01*
X122806811Y-67033609D01*
X122806810Y-67033609D01*
X122692685Y-67099499D01*
X122692683Y-67099501D01*
X122682381Y-67109802D01*
X122674006Y-67118176D01*
X122670886Y-67120182D01*
X122663648Y-67128534D01*
X122660506Y-67131677D01*
X122599503Y-67192682D01*
X122599500Y-67192686D01*
X122588323Y-67212045D01*
X122588322Y-67212045D01*
X122582401Y-67222298D01*
X122577210Y-67228290D01*
X122570657Y-67242639D01*
X122567706Y-67247750D01*
X122567697Y-67247768D01*
X122533607Y-67306815D01*
X122533607Y-67306817D01*
X122525295Y-67337835D01*
X122522614Y-67347837D01*
X122517787Y-67358409D01*
X122515476Y-67374478D01*
X122513564Y-67381616D01*
X122499500Y-67434104D01*
X122499500Y-67476726D01*
X122498238Y-67494371D01*
X122497429Y-67499998D01*
X89998019Y-67499998D01*
X89998019Y-63181692D01*
X89998189Y-63175203D01*
X89998558Y-63168158D01*
X90013590Y-62881335D01*
X90014191Y-62874046D01*
X90021727Y-62807163D01*
X90022459Y-62801761D01*
X90063074Y-62545329D01*
X90064636Y-62537233D01*
X90078239Y-62477633D01*
X90079332Y-62473228D01*
X90148363Y-62215603D01*
X90151068Y-62206833D01*
X90167195Y-62160747D01*
X90168374Y-62157531D01*
X90268656Y-61896288D01*
X90272679Y-61886971D01*
X90283611Y-61864270D01*
X90284722Y-61862028D01*
X90421050Y-61594471D01*
X90427520Y-61583264D01*
X90601722Y-61315018D01*
X90609331Y-61304546D01*
X90810612Y-61055984D01*
X90819279Y-61046359D01*
X91045430Y-60820208D01*
X91055055Y-60811541D01*
X91303618Y-60610259D01*
X91314099Y-60602644D01*
X91582328Y-60428455D01*
X91593543Y-60421979D01*
X91861067Y-60285668D01*
X91863445Y-60284490D01*
X91886024Y-60273617D01*
X91895357Y-60269586D01*
X92156601Y-60169304D01*
X92159901Y-60168094D01*
X92205871Y-60152008D01*
X92214675Y-60149292D01*
X92472398Y-60080236D01*
X92476737Y-60079160D01*
X92536242Y-60065579D01*
X92544390Y-60064005D01*
X92800860Y-60023384D01*
X92806301Y-60022648D01*
X92873048Y-60015127D01*
X92880405Y-60014520D01*
X93133488Y-60001256D01*
X93174333Y-59999116D01*
X93180823Y-59998946D01*
X172414272Y-59998946D01*
X172420761Y-59999115D01*
G37*
%TD.AperFunction*%
M02*
