%TF.GenerationSoftware,KiCad,Pcbnew,9.0.0*%
%TF.CreationDate,2025-03-10T01:27:30-04:00*%
%TF.ProjectId,cinna-chan-light,63696e6e-612d-4636-9861-6e2d6c696768,rev?*%
%TF.SameCoordinates,Original*%
%TF.FileFunction,Legend,Bot*%
%TF.FilePolarity,Positive*%
%FSLAX46Y46*%
G04 Gerber Fmt 4.6, Leading zero omitted, Abs format (unit mm)*
G04 Created by KiCad (PCBNEW 9.0.0) date 2025-03-10 01:27:30*
%MOMM*%
%LPD*%
G01*
G04 APERTURE LIST*
%ADD10C,0.150000*%
%ADD11C,0.120000*%
G04 APERTURE END LIST*
D10*
X154185618Y-103297847D02*
X153518952Y-103297847D01*
X153518952Y-103297847D02*
X153947523Y-104297847D01*
X153233237Y-104297847D02*
X152709428Y-103631180D01*
X153233237Y-103631180D02*
X152709428Y-104297847D01*
X152423713Y-103297847D02*
X151757047Y-103297847D01*
X151757047Y-103297847D02*
X152185618Y-104297847D01*
X151376094Y-104297847D02*
X151376094Y-103631180D01*
X151376094Y-103726418D02*
X151328475Y-103678799D01*
X151328475Y-103678799D02*
X151233237Y-103631180D01*
X151233237Y-103631180D02*
X151090380Y-103631180D01*
X151090380Y-103631180D02*
X150995142Y-103678799D01*
X150995142Y-103678799D02*
X150947523Y-103774037D01*
X150947523Y-103774037D02*
X150947523Y-104297847D01*
X150947523Y-103774037D02*
X150899904Y-103678799D01*
X150899904Y-103678799D02*
X150804666Y-103631180D01*
X150804666Y-103631180D02*
X150661809Y-103631180D01*
X150661809Y-103631180D02*
X150566570Y-103678799D01*
X150566570Y-103678799D02*
X150518951Y-103774037D01*
X150518951Y-103774037D02*
X150518951Y-104297847D01*
X150042761Y-104297847D02*
X150042761Y-103631180D01*
X150042761Y-103726418D02*
X149995142Y-103678799D01*
X149995142Y-103678799D02*
X149899904Y-103631180D01*
X149899904Y-103631180D02*
X149757047Y-103631180D01*
X149757047Y-103631180D02*
X149661809Y-103678799D01*
X149661809Y-103678799D02*
X149614190Y-103774037D01*
X149614190Y-103774037D02*
X149614190Y-104297847D01*
X149614190Y-103774037D02*
X149566571Y-103678799D01*
X149566571Y-103678799D02*
X149471333Y-103631180D01*
X149471333Y-103631180D02*
X149328476Y-103631180D01*
X149328476Y-103631180D02*
X149233237Y-103678799D01*
X149233237Y-103678799D02*
X149185618Y-103774037D01*
X149185618Y-103774037D02*
X149185618Y-104297847D01*
X153733237Y-104907791D02*
X153637999Y-104907791D01*
X153637999Y-104907791D02*
X153542761Y-104955410D01*
X153542761Y-104955410D02*
X153495142Y-105003029D01*
X153495142Y-105003029D02*
X153447523Y-105098267D01*
X153447523Y-105098267D02*
X153399904Y-105288743D01*
X153399904Y-105288743D02*
X153399904Y-105526838D01*
X153399904Y-105526838D02*
X153447523Y-105717314D01*
X153447523Y-105717314D02*
X153495142Y-105812552D01*
X153495142Y-105812552D02*
X153542761Y-105860172D01*
X153542761Y-105860172D02*
X153637999Y-105907791D01*
X153637999Y-105907791D02*
X153733237Y-105907791D01*
X153733237Y-105907791D02*
X153828475Y-105860172D01*
X153828475Y-105860172D02*
X153876094Y-105812552D01*
X153876094Y-105812552D02*
X153923713Y-105717314D01*
X153923713Y-105717314D02*
X153971332Y-105526838D01*
X153971332Y-105526838D02*
X153971332Y-105288743D01*
X153971332Y-105288743D02*
X153923713Y-105098267D01*
X153923713Y-105098267D02*
X153876094Y-105003029D01*
X153876094Y-105003029D02*
X153828475Y-104955410D01*
X153828475Y-104955410D02*
X153733237Y-104907791D01*
X152971332Y-105812552D02*
X152923713Y-105860172D01*
X152923713Y-105860172D02*
X152971332Y-105907791D01*
X152971332Y-105907791D02*
X153018951Y-105860172D01*
X153018951Y-105860172D02*
X152971332Y-105812552D01*
X152971332Y-105812552D02*
X152971332Y-105907791D01*
X152590380Y-104907791D02*
X151923714Y-104907791D01*
X151923714Y-104907791D02*
X152352285Y-105907791D01*
X151542761Y-105907791D02*
X151542761Y-105241124D01*
X151542761Y-105336362D02*
X151495142Y-105288743D01*
X151495142Y-105288743D02*
X151399904Y-105241124D01*
X151399904Y-105241124D02*
X151257047Y-105241124D01*
X151257047Y-105241124D02*
X151161809Y-105288743D01*
X151161809Y-105288743D02*
X151114190Y-105383981D01*
X151114190Y-105383981D02*
X151114190Y-105907791D01*
X151114190Y-105383981D02*
X151066571Y-105288743D01*
X151066571Y-105288743D02*
X150971333Y-105241124D01*
X150971333Y-105241124D02*
X150828476Y-105241124D01*
X150828476Y-105241124D02*
X150733237Y-105288743D01*
X150733237Y-105288743D02*
X150685618Y-105383981D01*
X150685618Y-105383981D02*
X150685618Y-105907791D01*
X150209428Y-105907791D02*
X150209428Y-105241124D01*
X150209428Y-105336362D02*
X150161809Y-105288743D01*
X150161809Y-105288743D02*
X150066571Y-105241124D01*
X150066571Y-105241124D02*
X149923714Y-105241124D01*
X149923714Y-105241124D02*
X149828476Y-105288743D01*
X149828476Y-105288743D02*
X149780857Y-105383981D01*
X149780857Y-105383981D02*
X149780857Y-105907791D01*
X149780857Y-105383981D02*
X149733238Y-105288743D01*
X149733238Y-105288743D02*
X149638000Y-105241124D01*
X149638000Y-105241124D02*
X149495143Y-105241124D01*
X149495143Y-105241124D02*
X149399904Y-105288743D01*
X149399904Y-105288743D02*
X149352285Y-105383981D01*
X149352285Y-105383981D02*
X149352285Y-105907791D01*
X166242857Y-86846819D02*
X166814285Y-86846819D01*
X166528571Y-86846819D02*
X166528571Y-85846819D01*
X166528571Y-85846819D02*
X166623809Y-85989676D01*
X166623809Y-85989676D02*
X166719047Y-86084914D01*
X166719047Y-86084914D02*
X166814285Y-86132533D01*
X165861904Y-85942057D02*
X165814285Y-85894438D01*
X165814285Y-85894438D02*
X165719047Y-85846819D01*
X165719047Y-85846819D02*
X165480952Y-85846819D01*
X165480952Y-85846819D02*
X165385714Y-85894438D01*
X165385714Y-85894438D02*
X165338095Y-85942057D01*
X165338095Y-85942057D02*
X165290476Y-86037295D01*
X165290476Y-86037295D02*
X165290476Y-86132533D01*
X165290476Y-86132533D02*
X165338095Y-86275390D01*
X165338095Y-86275390D02*
X165909523Y-86846819D01*
X165909523Y-86846819D02*
X165290476Y-86846819D01*
X164671428Y-85846819D02*
X164576190Y-85846819D01*
X164576190Y-85846819D02*
X164480952Y-85894438D01*
X164480952Y-85894438D02*
X164433333Y-85942057D01*
X164433333Y-85942057D02*
X164385714Y-86037295D01*
X164385714Y-86037295D02*
X164338095Y-86227771D01*
X164338095Y-86227771D02*
X164338095Y-86465866D01*
X164338095Y-86465866D02*
X164385714Y-86656342D01*
X164385714Y-86656342D02*
X164433333Y-86751580D01*
X164433333Y-86751580D02*
X164480952Y-86799200D01*
X164480952Y-86799200D02*
X164576190Y-86846819D01*
X164576190Y-86846819D02*
X164671428Y-86846819D01*
X164671428Y-86846819D02*
X164766666Y-86799200D01*
X164766666Y-86799200D02*
X164814285Y-86751580D01*
X164814285Y-86751580D02*
X164861904Y-86656342D01*
X164861904Y-86656342D02*
X164909523Y-86465866D01*
X164909523Y-86465866D02*
X164909523Y-86227771D01*
X164909523Y-86227771D02*
X164861904Y-86037295D01*
X164861904Y-86037295D02*
X164814285Y-85942057D01*
X164814285Y-85942057D02*
X164766666Y-85894438D01*
X164766666Y-85894438D02*
X164671428Y-85846819D01*
X163480952Y-85846819D02*
X163671428Y-85846819D01*
X163671428Y-85846819D02*
X163766666Y-85894438D01*
X163766666Y-85894438D02*
X163814285Y-85942057D01*
X163814285Y-85942057D02*
X163909523Y-86084914D01*
X163909523Y-86084914D02*
X163957142Y-86275390D01*
X163957142Y-86275390D02*
X163957142Y-86656342D01*
X163957142Y-86656342D02*
X163909523Y-86751580D01*
X163909523Y-86751580D02*
X163861904Y-86799200D01*
X163861904Y-86799200D02*
X163766666Y-86846819D01*
X163766666Y-86846819D02*
X163576190Y-86846819D01*
X163576190Y-86846819D02*
X163480952Y-86799200D01*
X163480952Y-86799200D02*
X163433333Y-86751580D01*
X163433333Y-86751580D02*
X163385714Y-86656342D01*
X163385714Y-86656342D02*
X163385714Y-86418247D01*
X163385714Y-86418247D02*
X163433333Y-86323009D01*
X163433333Y-86323009D02*
X163480952Y-86275390D01*
X163480952Y-86275390D02*
X163576190Y-86227771D01*
X163576190Y-86227771D02*
X163766666Y-86227771D01*
X163766666Y-86227771D02*
X163861904Y-86275390D01*
X163861904Y-86275390D02*
X163909523Y-86323009D01*
X163909523Y-86323009D02*
X163957142Y-86418247D01*
X166576190Y-90196819D02*
X166480952Y-90196819D01*
X166480952Y-90196819D02*
X166385714Y-90244438D01*
X166385714Y-90244438D02*
X166338095Y-90292057D01*
X166338095Y-90292057D02*
X166290476Y-90387295D01*
X166290476Y-90387295D02*
X166242857Y-90577771D01*
X166242857Y-90577771D02*
X166242857Y-90815866D01*
X166242857Y-90815866D02*
X166290476Y-91006342D01*
X166290476Y-91006342D02*
X166338095Y-91101580D01*
X166338095Y-91101580D02*
X166385714Y-91149200D01*
X166385714Y-91149200D02*
X166480952Y-91196819D01*
X166480952Y-91196819D02*
X166576190Y-91196819D01*
X166576190Y-91196819D02*
X166671428Y-91149200D01*
X166671428Y-91149200D02*
X166719047Y-91101580D01*
X166719047Y-91101580D02*
X166766666Y-91006342D01*
X166766666Y-91006342D02*
X166814285Y-90815866D01*
X166814285Y-90815866D02*
X166814285Y-90577771D01*
X166814285Y-90577771D02*
X166766666Y-90387295D01*
X166766666Y-90387295D02*
X166719047Y-90292057D01*
X166719047Y-90292057D02*
X166671428Y-90244438D01*
X166671428Y-90244438D02*
X166576190Y-90196819D01*
X165671428Y-90625390D02*
X165766666Y-90577771D01*
X165766666Y-90577771D02*
X165814285Y-90530152D01*
X165814285Y-90530152D02*
X165861904Y-90434914D01*
X165861904Y-90434914D02*
X165861904Y-90387295D01*
X165861904Y-90387295D02*
X165814285Y-90292057D01*
X165814285Y-90292057D02*
X165766666Y-90244438D01*
X165766666Y-90244438D02*
X165671428Y-90196819D01*
X165671428Y-90196819D02*
X165480952Y-90196819D01*
X165480952Y-90196819D02*
X165385714Y-90244438D01*
X165385714Y-90244438D02*
X165338095Y-90292057D01*
X165338095Y-90292057D02*
X165290476Y-90387295D01*
X165290476Y-90387295D02*
X165290476Y-90434914D01*
X165290476Y-90434914D02*
X165338095Y-90530152D01*
X165338095Y-90530152D02*
X165385714Y-90577771D01*
X165385714Y-90577771D02*
X165480952Y-90625390D01*
X165480952Y-90625390D02*
X165671428Y-90625390D01*
X165671428Y-90625390D02*
X165766666Y-90673009D01*
X165766666Y-90673009D02*
X165814285Y-90720628D01*
X165814285Y-90720628D02*
X165861904Y-90815866D01*
X165861904Y-90815866D02*
X165861904Y-91006342D01*
X165861904Y-91006342D02*
X165814285Y-91101580D01*
X165814285Y-91101580D02*
X165766666Y-91149200D01*
X165766666Y-91149200D02*
X165671428Y-91196819D01*
X165671428Y-91196819D02*
X165480952Y-91196819D01*
X165480952Y-91196819D02*
X165385714Y-91149200D01*
X165385714Y-91149200D02*
X165338095Y-91101580D01*
X165338095Y-91101580D02*
X165290476Y-91006342D01*
X165290476Y-91006342D02*
X165290476Y-90815866D01*
X165290476Y-90815866D02*
X165338095Y-90720628D01*
X165338095Y-90720628D02*
X165385714Y-90673009D01*
X165385714Y-90673009D02*
X165480952Y-90625390D01*
X164671428Y-90196819D02*
X164576190Y-90196819D01*
X164576190Y-90196819D02*
X164480952Y-90244438D01*
X164480952Y-90244438D02*
X164433333Y-90292057D01*
X164433333Y-90292057D02*
X164385714Y-90387295D01*
X164385714Y-90387295D02*
X164338095Y-90577771D01*
X164338095Y-90577771D02*
X164338095Y-90815866D01*
X164338095Y-90815866D02*
X164385714Y-91006342D01*
X164385714Y-91006342D02*
X164433333Y-91101580D01*
X164433333Y-91101580D02*
X164480952Y-91149200D01*
X164480952Y-91149200D02*
X164576190Y-91196819D01*
X164576190Y-91196819D02*
X164671428Y-91196819D01*
X164671428Y-91196819D02*
X164766666Y-91149200D01*
X164766666Y-91149200D02*
X164814285Y-91101580D01*
X164814285Y-91101580D02*
X164861904Y-91006342D01*
X164861904Y-91006342D02*
X164909523Y-90815866D01*
X164909523Y-90815866D02*
X164909523Y-90577771D01*
X164909523Y-90577771D02*
X164861904Y-90387295D01*
X164861904Y-90387295D02*
X164814285Y-90292057D01*
X164814285Y-90292057D02*
X164766666Y-90244438D01*
X164766666Y-90244438D02*
X164671428Y-90196819D01*
X163433333Y-90196819D02*
X163909523Y-90196819D01*
X163909523Y-90196819D02*
X163957142Y-90673009D01*
X163957142Y-90673009D02*
X163909523Y-90625390D01*
X163909523Y-90625390D02*
X163814285Y-90577771D01*
X163814285Y-90577771D02*
X163576190Y-90577771D01*
X163576190Y-90577771D02*
X163480952Y-90625390D01*
X163480952Y-90625390D02*
X163433333Y-90673009D01*
X163433333Y-90673009D02*
X163385714Y-90768247D01*
X163385714Y-90768247D02*
X163385714Y-91006342D01*
X163385714Y-91006342D02*
X163433333Y-91101580D01*
X163433333Y-91101580D02*
X163480952Y-91149200D01*
X163480952Y-91149200D02*
X163576190Y-91196819D01*
X163576190Y-91196819D02*
X163814285Y-91196819D01*
X163814285Y-91196819D02*
X163909523Y-91149200D01*
X163909523Y-91149200D02*
X163957142Y-91101580D01*
X162076190Y-85846819D02*
X161980952Y-85846819D01*
X161980952Y-85846819D02*
X161885714Y-85894438D01*
X161885714Y-85894438D02*
X161838095Y-85942057D01*
X161838095Y-85942057D02*
X161790476Y-86037295D01*
X161790476Y-86037295D02*
X161742857Y-86227771D01*
X161742857Y-86227771D02*
X161742857Y-86465866D01*
X161742857Y-86465866D02*
X161790476Y-86656342D01*
X161790476Y-86656342D02*
X161838095Y-86751580D01*
X161838095Y-86751580D02*
X161885714Y-86799200D01*
X161885714Y-86799200D02*
X161980952Y-86846819D01*
X161980952Y-86846819D02*
X162076190Y-86846819D01*
X162076190Y-86846819D02*
X162171428Y-86799200D01*
X162171428Y-86799200D02*
X162219047Y-86751580D01*
X162219047Y-86751580D02*
X162266666Y-86656342D01*
X162266666Y-86656342D02*
X162314285Y-86465866D01*
X162314285Y-86465866D02*
X162314285Y-86227771D01*
X162314285Y-86227771D02*
X162266666Y-86037295D01*
X162266666Y-86037295D02*
X162219047Y-85942057D01*
X162219047Y-85942057D02*
X162171428Y-85894438D01*
X162171428Y-85894438D02*
X162076190Y-85846819D01*
X160885714Y-85846819D02*
X161076190Y-85846819D01*
X161076190Y-85846819D02*
X161171428Y-85894438D01*
X161171428Y-85894438D02*
X161219047Y-85942057D01*
X161219047Y-85942057D02*
X161314285Y-86084914D01*
X161314285Y-86084914D02*
X161361904Y-86275390D01*
X161361904Y-86275390D02*
X161361904Y-86656342D01*
X161361904Y-86656342D02*
X161314285Y-86751580D01*
X161314285Y-86751580D02*
X161266666Y-86799200D01*
X161266666Y-86799200D02*
X161171428Y-86846819D01*
X161171428Y-86846819D02*
X160980952Y-86846819D01*
X160980952Y-86846819D02*
X160885714Y-86799200D01*
X160885714Y-86799200D02*
X160838095Y-86751580D01*
X160838095Y-86751580D02*
X160790476Y-86656342D01*
X160790476Y-86656342D02*
X160790476Y-86418247D01*
X160790476Y-86418247D02*
X160838095Y-86323009D01*
X160838095Y-86323009D02*
X160885714Y-86275390D01*
X160885714Y-86275390D02*
X160980952Y-86227771D01*
X160980952Y-86227771D02*
X161171428Y-86227771D01*
X161171428Y-86227771D02*
X161266666Y-86275390D01*
X161266666Y-86275390D02*
X161314285Y-86323009D01*
X161314285Y-86323009D02*
X161361904Y-86418247D01*
X160171428Y-85846819D02*
X160076190Y-85846819D01*
X160076190Y-85846819D02*
X159980952Y-85894438D01*
X159980952Y-85894438D02*
X159933333Y-85942057D01*
X159933333Y-85942057D02*
X159885714Y-86037295D01*
X159885714Y-86037295D02*
X159838095Y-86227771D01*
X159838095Y-86227771D02*
X159838095Y-86465866D01*
X159838095Y-86465866D02*
X159885714Y-86656342D01*
X159885714Y-86656342D02*
X159933333Y-86751580D01*
X159933333Y-86751580D02*
X159980952Y-86799200D01*
X159980952Y-86799200D02*
X160076190Y-86846819D01*
X160076190Y-86846819D02*
X160171428Y-86846819D01*
X160171428Y-86846819D02*
X160266666Y-86799200D01*
X160266666Y-86799200D02*
X160314285Y-86751580D01*
X160314285Y-86751580D02*
X160361904Y-86656342D01*
X160361904Y-86656342D02*
X160409523Y-86465866D01*
X160409523Y-86465866D02*
X160409523Y-86227771D01*
X160409523Y-86227771D02*
X160361904Y-86037295D01*
X160361904Y-86037295D02*
X160314285Y-85942057D01*
X160314285Y-85942057D02*
X160266666Y-85894438D01*
X160266666Y-85894438D02*
X160171428Y-85846819D01*
X159504761Y-85846819D02*
X158885714Y-85846819D01*
X158885714Y-85846819D02*
X159219047Y-86227771D01*
X159219047Y-86227771D02*
X159076190Y-86227771D01*
X159076190Y-86227771D02*
X158980952Y-86275390D01*
X158980952Y-86275390D02*
X158933333Y-86323009D01*
X158933333Y-86323009D02*
X158885714Y-86418247D01*
X158885714Y-86418247D02*
X158885714Y-86656342D01*
X158885714Y-86656342D02*
X158933333Y-86751580D01*
X158933333Y-86751580D02*
X158980952Y-86799200D01*
X158980952Y-86799200D02*
X159076190Y-86846819D01*
X159076190Y-86846819D02*
X159361904Y-86846819D01*
X159361904Y-86846819D02*
X159457142Y-86799200D01*
X159457142Y-86799200D02*
X159504761Y-86751580D01*
X162076190Y-90346819D02*
X161980952Y-90346819D01*
X161980952Y-90346819D02*
X161885714Y-90394438D01*
X161885714Y-90394438D02*
X161838095Y-90442057D01*
X161838095Y-90442057D02*
X161790476Y-90537295D01*
X161790476Y-90537295D02*
X161742857Y-90727771D01*
X161742857Y-90727771D02*
X161742857Y-90965866D01*
X161742857Y-90965866D02*
X161790476Y-91156342D01*
X161790476Y-91156342D02*
X161838095Y-91251580D01*
X161838095Y-91251580D02*
X161885714Y-91299200D01*
X161885714Y-91299200D02*
X161980952Y-91346819D01*
X161980952Y-91346819D02*
X162076190Y-91346819D01*
X162076190Y-91346819D02*
X162171428Y-91299200D01*
X162171428Y-91299200D02*
X162219047Y-91251580D01*
X162219047Y-91251580D02*
X162266666Y-91156342D01*
X162266666Y-91156342D02*
X162314285Y-90965866D01*
X162314285Y-90965866D02*
X162314285Y-90727771D01*
X162314285Y-90727771D02*
X162266666Y-90537295D01*
X162266666Y-90537295D02*
X162219047Y-90442057D01*
X162219047Y-90442057D02*
X162171428Y-90394438D01*
X162171428Y-90394438D02*
X162076190Y-90346819D01*
X160885714Y-90680152D02*
X160885714Y-91346819D01*
X161123809Y-90299200D02*
X161361904Y-91013485D01*
X161361904Y-91013485D02*
X160742857Y-91013485D01*
X160171428Y-90346819D02*
X160076190Y-90346819D01*
X160076190Y-90346819D02*
X159980952Y-90394438D01*
X159980952Y-90394438D02*
X159933333Y-90442057D01*
X159933333Y-90442057D02*
X159885714Y-90537295D01*
X159885714Y-90537295D02*
X159838095Y-90727771D01*
X159838095Y-90727771D02*
X159838095Y-90965866D01*
X159838095Y-90965866D02*
X159885714Y-91156342D01*
X159885714Y-91156342D02*
X159933333Y-91251580D01*
X159933333Y-91251580D02*
X159980952Y-91299200D01*
X159980952Y-91299200D02*
X160076190Y-91346819D01*
X160076190Y-91346819D02*
X160171428Y-91346819D01*
X160171428Y-91346819D02*
X160266666Y-91299200D01*
X160266666Y-91299200D02*
X160314285Y-91251580D01*
X160314285Y-91251580D02*
X160361904Y-91156342D01*
X160361904Y-91156342D02*
X160409523Y-90965866D01*
X160409523Y-90965866D02*
X160409523Y-90727771D01*
X160409523Y-90727771D02*
X160361904Y-90537295D01*
X160361904Y-90537295D02*
X160314285Y-90442057D01*
X160314285Y-90442057D02*
X160266666Y-90394438D01*
X160266666Y-90394438D02*
X160171428Y-90346819D01*
X159457142Y-90442057D02*
X159409523Y-90394438D01*
X159409523Y-90394438D02*
X159314285Y-90346819D01*
X159314285Y-90346819D02*
X159076190Y-90346819D01*
X159076190Y-90346819D02*
X158980952Y-90394438D01*
X158980952Y-90394438D02*
X158933333Y-90442057D01*
X158933333Y-90442057D02*
X158885714Y-90537295D01*
X158885714Y-90537295D02*
X158885714Y-90632533D01*
X158885714Y-90632533D02*
X158933333Y-90775390D01*
X158933333Y-90775390D02*
X159504761Y-91346819D01*
X159504761Y-91346819D02*
X158885714Y-91346819D01*
X164059904Y-98768819D02*
X163488476Y-98768819D01*
X163774190Y-99768819D02*
X163774190Y-98768819D01*
X163202761Y-99721200D02*
X163059904Y-99768819D01*
X163059904Y-99768819D02*
X162821809Y-99768819D01*
X162821809Y-99768819D02*
X162726571Y-99721200D01*
X162726571Y-99721200D02*
X162678952Y-99673580D01*
X162678952Y-99673580D02*
X162631333Y-99578342D01*
X162631333Y-99578342D02*
X162631333Y-99483104D01*
X162631333Y-99483104D02*
X162678952Y-99387866D01*
X162678952Y-99387866D02*
X162726571Y-99340247D01*
X162726571Y-99340247D02*
X162821809Y-99292628D01*
X162821809Y-99292628D02*
X163012285Y-99245009D01*
X163012285Y-99245009D02*
X163107523Y-99197390D01*
X163107523Y-99197390D02*
X163155142Y-99149771D01*
X163155142Y-99149771D02*
X163202761Y-99054533D01*
X163202761Y-99054533D02*
X163202761Y-98959295D01*
X163202761Y-98959295D02*
X163155142Y-98864057D01*
X163155142Y-98864057D02*
X163107523Y-98816438D01*
X163107523Y-98816438D02*
X163012285Y-98768819D01*
X163012285Y-98768819D02*
X162774190Y-98768819D01*
X162774190Y-98768819D02*
X162631333Y-98816438D01*
X162250380Y-99721200D02*
X162107523Y-99768819D01*
X162107523Y-99768819D02*
X161869428Y-99768819D01*
X161869428Y-99768819D02*
X161774190Y-99721200D01*
X161774190Y-99721200D02*
X161726571Y-99673580D01*
X161726571Y-99673580D02*
X161678952Y-99578342D01*
X161678952Y-99578342D02*
X161678952Y-99483104D01*
X161678952Y-99483104D02*
X161726571Y-99387866D01*
X161726571Y-99387866D02*
X161774190Y-99340247D01*
X161774190Y-99340247D02*
X161869428Y-99292628D01*
X161869428Y-99292628D02*
X162059904Y-99245009D01*
X162059904Y-99245009D02*
X162155142Y-99197390D01*
X162155142Y-99197390D02*
X162202761Y-99149771D01*
X162202761Y-99149771D02*
X162250380Y-99054533D01*
X162250380Y-99054533D02*
X162250380Y-98959295D01*
X162250380Y-98959295D02*
X162202761Y-98864057D01*
X162202761Y-98864057D02*
X162155142Y-98816438D01*
X162155142Y-98816438D02*
X162059904Y-98768819D01*
X162059904Y-98768819D02*
X161821809Y-98768819D01*
X161821809Y-98768819D02*
X161678952Y-98816438D01*
X161059904Y-98768819D02*
X160869428Y-98768819D01*
X160869428Y-98768819D02*
X160774190Y-98816438D01*
X160774190Y-98816438D02*
X160678952Y-98911676D01*
X160678952Y-98911676D02*
X160631333Y-99102152D01*
X160631333Y-99102152D02*
X160631333Y-99435485D01*
X160631333Y-99435485D02*
X160678952Y-99625961D01*
X160678952Y-99625961D02*
X160774190Y-99721200D01*
X160774190Y-99721200D02*
X160869428Y-99768819D01*
X160869428Y-99768819D02*
X161059904Y-99768819D01*
X161059904Y-99768819D02*
X161155142Y-99721200D01*
X161155142Y-99721200D02*
X161250380Y-99625961D01*
X161250380Y-99625961D02*
X161297999Y-99435485D01*
X161297999Y-99435485D02*
X161297999Y-99102152D01*
X161297999Y-99102152D02*
X161250380Y-98911676D01*
X161250380Y-98911676D02*
X161155142Y-98816438D01*
X161155142Y-98816438D02*
X161059904Y-98768819D01*
X160202761Y-99768819D02*
X160202761Y-98768819D01*
X160202761Y-98768819D02*
X159821809Y-98768819D01*
X159821809Y-98768819D02*
X159726571Y-98816438D01*
X159726571Y-98816438D02*
X159678952Y-98864057D01*
X159678952Y-98864057D02*
X159631333Y-98959295D01*
X159631333Y-98959295D02*
X159631333Y-99102152D01*
X159631333Y-99102152D02*
X159678952Y-99197390D01*
X159678952Y-99197390D02*
X159726571Y-99245009D01*
X159726571Y-99245009D02*
X159821809Y-99292628D01*
X159821809Y-99292628D02*
X160202761Y-99292628D01*
X125523713Y-104349200D02*
X125380856Y-104396819D01*
X125380856Y-104396819D02*
X125142761Y-104396819D01*
X125142761Y-104396819D02*
X125047523Y-104349200D01*
X125047523Y-104349200D02*
X124999904Y-104301580D01*
X124999904Y-104301580D02*
X124952285Y-104206342D01*
X124952285Y-104206342D02*
X124952285Y-104111104D01*
X124952285Y-104111104D02*
X124999904Y-104015866D01*
X124999904Y-104015866D02*
X125047523Y-103968247D01*
X125047523Y-103968247D02*
X125142761Y-103920628D01*
X125142761Y-103920628D02*
X125333237Y-103873009D01*
X125333237Y-103873009D02*
X125428475Y-103825390D01*
X125428475Y-103825390D02*
X125476094Y-103777771D01*
X125476094Y-103777771D02*
X125523713Y-103682533D01*
X125523713Y-103682533D02*
X125523713Y-103587295D01*
X125523713Y-103587295D02*
X125476094Y-103492057D01*
X125476094Y-103492057D02*
X125428475Y-103444438D01*
X125428475Y-103444438D02*
X125333237Y-103396819D01*
X125333237Y-103396819D02*
X125095142Y-103396819D01*
X125095142Y-103396819D02*
X124952285Y-103444438D01*
X124523713Y-104396819D02*
X124523713Y-103396819D01*
X124523713Y-103396819D02*
X124190380Y-104111104D01*
X124190380Y-104111104D02*
X123857047Y-103396819D01*
X123857047Y-103396819D02*
X123857047Y-104396819D01*
X123428475Y-104111104D02*
X122952285Y-104111104D01*
X123523713Y-104396819D02*
X123190380Y-103396819D01*
X123190380Y-103396819D02*
X122857047Y-104396819D01*
X124645200Y-106084857D02*
X124692819Y-106227714D01*
X124692819Y-106227714D02*
X124692819Y-106465809D01*
X124692819Y-106465809D02*
X124645200Y-106561047D01*
X124645200Y-106561047D02*
X124597580Y-106608666D01*
X124597580Y-106608666D02*
X124502342Y-106656285D01*
X124502342Y-106656285D02*
X124407104Y-106656285D01*
X124407104Y-106656285D02*
X124311866Y-106608666D01*
X124311866Y-106608666D02*
X124264247Y-106561047D01*
X124264247Y-106561047D02*
X124216628Y-106465809D01*
X124216628Y-106465809D02*
X124169009Y-106275333D01*
X124169009Y-106275333D02*
X124121390Y-106180095D01*
X124121390Y-106180095D02*
X124073771Y-106132476D01*
X124073771Y-106132476D02*
X123978533Y-106084857D01*
X123978533Y-106084857D02*
X123883295Y-106084857D01*
X123883295Y-106084857D02*
X123788057Y-106132476D01*
X123788057Y-106132476D02*
X123740438Y-106180095D01*
X123740438Y-106180095D02*
X123692819Y-106275333D01*
X123692819Y-106275333D02*
X123692819Y-106513428D01*
X123692819Y-106513428D02*
X123740438Y-106656285D01*
X124692819Y-107084857D02*
X123692819Y-107084857D01*
X123692819Y-107084857D02*
X124407104Y-107418190D01*
X124407104Y-107418190D02*
X123692819Y-107751523D01*
X123692819Y-107751523D02*
X124692819Y-107751523D01*
X124169009Y-108561047D02*
X124216628Y-108703904D01*
X124216628Y-108703904D02*
X124264247Y-108751523D01*
X124264247Y-108751523D02*
X124359485Y-108799142D01*
X124359485Y-108799142D02*
X124502342Y-108799142D01*
X124502342Y-108799142D02*
X124597580Y-108751523D01*
X124597580Y-108751523D02*
X124645200Y-108703904D01*
X124645200Y-108703904D02*
X124692819Y-108608666D01*
X124692819Y-108608666D02*
X124692819Y-108227714D01*
X124692819Y-108227714D02*
X123692819Y-108227714D01*
X123692819Y-108227714D02*
X123692819Y-108561047D01*
X123692819Y-108561047D02*
X123740438Y-108656285D01*
X123740438Y-108656285D02*
X123788057Y-108703904D01*
X123788057Y-108703904D02*
X123883295Y-108751523D01*
X123883295Y-108751523D02*
X123978533Y-108751523D01*
X123978533Y-108751523D02*
X124073771Y-108703904D01*
X124073771Y-108703904D02*
X124121390Y-108656285D01*
X124121390Y-108656285D02*
X124169009Y-108561047D01*
X124169009Y-108561047D02*
X124169009Y-108227714D01*
X135969047Y-98705200D02*
X135826190Y-98752819D01*
X135826190Y-98752819D02*
X135588095Y-98752819D01*
X135588095Y-98752819D02*
X135492857Y-98705200D01*
X135492857Y-98705200D02*
X135445238Y-98657580D01*
X135445238Y-98657580D02*
X135397619Y-98562342D01*
X135397619Y-98562342D02*
X135397619Y-98467104D01*
X135397619Y-98467104D02*
X135445238Y-98371866D01*
X135445238Y-98371866D02*
X135492857Y-98324247D01*
X135492857Y-98324247D02*
X135588095Y-98276628D01*
X135588095Y-98276628D02*
X135778571Y-98229009D01*
X135778571Y-98229009D02*
X135873809Y-98181390D01*
X135873809Y-98181390D02*
X135921428Y-98133771D01*
X135921428Y-98133771D02*
X135969047Y-98038533D01*
X135969047Y-98038533D02*
X135969047Y-97943295D01*
X135969047Y-97943295D02*
X135921428Y-97848057D01*
X135921428Y-97848057D02*
X135873809Y-97800438D01*
X135873809Y-97800438D02*
X135778571Y-97752819D01*
X135778571Y-97752819D02*
X135540476Y-97752819D01*
X135540476Y-97752819D02*
X135397619Y-97800438D01*
X134778571Y-97752819D02*
X134588095Y-97752819D01*
X134588095Y-97752819D02*
X134492857Y-97800438D01*
X134492857Y-97800438D02*
X134397619Y-97895676D01*
X134397619Y-97895676D02*
X134350000Y-98086152D01*
X134350000Y-98086152D02*
X134350000Y-98419485D01*
X134350000Y-98419485D02*
X134397619Y-98609961D01*
X134397619Y-98609961D02*
X134492857Y-98705200D01*
X134492857Y-98705200D02*
X134588095Y-98752819D01*
X134588095Y-98752819D02*
X134778571Y-98752819D01*
X134778571Y-98752819D02*
X134873809Y-98705200D01*
X134873809Y-98705200D02*
X134969047Y-98609961D01*
X134969047Y-98609961D02*
X135016666Y-98419485D01*
X135016666Y-98419485D02*
X135016666Y-98086152D01*
X135016666Y-98086152D02*
X134969047Y-97895676D01*
X134969047Y-97895676D02*
X134873809Y-97800438D01*
X134873809Y-97800438D02*
X134778571Y-97752819D01*
X134064285Y-97752819D02*
X133492857Y-97752819D01*
X133778571Y-98752819D02*
X133778571Y-97752819D01*
X133207142Y-97848057D02*
X133159523Y-97800438D01*
X133159523Y-97800438D02*
X133064285Y-97752819D01*
X133064285Y-97752819D02*
X132826190Y-97752819D01*
X132826190Y-97752819D02*
X132730952Y-97800438D01*
X132730952Y-97800438D02*
X132683333Y-97848057D01*
X132683333Y-97848057D02*
X132635714Y-97943295D01*
X132635714Y-97943295D02*
X132635714Y-98038533D01*
X132635714Y-98038533D02*
X132683333Y-98181390D01*
X132683333Y-98181390D02*
X133254761Y-98752819D01*
X133254761Y-98752819D02*
X132635714Y-98752819D01*
X132254761Y-97848057D02*
X132207142Y-97800438D01*
X132207142Y-97800438D02*
X132111904Y-97752819D01*
X132111904Y-97752819D02*
X131873809Y-97752819D01*
X131873809Y-97752819D02*
X131778571Y-97800438D01*
X131778571Y-97800438D02*
X131730952Y-97848057D01*
X131730952Y-97848057D02*
X131683333Y-97943295D01*
X131683333Y-97943295D02*
X131683333Y-98038533D01*
X131683333Y-98038533D02*
X131730952Y-98181390D01*
X131730952Y-98181390D02*
X132302380Y-98752819D01*
X132302380Y-98752819D02*
X131683333Y-98752819D01*
X131349999Y-97752819D02*
X130730952Y-97752819D01*
X130730952Y-97752819D02*
X131064285Y-98133771D01*
X131064285Y-98133771D02*
X130921428Y-98133771D01*
X130921428Y-98133771D02*
X130826190Y-98181390D01*
X130826190Y-98181390D02*
X130778571Y-98229009D01*
X130778571Y-98229009D02*
X130730952Y-98324247D01*
X130730952Y-98324247D02*
X130730952Y-98562342D01*
X130730952Y-98562342D02*
X130778571Y-98657580D01*
X130778571Y-98657580D02*
X130826190Y-98705200D01*
X130826190Y-98705200D02*
X130921428Y-98752819D01*
X130921428Y-98752819D02*
X131207142Y-98752819D01*
X131207142Y-98752819D02*
X131302380Y-98705200D01*
X131302380Y-98705200D02*
X131349999Y-98657580D01*
X161875200Y-80473143D02*
X161922819Y-80616000D01*
X161922819Y-80616000D02*
X161922819Y-80854095D01*
X161922819Y-80854095D02*
X161875200Y-80949333D01*
X161875200Y-80949333D02*
X161827580Y-80996952D01*
X161827580Y-80996952D02*
X161732342Y-81044571D01*
X161732342Y-81044571D02*
X161637104Y-81044571D01*
X161637104Y-81044571D02*
X161541866Y-80996952D01*
X161541866Y-80996952D02*
X161494247Y-80949333D01*
X161494247Y-80949333D02*
X161446628Y-80854095D01*
X161446628Y-80854095D02*
X161399009Y-80663619D01*
X161399009Y-80663619D02*
X161351390Y-80568381D01*
X161351390Y-80568381D02*
X161303771Y-80520762D01*
X161303771Y-80520762D02*
X161208533Y-80473143D01*
X161208533Y-80473143D02*
X161113295Y-80473143D01*
X161113295Y-80473143D02*
X161018057Y-80520762D01*
X161018057Y-80520762D02*
X160970438Y-80568381D01*
X160970438Y-80568381D02*
X160922819Y-80663619D01*
X160922819Y-80663619D02*
X160922819Y-80901714D01*
X160922819Y-80901714D02*
X160970438Y-81044571D01*
X160922819Y-81663619D02*
X160922819Y-81854095D01*
X160922819Y-81854095D02*
X160970438Y-81949333D01*
X160970438Y-81949333D02*
X161065676Y-82044571D01*
X161065676Y-82044571D02*
X161256152Y-82092190D01*
X161256152Y-82092190D02*
X161589485Y-82092190D01*
X161589485Y-82092190D02*
X161779961Y-82044571D01*
X161779961Y-82044571D02*
X161875200Y-81949333D01*
X161875200Y-81949333D02*
X161922819Y-81854095D01*
X161922819Y-81854095D02*
X161922819Y-81663619D01*
X161922819Y-81663619D02*
X161875200Y-81568381D01*
X161875200Y-81568381D02*
X161779961Y-81473143D01*
X161779961Y-81473143D02*
X161589485Y-81425524D01*
X161589485Y-81425524D02*
X161256152Y-81425524D01*
X161256152Y-81425524D02*
X161065676Y-81473143D01*
X161065676Y-81473143D02*
X160970438Y-81568381D01*
X160970438Y-81568381D02*
X160922819Y-81663619D01*
X160922819Y-82377905D02*
X160922819Y-82949333D01*
X161922819Y-82663619D02*
X160922819Y-82663619D01*
X161018057Y-83235048D02*
X160970438Y-83282667D01*
X160970438Y-83282667D02*
X160922819Y-83377905D01*
X160922819Y-83377905D02*
X160922819Y-83616000D01*
X160922819Y-83616000D02*
X160970438Y-83711238D01*
X160970438Y-83711238D02*
X161018057Y-83758857D01*
X161018057Y-83758857D02*
X161113295Y-83806476D01*
X161113295Y-83806476D02*
X161208533Y-83806476D01*
X161208533Y-83806476D02*
X161351390Y-83758857D01*
X161351390Y-83758857D02*
X161922819Y-83187429D01*
X161922819Y-83187429D02*
X161922819Y-83806476D01*
X160922819Y-84139810D02*
X160922819Y-84758857D01*
X160922819Y-84758857D02*
X161303771Y-84425524D01*
X161303771Y-84425524D02*
X161303771Y-84568381D01*
X161303771Y-84568381D02*
X161351390Y-84663619D01*
X161351390Y-84663619D02*
X161399009Y-84711238D01*
X161399009Y-84711238D02*
X161494247Y-84758857D01*
X161494247Y-84758857D02*
X161732342Y-84758857D01*
X161732342Y-84758857D02*
X161827580Y-84711238D01*
X161827580Y-84711238D02*
X161875200Y-84663619D01*
X161875200Y-84663619D02*
X161922819Y-84568381D01*
X161922819Y-84568381D02*
X161922819Y-84282667D01*
X161922819Y-84282667D02*
X161875200Y-84187429D01*
X161875200Y-84187429D02*
X161827580Y-84139810D01*
X136090819Y-87669905D02*
X135090819Y-87669905D01*
X135567009Y-87669905D02*
X135567009Y-88241333D01*
X136090819Y-88241333D02*
X135090819Y-88241333D01*
X135995580Y-89288952D02*
X136043200Y-89241333D01*
X136043200Y-89241333D02*
X136090819Y-89098476D01*
X136090819Y-89098476D02*
X136090819Y-89003238D01*
X136090819Y-89003238D02*
X136043200Y-88860381D01*
X136043200Y-88860381D02*
X135947961Y-88765143D01*
X135947961Y-88765143D02*
X135852723Y-88717524D01*
X135852723Y-88717524D02*
X135662247Y-88669905D01*
X135662247Y-88669905D02*
X135519390Y-88669905D01*
X135519390Y-88669905D02*
X135328914Y-88717524D01*
X135328914Y-88717524D02*
X135233676Y-88765143D01*
X135233676Y-88765143D02*
X135138438Y-88860381D01*
X135138438Y-88860381D02*
X135090819Y-89003238D01*
X135090819Y-89003238D02*
X135090819Y-89098476D01*
X135090819Y-89098476D02*
X135138438Y-89241333D01*
X135138438Y-89241333D02*
X135186057Y-89288952D01*
X135424152Y-90146095D02*
X136090819Y-90146095D01*
X135043200Y-89908000D02*
X135757485Y-89669905D01*
X135757485Y-89669905D02*
X135757485Y-90288952D01*
X136090819Y-90717524D02*
X136090819Y-90908000D01*
X136090819Y-90908000D02*
X136043200Y-91003238D01*
X136043200Y-91003238D02*
X135995580Y-91050857D01*
X135995580Y-91050857D02*
X135852723Y-91146095D01*
X135852723Y-91146095D02*
X135662247Y-91193714D01*
X135662247Y-91193714D02*
X135281295Y-91193714D01*
X135281295Y-91193714D02*
X135186057Y-91146095D01*
X135186057Y-91146095D02*
X135138438Y-91098476D01*
X135138438Y-91098476D02*
X135090819Y-91003238D01*
X135090819Y-91003238D02*
X135090819Y-90812762D01*
X135090819Y-90812762D02*
X135138438Y-90717524D01*
X135138438Y-90717524D02*
X135186057Y-90669905D01*
X135186057Y-90669905D02*
X135281295Y-90622286D01*
X135281295Y-90622286D02*
X135519390Y-90622286D01*
X135519390Y-90622286D02*
X135614628Y-90669905D01*
X135614628Y-90669905D02*
X135662247Y-90717524D01*
X135662247Y-90717524D02*
X135709866Y-90812762D01*
X135709866Y-90812762D02*
X135709866Y-91003238D01*
X135709866Y-91003238D02*
X135662247Y-91098476D01*
X135662247Y-91098476D02*
X135614628Y-91146095D01*
X135614628Y-91146095D02*
X135519390Y-91193714D01*
X156661713Y-95378819D02*
X156661713Y-94378819D01*
X156661713Y-94378819D02*
X156423618Y-94378819D01*
X156423618Y-94378819D02*
X156280761Y-94426438D01*
X156280761Y-94426438D02*
X156185523Y-94521676D01*
X156185523Y-94521676D02*
X156137904Y-94616914D01*
X156137904Y-94616914D02*
X156090285Y-94807390D01*
X156090285Y-94807390D02*
X156090285Y-94950247D01*
X156090285Y-94950247D02*
X156137904Y-95140723D01*
X156137904Y-95140723D02*
X156185523Y-95235961D01*
X156185523Y-95235961D02*
X156280761Y-95331200D01*
X156280761Y-95331200D02*
X156423618Y-95378819D01*
X156423618Y-95378819D02*
X156661713Y-95378819D01*
X155661713Y-94997866D02*
X154899809Y-94997866D01*
X154423618Y-95378819D02*
X154423618Y-94378819D01*
X154423618Y-94378819D02*
X154042666Y-94378819D01*
X154042666Y-94378819D02*
X153947428Y-94426438D01*
X153947428Y-94426438D02*
X153899809Y-94474057D01*
X153899809Y-94474057D02*
X153852190Y-94569295D01*
X153852190Y-94569295D02*
X153852190Y-94712152D01*
X153852190Y-94712152D02*
X153899809Y-94807390D01*
X153899809Y-94807390D02*
X153947428Y-94855009D01*
X153947428Y-94855009D02*
X154042666Y-94902628D01*
X154042666Y-94902628D02*
X154423618Y-94902628D01*
X153471237Y-95093104D02*
X152995047Y-95093104D01*
X153566475Y-95378819D02*
X153233142Y-94378819D01*
X153233142Y-94378819D02*
X152899809Y-95378819D01*
X152566475Y-95378819D02*
X152566475Y-94378819D01*
X151995047Y-95378819D02*
X152423618Y-94807390D01*
X151995047Y-94378819D02*
X152566475Y-94950247D01*
X150852190Y-94331200D02*
X151709332Y-95616914D01*
X150661713Y-94378819D02*
X150090285Y-94378819D01*
X150375999Y-95378819D02*
X150375999Y-94378819D01*
X149566475Y-94378819D02*
X149375999Y-94378819D01*
X149375999Y-94378819D02*
X149280761Y-94426438D01*
X149280761Y-94426438D02*
X149185523Y-94521676D01*
X149185523Y-94521676D02*
X149137904Y-94712152D01*
X149137904Y-94712152D02*
X149137904Y-95045485D01*
X149137904Y-95045485D02*
X149185523Y-95235961D01*
X149185523Y-95235961D02*
X149280761Y-95331200D01*
X149280761Y-95331200D02*
X149375999Y-95378819D01*
X149375999Y-95378819D02*
X149566475Y-95378819D01*
X149566475Y-95378819D02*
X149661713Y-95331200D01*
X149661713Y-95331200D02*
X149756951Y-95235961D01*
X149756951Y-95235961D02*
X149804570Y-95045485D01*
X149804570Y-95045485D02*
X149804570Y-94712152D01*
X149804570Y-94712152D02*
X149756951Y-94521676D01*
X149756951Y-94521676D02*
X149661713Y-94426438D01*
X149661713Y-94426438D02*
X149566475Y-94378819D01*
X148709332Y-94997866D02*
X147947428Y-94997866D01*
X147518856Y-94474057D02*
X147471237Y-94426438D01*
X147471237Y-94426438D02*
X147375999Y-94378819D01*
X147375999Y-94378819D02*
X147137904Y-94378819D01*
X147137904Y-94378819D02*
X147042666Y-94426438D01*
X147042666Y-94426438D02*
X146995047Y-94474057D01*
X146995047Y-94474057D02*
X146947428Y-94569295D01*
X146947428Y-94569295D02*
X146947428Y-94664533D01*
X146947428Y-94664533D02*
X146995047Y-94807390D01*
X146995047Y-94807390D02*
X147566475Y-95378819D01*
X147566475Y-95378819D02*
X146947428Y-95378819D01*
X146042666Y-94378819D02*
X146518856Y-94378819D01*
X146518856Y-94378819D02*
X146566475Y-94855009D01*
X146566475Y-94855009D02*
X146518856Y-94807390D01*
X146518856Y-94807390D02*
X146423618Y-94759771D01*
X146423618Y-94759771D02*
X146185523Y-94759771D01*
X146185523Y-94759771D02*
X146090285Y-94807390D01*
X146090285Y-94807390D02*
X146042666Y-94855009D01*
X146042666Y-94855009D02*
X145995047Y-94950247D01*
X145995047Y-94950247D02*
X145995047Y-95188342D01*
X145995047Y-95188342D02*
X146042666Y-95283580D01*
X146042666Y-95283580D02*
X146090285Y-95331200D01*
X146090285Y-95331200D02*
X146185523Y-95378819D01*
X146185523Y-95378819D02*
X146423618Y-95378819D01*
X146423618Y-95378819D02*
X146518856Y-95331200D01*
X146518856Y-95331200D02*
X146566475Y-95283580D01*
X145614094Y-94474057D02*
X145566475Y-94426438D01*
X145566475Y-94426438D02*
X145471237Y-94378819D01*
X145471237Y-94378819D02*
X145233142Y-94378819D01*
X145233142Y-94378819D02*
X145137904Y-94426438D01*
X145137904Y-94426438D02*
X145090285Y-94474057D01*
X145090285Y-94474057D02*
X145042666Y-94569295D01*
X145042666Y-94569295D02*
X145042666Y-94664533D01*
X145042666Y-94664533D02*
X145090285Y-94807390D01*
X145090285Y-94807390D02*
X145661713Y-95378819D01*
X145661713Y-95378819D02*
X145042666Y-95378819D01*
X143932808Y-100085200D02*
X143789951Y-100132819D01*
X143789951Y-100132819D02*
X143551856Y-100132819D01*
X143551856Y-100132819D02*
X143456618Y-100085200D01*
X143456618Y-100085200D02*
X143408999Y-100037580D01*
X143408999Y-100037580D02*
X143361380Y-99942342D01*
X143361380Y-99942342D02*
X143361380Y-99847104D01*
X143361380Y-99847104D02*
X143408999Y-99751866D01*
X143408999Y-99751866D02*
X143456618Y-99704247D01*
X143456618Y-99704247D02*
X143551856Y-99656628D01*
X143551856Y-99656628D02*
X143742332Y-99609009D01*
X143742332Y-99609009D02*
X143837570Y-99561390D01*
X143837570Y-99561390D02*
X143885189Y-99513771D01*
X143885189Y-99513771D02*
X143932808Y-99418533D01*
X143932808Y-99418533D02*
X143932808Y-99323295D01*
X143932808Y-99323295D02*
X143885189Y-99228057D01*
X143885189Y-99228057D02*
X143837570Y-99180438D01*
X143837570Y-99180438D02*
X143742332Y-99132819D01*
X143742332Y-99132819D02*
X143504237Y-99132819D01*
X143504237Y-99132819D02*
X143361380Y-99180438D01*
X142742332Y-99132819D02*
X142551856Y-99132819D01*
X142551856Y-99132819D02*
X142456618Y-99180438D01*
X142456618Y-99180438D02*
X142361380Y-99275676D01*
X142361380Y-99275676D02*
X142313761Y-99466152D01*
X142313761Y-99466152D02*
X142313761Y-99799485D01*
X142313761Y-99799485D02*
X142361380Y-99989961D01*
X142361380Y-99989961D02*
X142456618Y-100085200D01*
X142456618Y-100085200D02*
X142551856Y-100132819D01*
X142551856Y-100132819D02*
X142742332Y-100132819D01*
X142742332Y-100132819D02*
X142837570Y-100085200D01*
X142837570Y-100085200D02*
X142932808Y-99989961D01*
X142932808Y-99989961D02*
X142980427Y-99799485D01*
X142980427Y-99799485D02*
X142980427Y-99466152D01*
X142980427Y-99466152D02*
X142932808Y-99275676D01*
X142932808Y-99275676D02*
X142837570Y-99180438D01*
X142837570Y-99180438D02*
X142742332Y-99132819D01*
X141885189Y-100132819D02*
X141885189Y-99132819D01*
X140837571Y-100037580D02*
X140885190Y-100085200D01*
X140885190Y-100085200D02*
X141028047Y-100132819D01*
X141028047Y-100132819D02*
X141123285Y-100132819D01*
X141123285Y-100132819D02*
X141266142Y-100085200D01*
X141266142Y-100085200D02*
X141361380Y-99989961D01*
X141361380Y-99989961D02*
X141408999Y-99894723D01*
X141408999Y-99894723D02*
X141456618Y-99704247D01*
X141456618Y-99704247D02*
X141456618Y-99561390D01*
X141456618Y-99561390D02*
X141408999Y-99370914D01*
X141408999Y-99370914D02*
X141361380Y-99275676D01*
X141361380Y-99275676D02*
X141266142Y-99180438D01*
X141266142Y-99180438D02*
X141123285Y-99132819D01*
X141123285Y-99132819D02*
X141028047Y-99132819D01*
X141028047Y-99132819D02*
X140885190Y-99180438D01*
X140885190Y-99180438D02*
X140837571Y-99228057D01*
X140266142Y-99561390D02*
X140361380Y-99513771D01*
X140361380Y-99513771D02*
X140408999Y-99466152D01*
X140408999Y-99466152D02*
X140456618Y-99370914D01*
X140456618Y-99370914D02*
X140456618Y-99323295D01*
X140456618Y-99323295D02*
X140408999Y-99228057D01*
X140408999Y-99228057D02*
X140361380Y-99180438D01*
X140361380Y-99180438D02*
X140266142Y-99132819D01*
X140266142Y-99132819D02*
X140075666Y-99132819D01*
X140075666Y-99132819D02*
X139980428Y-99180438D01*
X139980428Y-99180438D02*
X139932809Y-99228057D01*
X139932809Y-99228057D02*
X139885190Y-99323295D01*
X139885190Y-99323295D02*
X139885190Y-99370914D01*
X139885190Y-99370914D02*
X139932809Y-99466152D01*
X139932809Y-99466152D02*
X139980428Y-99513771D01*
X139980428Y-99513771D02*
X140075666Y-99561390D01*
X140075666Y-99561390D02*
X140266142Y-99561390D01*
X140266142Y-99561390D02*
X140361380Y-99609009D01*
X140361380Y-99609009D02*
X140408999Y-99656628D01*
X140408999Y-99656628D02*
X140456618Y-99751866D01*
X140456618Y-99751866D02*
X140456618Y-99942342D01*
X140456618Y-99942342D02*
X140408999Y-100037580D01*
X140408999Y-100037580D02*
X140361380Y-100085200D01*
X140361380Y-100085200D02*
X140266142Y-100132819D01*
X140266142Y-100132819D02*
X140075666Y-100132819D01*
X140075666Y-100132819D02*
X139980428Y-100085200D01*
X139980428Y-100085200D02*
X139932809Y-100037580D01*
X139932809Y-100037580D02*
X139885190Y-99942342D01*
X139885190Y-99942342D02*
X139885190Y-99751866D01*
X139885190Y-99751866D02*
X139932809Y-99656628D01*
X139932809Y-99656628D02*
X139980428Y-99609009D01*
X139980428Y-99609009D02*
X140075666Y-99561390D01*
X154626475Y-101408819D02*
X154055047Y-101408819D01*
X154340761Y-102408819D02*
X154340761Y-101408819D01*
X153055047Y-102504057D02*
X153150285Y-102456438D01*
X153150285Y-102456438D02*
X153245523Y-102361200D01*
X153245523Y-102361200D02*
X153388380Y-102218342D01*
X153388380Y-102218342D02*
X153483618Y-102170723D01*
X153483618Y-102170723D02*
X153578856Y-102170723D01*
X153531237Y-102408819D02*
X153626475Y-102361200D01*
X153626475Y-102361200D02*
X153721713Y-102265961D01*
X153721713Y-102265961D02*
X153769332Y-102075485D01*
X153769332Y-102075485D02*
X153769332Y-101742152D01*
X153769332Y-101742152D02*
X153721713Y-101551676D01*
X153721713Y-101551676D02*
X153626475Y-101456438D01*
X153626475Y-101456438D02*
X153531237Y-101408819D01*
X153531237Y-101408819D02*
X153340761Y-101408819D01*
X153340761Y-101408819D02*
X153245523Y-101456438D01*
X153245523Y-101456438D02*
X153150285Y-101551676D01*
X153150285Y-101551676D02*
X153102666Y-101742152D01*
X153102666Y-101742152D02*
X153102666Y-102075485D01*
X153102666Y-102075485D02*
X153150285Y-102265961D01*
X153150285Y-102265961D02*
X153245523Y-102361200D01*
X153245523Y-102361200D02*
X153340761Y-102408819D01*
X153340761Y-102408819D02*
X153531237Y-102408819D01*
X152340761Y-101885009D02*
X152674094Y-101885009D01*
X152674094Y-102408819D02*
X152674094Y-101408819D01*
X152674094Y-101408819D02*
X152197904Y-101408819D01*
X151816951Y-102408819D02*
X151816951Y-101408819D01*
X151816951Y-101408819D02*
X151435999Y-101408819D01*
X151435999Y-101408819D02*
X151340761Y-101456438D01*
X151340761Y-101456438D02*
X151293142Y-101504057D01*
X151293142Y-101504057D02*
X151245523Y-101599295D01*
X151245523Y-101599295D02*
X151245523Y-101742152D01*
X151245523Y-101742152D02*
X151293142Y-101837390D01*
X151293142Y-101837390D02*
X151340761Y-101885009D01*
X151340761Y-101885009D02*
X151435999Y-101932628D01*
X151435999Y-101932628D02*
X151816951Y-101932628D01*
X150912189Y-101408819D02*
X150293142Y-101408819D01*
X150293142Y-101408819D02*
X150626475Y-101789771D01*
X150626475Y-101789771D02*
X150483618Y-101789771D01*
X150483618Y-101789771D02*
X150388380Y-101837390D01*
X150388380Y-101837390D02*
X150340761Y-101885009D01*
X150340761Y-101885009D02*
X150293142Y-101980247D01*
X150293142Y-101980247D02*
X150293142Y-102218342D01*
X150293142Y-102218342D02*
X150340761Y-102313580D01*
X150340761Y-102313580D02*
X150388380Y-102361200D01*
X150388380Y-102361200D02*
X150483618Y-102408819D01*
X150483618Y-102408819D02*
X150769332Y-102408819D01*
X150769332Y-102408819D02*
X150864570Y-102361200D01*
X150864570Y-102361200D02*
X150912189Y-102313580D01*
X149912189Y-101504057D02*
X149864570Y-101456438D01*
X149864570Y-101456438D02*
X149769332Y-101408819D01*
X149769332Y-101408819D02*
X149531237Y-101408819D01*
X149531237Y-101408819D02*
X149435999Y-101456438D01*
X149435999Y-101456438D02*
X149388380Y-101504057D01*
X149388380Y-101504057D02*
X149340761Y-101599295D01*
X149340761Y-101599295D02*
X149340761Y-101694533D01*
X149340761Y-101694533D02*
X149388380Y-101837390D01*
X149388380Y-101837390D02*
X149959808Y-102408819D01*
X149959808Y-102408819D02*
X149340761Y-102408819D01*
X136159523Y-109634819D02*
X135921428Y-110634819D01*
X135921428Y-110634819D02*
X135730952Y-109920533D01*
X135730952Y-109920533D02*
X135540476Y-110634819D01*
X135540476Y-110634819D02*
X135302381Y-109634819D01*
X134969047Y-110587200D02*
X134826190Y-110634819D01*
X134826190Y-110634819D02*
X134588095Y-110634819D01*
X134588095Y-110634819D02*
X134492857Y-110587200D01*
X134492857Y-110587200D02*
X134445238Y-110539580D01*
X134445238Y-110539580D02*
X134397619Y-110444342D01*
X134397619Y-110444342D02*
X134397619Y-110349104D01*
X134397619Y-110349104D02*
X134445238Y-110253866D01*
X134445238Y-110253866D02*
X134492857Y-110206247D01*
X134492857Y-110206247D02*
X134588095Y-110158628D01*
X134588095Y-110158628D02*
X134778571Y-110111009D01*
X134778571Y-110111009D02*
X134873809Y-110063390D01*
X134873809Y-110063390D02*
X134921428Y-110015771D01*
X134921428Y-110015771D02*
X134969047Y-109920533D01*
X134969047Y-109920533D02*
X134969047Y-109825295D01*
X134969047Y-109825295D02*
X134921428Y-109730057D01*
X134921428Y-109730057D02*
X134873809Y-109682438D01*
X134873809Y-109682438D02*
X134778571Y-109634819D01*
X134778571Y-109634819D02*
X134540476Y-109634819D01*
X134540476Y-109634819D02*
X134397619Y-109682438D01*
X134016666Y-109730057D02*
X133969047Y-109682438D01*
X133969047Y-109682438D02*
X133873809Y-109634819D01*
X133873809Y-109634819D02*
X133635714Y-109634819D01*
X133635714Y-109634819D02*
X133540476Y-109682438D01*
X133540476Y-109682438D02*
X133492857Y-109730057D01*
X133492857Y-109730057D02*
X133445238Y-109825295D01*
X133445238Y-109825295D02*
X133445238Y-109920533D01*
X133445238Y-109920533D02*
X133492857Y-110063390D01*
X133492857Y-110063390D02*
X134064285Y-110634819D01*
X134064285Y-110634819D02*
X133445238Y-110634819D01*
X132873809Y-110063390D02*
X132969047Y-110015771D01*
X132969047Y-110015771D02*
X133016666Y-109968152D01*
X133016666Y-109968152D02*
X133064285Y-109872914D01*
X133064285Y-109872914D02*
X133064285Y-109825295D01*
X133064285Y-109825295D02*
X133016666Y-109730057D01*
X133016666Y-109730057D02*
X132969047Y-109682438D01*
X132969047Y-109682438D02*
X132873809Y-109634819D01*
X132873809Y-109634819D02*
X132683333Y-109634819D01*
X132683333Y-109634819D02*
X132588095Y-109682438D01*
X132588095Y-109682438D02*
X132540476Y-109730057D01*
X132540476Y-109730057D02*
X132492857Y-109825295D01*
X132492857Y-109825295D02*
X132492857Y-109872914D01*
X132492857Y-109872914D02*
X132540476Y-109968152D01*
X132540476Y-109968152D02*
X132588095Y-110015771D01*
X132588095Y-110015771D02*
X132683333Y-110063390D01*
X132683333Y-110063390D02*
X132873809Y-110063390D01*
X132873809Y-110063390D02*
X132969047Y-110111009D01*
X132969047Y-110111009D02*
X133016666Y-110158628D01*
X133016666Y-110158628D02*
X133064285Y-110253866D01*
X133064285Y-110253866D02*
X133064285Y-110444342D01*
X133064285Y-110444342D02*
X133016666Y-110539580D01*
X133016666Y-110539580D02*
X132969047Y-110587200D01*
X132969047Y-110587200D02*
X132873809Y-110634819D01*
X132873809Y-110634819D02*
X132683333Y-110634819D01*
X132683333Y-110634819D02*
X132588095Y-110587200D01*
X132588095Y-110587200D02*
X132540476Y-110539580D01*
X132540476Y-110539580D02*
X132492857Y-110444342D01*
X132492857Y-110444342D02*
X132492857Y-110253866D01*
X132492857Y-110253866D02*
X132540476Y-110158628D01*
X132540476Y-110158628D02*
X132588095Y-110111009D01*
X132588095Y-110111009D02*
X132683333Y-110063390D01*
X131540476Y-110634819D02*
X132111904Y-110634819D01*
X131826190Y-110634819D02*
X131826190Y-109634819D01*
X131826190Y-109634819D02*
X131921428Y-109777676D01*
X131921428Y-109777676D02*
X132016666Y-109872914D01*
X132016666Y-109872914D02*
X132111904Y-109920533D01*
X131159523Y-109730057D02*
X131111904Y-109682438D01*
X131111904Y-109682438D02*
X131016666Y-109634819D01*
X131016666Y-109634819D02*
X130778571Y-109634819D01*
X130778571Y-109634819D02*
X130683333Y-109682438D01*
X130683333Y-109682438D02*
X130635714Y-109730057D01*
X130635714Y-109730057D02*
X130588095Y-109825295D01*
X130588095Y-109825295D02*
X130588095Y-109920533D01*
X130588095Y-109920533D02*
X130635714Y-110063390D01*
X130635714Y-110063390D02*
X131207142Y-110634819D01*
X131207142Y-110634819D02*
X130588095Y-110634819D01*
X119279200Y-101370095D02*
X119326819Y-101512952D01*
X119326819Y-101512952D02*
X119326819Y-101751047D01*
X119326819Y-101751047D02*
X119279200Y-101846285D01*
X119279200Y-101846285D02*
X119231580Y-101893904D01*
X119231580Y-101893904D02*
X119136342Y-101941523D01*
X119136342Y-101941523D02*
X119041104Y-101941523D01*
X119041104Y-101941523D02*
X118945866Y-101893904D01*
X118945866Y-101893904D02*
X118898247Y-101846285D01*
X118898247Y-101846285D02*
X118850628Y-101751047D01*
X118850628Y-101751047D02*
X118803009Y-101560571D01*
X118803009Y-101560571D02*
X118755390Y-101465333D01*
X118755390Y-101465333D02*
X118707771Y-101417714D01*
X118707771Y-101417714D02*
X118612533Y-101370095D01*
X118612533Y-101370095D02*
X118517295Y-101370095D01*
X118517295Y-101370095D02*
X118422057Y-101417714D01*
X118422057Y-101417714D02*
X118374438Y-101465333D01*
X118374438Y-101465333D02*
X118326819Y-101560571D01*
X118326819Y-101560571D02*
X118326819Y-101798666D01*
X118326819Y-101798666D02*
X118374438Y-101941523D01*
X119231580Y-102941523D02*
X119279200Y-102893904D01*
X119279200Y-102893904D02*
X119326819Y-102751047D01*
X119326819Y-102751047D02*
X119326819Y-102655809D01*
X119326819Y-102655809D02*
X119279200Y-102512952D01*
X119279200Y-102512952D02*
X119183961Y-102417714D01*
X119183961Y-102417714D02*
X119088723Y-102370095D01*
X119088723Y-102370095D02*
X118898247Y-102322476D01*
X118898247Y-102322476D02*
X118755390Y-102322476D01*
X118755390Y-102322476D02*
X118564914Y-102370095D01*
X118564914Y-102370095D02*
X118469676Y-102417714D01*
X118469676Y-102417714D02*
X118374438Y-102512952D01*
X118374438Y-102512952D02*
X118326819Y-102655809D01*
X118326819Y-102655809D02*
X118326819Y-102751047D01*
X118326819Y-102751047D02*
X118374438Y-102893904D01*
X118374438Y-102893904D02*
X118422057Y-102941523D01*
X118326819Y-103274857D02*
X118326819Y-103941523D01*
X118326819Y-103941523D02*
X119326819Y-103512952D01*
X118326819Y-104512952D02*
X118326819Y-104608190D01*
X118326819Y-104608190D02*
X118374438Y-104703428D01*
X118374438Y-104703428D02*
X118422057Y-104751047D01*
X118422057Y-104751047D02*
X118517295Y-104798666D01*
X118517295Y-104798666D02*
X118707771Y-104846285D01*
X118707771Y-104846285D02*
X118945866Y-104846285D01*
X118945866Y-104846285D02*
X119136342Y-104798666D01*
X119136342Y-104798666D02*
X119231580Y-104751047D01*
X119231580Y-104751047D02*
X119279200Y-104703428D01*
X119279200Y-104703428D02*
X119326819Y-104608190D01*
X119326819Y-104608190D02*
X119326819Y-104512952D01*
X119326819Y-104512952D02*
X119279200Y-104417714D01*
X119279200Y-104417714D02*
X119231580Y-104370095D01*
X119231580Y-104370095D02*
X119136342Y-104322476D01*
X119136342Y-104322476D02*
X118945866Y-104274857D01*
X118945866Y-104274857D02*
X118707771Y-104274857D01*
X118707771Y-104274857D02*
X118517295Y-104322476D01*
X118517295Y-104322476D02*
X118422057Y-104370095D01*
X118422057Y-104370095D02*
X118374438Y-104417714D01*
X118374438Y-104417714D02*
X118326819Y-104512952D01*
X118279200Y-105989142D02*
X119564914Y-105132000D01*
X163645809Y-110752057D02*
X163741047Y-110704438D01*
X163741047Y-110704438D02*
X163836285Y-110609200D01*
X163836285Y-110609200D02*
X163979142Y-110466342D01*
X163979142Y-110466342D02*
X164074380Y-110418723D01*
X164074380Y-110418723D02*
X164169618Y-110418723D01*
X164121999Y-110656819D02*
X164217237Y-110609200D01*
X164217237Y-110609200D02*
X164312475Y-110513961D01*
X164312475Y-110513961D02*
X164360094Y-110323485D01*
X164360094Y-110323485D02*
X164360094Y-109990152D01*
X164360094Y-109990152D02*
X164312475Y-109799676D01*
X164312475Y-109799676D02*
X164217237Y-109704438D01*
X164217237Y-109704438D02*
X164121999Y-109656819D01*
X164121999Y-109656819D02*
X163931523Y-109656819D01*
X163931523Y-109656819D02*
X163836285Y-109704438D01*
X163836285Y-109704438D02*
X163741047Y-109799676D01*
X163741047Y-109799676D02*
X163693428Y-109990152D01*
X163693428Y-109990152D02*
X163693428Y-110323485D01*
X163693428Y-110323485D02*
X163741047Y-110513961D01*
X163741047Y-110513961D02*
X163836285Y-110609200D01*
X163836285Y-110609200D02*
X163931523Y-110656819D01*
X163931523Y-110656819D02*
X164121999Y-110656819D01*
X162931523Y-110133009D02*
X163264856Y-110133009D01*
X163264856Y-110656819D02*
X163264856Y-109656819D01*
X163264856Y-109656819D02*
X162788666Y-109656819D01*
X162407713Y-110656819D02*
X162407713Y-109656819D01*
X162407713Y-109656819D02*
X161836285Y-110656819D01*
X161836285Y-110656819D02*
X161836285Y-109656819D01*
X161407713Y-109752057D02*
X161360094Y-109704438D01*
X161360094Y-109704438D02*
X161264856Y-109656819D01*
X161264856Y-109656819D02*
X161026761Y-109656819D01*
X161026761Y-109656819D02*
X160931523Y-109704438D01*
X160931523Y-109704438D02*
X160883904Y-109752057D01*
X160883904Y-109752057D02*
X160836285Y-109847295D01*
X160836285Y-109847295D02*
X160836285Y-109942533D01*
X160836285Y-109942533D02*
X160883904Y-110085390D01*
X160883904Y-110085390D02*
X161455332Y-110656819D01*
X161455332Y-110656819D02*
X160836285Y-110656819D01*
X160264856Y-110085390D02*
X160360094Y-110037771D01*
X160360094Y-110037771D02*
X160407713Y-109990152D01*
X160407713Y-109990152D02*
X160455332Y-109894914D01*
X160455332Y-109894914D02*
X160455332Y-109847295D01*
X160455332Y-109847295D02*
X160407713Y-109752057D01*
X160407713Y-109752057D02*
X160360094Y-109704438D01*
X160360094Y-109704438D02*
X160264856Y-109656819D01*
X160264856Y-109656819D02*
X160074380Y-109656819D01*
X160074380Y-109656819D02*
X159979142Y-109704438D01*
X159979142Y-109704438D02*
X159931523Y-109752057D01*
X159931523Y-109752057D02*
X159883904Y-109847295D01*
X159883904Y-109847295D02*
X159883904Y-109894914D01*
X159883904Y-109894914D02*
X159931523Y-109990152D01*
X159931523Y-109990152D02*
X159979142Y-110037771D01*
X159979142Y-110037771D02*
X160074380Y-110085390D01*
X160074380Y-110085390D02*
X160264856Y-110085390D01*
X160264856Y-110085390D02*
X160360094Y-110133009D01*
X160360094Y-110133009D02*
X160407713Y-110180628D01*
X160407713Y-110180628D02*
X160455332Y-110275866D01*
X160455332Y-110275866D02*
X160455332Y-110466342D01*
X160455332Y-110466342D02*
X160407713Y-110561580D01*
X160407713Y-110561580D02*
X160360094Y-110609200D01*
X160360094Y-110609200D02*
X160264856Y-110656819D01*
X160264856Y-110656819D02*
X160074380Y-110656819D01*
X160074380Y-110656819D02*
X159979142Y-110609200D01*
X159979142Y-110609200D02*
X159931523Y-110561580D01*
X159931523Y-110561580D02*
X159883904Y-110466342D01*
X159883904Y-110466342D02*
X159883904Y-110275866D01*
X159883904Y-110275866D02*
X159931523Y-110180628D01*
X159931523Y-110180628D02*
X159979142Y-110133009D01*
X159979142Y-110133009D02*
X160074380Y-110085390D01*
X144007356Y-110541200D02*
X143864499Y-110588819D01*
X143864499Y-110588819D02*
X143626404Y-110588819D01*
X143626404Y-110588819D02*
X143531166Y-110541200D01*
X143531166Y-110541200D02*
X143483547Y-110493580D01*
X143483547Y-110493580D02*
X143435928Y-110398342D01*
X143435928Y-110398342D02*
X143435928Y-110303104D01*
X143435928Y-110303104D02*
X143483547Y-110207866D01*
X143483547Y-110207866D02*
X143531166Y-110160247D01*
X143531166Y-110160247D02*
X143626404Y-110112628D01*
X143626404Y-110112628D02*
X143816880Y-110065009D01*
X143816880Y-110065009D02*
X143912118Y-110017390D01*
X143912118Y-110017390D02*
X143959737Y-109969771D01*
X143959737Y-109969771D02*
X144007356Y-109874533D01*
X144007356Y-109874533D02*
X144007356Y-109779295D01*
X144007356Y-109779295D02*
X143959737Y-109684057D01*
X143959737Y-109684057D02*
X143912118Y-109636438D01*
X143912118Y-109636438D02*
X143816880Y-109588819D01*
X143816880Y-109588819D02*
X143578785Y-109588819D01*
X143578785Y-109588819D02*
X143435928Y-109636438D01*
X142816880Y-109588819D02*
X142626404Y-109588819D01*
X142626404Y-109588819D02*
X142531166Y-109636438D01*
X142531166Y-109636438D02*
X142435928Y-109731676D01*
X142435928Y-109731676D02*
X142388309Y-109922152D01*
X142388309Y-109922152D02*
X142388309Y-110255485D01*
X142388309Y-110255485D02*
X142435928Y-110445961D01*
X142435928Y-110445961D02*
X142531166Y-110541200D01*
X142531166Y-110541200D02*
X142626404Y-110588819D01*
X142626404Y-110588819D02*
X142816880Y-110588819D01*
X142816880Y-110588819D02*
X142912118Y-110541200D01*
X142912118Y-110541200D02*
X143007356Y-110445961D01*
X143007356Y-110445961D02*
X143054975Y-110255485D01*
X143054975Y-110255485D02*
X143054975Y-109922152D01*
X143054975Y-109922152D02*
X143007356Y-109731676D01*
X143007356Y-109731676D02*
X142912118Y-109636438D01*
X142912118Y-109636438D02*
X142816880Y-109588819D01*
X142102594Y-109588819D02*
X141531166Y-109588819D01*
X141816880Y-110588819D02*
X141816880Y-109588819D01*
X141054975Y-110017390D02*
X141150213Y-109969771D01*
X141150213Y-109969771D02*
X141197832Y-109922152D01*
X141197832Y-109922152D02*
X141245451Y-109826914D01*
X141245451Y-109826914D02*
X141245451Y-109779295D01*
X141245451Y-109779295D02*
X141197832Y-109684057D01*
X141197832Y-109684057D02*
X141150213Y-109636438D01*
X141150213Y-109636438D02*
X141054975Y-109588819D01*
X141054975Y-109588819D02*
X140864499Y-109588819D01*
X140864499Y-109588819D02*
X140769261Y-109636438D01*
X140769261Y-109636438D02*
X140721642Y-109684057D01*
X140721642Y-109684057D02*
X140674023Y-109779295D01*
X140674023Y-109779295D02*
X140674023Y-109826914D01*
X140674023Y-109826914D02*
X140721642Y-109922152D01*
X140721642Y-109922152D02*
X140769261Y-109969771D01*
X140769261Y-109969771D02*
X140864499Y-110017390D01*
X140864499Y-110017390D02*
X141054975Y-110017390D01*
X141054975Y-110017390D02*
X141150213Y-110065009D01*
X141150213Y-110065009D02*
X141197832Y-110112628D01*
X141197832Y-110112628D02*
X141245451Y-110207866D01*
X141245451Y-110207866D02*
X141245451Y-110398342D01*
X141245451Y-110398342D02*
X141197832Y-110493580D01*
X141197832Y-110493580D02*
X141150213Y-110541200D01*
X141150213Y-110541200D02*
X141054975Y-110588819D01*
X141054975Y-110588819D02*
X140864499Y-110588819D01*
X140864499Y-110588819D02*
X140769261Y-110541200D01*
X140769261Y-110541200D02*
X140721642Y-110493580D01*
X140721642Y-110493580D02*
X140674023Y-110398342D01*
X140674023Y-110398342D02*
X140674023Y-110207866D01*
X140674023Y-110207866D02*
X140721642Y-110112628D01*
X140721642Y-110112628D02*
X140769261Y-110065009D01*
X140769261Y-110065009D02*
X140864499Y-110017390D01*
X140197832Y-110588819D02*
X140007356Y-110588819D01*
X140007356Y-110588819D02*
X139912118Y-110541200D01*
X139912118Y-110541200D02*
X139864499Y-110493580D01*
X139864499Y-110493580D02*
X139769261Y-110350723D01*
X139769261Y-110350723D02*
X139721642Y-110160247D01*
X139721642Y-110160247D02*
X139721642Y-109779295D01*
X139721642Y-109779295D02*
X139769261Y-109684057D01*
X139769261Y-109684057D02*
X139816880Y-109636438D01*
X139816880Y-109636438D02*
X139912118Y-109588819D01*
X139912118Y-109588819D02*
X140102594Y-109588819D01*
X140102594Y-109588819D02*
X140197832Y-109636438D01*
X140197832Y-109636438D02*
X140245451Y-109684057D01*
X140245451Y-109684057D02*
X140293070Y-109779295D01*
X140293070Y-109779295D02*
X140293070Y-110017390D01*
X140293070Y-110017390D02*
X140245451Y-110112628D01*
X140245451Y-110112628D02*
X140197832Y-110160247D01*
X140197832Y-110160247D02*
X140102594Y-110207866D01*
X140102594Y-110207866D02*
X139912118Y-110207866D01*
X139912118Y-110207866D02*
X139816880Y-110160247D01*
X139816880Y-110160247D02*
X139769261Y-110112628D01*
X139769261Y-110112628D02*
X139721642Y-110017390D01*
X114477009Y-101314476D02*
X114524628Y-101457333D01*
X114524628Y-101457333D02*
X114572247Y-101504952D01*
X114572247Y-101504952D02*
X114667485Y-101552571D01*
X114667485Y-101552571D02*
X114810342Y-101552571D01*
X114810342Y-101552571D02*
X114905580Y-101504952D01*
X114905580Y-101504952D02*
X114953200Y-101457333D01*
X114953200Y-101457333D02*
X115000819Y-101362095D01*
X115000819Y-101362095D02*
X115000819Y-100981143D01*
X115000819Y-100981143D02*
X114000819Y-100981143D01*
X114000819Y-100981143D02*
X114000819Y-101314476D01*
X114000819Y-101314476D02*
X114048438Y-101409714D01*
X114048438Y-101409714D02*
X114096057Y-101457333D01*
X114096057Y-101457333D02*
X114191295Y-101504952D01*
X114191295Y-101504952D02*
X114286533Y-101504952D01*
X114286533Y-101504952D02*
X114381771Y-101457333D01*
X114381771Y-101457333D02*
X114429390Y-101409714D01*
X114429390Y-101409714D02*
X114477009Y-101314476D01*
X114477009Y-101314476D02*
X114477009Y-100981143D01*
X114048438Y-102504952D02*
X114000819Y-102409714D01*
X114000819Y-102409714D02*
X114000819Y-102266857D01*
X114000819Y-102266857D02*
X114048438Y-102124000D01*
X114048438Y-102124000D02*
X114143676Y-102028762D01*
X114143676Y-102028762D02*
X114238914Y-101981143D01*
X114238914Y-101981143D02*
X114429390Y-101933524D01*
X114429390Y-101933524D02*
X114572247Y-101933524D01*
X114572247Y-101933524D02*
X114762723Y-101981143D01*
X114762723Y-101981143D02*
X114857961Y-102028762D01*
X114857961Y-102028762D02*
X114953200Y-102124000D01*
X114953200Y-102124000D02*
X115000819Y-102266857D01*
X115000819Y-102266857D02*
X115000819Y-102362095D01*
X115000819Y-102362095D02*
X114953200Y-102504952D01*
X114953200Y-102504952D02*
X114905580Y-102552571D01*
X114905580Y-102552571D02*
X114572247Y-102552571D01*
X114572247Y-102552571D02*
X114572247Y-102362095D01*
X114715104Y-102933524D02*
X114715104Y-103409714D01*
X115000819Y-102838286D02*
X114000819Y-103171619D01*
X114000819Y-103171619D02*
X115000819Y-103504952D01*
X115000819Y-104362095D02*
X115000819Y-103790667D01*
X115000819Y-104076381D02*
X114000819Y-104076381D01*
X114000819Y-104076381D02*
X114143676Y-103981143D01*
X114143676Y-103981143D02*
X114238914Y-103885905D01*
X114238914Y-103885905D02*
X114286533Y-103790667D01*
X114000819Y-105219238D02*
X114000819Y-105028762D01*
X114000819Y-105028762D02*
X114048438Y-104933524D01*
X114048438Y-104933524D02*
X114096057Y-104885905D01*
X114096057Y-104885905D02*
X114238914Y-104790667D01*
X114238914Y-104790667D02*
X114429390Y-104743048D01*
X114429390Y-104743048D02*
X114810342Y-104743048D01*
X114810342Y-104743048D02*
X114905580Y-104790667D01*
X114905580Y-104790667D02*
X114953200Y-104838286D01*
X114953200Y-104838286D02*
X115000819Y-104933524D01*
X115000819Y-104933524D02*
X115000819Y-105124000D01*
X115000819Y-105124000D02*
X114953200Y-105219238D01*
X114953200Y-105219238D02*
X114905580Y-105266857D01*
X114905580Y-105266857D02*
X114810342Y-105314476D01*
X114810342Y-105314476D02*
X114572247Y-105314476D01*
X114572247Y-105314476D02*
X114477009Y-105266857D01*
X114477009Y-105266857D02*
X114429390Y-105219238D01*
X114429390Y-105219238D02*
X114381771Y-105124000D01*
X114381771Y-105124000D02*
X114381771Y-104933524D01*
X114381771Y-104933524D02*
X114429390Y-104838286D01*
X114429390Y-104838286D02*
X114477009Y-104790667D01*
X114477009Y-104790667D02*
X114572247Y-104743048D01*
D11*
%TO.C,1206*%
X164100000Y-89462000D02*
X166100000Y-89462000D01*
X166100000Y-87322000D02*
X164100000Y-87322000D01*
%TO.C,0805*%
X164500000Y-93272000D02*
X165700000Y-93272000D01*
X165700000Y-91512000D02*
X164500000Y-91512000D01*
%TO.C,0603*%
X160100000Y-89072000D02*
X161100000Y-89072000D01*
X161100000Y-87712000D02*
X160100000Y-87712000D01*
%TO.C,0402*%
X160350000Y-91862000D02*
X160850000Y-91862000D01*
X160850000Y-92922000D02*
X160350000Y-92922000D01*
D10*
%TO.C,TSSOP*%
X164598000Y-103089000D02*
X164598000Y-97114000D01*
X159073000Y-101514000D02*
X159073000Y-97114000D01*
D11*
%TO.C,SMA*%
X120838000Y-99792000D02*
X126238000Y-99792000D01*
X120838000Y-103092000D02*
X120838000Y-99792000D01*
X120838000Y-103092000D02*
X126238000Y-103092000D01*
%TO.C,SMB*%
X127788000Y-105292000D02*
X122088000Y-105292000D01*
X127788000Y-105292000D02*
X127788000Y-109592000D01*
X127788000Y-109592000D02*
X122088000Y-109592000D01*
%TO.C,SOT223*%
X136760000Y-102398000D02*
X136760000Y-96388000D01*
X129939999Y-100148000D02*
X129940000Y-96388000D01*
X129940000Y-96388000D02*
X131199999Y-96388000D01*
X136760000Y-96388000D02*
X135500001Y-96388000D01*
%TO.C,SOT23*%
X159628000Y-81036000D02*
X158168000Y-81036000D01*
X159628000Y-81036000D02*
X159628000Y-81966000D01*
X159628000Y-84196000D02*
X157468000Y-84196000D01*
X159628000Y-84196000D02*
X159628000Y-83266000D01*
%TO.C,SOT23-5*%
X163268000Y-81006000D02*
X165068000Y-81006000D01*
X165068000Y-84226000D02*
X162618000Y-84226000D01*
%TO.C,HC49*%
X128936000Y-86858000D02*
X141536000Y-86858000D01*
X128936000Y-91958000D02*
X128936000Y-86858000D01*
X141536000Y-91958000D02*
X128936000Y-91958000D01*
%TO.C,D-PAK/TO-252*%
X148406000Y-86974000D02*
X148406000Y-87244000D01*
X148406000Y-87244000D02*
X147306000Y-87244000D01*
X148406000Y-93604000D02*
X145576000Y-93604000D01*
X148406000Y-93874000D02*
X148406000Y-93604000D01*
X149906000Y-86974000D02*
X148406000Y-86974000D01*
X149906000Y-93874000D02*
X148406000Y-93874000D01*
D10*
%TO.C,SOIC8*%
X139284000Y-101803001D02*
X139429000Y-101803000D01*
X139284000Y-101803001D02*
X139284000Y-97652999D01*
X144384000Y-101803000D02*
X144384001Y-103203000D01*
X144434000Y-101803001D02*
X144384000Y-101803000D01*
X144434000Y-101803001D02*
X144434000Y-97652999D01*
X139284000Y-97652999D02*
X139429000Y-97653000D01*
X144434000Y-97652999D02*
X144289000Y-97653000D01*
%TO.C,TQFP32*%
X148261000Y-100329000D02*
X148261000Y-100654000D01*
X148261000Y-100329000D02*
X148586000Y-100329000D01*
X148261000Y-107354000D02*
X146836000Y-107354000D01*
X148261000Y-107579000D02*
X148261000Y-107354000D01*
X148261000Y-107579000D02*
X148586000Y-107579000D01*
X155511000Y-100329000D02*
X155186000Y-100329000D01*
X155511000Y-100329000D02*
X155511000Y-100654000D01*
X155511000Y-107579000D02*
X155186000Y-107579000D01*
X155511000Y-107579000D02*
X155511000Y-107254000D01*
D11*
%TO.C,WS2812*%
X129850000Y-104080000D02*
X136850000Y-104080000D01*
X129850000Y-108230000D02*
X129850000Y-109230000D01*
X129850000Y-109230000D02*
X136850000Y-109230000D01*
%TO.C,SC70/*%
X117062000Y-108630000D02*
X117062000Y-107220000D01*
X117722000Y-107220000D02*
X117062000Y-107220000D01*
X119382000Y-107220000D02*
X118722000Y-107220000D01*
X119382000Y-107220000D02*
X119382000Y-109250000D01*
D10*
%TO.C,QFN28*%
X159972000Y-104702000D02*
X159972000Y-105327000D01*
X159972000Y-104702000D02*
X160597000Y-104702000D01*
X159972000Y-109002000D02*
X160597000Y-109002000D01*
X164272000Y-104702000D02*
X163647000Y-104702000D01*
X164272000Y-104702000D02*
X164272000Y-105327000D01*
X164272000Y-109002000D02*
X163647000Y-109002000D01*
X164272000Y-109002000D02*
X164272000Y-108377000D01*
D11*
%TO.C,SOT89*%
X139194500Y-109334000D02*
X143194500Y-109334000D01*
X143194500Y-104534000D02*
X140494500Y-104534000D01*
X143194500Y-105734000D02*
X143194500Y-104534000D01*
X143194500Y-109334000D02*
X143194500Y-108134000D01*
%TO.C,BGA16*%
X112088000Y-108208000D02*
X112188000Y-108208000D01*
X112088000Y-108908000D02*
X112088000Y-108208000D01*
X112188000Y-106608000D02*
X112188000Y-108808000D01*
X112188000Y-108808000D02*
X112088000Y-108908000D01*
X112188000Y-108808000D02*
X114388000Y-108808000D01*
X112788000Y-108808000D02*
X112788000Y-108908000D01*
X112788000Y-108908000D02*
X112088000Y-108908000D01*
X114388000Y-106608000D02*
X112188000Y-106608000D01*
X114388000Y-108808000D02*
X114388000Y-106608000D01*
%TD*%
M02*
