%TF.GenerationSoftware,KiCad,Pcbnew,9.0.0*%
%TF.CreationDate,2025-03-10T22:23:41-04:00*%
%TF.ProjectId,cinnruler,63696e6e-7275-46c6-9572-2e6b69636164,rev?*%
%TF.SameCoordinates,Original*%
%TF.FileFunction,Paste,Bot*%
%TF.FilePolarity,Positive*%
%FSLAX46Y46*%
G04 Gerber Fmt 4.6, Leading zero omitted, Abs format (unit mm)*
G04 Created by KiCad (PCBNEW 9.0.0) date 2025-03-10 22:23:41*
%MOMM*%
%LPD*%
G01*
G04 APERTURE LIST*
G04 Aperture macros list*
%AMOutline4P*
0 Free polygon, 4 corners , with rotation*
0 The origin of the aperture is its center*
0 number of corners: always 4*
0 $1 to $8 corner X, Y*
0 $9 Rotation angle, in degrees counterclockwise*
0 create outline with 4 corners*
4,1,4,$1,$2,$3,$4,$5,$6,$7,$8,$1,$2,$9*%
G04 Aperture macros list end*
%ADD10R,0.800000X0.200000*%
%ADD11R,0.200000X0.800000*%
%ADD12R,1.200000X1.200000*%
%ADD13R,0.600000X1.550000*%
%ADD14R,2.500000X1.800000*%
%ADD15R,1.500000X1.000000*%
%ADD16R,1.800000X1.000000*%
%ADD17Outline4P,-0.400000X-0.500000X0.400000X-0.500000X1.100000X0.500000X-1.100000X0.500000X270.000000*%
%ADD18R,1.840000X2.200000*%
%ADD19Outline4P,-0.500000X-0.425000X0.500000X-0.425000X1.100000X0.425000X-1.100000X0.425000X90.000000*%
%ADD20R,0.900000X0.800000*%
%ADD21R,0.700000X1.300000*%
%ADD22R,0.450000X0.700000*%
%ADD23R,1.060000X0.650000*%
%ADD24R,2.200000X1.200000*%
%ADD25R,3.050000X2.750000*%
%ADD26R,4.500000X2.000000*%
%ADD27R,2.500000X2.300000*%
%ADD28R,0.450000X1.500000*%
%ADD29R,1.600000X0.550000*%
%ADD30R,0.550000X1.600000*%
%ADD31C,0.250000*%
%ADD32R,0.400000X0.600000*%
%ADD33R,0.500000X0.900000*%
%ADD34R,0.900000X1.700000*%
%ADD35R,1.500000X2.000000*%
%ADD36R,3.800000X2.000000*%
%ADD37R,1.600000X1.000000*%
G04 APERTURE END LIST*
D10*
%TO.C,QFN28*%
X160172000Y-108052000D03*
X160172000Y-107652000D03*
X160172000Y-107252000D03*
X160172000Y-106852000D03*
X160172000Y-106452000D03*
X160172000Y-106052000D03*
X160172000Y-105652000D03*
D11*
X160922000Y-104902000D03*
X161322000Y-104902000D03*
X161722000Y-104902000D03*
X162122000Y-104902000D03*
X162522000Y-104902000D03*
X162922000Y-104902000D03*
X163322000Y-104902000D03*
D10*
X164072000Y-105652000D03*
X164072000Y-106052000D03*
X164072000Y-106452000D03*
X164072000Y-106852000D03*
X164072000Y-107252000D03*
X164072000Y-107652000D03*
X164072000Y-108052000D03*
D11*
X163322000Y-108802000D03*
X162922000Y-108802000D03*
X162522000Y-108802000D03*
X162122000Y-108802000D03*
X161722000Y-108802000D03*
X161322000Y-108802000D03*
X160922000Y-108802000D03*
D12*
X161522000Y-106252000D03*
X161522000Y-107452000D03*
X162722000Y-106252000D03*
X162722000Y-107452000D03*
%TD*%
D13*
%TO.C,SOIC8*%
X143764000Y-102428000D03*
X142494000Y-102428000D03*
X141224000Y-102428000D03*
X139954000Y-102428000D03*
X139954000Y-97028000D03*
X141224000Y-97028000D03*
X142494000Y-97028000D03*
X143764000Y-97028000D03*
%TD*%
D14*
%TO.C,SMA*%
X122238000Y-101442000D03*
X126238000Y-101442000D03*
%TD*%
D15*
%TO.C,SOT89*%
X139934500Y-108434000D03*
D16*
X140081000Y-106934000D03*
D17*
X141338300Y-106934000D03*
D18*
X142748000Y-106934000D03*
D19*
X144081500Y-106934000D03*
D15*
X139934500Y-105434000D03*
%TD*%
D20*
%TO.C,SOT23*%
X157868000Y-83566000D03*
X157868000Y-81666000D03*
X159868000Y-82616000D03*
%TD*%
D21*
%TO.C,0805*%
X166050000Y-92392000D03*
X164150000Y-92392000D03*
%TD*%
D22*
%TO.C,SC70/*%
X118872000Y-108950000D03*
X117572000Y-108950000D03*
X118222000Y-106950000D03*
%TD*%
D23*
%TO.C,SOT23-5*%
X163068000Y-83566000D03*
X163068000Y-82616000D03*
X163068000Y-81666000D03*
X165268000Y-81666000D03*
X165268000Y-83566000D03*
%TD*%
D24*
%TO.C,D-PAK/TO-252*%
X146676000Y-92704000D03*
X146676000Y-90424000D03*
D25*
X151301000Y-88899000D03*
X151301000Y-91949000D03*
X154651000Y-88899000D03*
X154651000Y-91949000D03*
D24*
X146676000Y-88144000D03*
%TD*%
D26*
%TO.C,HC49*%
X131386000Y-89408000D03*
X139886000Y-89408000D03*
%TD*%
D27*
%TO.C,SMB*%
X126388000Y-107442000D03*
X122088000Y-107442000D03*
%TD*%
D28*
%TO.C,TSSOP*%
X164073000Y-102264000D03*
X163423001Y-102264000D03*
X162773000Y-102264000D03*
X162123000Y-102264000D03*
X161473000Y-102264000D03*
X160823000Y-102264000D03*
X160172999Y-102264000D03*
X159523000Y-102264000D03*
X159523000Y-96364000D03*
X160172999Y-96364000D03*
X160823000Y-96364000D03*
X161473000Y-96364000D03*
X162123000Y-96364000D03*
X162773000Y-96364000D03*
X163423001Y-96364000D03*
X164073000Y-96364000D03*
%TD*%
D29*
%TO.C,TQFP32*%
X147636000Y-106754000D03*
X147636000Y-105954000D03*
X147636000Y-105154000D03*
X147636000Y-104354000D03*
X147636000Y-103554000D03*
X147636000Y-102754000D03*
X147636000Y-101954000D03*
X147636000Y-101154000D03*
D30*
X149086000Y-99704000D03*
X149886000Y-99704000D03*
X150686000Y-99704000D03*
X151486000Y-99704000D03*
X152286000Y-99704000D03*
X153086000Y-99704000D03*
X153886000Y-99704000D03*
X154686000Y-99704000D03*
D29*
X156136000Y-101154000D03*
X156136000Y-101954000D03*
X156136000Y-102754000D03*
X156136000Y-103554000D03*
X156136000Y-104354000D03*
X156136000Y-105154000D03*
X156136000Y-105954000D03*
X156136000Y-106754000D03*
D30*
X154686000Y-108204000D03*
X153886000Y-108204000D03*
X153086000Y-108204000D03*
X152286000Y-108204000D03*
X151486000Y-108204000D03*
X150686000Y-108204000D03*
X149886000Y-108204000D03*
X149086000Y-108204000D03*
%TD*%
D31*
%TO.C,BGA16*%
X112538000Y-108458000D03*
X113038000Y-108458000D03*
X113538000Y-108458000D03*
X114038000Y-108458000D03*
X112538000Y-107958000D03*
X113038000Y-107958000D03*
X113538000Y-107958000D03*
X114038000Y-107958000D03*
X112538000Y-107458000D03*
X113038000Y-107458000D03*
X113538000Y-107458000D03*
X114038000Y-107458000D03*
X112538000Y-106958000D03*
X113038000Y-106958000D03*
X113538000Y-106958000D03*
X114038000Y-106958000D03*
%TD*%
D32*
%TO.C,0402*%
X160150000Y-92392000D03*
X161050000Y-92392000D03*
%TD*%
D33*
%TO.C,0603*%
X159850000Y-88392000D03*
X161350000Y-88392000D03*
%TD*%
D34*
%TO.C,1206*%
X166550000Y-88392000D03*
X163650000Y-88392000D03*
%TD*%
D35*
%TO.C,SOT223*%
X135650000Y-101448000D03*
X133350000Y-101447999D03*
X131050000Y-101448000D03*
D36*
X133350000Y-95148001D03*
%TD*%
D37*
%TO.C,WS2812*%
X130850000Y-108280000D03*
X130850000Y-106680000D03*
X130850000Y-105080000D03*
X135850000Y-105080000D03*
X135850000Y-106680000D03*
X135850000Y-108280000D03*
%TD*%
M02*
