%TF.GenerationSoftware,KiCad,Pcbnew,9.0.0*%
%TF.CreationDate,2025-03-10T01:27:30-04:00*%
%TF.ProjectId,cinna-chan-light,63696e6e-612d-4636-9861-6e2d6c696768,rev?*%
%TF.SameCoordinates,Original*%
%TF.FileFunction,Copper,L2,Bot*%
%TF.FilePolarity,Positive*%
%FSLAX46Y46*%
G04 Gerber Fmt 4.6, Leading zero omitted, Abs format (unit mm)*
G04 Created by KiCad (PCBNEW 9.0.0) date 2025-03-10 01:27:30*
%MOMM*%
%LPD*%
G01*
G04 APERTURE LIST*
G04 Aperture macros list*
%AMOutline4P*
0 Free polygon, 4 corners , with rotation*
0 The origin of the aperture is its center*
0 number of corners: always 4*
0 $1 to $8 corner X, Y*
0 $9 Rotation angle, in degrees counterclockwise*
0 create outline with 4 corners*
4,1,4,$1,$2,$3,$4,$5,$6,$7,$8,$1,$2,$9*%
G04 Aperture macros list end*
%TA.AperFunction,SMDPad,CuDef*%
%ADD10R,0.900000X1.700000*%
%TD*%
%TA.AperFunction,SMDPad,CuDef*%
%ADD11R,0.700000X1.300000*%
%TD*%
%TA.AperFunction,SMDPad,CuDef*%
%ADD12R,0.500000X0.900000*%
%TD*%
%TA.AperFunction,SMDPad,CuDef*%
%ADD13R,0.400000X0.600000*%
%TD*%
%TA.AperFunction,SMDPad,CuDef*%
%ADD14R,0.450000X1.500000*%
%TD*%
%TA.AperFunction,SMDPad,CuDef*%
%ADD15R,2.500000X1.800000*%
%TD*%
%TA.AperFunction,SMDPad,CuDef*%
%ADD16R,2.500000X2.300000*%
%TD*%
%TA.AperFunction,SMDPad,CuDef*%
%ADD17R,1.500000X2.000000*%
%TD*%
%TA.AperFunction,SMDPad,CuDef*%
%ADD18R,3.800000X2.000000*%
%TD*%
%TA.AperFunction,SMDPad,CuDef*%
%ADD19R,0.900000X0.800000*%
%TD*%
%TA.AperFunction,SMDPad,CuDef*%
%ADD20R,1.060000X0.650000*%
%TD*%
%TA.AperFunction,SMDPad,CuDef*%
%ADD21R,4.500000X2.000000*%
%TD*%
%TA.AperFunction,SMDPad,CuDef*%
%ADD22R,2.200000X1.200000*%
%TD*%
%TA.AperFunction,SMDPad,CuDef*%
%ADD23R,3.050000X2.750000*%
%TD*%
%TA.AperFunction,SMDPad,CuDef*%
%ADD24R,6.400000X5.800000*%
%TD*%
%TA.AperFunction,SMDPad,CuDef*%
%ADD25R,0.600000X1.550000*%
%TD*%
%TA.AperFunction,SMDPad,CuDef*%
%ADD26R,1.600000X0.550000*%
%TD*%
%TA.AperFunction,SMDPad,CuDef*%
%ADD27R,0.550000X1.600000*%
%TD*%
%TA.AperFunction,SMDPad,CuDef*%
%ADD28R,1.600000X1.000000*%
%TD*%
%TA.AperFunction,SMDPad,CuDef*%
%ADD29R,0.450000X0.700000*%
%TD*%
%TA.AperFunction,SMDPad,CuDef*%
%ADD30R,0.800000X0.200000*%
%TD*%
%TA.AperFunction,SMDPad,CuDef*%
%ADD31R,0.200000X0.800000*%
%TD*%
%TA.AperFunction,SMDPad,CuDef*%
%ADD32R,1.200000X1.200000*%
%TD*%
%TA.AperFunction,SMDPad,CuDef*%
%ADD33R,1.500000X1.000000*%
%TD*%
%TA.AperFunction,SMDPad,CuDef*%
%ADD34R,1.800000X1.000000*%
%TD*%
%TA.AperFunction,SMDPad,CuDef*%
%ADD35Outline4P,-0.400000X-0.500000X0.400000X-0.500000X1.100000X0.500000X-1.100000X0.500000X270.000000*%
%TD*%
%TA.AperFunction,SMDPad,CuDef*%
%ADD36R,1.840000X2.200000*%
%TD*%
%TA.AperFunction,SMDPad,CuDef*%
%ADD37Outline4P,-0.500000X-0.425000X0.500000X-0.425000X1.100000X0.425000X-1.100000X0.425000X90.000000*%
%TD*%
%TA.AperFunction,SMDPad,CuDef*%
%ADD38C,0.250000*%
%TD*%
G04 APERTURE END LIST*
D10*
%TO.P,1206,1*%
%TO.N,N/C*%
X166550000Y-88392000D03*
%TO.P,1206,2*%
X163650000Y-88392000D03*
%TD*%
D11*
%TO.P,0805,1*%
%TO.N,N/C*%
X166050000Y-92392000D03*
%TO.P,0805,2*%
X164150000Y-92392000D03*
%TD*%
D12*
%TO.P,0603,1*%
%TO.N,N/C*%
X159850000Y-88392000D03*
%TO.P,0603,2*%
X161350000Y-88392000D03*
%TD*%
D13*
%TO.P,0402,1*%
%TO.N,N/C*%
X160150000Y-92392000D03*
%TO.P,0402,2*%
X161050000Y-92392000D03*
%TD*%
D14*
%TO.P,TSSOP,1*%
%TO.N,N/C*%
X164073000Y-102264000D03*
%TO.P,TSSOP,2*%
X163423001Y-102264000D03*
%TO.P,TSSOP,3*%
X162773000Y-102264000D03*
%TO.P,TSSOP,4*%
X162123000Y-102264000D03*
%TO.P,TSSOP,5*%
X161473000Y-102264000D03*
%TO.P,TSSOP,6*%
X160823000Y-102264000D03*
%TO.P,TSSOP,7*%
X160172999Y-102264000D03*
%TO.P,TSSOP,8*%
X159523000Y-102264000D03*
%TO.P,TSSOP,9*%
X159523000Y-96364000D03*
%TO.P,TSSOP,10*%
X160172999Y-96364000D03*
%TO.P,TSSOP,11*%
X160823000Y-96364000D03*
%TO.P,TSSOP,12*%
X161473000Y-96364000D03*
%TO.P,TSSOP,13*%
X162123000Y-96364000D03*
%TO.P,TSSOP,14*%
X162773000Y-96364000D03*
%TO.P,TSSOP,15*%
X163423001Y-96364000D03*
%TO.P,TSSOP,16*%
X164073000Y-96364000D03*
%TD*%
D15*
%TO.P,SMA,1*%
%TO.N,N/C*%
X122238000Y-101442000D03*
%TO.P,SMA,2*%
X126238000Y-101442000D03*
%TD*%
D16*
%TO.P,SMB,1*%
%TO.N,N/C*%
X126388000Y-107442000D03*
%TO.P,SMB,2*%
X122088000Y-107442000D03*
%TD*%
D17*
%TO.P,SOT223,1*%
%TO.N,N/C*%
X135650000Y-101448000D03*
%TO.P,SOT223,2*%
X133350000Y-101447999D03*
%TO.P,SOT223,3*%
X131050000Y-101448000D03*
D18*
%TO.P,SOT223,4*%
X133350000Y-95148001D03*
%TD*%
D19*
%TO.P,SOT23,1*%
%TO.N,N/C*%
X157868000Y-83566000D03*
%TO.P,SOT23,2*%
X157868000Y-81666000D03*
%TO.P,SOT23,3*%
X159868000Y-82616000D03*
%TD*%
D20*
%TO.P,SOT23-5,1*%
%TO.N,N/C*%
X163068000Y-83566000D03*
%TO.P,SOT23-5,2*%
X163068000Y-82616000D03*
%TO.P,SOT23-5,3*%
X163068000Y-81666000D03*
%TO.P,SOT23-5,4*%
X165268000Y-81666000D03*
%TO.P,SOT23-5,5*%
X165268000Y-83566000D03*
%TD*%
D21*
%TO.P,HC49,1*%
%TO.N,N/C*%
X131386000Y-89408000D03*
%TO.P,HC49,2*%
X139886000Y-89408000D03*
%TD*%
D22*
%TO.P,D-PAK/TO-252,1*%
%TO.N,N/C*%
X146676000Y-92704000D03*
%TO.P,D-PAK/TO-252,2*%
X146676000Y-90424000D03*
D23*
X151301000Y-88899000D03*
X151301000Y-91949000D03*
D24*
X152976000Y-90424000D03*
D23*
X154651000Y-88899000D03*
X154651000Y-91949000D03*
D22*
%TO.P,D-PAK/TO-252,3*%
X146676000Y-88144000D03*
%TD*%
D25*
%TO.P,SOIC8,1*%
%TO.N,N/C*%
X143764000Y-102428000D03*
%TO.P,SOIC8,2*%
X142494000Y-102428000D03*
%TO.P,SOIC8,3*%
X141224000Y-102428000D03*
%TO.P,SOIC8,4*%
X139954000Y-102428000D03*
%TO.P,SOIC8,5*%
X139954000Y-97028000D03*
%TO.P,SOIC8,6*%
X141224000Y-97028000D03*
%TO.P,SOIC8,7*%
X142494000Y-97028000D03*
%TO.P,SOIC8,8*%
X143764000Y-97028000D03*
%TD*%
D26*
%TO.P,TQFP32,1*%
%TO.N,N/C*%
X147636000Y-106754000D03*
%TO.P,TQFP32,2*%
X147636000Y-105954000D03*
%TO.P,TQFP32,3*%
X147636000Y-105154000D03*
%TO.P,TQFP32,4*%
X147636000Y-104354000D03*
%TO.P,TQFP32,5*%
X147636000Y-103554000D03*
%TO.P,TQFP32,6*%
X147636000Y-102754000D03*
%TO.P,TQFP32,7*%
X147636000Y-101954000D03*
%TO.P,TQFP32,8*%
X147636000Y-101154000D03*
D27*
%TO.P,TQFP32,9*%
X149086000Y-99704000D03*
%TO.P,TQFP32,10*%
X149886000Y-99704000D03*
%TO.P,TQFP32,11*%
X150686000Y-99704000D03*
%TO.P,TQFP32,12*%
X151486000Y-99704000D03*
%TO.P,TQFP32,13*%
X152286000Y-99704000D03*
%TO.P,TQFP32,14*%
X153086000Y-99704000D03*
%TO.P,TQFP32,15*%
X153886000Y-99704000D03*
%TO.P,TQFP32,16*%
X154686000Y-99704000D03*
D26*
%TO.P,TQFP32,17*%
X156136000Y-101154000D03*
%TO.P,TQFP32,18*%
X156136000Y-101954000D03*
%TO.P,TQFP32,19*%
X156136000Y-102754000D03*
%TO.P,TQFP32,20*%
X156136000Y-103554000D03*
%TO.P,TQFP32,21*%
X156136000Y-104354000D03*
%TO.P,TQFP32,22*%
X156136000Y-105154000D03*
%TO.P,TQFP32,23*%
X156136000Y-105954000D03*
%TO.P,TQFP32,24*%
X156136000Y-106754000D03*
D27*
%TO.P,TQFP32,25*%
X154686000Y-108204000D03*
%TO.P,TQFP32,26*%
X153886000Y-108204000D03*
%TO.P,TQFP32,27*%
X153086000Y-108204000D03*
%TO.P,TQFP32,28*%
X152286000Y-108204000D03*
%TO.P,TQFP32,29*%
X151486000Y-108204000D03*
%TO.P,TQFP32,30*%
X150686000Y-108204000D03*
%TO.P,TQFP32,31*%
X149886000Y-108204000D03*
%TO.P,TQFP32,32*%
X149086000Y-108204000D03*
%TD*%
D28*
%TO.P,WS2812,1*%
%TO.N,N/C*%
X130850000Y-108280000D03*
%TO.P,WS2812,2*%
X130850000Y-106680000D03*
%TO.P,WS2812,3*%
X130850000Y-105080000D03*
%TO.P,WS2812,4*%
X135850000Y-105080000D03*
%TO.P,WS2812,5*%
X135850000Y-106680000D03*
%TO.P,WS2812,6*%
X135850000Y-108280000D03*
%TD*%
D29*
%TO.P,SC70/,1*%
%TO.N,N/C*%
X118872000Y-108950000D03*
%TO.P,SC70/,2*%
X117572000Y-108950000D03*
%TO.P,SC70/,3*%
X118222000Y-106950000D03*
%TD*%
D30*
%TO.P,QFN28,1*%
%TO.N,N/C*%
X160172000Y-108052000D03*
%TO.P,QFN28,2*%
X160172000Y-107652000D03*
%TO.P,QFN28,3*%
X160172000Y-107252000D03*
%TO.P,QFN28,4*%
X160172000Y-106852000D03*
%TO.P,QFN28,5*%
X160172000Y-106452000D03*
%TO.P,QFN28,6*%
X160172000Y-106052000D03*
%TO.P,QFN28,7*%
X160172000Y-105652000D03*
D31*
%TO.P,QFN28,8*%
X160922000Y-104902000D03*
%TO.P,QFN28,9*%
X161322000Y-104902000D03*
%TO.P,QFN28,10*%
X161722000Y-104902000D03*
%TO.P,QFN28,11*%
X162122000Y-104902000D03*
%TO.P,QFN28,12*%
X162522000Y-104902000D03*
%TO.P,QFN28,13*%
X162922000Y-104902000D03*
%TO.P,QFN28,14*%
X163322000Y-104902000D03*
D30*
%TO.P,QFN28,15*%
X164072000Y-105652000D03*
%TO.P,QFN28,16*%
X164072000Y-106052000D03*
%TO.P,QFN28,17*%
X164072000Y-106452000D03*
%TO.P,QFN28,18*%
X164072000Y-106852000D03*
%TO.P,QFN28,19*%
X164072000Y-107252000D03*
%TO.P,QFN28,20*%
X164072000Y-107652000D03*
%TO.P,QFN28,21*%
X164072000Y-108052000D03*
D31*
%TO.P,QFN28,22*%
X163322000Y-108802000D03*
%TO.P,QFN28,23*%
X162922000Y-108802000D03*
%TO.P,QFN28,24*%
X162522000Y-108802000D03*
%TO.P,QFN28,25*%
X162122000Y-108802000D03*
%TO.P,QFN28,26*%
X161722000Y-108802000D03*
%TO.P,QFN28,27*%
X161322000Y-108802000D03*
%TO.P,QFN28,28*%
X160922000Y-108802000D03*
D32*
%TO.P,QFN28,29*%
X161522000Y-106252000D03*
X161522000Y-107452000D03*
X162722000Y-106252000D03*
X162722000Y-107452000D03*
%TD*%
D33*
%TO.P,SOT89,1*%
%TO.N,N/C*%
X139934500Y-108434000D03*
D34*
%TO.P,SOT89,2*%
X140081000Y-106934000D03*
D35*
X141338300Y-106934000D03*
D36*
X142748000Y-106934000D03*
D37*
X144081500Y-106934000D03*
D33*
%TO.P,SOT89,3*%
X139934500Y-105434000D03*
%TD*%
D38*
%TO.P,BGA16,A1*%
%TO.N,N/C*%
X112538000Y-108458000D03*
%TO.P,BGA16,A2*%
X113038000Y-108458000D03*
%TO.P,BGA16,A3*%
X113538000Y-108458000D03*
%TO.P,BGA16,A4*%
X114038000Y-108458000D03*
%TO.P,BGA16,B1*%
X112538000Y-107958000D03*
%TO.P,BGA16,B2*%
X113038000Y-107958000D03*
%TO.P,BGA16,B3*%
X113538000Y-107958000D03*
%TO.P,BGA16,B4*%
X114038000Y-107958000D03*
%TO.P,BGA16,C1*%
X112538000Y-107458000D03*
%TO.P,BGA16,C2*%
X113038000Y-107458000D03*
%TO.P,BGA16,C3*%
X113538000Y-107458000D03*
%TO.P,BGA16,C4*%
X114038000Y-107458000D03*
%TO.P,BGA16,D1*%
X112538000Y-106958000D03*
%TO.P,BGA16,D2*%
X113038000Y-106958000D03*
%TO.P,BGA16,D3*%
X113538000Y-106958000D03*
%TO.P,BGA16,D4*%
X114038000Y-106958000D03*
%TD*%
%TA.AperFunction,NonConductor*%
G36*
X172420761Y-59999115D02*
G01*
X172714626Y-60014518D01*
X172721920Y-60015119D01*
X172788757Y-60022650D01*
X172794216Y-60023390D01*
X173050659Y-60064008D01*
X173058793Y-60065579D01*
X173118245Y-60079148D01*
X173122595Y-60080226D01*
X173380424Y-60149313D01*
X173389224Y-60152029D01*
X173434883Y-60168005D01*
X173438302Y-60169259D01*
X173531725Y-60205122D01*
X173699756Y-60269625D01*
X173709114Y-60273667D01*
X173731173Y-60284289D01*
X173733614Y-60285498D01*
X174001468Y-60421979D01*
X174012697Y-60428463D01*
X174280912Y-60602648D01*
X174291413Y-60610277D01*
X174539945Y-60811538D01*
X174549579Y-60820212D01*
X174775735Y-61046372D01*
X174784395Y-61055990D01*
X174880081Y-61174155D01*
X174985664Y-61304542D01*
X174993293Y-61315043D01*
X175167465Y-61583253D01*
X175173955Y-61594494D01*
X175310014Y-61861534D01*
X175311322Y-61864178D01*
X175322574Y-61887625D01*
X175326544Y-61896837D01*
X175427110Y-62158828D01*
X175428431Y-62162438D01*
X175444060Y-62207319D01*
X175446726Y-62215989D01*
X175515997Y-62474530D01*
X175517112Y-62479022D01*
X175520328Y-62493112D01*
X175523309Y-62506172D01*
X175523333Y-62506382D01*
X175523356Y-62506377D01*
X175530375Y-62537370D01*
X175531912Y-62545363D01*
X175572711Y-62802980D01*
X175573457Y-62808490D01*
X175579165Y-62859140D01*
X175579190Y-62859367D01*
X175580776Y-62873677D01*
X175581361Y-62880848D01*
X175596848Y-63176432D01*
X175597018Y-63182920D01*
X175597018Y-73875500D01*
X175577333Y-73942539D01*
X175524529Y-73988294D01*
X175473018Y-73999500D01*
X175051569Y-73999500D01*
X174984530Y-73979815D01*
X174963888Y-73963181D01*
X173000207Y-71999500D01*
X171500207Y-71999500D01*
X171499792Y-71999500D01*
X171499791Y-71999500D01*
X167999793Y-75499500D01*
X167999500Y-75499792D01*
X167999500Y-75499793D01*
X167999500Y-83999793D01*
X167999500Y-84000207D01*
X171999793Y-88000500D01*
X173000207Y-88000500D01*
X175385337Y-85615370D01*
X175446660Y-85581885D01*
X175516352Y-85586869D01*
X175572285Y-85628741D01*
X175596702Y-85694205D01*
X175597018Y-85703051D01*
X175597018Y-110795197D01*
X175596848Y-110801689D01*
X175581442Y-111095554D01*
X175580832Y-111102945D01*
X175573325Y-111169576D01*
X175572578Y-111175093D01*
X175531945Y-111431616D01*
X175530363Y-111439809D01*
X175516844Y-111499038D01*
X175515727Y-111503540D01*
X175446654Y-111761311D01*
X175443921Y-111770173D01*
X175427960Y-111815784D01*
X175426683Y-111819265D01*
X175326346Y-112080647D01*
X175322301Y-112090013D01*
X175311597Y-112112239D01*
X175310362Y-112114730D01*
X175173983Y-112382385D01*
X175167494Y-112393626D01*
X174993310Y-112661841D01*
X174985681Y-112672341D01*
X174784423Y-112920872D01*
X174775738Y-112930518D01*
X174549597Y-113156656D01*
X174539952Y-113165340D01*
X174291416Y-113366601D01*
X174280925Y-113374223D01*
X174056858Y-113519732D01*
X174012710Y-113548403D01*
X174001470Y-113554892D01*
X173733806Y-113691273D01*
X173731312Y-113692509D01*
X173709074Y-113703218D01*
X173699711Y-113707261D01*
X173438359Y-113807585D01*
X173434877Y-113808862D01*
X173389250Y-113824828D01*
X173380388Y-113827562D01*
X173122605Y-113896635D01*
X173118106Y-113897751D01*
X173058876Y-113911271D01*
X173050679Y-113912853D01*
X172794102Y-113953491D01*
X172788589Y-113954238D01*
X172722086Y-113961732D01*
X172714691Y-113962342D01*
X172420221Y-113977776D01*
X172413731Y-113977946D01*
X93180763Y-113977946D01*
X93174274Y-113977776D01*
X93166498Y-113977368D01*
X92880522Y-113962381D01*
X92873129Y-113961771D01*
X92806206Y-113954231D01*
X92800693Y-113953485D01*
X92544536Y-113912917D01*
X92536339Y-113911334D01*
X92476544Y-113897686D01*
X92472044Y-113896570D01*
X92214846Y-113827655D01*
X92205984Y-113824921D01*
X92159596Y-113808689D01*
X92156114Y-113807412D01*
X91895538Y-113707389D01*
X91886174Y-113703345D01*
X91862842Y-113692109D01*
X91860349Y-113690874D01*
X91593543Y-113554932D01*
X91582303Y-113548443D01*
X91314085Y-113374264D01*
X91303584Y-113366635D01*
X91055038Y-113165370D01*
X91045393Y-113156685D01*
X90819256Y-112930553D01*
X90810571Y-112920907D01*
X90609304Y-112672367D01*
X90601675Y-112661868D01*
X90542732Y-112571106D01*
X90427483Y-112393644D01*
X90421005Y-112382423D01*
X90285672Y-112116825D01*
X90284438Y-112114334D01*
X90283283Y-112111937D01*
X90272434Y-112089408D01*
X90268406Y-112080081D01*
X90168968Y-111821045D01*
X90167738Y-111817693D01*
X90150840Y-111769403D01*
X90148126Y-111760603D01*
X90079677Y-111505162D01*
X90078570Y-111500703D01*
X90064451Y-111438841D01*
X90062884Y-111430724D01*
X90022611Y-111176478D01*
X90021878Y-111171062D01*
X90014079Y-111101844D01*
X90013472Y-111094489D01*
X89998189Y-110802938D01*
X89998019Y-110796447D01*
X89998019Y-106915147D01*
X112212500Y-106915147D01*
X112212500Y-107000853D01*
X112232687Y-107076190D01*
X112234682Y-107083637D01*
X112234682Y-107083638D01*
X112270687Y-107146001D01*
X112287159Y-107213901D01*
X112270687Y-107269999D01*
X112234682Y-107332361D01*
X112234682Y-107332362D01*
X112212500Y-107415147D01*
X112212500Y-107500853D01*
X112233574Y-107579500D01*
X112234682Y-107583637D01*
X112234682Y-107583638D01*
X112270687Y-107646001D01*
X112287159Y-107713901D01*
X112270687Y-107769999D01*
X112234682Y-107832361D01*
X112234682Y-107832362D01*
X112212500Y-107915147D01*
X112212500Y-108000853D01*
X112222601Y-108038548D01*
X112234682Y-108083637D01*
X112234682Y-108083638D01*
X112270687Y-108146001D01*
X112287159Y-108213901D01*
X112270687Y-108269999D01*
X112234682Y-108332361D01*
X112234682Y-108332362D01*
X112212500Y-108415147D01*
X112212500Y-108500853D01*
X112234682Y-108583636D01*
X112234682Y-108583637D01*
X112234685Y-108583644D01*
X112277530Y-108657855D01*
X112277534Y-108657860D01*
X112277535Y-108657862D01*
X112338138Y-108718465D01*
X112338140Y-108718466D01*
X112338144Y-108718469D01*
X112412355Y-108761314D01*
X112412362Y-108761318D01*
X112495147Y-108783500D01*
X112495149Y-108783500D01*
X112580851Y-108783500D01*
X112580853Y-108783500D01*
X112663638Y-108761318D01*
X112726001Y-108725312D01*
X112793900Y-108708840D01*
X112849998Y-108725312D01*
X112912362Y-108761318D01*
X112995147Y-108783500D01*
X112995149Y-108783500D01*
X113080851Y-108783500D01*
X113080853Y-108783500D01*
X113163638Y-108761318D01*
X113226001Y-108725312D01*
X113293900Y-108708840D01*
X113349998Y-108725312D01*
X113412362Y-108761318D01*
X113495147Y-108783500D01*
X113495149Y-108783500D01*
X113580851Y-108783500D01*
X113580853Y-108783500D01*
X113663638Y-108761318D01*
X113726001Y-108725312D01*
X113793900Y-108708840D01*
X113849998Y-108725312D01*
X113912362Y-108761318D01*
X113995147Y-108783500D01*
X113995149Y-108783500D01*
X114080851Y-108783500D01*
X114080853Y-108783500D01*
X114163638Y-108761318D01*
X114237862Y-108718465D01*
X114298465Y-108657862D01*
X114341318Y-108583638D01*
X114342227Y-108580247D01*
X117146500Y-108580247D01*
X117146500Y-109319752D01*
X117158131Y-109378229D01*
X117158132Y-109378230D01*
X117202447Y-109444552D01*
X117268769Y-109488867D01*
X117268770Y-109488868D01*
X117327247Y-109500499D01*
X117327250Y-109500500D01*
X117327252Y-109500500D01*
X117816750Y-109500500D01*
X117816751Y-109500499D01*
X117831568Y-109497552D01*
X117875229Y-109488868D01*
X117875229Y-109488867D01*
X117875231Y-109488867D01*
X117941552Y-109444552D01*
X117985867Y-109378231D01*
X117985867Y-109378229D01*
X117985868Y-109378229D01*
X117997499Y-109319752D01*
X117997500Y-109319750D01*
X117997500Y-108580249D01*
X117997499Y-108580247D01*
X118446500Y-108580247D01*
X118446500Y-109319752D01*
X118458131Y-109378229D01*
X118458132Y-109378230D01*
X118502447Y-109444552D01*
X118568769Y-109488867D01*
X118568770Y-109488868D01*
X118627247Y-109500499D01*
X118627250Y-109500500D01*
X118627252Y-109500500D01*
X119116750Y-109500500D01*
X119116751Y-109500499D01*
X119131568Y-109497552D01*
X119175229Y-109488868D01*
X119175229Y-109488867D01*
X119175231Y-109488867D01*
X119241552Y-109444552D01*
X119285867Y-109378231D01*
X119285867Y-109378229D01*
X119285868Y-109378229D01*
X119297499Y-109319752D01*
X119297500Y-109319750D01*
X119297500Y-108580249D01*
X119297499Y-108580247D01*
X119285868Y-108521770D01*
X119285867Y-108521769D01*
X119241552Y-108455447D01*
X119175230Y-108411132D01*
X119175229Y-108411131D01*
X119116752Y-108399500D01*
X119116748Y-108399500D01*
X118627252Y-108399500D01*
X118627247Y-108399500D01*
X118568770Y-108411131D01*
X118568769Y-108411132D01*
X118502447Y-108455447D01*
X118458132Y-108521769D01*
X118458131Y-108521770D01*
X118446500Y-108580247D01*
X117997499Y-108580247D01*
X117985868Y-108521770D01*
X117985867Y-108521769D01*
X117941552Y-108455447D01*
X117875230Y-108411132D01*
X117875229Y-108411131D01*
X117816752Y-108399500D01*
X117816748Y-108399500D01*
X117327252Y-108399500D01*
X117327247Y-108399500D01*
X117268770Y-108411131D01*
X117268769Y-108411132D01*
X117202447Y-108455447D01*
X117158132Y-108521769D01*
X117158131Y-108521770D01*
X117146500Y-108580247D01*
X114342227Y-108580247D01*
X114363500Y-108500853D01*
X114363500Y-108415147D01*
X114341318Y-108332362D01*
X114305312Y-108269998D01*
X114288840Y-108202100D01*
X114305313Y-108146000D01*
X114341318Y-108083638D01*
X114363500Y-108000853D01*
X114363500Y-107915147D01*
X114341318Y-107832362D01*
X114305312Y-107769998D01*
X114288840Y-107702100D01*
X114305313Y-107646000D01*
X114311272Y-107635679D01*
X114341318Y-107583638D01*
X114363500Y-107500853D01*
X114363500Y-107415147D01*
X114341318Y-107332362D01*
X114305312Y-107269998D01*
X114288840Y-107202100D01*
X114305313Y-107146000D01*
X114341318Y-107083638D01*
X114363500Y-107000853D01*
X114363500Y-106915147D01*
X114341318Y-106832362D01*
X114341314Y-106832355D01*
X114298469Y-106758144D01*
X114298463Y-106758136D01*
X114237863Y-106697536D01*
X114237862Y-106697535D01*
X114163638Y-106654682D01*
X114080853Y-106632500D01*
X113995147Y-106632500D01*
X113912362Y-106654682D01*
X113912361Y-106654682D01*
X113849999Y-106690687D01*
X113782099Y-106707159D01*
X113726001Y-106690687D01*
X113663638Y-106654682D01*
X113580853Y-106632500D01*
X113495147Y-106632500D01*
X113412362Y-106654682D01*
X113412361Y-106654682D01*
X113349999Y-106690687D01*
X113282099Y-106707159D01*
X113226001Y-106690687D01*
X113163638Y-106654682D01*
X113080853Y-106632500D01*
X112995147Y-106632500D01*
X112912362Y-106654682D01*
X112912361Y-106654682D01*
X112849999Y-106690687D01*
X112782099Y-106707159D01*
X112726001Y-106690687D01*
X112663638Y-106654682D01*
X112580853Y-106632500D01*
X112495147Y-106632500D01*
X112412362Y-106654682D01*
X112412355Y-106654685D01*
X112338144Y-106697530D01*
X112338136Y-106697536D01*
X112277536Y-106758136D01*
X112277530Y-106758144D01*
X112234685Y-106832355D01*
X112234682Y-106832362D01*
X112212500Y-106915147D01*
X89998019Y-106915147D01*
X89998019Y-106580247D01*
X117796500Y-106580247D01*
X117796500Y-107319752D01*
X117808131Y-107378229D01*
X117808132Y-107378230D01*
X117852447Y-107444552D01*
X117918769Y-107488867D01*
X117918770Y-107488868D01*
X117977247Y-107500499D01*
X117977250Y-107500500D01*
X117977252Y-107500500D01*
X118466750Y-107500500D01*
X118466751Y-107500499D01*
X118481568Y-107497552D01*
X118525229Y-107488868D01*
X118525229Y-107488867D01*
X118525231Y-107488867D01*
X118591552Y-107444552D01*
X118635867Y-107378231D01*
X118635867Y-107378229D01*
X118635868Y-107378229D01*
X118644991Y-107332361D01*
X118647500Y-107319748D01*
X118647500Y-106580252D01*
X118647500Y-106580249D01*
X118647499Y-106580247D01*
X118635868Y-106521770D01*
X118635867Y-106521769D01*
X118591552Y-106455447D01*
X118525230Y-106411132D01*
X118525229Y-106411131D01*
X118466752Y-106399500D01*
X118466748Y-106399500D01*
X117977252Y-106399500D01*
X117977247Y-106399500D01*
X117918770Y-106411131D01*
X117918769Y-106411132D01*
X117852447Y-106455447D01*
X117808132Y-106521769D01*
X117808131Y-106521770D01*
X117796500Y-106580247D01*
X89998019Y-106580247D01*
X89998019Y-106272247D01*
X120637500Y-106272247D01*
X120637500Y-108611752D01*
X120649131Y-108670229D01*
X120649132Y-108670230D01*
X120693447Y-108736552D01*
X120759769Y-108780867D01*
X120759770Y-108780868D01*
X120818247Y-108792499D01*
X120818250Y-108792500D01*
X120818252Y-108792500D01*
X123357750Y-108792500D01*
X123357751Y-108792499D01*
X123372568Y-108789552D01*
X123416229Y-108780868D01*
X123416229Y-108780867D01*
X123416231Y-108780867D01*
X123482552Y-108736552D01*
X123526867Y-108670231D01*
X123526867Y-108670229D01*
X123526868Y-108670229D01*
X123538499Y-108611752D01*
X123538500Y-108611750D01*
X123538500Y-106272249D01*
X123538499Y-106272247D01*
X124937500Y-106272247D01*
X124937500Y-108611752D01*
X124949131Y-108670229D01*
X124949132Y-108670230D01*
X124993447Y-108736552D01*
X125059769Y-108780867D01*
X125059770Y-108780868D01*
X125118247Y-108792499D01*
X125118250Y-108792500D01*
X125118252Y-108792500D01*
X127657750Y-108792500D01*
X127657751Y-108792499D01*
X127672568Y-108789552D01*
X127716229Y-108780868D01*
X127716229Y-108780867D01*
X127716231Y-108780867D01*
X127782552Y-108736552D01*
X127826867Y-108670231D01*
X127826867Y-108670229D01*
X127826868Y-108670229D01*
X127838499Y-108611752D01*
X127838500Y-108611750D01*
X127838500Y-106272249D01*
X127838499Y-106272247D01*
X127826868Y-106213770D01*
X127826867Y-106213769D01*
X127782552Y-106147447D01*
X127716230Y-106103132D01*
X127716229Y-106103131D01*
X127657752Y-106091500D01*
X127657748Y-106091500D01*
X125118252Y-106091500D01*
X125118247Y-106091500D01*
X125059770Y-106103131D01*
X125059769Y-106103132D01*
X124993447Y-106147447D01*
X124949132Y-106213769D01*
X124949131Y-106213770D01*
X124937500Y-106272247D01*
X123538499Y-106272247D01*
X123526868Y-106213770D01*
X123526867Y-106213769D01*
X123482552Y-106147447D01*
X123416230Y-106103132D01*
X123416229Y-106103131D01*
X123357752Y-106091500D01*
X123357748Y-106091500D01*
X120818252Y-106091500D01*
X120818247Y-106091500D01*
X120759770Y-106103131D01*
X120759769Y-106103132D01*
X120693447Y-106147447D01*
X120649132Y-106213769D01*
X120649131Y-106213770D01*
X120637500Y-106272247D01*
X89998019Y-106272247D01*
X89998019Y-104560247D01*
X129849500Y-104560247D01*
X129849500Y-105599752D01*
X129861131Y-105658229D01*
X129861132Y-105658230D01*
X129905447Y-105724552D01*
X129981923Y-105775652D01*
X129979908Y-105778666D01*
X130017904Y-105809293D01*
X130039961Y-105875590D01*
X130022673Y-105943287D01*
X129980632Y-105982417D01*
X129981923Y-105984348D01*
X129905447Y-106035447D01*
X129861132Y-106101769D01*
X129861131Y-106101770D01*
X129849500Y-106160247D01*
X129849500Y-107199752D01*
X129861131Y-107258229D01*
X129861132Y-107258230D01*
X129905447Y-107324552D01*
X129981923Y-107375652D01*
X129979908Y-107378666D01*
X130017904Y-107409293D01*
X130039961Y-107475590D01*
X130022673Y-107543287D01*
X129980632Y-107582417D01*
X129981923Y-107584348D01*
X129905447Y-107635447D01*
X129861132Y-107701769D01*
X129861131Y-107701770D01*
X129849500Y-107760247D01*
X129849500Y-108799752D01*
X129861131Y-108858229D01*
X129861132Y-108858230D01*
X129905447Y-108924552D01*
X129971769Y-108968867D01*
X129971770Y-108968868D01*
X130030247Y-108980499D01*
X130030250Y-108980500D01*
X130030252Y-108980500D01*
X131669750Y-108980500D01*
X131669751Y-108980499D01*
X131684568Y-108977552D01*
X131728229Y-108968868D01*
X131728229Y-108968867D01*
X131728231Y-108968867D01*
X131794552Y-108924552D01*
X131838867Y-108858231D01*
X131838867Y-108858229D01*
X131838868Y-108858229D01*
X131850499Y-108799752D01*
X131850500Y-108799750D01*
X131850500Y-107760249D01*
X131850499Y-107760247D01*
X131838868Y-107701770D01*
X131838867Y-107701769D01*
X131794552Y-107635447D01*
X131718077Y-107584348D01*
X131720091Y-107581332D01*
X131682103Y-107550719D01*
X131660039Y-107484424D01*
X131677319Y-107416725D01*
X131719365Y-107377579D01*
X131718077Y-107375652D01*
X131794552Y-107324552D01*
X131831003Y-107270000D01*
X131838867Y-107258231D01*
X131838867Y-107258229D01*
X131838868Y-107258229D01*
X131847685Y-107213901D01*
X131850500Y-107199748D01*
X131850500Y-106160252D01*
X131850500Y-106160249D01*
X131850499Y-106160247D01*
X131838868Y-106101770D01*
X131838867Y-106101769D01*
X131794552Y-106035447D01*
X131718077Y-105984348D01*
X131720091Y-105981332D01*
X131682103Y-105950719D01*
X131660039Y-105884424D01*
X131677319Y-105816725D01*
X131719365Y-105777579D01*
X131718077Y-105775652D01*
X131794552Y-105724552D01*
X131806262Y-105707027D01*
X131838867Y-105658231D01*
X131838867Y-105658229D01*
X131838868Y-105658229D01*
X131850499Y-105599752D01*
X131850500Y-105599750D01*
X131850500Y-104560249D01*
X131850499Y-104560247D01*
X134849500Y-104560247D01*
X134849500Y-105599752D01*
X134861131Y-105658229D01*
X134861132Y-105658230D01*
X134905447Y-105724552D01*
X134981923Y-105775652D01*
X134979908Y-105778666D01*
X135017904Y-105809293D01*
X135039961Y-105875590D01*
X135022673Y-105943287D01*
X134980632Y-105982417D01*
X134981923Y-105984348D01*
X134905447Y-106035447D01*
X134861132Y-106101769D01*
X134861131Y-106101770D01*
X134849500Y-106160247D01*
X134849500Y-107199752D01*
X134861131Y-107258229D01*
X134861132Y-107258230D01*
X134905447Y-107324552D01*
X134981923Y-107375652D01*
X134979908Y-107378666D01*
X135017904Y-107409293D01*
X135039961Y-107475590D01*
X135022673Y-107543287D01*
X134980632Y-107582417D01*
X134981923Y-107584348D01*
X134905447Y-107635447D01*
X134861132Y-107701769D01*
X134861131Y-107701770D01*
X134849500Y-107760247D01*
X134849500Y-108799752D01*
X134861131Y-108858229D01*
X134861132Y-108858230D01*
X134905447Y-108924552D01*
X134971769Y-108968867D01*
X134971770Y-108968868D01*
X135030247Y-108980499D01*
X135030250Y-108980500D01*
X135030252Y-108980500D01*
X136669750Y-108980500D01*
X136669751Y-108980499D01*
X136684568Y-108977552D01*
X136728229Y-108968868D01*
X136728229Y-108968867D01*
X136728231Y-108968867D01*
X136794552Y-108924552D01*
X136838867Y-108858231D01*
X136838867Y-108858229D01*
X136838868Y-108858229D01*
X136850499Y-108799752D01*
X136850500Y-108799750D01*
X136850500Y-107760249D01*
X136850499Y-107760247D01*
X136838868Y-107701770D01*
X136838867Y-107701769D01*
X136794552Y-107635447D01*
X136718077Y-107584348D01*
X136720091Y-107581332D01*
X136682103Y-107550719D01*
X136660039Y-107484424D01*
X136677319Y-107416725D01*
X136719365Y-107377579D01*
X136718077Y-107375652D01*
X136794552Y-107324552D01*
X136831003Y-107270000D01*
X136838867Y-107258231D01*
X136838867Y-107258229D01*
X136838868Y-107258229D01*
X136847685Y-107213901D01*
X136850500Y-107199748D01*
X136850500Y-106414247D01*
X138980500Y-106414247D01*
X138980500Y-107453752D01*
X138992131Y-107512229D01*
X138992132Y-107512230D01*
X139036447Y-107578552D01*
X139041708Y-107582067D01*
X139086513Y-107635679D01*
X139095220Y-107705004D01*
X139065066Y-107768032D01*
X139041712Y-107788269D01*
X139039947Y-107789448D01*
X138995632Y-107855769D01*
X138995631Y-107855770D01*
X138984000Y-107914247D01*
X138984000Y-108953752D01*
X138995631Y-109012229D01*
X138995632Y-109012230D01*
X139039947Y-109078552D01*
X139106269Y-109122867D01*
X139106270Y-109122868D01*
X139164747Y-109134499D01*
X139164750Y-109134500D01*
X139164752Y-109134500D01*
X140704250Y-109134500D01*
X140704251Y-109134499D01*
X140719068Y-109131552D01*
X140762729Y-109122868D01*
X140762729Y-109122867D01*
X140762731Y-109122867D01*
X140829052Y-109078552D01*
X140873367Y-109012231D01*
X140873367Y-109012229D01*
X140873368Y-109012229D01*
X140883467Y-108961455D01*
X140885000Y-108953748D01*
X140885000Y-107914252D01*
X140885000Y-107914249D01*
X140875263Y-107865301D01*
X140881490Y-107795710D01*
X140924352Y-107740532D01*
X140990242Y-107717287D01*
X141058239Y-107733354D01*
X141067989Y-107739524D01*
X141318882Y-107915149D01*
X141673144Y-108163132D01*
X141683448Y-108178552D01*
X141749769Y-108222867D01*
X141774396Y-108227765D01*
X141776841Y-108228971D01*
X141784878Y-108229850D01*
X141785455Y-108229964D01*
X141785923Y-108230251D01*
X141790198Y-108230909D01*
X141808248Y-108234500D01*
X141808252Y-108234500D01*
X141820592Y-108234500D01*
X141834083Y-108235236D01*
X141856131Y-108237649D01*
X141868294Y-108236584D01*
X141868315Y-108236831D01*
X141884639Y-108234500D01*
X143628071Y-108234500D01*
X143639070Y-108237683D01*
X143667633Y-108234500D01*
X143687748Y-108234500D01*
X143709106Y-108230251D01*
X143713374Y-108229401D01*
X143718343Y-108228849D01*
X143719801Y-108228123D01*
X143723809Y-108227325D01*
X143746231Y-108222867D01*
X143746232Y-108222866D01*
X143746233Y-108222866D01*
X143768481Y-108208000D01*
X143812552Y-108178552D01*
X143812556Y-108178545D01*
X143821187Y-108169916D01*
X143821319Y-108170048D01*
X143843102Y-108147698D01*
X144375699Y-107771750D01*
X144644748Y-107581834D01*
X144644750Y-107581832D01*
X144644749Y-107581832D01*
X144644756Y-107581828D01*
X144666173Y-107561653D01*
X144702869Y-107490832D01*
X144707000Y-107461700D01*
X144707000Y-106406299D01*
X144702869Y-106377168D01*
X144666173Y-106306347D01*
X144666171Y-106306345D01*
X144644757Y-106286173D01*
X143846453Y-105722665D01*
X143846444Y-105722659D01*
X143824298Y-105707027D01*
X143812552Y-105689448D01*
X143746231Y-105645133D01*
X143719802Y-105639876D01*
X143718343Y-105639151D01*
X143713372Y-105638597D01*
X143706732Y-105637276D01*
X143687749Y-105633500D01*
X143687748Y-105633500D01*
X143674528Y-105633500D01*
X143660793Y-105632737D01*
X143639068Y-105630315D01*
X143626902Y-105631357D01*
X143626886Y-105631174D01*
X143610486Y-105633500D01*
X141866932Y-105633500D01*
X141856131Y-105630351D01*
X141827359Y-105633500D01*
X141808252Y-105633500D01*
X141790178Y-105637094D01*
X141790177Y-105637093D01*
X141784859Y-105638151D01*
X141776841Y-105639029D01*
X141774399Y-105640232D01*
X141763765Y-105642348D01*
X141749768Y-105645132D01*
X141683448Y-105689447D01*
X141674814Y-105698082D01*
X141674292Y-105697560D01*
X141654081Y-105718211D01*
X141067989Y-106128476D01*
X141001780Y-106150794D01*
X140934015Y-106133774D01*
X140886209Y-106082820D01*
X140873541Y-106014108D01*
X140875263Y-106002699D01*
X140885000Y-105953750D01*
X140885000Y-104914249D01*
X140884999Y-104914247D01*
X140873368Y-104855770D01*
X140873367Y-104855769D01*
X140829052Y-104789447D01*
X140762730Y-104745132D01*
X140762729Y-104745131D01*
X140704252Y-104733500D01*
X140704248Y-104733500D01*
X139164752Y-104733500D01*
X139164747Y-104733500D01*
X139106270Y-104745131D01*
X139106269Y-104745132D01*
X139039947Y-104789447D01*
X138995632Y-104855769D01*
X138995631Y-104855770D01*
X138984000Y-104914247D01*
X138984000Y-105953752D01*
X138995631Y-106012229D01*
X138995632Y-106012230D01*
X139039946Y-106078550D01*
X139039947Y-106078550D01*
X139039948Y-106078552D01*
X139041707Y-106079727D01*
X139044682Y-106083287D01*
X139048583Y-106087188D01*
X139048234Y-106087536D01*
X139086512Y-106133338D01*
X139095221Y-106202663D01*
X139065067Y-106265691D01*
X139041712Y-106285929D01*
X139036449Y-106289445D01*
X139036448Y-106289446D01*
X138992132Y-106355769D01*
X138992131Y-106355770D01*
X138980500Y-106414247D01*
X136850500Y-106414247D01*
X136850500Y-106160252D01*
X136850500Y-106160249D01*
X136850499Y-106160247D01*
X136838868Y-106101770D01*
X136838867Y-106101769D01*
X136794552Y-106035447D01*
X136718077Y-105984348D01*
X136720091Y-105981332D01*
X136682103Y-105950719D01*
X136660039Y-105884424D01*
X136677319Y-105816725D01*
X136719365Y-105777579D01*
X136718077Y-105775652D01*
X136794552Y-105724552D01*
X136806262Y-105707027D01*
X136838867Y-105658231D01*
X136838867Y-105658229D01*
X136838868Y-105658229D01*
X136850499Y-105599752D01*
X136850500Y-105599750D01*
X136850500Y-104560249D01*
X136850499Y-104560247D01*
X136838868Y-104501770D01*
X136838867Y-104501769D01*
X136794552Y-104435447D01*
X136728230Y-104391132D01*
X136728229Y-104391131D01*
X136669752Y-104379500D01*
X136669748Y-104379500D01*
X135030252Y-104379500D01*
X135030247Y-104379500D01*
X134971770Y-104391131D01*
X134971769Y-104391132D01*
X134905447Y-104435447D01*
X134861132Y-104501769D01*
X134861131Y-104501770D01*
X134849500Y-104560247D01*
X131850499Y-104560247D01*
X131838868Y-104501770D01*
X131838867Y-104501769D01*
X131794552Y-104435447D01*
X131728230Y-104391132D01*
X131728229Y-104391131D01*
X131669752Y-104379500D01*
X131669748Y-104379500D01*
X130030252Y-104379500D01*
X130030247Y-104379500D01*
X129971770Y-104391131D01*
X129971769Y-104391132D01*
X129905447Y-104435447D01*
X129861132Y-104501769D01*
X129861131Y-104501770D01*
X129849500Y-104560247D01*
X89998019Y-104560247D01*
X89998019Y-100522247D01*
X120787500Y-100522247D01*
X120787500Y-102361752D01*
X120799131Y-102420229D01*
X120799132Y-102420230D01*
X120843447Y-102486552D01*
X120909769Y-102530867D01*
X120909770Y-102530868D01*
X120968247Y-102542499D01*
X120968250Y-102542500D01*
X120968252Y-102542500D01*
X123507750Y-102542500D01*
X123507751Y-102542499D01*
X123522568Y-102539552D01*
X123566229Y-102530868D01*
X123566229Y-102530867D01*
X123566231Y-102530867D01*
X123632552Y-102486552D01*
X123676867Y-102420231D01*
X123676867Y-102420229D01*
X123676868Y-102420229D01*
X123688499Y-102361752D01*
X123688500Y-102361750D01*
X123688500Y-100522249D01*
X123688499Y-100522247D01*
X124787500Y-100522247D01*
X124787500Y-102361752D01*
X124799131Y-102420229D01*
X124799132Y-102420230D01*
X124843447Y-102486552D01*
X124909769Y-102530867D01*
X124909770Y-102530868D01*
X124968247Y-102542499D01*
X124968250Y-102542500D01*
X124968252Y-102542500D01*
X127507750Y-102542500D01*
X127507751Y-102542499D01*
X127522568Y-102539552D01*
X127566229Y-102530868D01*
X127566229Y-102530867D01*
X127566231Y-102530867D01*
X127632552Y-102486552D01*
X127676867Y-102420231D01*
X127676867Y-102420229D01*
X127676868Y-102420229D01*
X127688499Y-102361752D01*
X127688500Y-102361750D01*
X127688500Y-100522249D01*
X127688499Y-100522247D01*
X127676868Y-100463770D01*
X127676867Y-100463769D01*
X127653132Y-100428247D01*
X130099500Y-100428247D01*
X130099500Y-102467752D01*
X130111131Y-102526229D01*
X130111132Y-102526230D01*
X130155447Y-102592552D01*
X130221769Y-102636867D01*
X130221770Y-102636868D01*
X130280247Y-102648499D01*
X130280250Y-102648500D01*
X130280252Y-102648500D01*
X131819750Y-102648500D01*
X131819751Y-102648499D01*
X131834568Y-102645552D01*
X131878229Y-102636868D01*
X131878229Y-102636867D01*
X131878231Y-102636867D01*
X131944552Y-102592552D01*
X131988867Y-102526231D01*
X131988867Y-102526229D01*
X131988868Y-102526229D01*
X132000499Y-102467752D01*
X132000500Y-102467750D01*
X132000500Y-100428250D01*
X132000499Y-100428246D01*
X132399500Y-100428246D01*
X132399500Y-102467751D01*
X132411131Y-102526228D01*
X132411132Y-102526229D01*
X132455447Y-102592551D01*
X132521769Y-102636866D01*
X132521770Y-102636867D01*
X132580247Y-102648498D01*
X132580250Y-102648499D01*
X132580252Y-102648499D01*
X134119750Y-102648499D01*
X134119751Y-102648498D01*
X134134568Y-102645551D01*
X134178229Y-102636867D01*
X134178229Y-102636866D01*
X134178231Y-102636866D01*
X134244552Y-102592551D01*
X134288867Y-102526230D01*
X134288867Y-102526228D01*
X134288868Y-102526228D01*
X134300499Y-102467751D01*
X134300500Y-102467749D01*
X134300500Y-100428248D01*
X134300499Y-100428247D01*
X134699500Y-100428247D01*
X134699500Y-102467752D01*
X134711131Y-102526229D01*
X134711132Y-102526230D01*
X134755447Y-102592552D01*
X134821769Y-102636867D01*
X134821770Y-102636868D01*
X134880247Y-102648499D01*
X134880250Y-102648500D01*
X134880252Y-102648500D01*
X136419750Y-102648500D01*
X136419751Y-102648499D01*
X136434568Y-102645552D01*
X136478229Y-102636868D01*
X136478229Y-102636867D01*
X136478231Y-102636867D01*
X136544552Y-102592552D01*
X136588867Y-102526231D01*
X136588867Y-102526229D01*
X136588868Y-102526229D01*
X136600499Y-102467752D01*
X136600500Y-102467750D01*
X136600500Y-101633247D01*
X139453500Y-101633247D01*
X139453500Y-103222752D01*
X139465131Y-103281229D01*
X139465132Y-103281230D01*
X139509447Y-103347552D01*
X139575769Y-103391867D01*
X139575770Y-103391868D01*
X139634247Y-103403499D01*
X139634250Y-103403500D01*
X139634252Y-103403500D01*
X140273750Y-103403500D01*
X140273751Y-103403499D01*
X140288568Y-103400552D01*
X140332229Y-103391868D01*
X140332229Y-103391867D01*
X140332231Y-103391867D01*
X140398552Y-103347552D01*
X140442867Y-103281231D01*
X140442867Y-103281229D01*
X140442868Y-103281229D01*
X140454499Y-103222752D01*
X140454500Y-103222750D01*
X140454500Y-101633249D01*
X140454499Y-101633247D01*
X140723500Y-101633247D01*
X140723500Y-103222752D01*
X140735131Y-103281229D01*
X140735132Y-103281230D01*
X140779447Y-103347552D01*
X140845769Y-103391867D01*
X140845770Y-103391868D01*
X140904247Y-103403499D01*
X140904250Y-103403500D01*
X140904252Y-103403500D01*
X141543750Y-103403500D01*
X141543751Y-103403499D01*
X141558568Y-103400552D01*
X141602229Y-103391868D01*
X141602229Y-103391867D01*
X141602231Y-103391867D01*
X141668552Y-103347552D01*
X141712867Y-103281231D01*
X141712867Y-103281229D01*
X141712868Y-103281229D01*
X141724499Y-103222752D01*
X141724500Y-103222750D01*
X141724500Y-101633249D01*
X141724499Y-101633247D01*
X141993500Y-101633247D01*
X141993500Y-103222752D01*
X142005131Y-103281229D01*
X142005132Y-103281230D01*
X142049447Y-103347552D01*
X142115769Y-103391867D01*
X142115770Y-103391868D01*
X142174247Y-103403499D01*
X142174250Y-103403500D01*
X142174252Y-103403500D01*
X142813750Y-103403500D01*
X142813751Y-103403499D01*
X142828568Y-103400552D01*
X142872229Y-103391868D01*
X142872229Y-103391867D01*
X142872231Y-103391867D01*
X142938552Y-103347552D01*
X142982867Y-103281231D01*
X142982867Y-103281229D01*
X142982868Y-103281229D01*
X142994499Y-103222752D01*
X142994500Y-103222750D01*
X142994500Y-101633249D01*
X142994499Y-101633247D01*
X143263500Y-101633247D01*
X143263500Y-103222752D01*
X143275131Y-103281229D01*
X143275132Y-103281230D01*
X143319447Y-103347552D01*
X143385769Y-103391867D01*
X143385770Y-103391868D01*
X143444247Y-103403499D01*
X143444250Y-103403500D01*
X143444252Y-103403500D01*
X144083750Y-103403500D01*
X144083751Y-103403499D01*
X144098568Y-103400552D01*
X144142229Y-103391868D01*
X144142229Y-103391867D01*
X144142231Y-103391867D01*
X144208552Y-103347552D01*
X144252867Y-103281231D01*
X144252867Y-103281229D01*
X144252868Y-103281229D01*
X144264499Y-103222752D01*
X144264500Y-103222750D01*
X144264500Y-101633249D01*
X144264499Y-101633247D01*
X144252868Y-101574770D01*
X144252867Y-101574769D01*
X144208552Y-101508447D01*
X144142230Y-101464132D01*
X144142229Y-101464131D01*
X144083752Y-101452500D01*
X144083748Y-101452500D01*
X143444252Y-101452500D01*
X143444247Y-101452500D01*
X143385770Y-101464131D01*
X143385769Y-101464132D01*
X143319447Y-101508447D01*
X143275132Y-101574769D01*
X143275131Y-101574770D01*
X143263500Y-101633247D01*
X142994499Y-101633247D01*
X142982868Y-101574770D01*
X142982867Y-101574769D01*
X142938552Y-101508447D01*
X142872230Y-101464132D01*
X142872229Y-101464131D01*
X142813752Y-101452500D01*
X142813748Y-101452500D01*
X142174252Y-101452500D01*
X142174247Y-101452500D01*
X142115770Y-101464131D01*
X142115769Y-101464132D01*
X142049447Y-101508447D01*
X142005132Y-101574769D01*
X142005131Y-101574770D01*
X141993500Y-101633247D01*
X141724499Y-101633247D01*
X141712868Y-101574770D01*
X141712867Y-101574769D01*
X141668552Y-101508447D01*
X141602230Y-101464132D01*
X141602229Y-101464131D01*
X141543752Y-101452500D01*
X141543748Y-101452500D01*
X140904252Y-101452500D01*
X140904247Y-101452500D01*
X140845770Y-101464131D01*
X140845769Y-101464132D01*
X140779447Y-101508447D01*
X140735132Y-101574769D01*
X140735131Y-101574770D01*
X140723500Y-101633247D01*
X140454499Y-101633247D01*
X140442868Y-101574770D01*
X140442867Y-101574769D01*
X140398552Y-101508447D01*
X140332230Y-101464132D01*
X140332229Y-101464131D01*
X140273752Y-101452500D01*
X140273748Y-101452500D01*
X139634252Y-101452500D01*
X139634247Y-101452500D01*
X139575770Y-101464131D01*
X139575769Y-101464132D01*
X139509447Y-101508447D01*
X139465132Y-101574769D01*
X139465131Y-101574770D01*
X139453500Y-101633247D01*
X136600500Y-101633247D01*
X136600500Y-100859247D01*
X146635500Y-100859247D01*
X146635500Y-101448752D01*
X146649515Y-101519209D01*
X146648239Y-101519462D01*
X146654317Y-101576023D01*
X146647303Y-101599910D01*
X146635500Y-101659247D01*
X146635500Y-102248752D01*
X146649515Y-102319209D01*
X146648239Y-102319462D01*
X146654317Y-102376023D01*
X146647303Y-102399910D01*
X146635500Y-102459247D01*
X146635500Y-103048752D01*
X146649515Y-103119209D01*
X146648239Y-103119462D01*
X146654317Y-103176023D01*
X146647303Y-103199910D01*
X146635500Y-103259247D01*
X146635500Y-103848752D01*
X146649515Y-103919209D01*
X146648239Y-103919462D01*
X146654317Y-103976023D01*
X146647303Y-103999910D01*
X146635500Y-104059247D01*
X146635500Y-104648752D01*
X146649515Y-104719209D01*
X146648239Y-104719462D01*
X146654317Y-104776023D01*
X146647303Y-104799910D01*
X146635500Y-104859247D01*
X146635500Y-105448752D01*
X146649515Y-105519209D01*
X146648239Y-105519462D01*
X146654317Y-105576023D01*
X146647303Y-105599910D01*
X146635500Y-105659247D01*
X146635500Y-106248752D01*
X146649515Y-106319209D01*
X146648239Y-106319462D01*
X146654317Y-106376023D01*
X146647303Y-106399910D01*
X146635500Y-106459247D01*
X146635500Y-107048752D01*
X146647131Y-107107229D01*
X146647132Y-107107230D01*
X146691447Y-107173552D01*
X146757769Y-107217867D01*
X146757770Y-107217868D01*
X146816247Y-107229499D01*
X146816250Y-107229500D01*
X146816252Y-107229500D01*
X148455749Y-107229500D01*
X148466909Y-107227280D01*
X148536501Y-107233507D01*
X148591679Y-107276369D01*
X148614924Y-107342258D01*
X148612721Y-107373082D01*
X148610500Y-107384250D01*
X148610500Y-109023752D01*
X148622131Y-109082229D01*
X148622132Y-109082230D01*
X148666447Y-109148552D01*
X148732769Y-109192867D01*
X148732770Y-109192868D01*
X148791247Y-109204499D01*
X148791250Y-109204500D01*
X148791252Y-109204500D01*
X149380750Y-109204500D01*
X149380751Y-109204499D01*
X149395485Y-109201568D01*
X149451210Y-109190485D01*
X149451464Y-109191762D01*
X149508009Y-109185680D01*
X149531899Y-109192694D01*
X149591247Y-109204499D01*
X149591250Y-109204500D01*
X149591252Y-109204500D01*
X150180750Y-109204500D01*
X150180751Y-109204499D01*
X150195485Y-109201568D01*
X150251210Y-109190485D01*
X150251464Y-109191762D01*
X150308009Y-109185680D01*
X150331899Y-109192694D01*
X150391247Y-109204499D01*
X150391250Y-109204500D01*
X150391252Y-109204500D01*
X150980750Y-109204500D01*
X150980751Y-109204499D01*
X150995485Y-109201568D01*
X151051210Y-109190485D01*
X151051464Y-109191762D01*
X151108009Y-109185680D01*
X151131899Y-109192694D01*
X151191247Y-109204499D01*
X151191250Y-109204500D01*
X151191252Y-109204500D01*
X151780750Y-109204500D01*
X151780751Y-109204499D01*
X151795485Y-109201568D01*
X151851210Y-109190485D01*
X151851464Y-109191762D01*
X151908009Y-109185680D01*
X151931899Y-109192694D01*
X151991247Y-109204499D01*
X151991250Y-109204500D01*
X151991252Y-109204500D01*
X152580750Y-109204500D01*
X152580751Y-109204499D01*
X152595485Y-109201568D01*
X152651210Y-109190485D01*
X152651464Y-109191762D01*
X152708009Y-109185680D01*
X152731899Y-109192694D01*
X152791247Y-109204499D01*
X152791250Y-109204500D01*
X152791252Y-109204500D01*
X153380750Y-109204500D01*
X153380751Y-109204499D01*
X153395485Y-109201568D01*
X153451210Y-109190485D01*
X153451464Y-109191762D01*
X153508009Y-109185680D01*
X153531899Y-109192694D01*
X153591247Y-109204499D01*
X153591250Y-109204500D01*
X153591252Y-109204500D01*
X154180750Y-109204500D01*
X154180751Y-109204499D01*
X154195485Y-109201568D01*
X154251210Y-109190485D01*
X154251464Y-109191762D01*
X154308009Y-109185680D01*
X154331899Y-109192694D01*
X154391247Y-109204499D01*
X154391250Y-109204500D01*
X154391252Y-109204500D01*
X154980750Y-109204500D01*
X154980751Y-109204499D01*
X154995568Y-109201552D01*
X155039229Y-109192868D01*
X155039229Y-109192867D01*
X155039231Y-109192867D01*
X155105552Y-109148552D01*
X155149867Y-109082231D01*
X155149867Y-109082229D01*
X155149868Y-109082229D01*
X155161499Y-109023752D01*
X155161500Y-109023750D01*
X155161500Y-107384249D01*
X155161499Y-107384247D01*
X155159280Y-107373088D01*
X155165507Y-107303497D01*
X155208370Y-107248319D01*
X155274260Y-107225075D01*
X155305088Y-107227280D01*
X155316247Y-107229499D01*
X155316250Y-107229500D01*
X155316252Y-107229500D01*
X156955750Y-107229500D01*
X156955751Y-107229499D01*
X156977994Y-107225075D01*
X157014229Y-107217868D01*
X157014229Y-107217867D01*
X157014231Y-107217867D01*
X157080552Y-107173552D01*
X157124867Y-107107231D01*
X157124867Y-107107229D01*
X157124868Y-107107229D01*
X157133552Y-107063568D01*
X157136500Y-107048748D01*
X157136500Y-106459252D01*
X157136500Y-106459249D01*
X157136499Y-106459247D01*
X157122485Y-106388790D01*
X157123762Y-106388535D01*
X157117680Y-106331991D01*
X157124694Y-106308100D01*
X157128404Y-106289448D01*
X157136500Y-106248748D01*
X157136500Y-105659252D01*
X157136500Y-105659249D01*
X157136499Y-105659247D01*
X157122485Y-105588790D01*
X157123762Y-105588535D01*
X157122630Y-105578009D01*
X157115720Y-105555459D01*
X157118598Y-105540530D01*
X157117708Y-105532247D01*
X159571500Y-105532247D01*
X159571500Y-105532252D01*
X159571500Y-105771748D01*
X159572277Y-105775652D01*
X159582651Y-105827810D01*
X159582651Y-105876190D01*
X159571501Y-105932249D01*
X159571500Y-105932252D01*
X159571500Y-106171748D01*
X159575011Y-106189399D01*
X159582651Y-106227810D01*
X159582651Y-106276190D01*
X159580014Y-106289448D01*
X159571500Y-106332252D01*
X159571500Y-106571748D01*
X159573191Y-106580247D01*
X159582651Y-106627810D01*
X159582651Y-106676190D01*
X159578405Y-106697536D01*
X159571500Y-106732252D01*
X159571500Y-106971748D01*
X159575011Y-106989399D01*
X159582651Y-107027810D01*
X159582651Y-107076190D01*
X159579759Y-107090732D01*
X159571500Y-107132252D01*
X159571500Y-107371748D01*
X159571767Y-107373088D01*
X159582651Y-107427810D01*
X159582651Y-107476190D01*
X159575482Y-107512231D01*
X159571500Y-107532252D01*
X159571500Y-107771748D01*
X159574786Y-107788269D01*
X159582651Y-107827810D01*
X159582651Y-107876190D01*
X159571500Y-107932252D01*
X159571500Y-108171752D01*
X159583131Y-108230229D01*
X159583132Y-108230230D01*
X159627447Y-108296552D01*
X159693769Y-108340867D01*
X159693770Y-108340868D01*
X159752247Y-108352499D01*
X159752250Y-108352500D01*
X160497500Y-108352500D01*
X160564539Y-108372185D01*
X160610294Y-108424989D01*
X160621500Y-108476500D01*
X160621500Y-109221752D01*
X160633131Y-109280229D01*
X160633132Y-109280230D01*
X160677447Y-109346552D01*
X160743769Y-109390867D01*
X160743770Y-109390868D01*
X160802247Y-109402499D01*
X160802250Y-109402500D01*
X160802252Y-109402500D01*
X161041750Y-109402500D01*
X161097808Y-109391349D01*
X161146192Y-109391349D01*
X161202249Y-109402500D01*
X161202252Y-109402500D01*
X161441750Y-109402500D01*
X161497808Y-109391349D01*
X161546192Y-109391349D01*
X161602249Y-109402500D01*
X161602252Y-109402500D01*
X161841750Y-109402500D01*
X161897808Y-109391349D01*
X161946192Y-109391349D01*
X162002249Y-109402500D01*
X162002252Y-109402500D01*
X162241750Y-109402500D01*
X162297808Y-109391349D01*
X162346192Y-109391349D01*
X162402249Y-109402500D01*
X162402252Y-109402500D01*
X162641750Y-109402500D01*
X162697808Y-109391349D01*
X162746192Y-109391349D01*
X162802249Y-109402500D01*
X162802252Y-109402500D01*
X163041750Y-109402500D01*
X163097808Y-109391349D01*
X163146192Y-109391349D01*
X163202249Y-109402500D01*
X163202252Y-109402500D01*
X163441750Y-109402500D01*
X163441751Y-109402499D01*
X163456568Y-109399552D01*
X163500229Y-109390868D01*
X163500229Y-109390867D01*
X163500231Y-109390867D01*
X163566552Y-109346552D01*
X163610867Y-109280231D01*
X163610867Y-109280229D01*
X163610868Y-109280229D01*
X163622499Y-109221752D01*
X163622500Y-109221750D01*
X163622500Y-108476500D01*
X163642185Y-108409461D01*
X163694989Y-108363706D01*
X163746500Y-108352500D01*
X164491750Y-108352500D01*
X164491751Y-108352499D01*
X164506568Y-108349552D01*
X164526800Y-108345528D01*
X167249500Y-108345528D01*
X167249500Y-108654471D01*
X167284086Y-108961437D01*
X167284089Y-108961455D01*
X167352831Y-109262635D01*
X167352835Y-109262647D01*
X167454862Y-109554222D01*
X167454868Y-109554236D01*
X167588903Y-109832562D01*
X167588905Y-109832565D01*
X167753265Y-110094143D01*
X167945880Y-110335674D01*
X168164326Y-110554120D01*
X168405857Y-110746735D01*
X168667435Y-110911095D01*
X168945771Y-111045135D01*
X168945777Y-111045137D01*
X169237352Y-111147164D01*
X169237364Y-111147168D01*
X169538548Y-111215911D01*
X169538554Y-111215911D01*
X169538562Y-111215913D01*
X169743206Y-111238970D01*
X169845529Y-111250499D01*
X169845532Y-111250500D01*
X169845535Y-111250500D01*
X170154468Y-111250500D01*
X170154469Y-111250499D01*
X170311356Y-111232822D01*
X170461437Y-111215913D01*
X170461442Y-111215912D01*
X170461452Y-111215911D01*
X170762636Y-111147168D01*
X171054229Y-111045135D01*
X171332565Y-110911095D01*
X171594143Y-110746735D01*
X171835674Y-110554120D01*
X172054120Y-110335674D01*
X172246735Y-110094143D01*
X172411095Y-109832565D01*
X172545135Y-109554229D01*
X172647168Y-109262636D01*
X172715911Y-108961452D01*
X172750500Y-108654465D01*
X172750500Y-108345535D01*
X172737508Y-108230228D01*
X172715913Y-108038562D01*
X172715910Y-108038544D01*
X172647168Y-107737364D01*
X172647164Y-107737352D01*
X172564408Y-107500851D01*
X172545135Y-107445771D01*
X172411095Y-107167435D01*
X172246735Y-106905857D01*
X172054120Y-106664326D01*
X171835674Y-106445880D01*
X171792101Y-106411132D01*
X171722680Y-106355770D01*
X171594143Y-106253265D01*
X171332565Y-106088905D01*
X171332562Y-106088903D01*
X171054236Y-105954868D01*
X171054222Y-105954862D01*
X170762647Y-105852835D01*
X170762635Y-105852831D01*
X170461455Y-105784089D01*
X170461437Y-105784086D01*
X170154471Y-105749500D01*
X170154465Y-105749500D01*
X169845535Y-105749500D01*
X169845528Y-105749500D01*
X169538562Y-105784086D01*
X169538544Y-105784089D01*
X169237364Y-105852831D01*
X169237352Y-105852835D01*
X168945777Y-105954862D01*
X168945763Y-105954868D01*
X168667437Y-106088903D01*
X168405858Y-106253264D01*
X168164326Y-106445879D01*
X167945879Y-106664326D01*
X167753264Y-106905858D01*
X167588903Y-107167437D01*
X167454868Y-107445763D01*
X167454862Y-107445777D01*
X167352835Y-107737352D01*
X167352831Y-107737364D01*
X167284089Y-108038544D01*
X167284086Y-108038562D01*
X167249500Y-108345528D01*
X164526800Y-108345528D01*
X164550229Y-108340868D01*
X164550229Y-108340867D01*
X164550231Y-108340867D01*
X164616552Y-108296552D01*
X164660867Y-108230231D01*
X164661287Y-108228123D01*
X164671146Y-108178554D01*
X164672500Y-108171748D01*
X164672500Y-107932252D01*
X164672500Y-107932249D01*
X164661349Y-107876192D01*
X164661349Y-107827808D01*
X164672500Y-107771750D01*
X164672500Y-107532249D01*
X164661349Y-107476192D01*
X164661349Y-107427808D01*
X164672500Y-107371750D01*
X164672500Y-107132249D01*
X164661349Y-107076192D01*
X164661349Y-107027808D01*
X164672500Y-106971750D01*
X164672500Y-106732249D01*
X164661349Y-106676192D01*
X164661349Y-106627808D01*
X164672500Y-106571750D01*
X164672500Y-106332249D01*
X164661349Y-106276192D01*
X164661349Y-106227808D01*
X164672500Y-106171750D01*
X164672500Y-105932249D01*
X164661349Y-105876192D01*
X164661349Y-105827808D01*
X164672500Y-105771750D01*
X164672500Y-105532249D01*
X164672499Y-105532247D01*
X164660868Y-105473770D01*
X164660867Y-105473769D01*
X164616552Y-105407447D01*
X164550230Y-105363132D01*
X164550229Y-105363131D01*
X164491752Y-105351500D01*
X164491748Y-105351500D01*
X163746500Y-105351500D01*
X163679461Y-105331815D01*
X163633706Y-105279011D01*
X163622500Y-105227500D01*
X163622500Y-104482249D01*
X163622499Y-104482247D01*
X163610868Y-104423770D01*
X163610867Y-104423769D01*
X163566552Y-104357447D01*
X163500230Y-104313132D01*
X163500229Y-104313131D01*
X163441752Y-104301500D01*
X163441748Y-104301500D01*
X163202252Y-104301500D01*
X163146190Y-104312651D01*
X163097810Y-104312651D01*
X163041748Y-104301500D01*
X162802252Y-104301500D01*
X162746190Y-104312651D01*
X162697810Y-104312651D01*
X162641748Y-104301500D01*
X162402252Y-104301500D01*
X162346190Y-104312651D01*
X162297810Y-104312651D01*
X162241748Y-104301500D01*
X162002252Y-104301500D01*
X161946190Y-104312651D01*
X161897810Y-104312651D01*
X161841748Y-104301500D01*
X161602252Y-104301500D01*
X161546190Y-104312651D01*
X161497810Y-104312651D01*
X161441748Y-104301500D01*
X161202252Y-104301500D01*
X161146190Y-104312651D01*
X161097810Y-104312651D01*
X161041748Y-104301500D01*
X160802252Y-104301500D01*
X160802247Y-104301500D01*
X160743770Y-104313131D01*
X160743769Y-104313132D01*
X160677447Y-104357447D01*
X160633132Y-104423769D01*
X160633131Y-104423770D01*
X160621500Y-104482247D01*
X160621500Y-105227500D01*
X160601815Y-105294539D01*
X160549011Y-105340294D01*
X160497500Y-105351500D01*
X159752247Y-105351500D01*
X159693770Y-105363131D01*
X159693769Y-105363132D01*
X159627447Y-105407447D01*
X159583132Y-105473769D01*
X159583131Y-105473770D01*
X159571500Y-105532247D01*
X157117708Y-105532247D01*
X157117680Y-105531991D01*
X157120331Y-105520467D01*
X157123454Y-105509344D01*
X157124867Y-105507231D01*
X157132427Y-105469222D01*
X157136500Y-105448750D01*
X157136500Y-104859249D01*
X157136499Y-104859247D01*
X157122485Y-104788790D01*
X157123762Y-104788535D01*
X157117680Y-104731991D01*
X157124694Y-104708100D01*
X157136499Y-104648752D01*
X157136500Y-104648750D01*
X157136500Y-104059249D01*
X157136499Y-104059247D01*
X157122485Y-103988790D01*
X157123762Y-103988535D01*
X157117680Y-103931991D01*
X157124694Y-103908100D01*
X157136499Y-103848752D01*
X157136500Y-103848750D01*
X157136500Y-103259249D01*
X157136499Y-103259247D01*
X157122485Y-103188790D01*
X157123762Y-103188535D01*
X157117680Y-103131991D01*
X157124694Y-103108100D01*
X157136499Y-103048752D01*
X157136500Y-103048750D01*
X157136500Y-102459249D01*
X157136499Y-102459247D01*
X157122485Y-102388790D01*
X157123762Y-102388535D01*
X157117680Y-102331991D01*
X157124694Y-102308100D01*
X157136499Y-102248752D01*
X157136500Y-102248750D01*
X157136500Y-101659249D01*
X157136499Y-101659247D01*
X157122485Y-101588790D01*
X157123762Y-101588535D01*
X157117680Y-101531991D01*
X157118961Y-101525795D01*
X157122453Y-101510843D01*
X157124867Y-101507231D01*
X157127450Y-101494247D01*
X159097500Y-101494247D01*
X159097500Y-103033752D01*
X159109131Y-103092229D01*
X159109132Y-103092230D01*
X159153447Y-103158552D01*
X159219769Y-103202867D01*
X159219770Y-103202868D01*
X159278247Y-103214499D01*
X159278250Y-103214500D01*
X159278252Y-103214500D01*
X159767749Y-103214500D01*
X159798481Y-103208386D01*
X159823808Y-103203349D01*
X159872191Y-103203349D01*
X159928248Y-103214500D01*
X159928251Y-103214500D01*
X160417748Y-103214500D01*
X160432406Y-103211583D01*
X160473807Y-103203349D01*
X160522188Y-103203349D01*
X160578247Y-103214499D01*
X160578250Y-103214500D01*
X160578252Y-103214500D01*
X161067750Y-103214500D01*
X161123808Y-103203349D01*
X161172192Y-103203349D01*
X161228249Y-103214500D01*
X161228252Y-103214500D01*
X161717750Y-103214500D01*
X161773808Y-103203349D01*
X161822192Y-103203349D01*
X161878249Y-103214500D01*
X161878252Y-103214500D01*
X162367750Y-103214500D01*
X162423808Y-103203349D01*
X162472192Y-103203349D01*
X162528249Y-103214500D01*
X162528252Y-103214500D01*
X163017749Y-103214500D01*
X163032407Y-103211583D01*
X163073808Y-103203349D01*
X163122189Y-103203349D01*
X163178248Y-103214499D01*
X163178251Y-103214500D01*
X163178253Y-103214500D01*
X163667750Y-103214500D01*
X163698482Y-103208386D01*
X163723809Y-103203349D01*
X163772192Y-103203349D01*
X163828249Y-103214500D01*
X163828252Y-103214500D01*
X164317750Y-103214500D01*
X164317751Y-103214499D01*
X164332568Y-103211552D01*
X164376229Y-103202868D01*
X164376229Y-103202867D01*
X164376231Y-103202867D01*
X164442552Y-103158552D01*
X164486867Y-103092231D01*
X164486867Y-103092229D01*
X164486868Y-103092229D01*
X164498499Y-103033752D01*
X164498500Y-103033750D01*
X164498500Y-101494249D01*
X164498499Y-101494247D01*
X164486868Y-101435770D01*
X164486867Y-101435769D01*
X164442552Y-101369447D01*
X164376230Y-101325132D01*
X164376229Y-101325131D01*
X164317752Y-101313500D01*
X164317748Y-101313500D01*
X163828252Y-101313500D01*
X163772190Y-101324651D01*
X163723809Y-101324650D01*
X163667753Y-101313500D01*
X163667749Y-101313500D01*
X163178253Y-101313500D01*
X163122190Y-101324651D01*
X163073810Y-101324651D01*
X163017748Y-101313500D01*
X162528252Y-101313500D01*
X162472190Y-101324651D01*
X162423810Y-101324651D01*
X162367748Y-101313500D01*
X161878252Y-101313500D01*
X161822190Y-101324651D01*
X161773810Y-101324651D01*
X161717748Y-101313500D01*
X161228252Y-101313500D01*
X161172190Y-101324651D01*
X161123810Y-101324651D01*
X161067748Y-101313500D01*
X160578252Y-101313500D01*
X160522189Y-101324651D01*
X160473809Y-101324651D01*
X160417747Y-101313500D01*
X159928251Y-101313500D01*
X159872189Y-101324651D01*
X159823808Y-101324650D01*
X159767752Y-101313500D01*
X159767748Y-101313500D01*
X159278252Y-101313500D01*
X159278247Y-101313500D01*
X159219770Y-101325131D01*
X159219769Y-101325132D01*
X159153447Y-101369447D01*
X159109132Y-101435769D01*
X159109131Y-101435770D01*
X159097500Y-101494247D01*
X157127450Y-101494247D01*
X157136500Y-101448748D01*
X157136500Y-100859252D01*
X157136500Y-100859250D01*
X157136500Y-100859249D01*
X157136499Y-100859247D01*
X157124868Y-100800770D01*
X157124867Y-100800769D01*
X157080552Y-100734447D01*
X157014230Y-100690132D01*
X157014229Y-100690131D01*
X156955752Y-100678500D01*
X156955748Y-100678500D01*
X155316252Y-100678500D01*
X155316251Y-100678500D01*
X155305082Y-100680721D01*
X155235490Y-100674489D01*
X155180315Y-100631623D01*
X155157074Y-100565732D01*
X155159280Y-100534909D01*
X155161500Y-100523749D01*
X155161500Y-98884249D01*
X155161499Y-98884247D01*
X155149868Y-98825770D01*
X155149867Y-98825769D01*
X155105552Y-98759447D01*
X155039230Y-98715132D01*
X155039229Y-98715131D01*
X154980752Y-98703500D01*
X154980748Y-98703500D01*
X154391252Y-98703500D01*
X154391249Y-98703500D01*
X154320791Y-98717515D01*
X154320537Y-98716239D01*
X154263977Y-98722317D01*
X154240089Y-98715303D01*
X154180751Y-98703500D01*
X154180748Y-98703500D01*
X153591252Y-98703500D01*
X153591249Y-98703500D01*
X153520791Y-98717515D01*
X153520537Y-98716239D01*
X153463977Y-98722317D01*
X153440089Y-98715303D01*
X153380751Y-98703500D01*
X153380748Y-98703500D01*
X152791252Y-98703500D01*
X152791249Y-98703500D01*
X152720791Y-98717515D01*
X152720537Y-98716239D01*
X152663977Y-98722317D01*
X152640089Y-98715303D01*
X152580751Y-98703500D01*
X152580748Y-98703500D01*
X151991252Y-98703500D01*
X151991249Y-98703500D01*
X151920791Y-98717515D01*
X151920537Y-98716239D01*
X151863977Y-98722317D01*
X151840089Y-98715303D01*
X151780751Y-98703500D01*
X151780748Y-98703500D01*
X151191252Y-98703500D01*
X151191249Y-98703500D01*
X151120791Y-98717515D01*
X151120537Y-98716239D01*
X151063977Y-98722317D01*
X151040089Y-98715303D01*
X150980751Y-98703500D01*
X150980748Y-98703500D01*
X150391252Y-98703500D01*
X150391249Y-98703500D01*
X150320791Y-98717515D01*
X150320537Y-98716239D01*
X150263977Y-98722317D01*
X150240089Y-98715303D01*
X150180751Y-98703500D01*
X150180748Y-98703500D01*
X149591252Y-98703500D01*
X149591249Y-98703500D01*
X149520791Y-98717515D01*
X149520537Y-98716239D01*
X149463977Y-98722317D01*
X149440089Y-98715303D01*
X149380751Y-98703500D01*
X149380748Y-98703500D01*
X148791252Y-98703500D01*
X148791247Y-98703500D01*
X148732770Y-98715131D01*
X148732769Y-98715132D01*
X148666447Y-98759447D01*
X148622132Y-98825769D01*
X148622131Y-98825770D01*
X148610500Y-98884247D01*
X148610500Y-100523755D01*
X148612720Y-100534916D01*
X148606490Y-100604507D01*
X148563624Y-100659683D01*
X148497734Y-100682925D01*
X148466916Y-100680720D01*
X148455755Y-100678500D01*
X148455748Y-100678500D01*
X146816252Y-100678500D01*
X146816247Y-100678500D01*
X146757770Y-100690131D01*
X146757769Y-100690132D01*
X146691447Y-100734447D01*
X146647132Y-100800769D01*
X146647131Y-100800770D01*
X146635500Y-100859247D01*
X136600500Y-100859247D01*
X136600500Y-100428249D01*
X136600499Y-100428247D01*
X136588868Y-100369770D01*
X136588867Y-100369769D01*
X136544552Y-100303447D01*
X136478230Y-100259132D01*
X136478229Y-100259131D01*
X136419752Y-100247500D01*
X136419748Y-100247500D01*
X134880252Y-100247500D01*
X134880247Y-100247500D01*
X134821770Y-100259131D01*
X134821769Y-100259132D01*
X134755447Y-100303447D01*
X134711132Y-100369769D01*
X134711131Y-100369770D01*
X134699500Y-100428247D01*
X134300499Y-100428247D01*
X134300499Y-100428246D01*
X134288868Y-100369769D01*
X134288867Y-100369768D01*
X134244552Y-100303446D01*
X134178230Y-100259131D01*
X134178229Y-100259130D01*
X134119752Y-100247499D01*
X134119748Y-100247499D01*
X132580252Y-100247499D01*
X132580247Y-100247499D01*
X132521770Y-100259130D01*
X132521769Y-100259131D01*
X132455447Y-100303446D01*
X132411132Y-100369768D01*
X132411131Y-100369769D01*
X132399500Y-100428246D01*
X132000499Y-100428246D01*
X131988868Y-100369770D01*
X131988867Y-100369769D01*
X131944552Y-100303447D01*
X131878230Y-100259132D01*
X131878229Y-100259131D01*
X131819752Y-100247500D01*
X131819748Y-100247500D01*
X130280252Y-100247500D01*
X130280247Y-100247500D01*
X130221770Y-100259131D01*
X130221769Y-100259132D01*
X130155447Y-100303447D01*
X130111132Y-100369769D01*
X130111131Y-100369770D01*
X130099500Y-100428247D01*
X127653132Y-100428247D01*
X127632552Y-100397447D01*
X127566230Y-100353132D01*
X127566229Y-100353131D01*
X127507752Y-100341500D01*
X127507748Y-100341500D01*
X124968252Y-100341500D01*
X124968247Y-100341500D01*
X124909770Y-100353131D01*
X124909769Y-100353132D01*
X124843447Y-100397447D01*
X124799132Y-100463769D01*
X124799131Y-100463770D01*
X124787500Y-100522247D01*
X123688499Y-100522247D01*
X123676868Y-100463770D01*
X123676867Y-100463769D01*
X123632552Y-100397447D01*
X123566230Y-100353132D01*
X123566229Y-100353131D01*
X123507752Y-100341500D01*
X123507748Y-100341500D01*
X120968252Y-100341500D01*
X120968247Y-100341500D01*
X120909770Y-100353131D01*
X120909769Y-100353132D01*
X120843447Y-100397447D01*
X120799132Y-100463769D01*
X120799131Y-100463770D01*
X120787500Y-100522247D01*
X89998019Y-100522247D01*
X89998019Y-94128248D01*
X131249500Y-94128248D01*
X131249500Y-96167753D01*
X131261131Y-96226230D01*
X131261132Y-96226231D01*
X131305447Y-96292553D01*
X131371769Y-96336868D01*
X131371770Y-96336869D01*
X131430247Y-96348500D01*
X131430250Y-96348501D01*
X131430252Y-96348501D01*
X135269750Y-96348501D01*
X135269751Y-96348500D01*
X135284568Y-96345553D01*
X135328229Y-96336869D01*
X135328229Y-96336868D01*
X135328231Y-96336868D01*
X135394552Y-96292553D01*
X135434180Y-96233247D01*
X139453500Y-96233247D01*
X139453500Y-97822752D01*
X139465131Y-97881229D01*
X139465132Y-97881230D01*
X139509447Y-97947552D01*
X139575769Y-97991867D01*
X139575770Y-97991868D01*
X139634247Y-98003499D01*
X139634250Y-98003500D01*
X139634252Y-98003500D01*
X140273750Y-98003500D01*
X140273751Y-98003499D01*
X140288568Y-98000552D01*
X140332229Y-97991868D01*
X140332229Y-97991867D01*
X140332231Y-97991867D01*
X140398552Y-97947552D01*
X140442867Y-97881231D01*
X140442867Y-97881229D01*
X140442868Y-97881229D01*
X140454499Y-97822752D01*
X140454500Y-97822750D01*
X140454500Y-96233249D01*
X140454499Y-96233247D01*
X140723500Y-96233247D01*
X140723500Y-97822752D01*
X140735131Y-97881229D01*
X140735132Y-97881230D01*
X140779447Y-97947552D01*
X140845769Y-97991867D01*
X140845770Y-97991868D01*
X140904247Y-98003499D01*
X140904250Y-98003500D01*
X140904252Y-98003500D01*
X141543750Y-98003500D01*
X141543751Y-98003499D01*
X141558568Y-98000552D01*
X141602229Y-97991868D01*
X141602229Y-97991867D01*
X141602231Y-97991867D01*
X141668552Y-97947552D01*
X141712867Y-97881231D01*
X141712867Y-97881229D01*
X141712868Y-97881229D01*
X141724499Y-97822752D01*
X141724500Y-97822750D01*
X141724500Y-96233249D01*
X141724499Y-96233247D01*
X141993500Y-96233247D01*
X141993500Y-97822752D01*
X142005131Y-97881229D01*
X142005132Y-97881230D01*
X142049447Y-97947552D01*
X142115769Y-97991867D01*
X142115770Y-97991868D01*
X142174247Y-98003499D01*
X142174250Y-98003500D01*
X142174252Y-98003500D01*
X142813750Y-98003500D01*
X142813751Y-98003499D01*
X142828568Y-98000552D01*
X142872229Y-97991868D01*
X142872229Y-97991867D01*
X142872231Y-97991867D01*
X142938552Y-97947552D01*
X142982867Y-97881231D01*
X142982867Y-97881229D01*
X142982868Y-97881229D01*
X142994499Y-97822752D01*
X142994500Y-97822750D01*
X142994500Y-96233249D01*
X142994499Y-96233247D01*
X143263500Y-96233247D01*
X143263500Y-97822752D01*
X143275131Y-97881229D01*
X143275132Y-97881230D01*
X143319447Y-97947552D01*
X143385769Y-97991867D01*
X143385770Y-97991868D01*
X143444247Y-98003499D01*
X143444250Y-98003500D01*
X143444252Y-98003500D01*
X144083750Y-98003500D01*
X144083751Y-98003499D01*
X144098568Y-98000552D01*
X144142229Y-97991868D01*
X144142229Y-97991867D01*
X144142231Y-97991867D01*
X144208552Y-97947552D01*
X144252867Y-97881231D01*
X144252867Y-97881229D01*
X144252868Y-97881229D01*
X144264499Y-97822752D01*
X144264500Y-97822750D01*
X144264500Y-96233249D01*
X144264499Y-96233247D01*
X144252868Y-96174770D01*
X144252867Y-96174769D01*
X144208552Y-96108447D01*
X144142230Y-96064132D01*
X144142229Y-96064131D01*
X144083752Y-96052500D01*
X144083748Y-96052500D01*
X143444252Y-96052500D01*
X143444247Y-96052500D01*
X143385770Y-96064131D01*
X143385769Y-96064132D01*
X143319447Y-96108447D01*
X143275132Y-96174769D01*
X143275131Y-96174770D01*
X143263500Y-96233247D01*
X142994499Y-96233247D01*
X142982868Y-96174770D01*
X142982867Y-96174769D01*
X142938552Y-96108447D01*
X142872230Y-96064132D01*
X142872229Y-96064131D01*
X142813752Y-96052500D01*
X142813748Y-96052500D01*
X142174252Y-96052500D01*
X142174247Y-96052500D01*
X142115770Y-96064131D01*
X142115769Y-96064132D01*
X142049447Y-96108447D01*
X142005132Y-96174769D01*
X142005131Y-96174770D01*
X141993500Y-96233247D01*
X141724499Y-96233247D01*
X141712868Y-96174770D01*
X141712867Y-96174769D01*
X141668552Y-96108447D01*
X141602230Y-96064132D01*
X141602229Y-96064131D01*
X141543752Y-96052500D01*
X141543748Y-96052500D01*
X140904252Y-96052500D01*
X140904247Y-96052500D01*
X140845770Y-96064131D01*
X140845769Y-96064132D01*
X140779447Y-96108447D01*
X140735132Y-96174769D01*
X140735131Y-96174770D01*
X140723500Y-96233247D01*
X140454499Y-96233247D01*
X140442868Y-96174770D01*
X140442867Y-96174769D01*
X140398552Y-96108447D01*
X140332230Y-96064132D01*
X140332229Y-96064131D01*
X140273752Y-96052500D01*
X140273748Y-96052500D01*
X139634252Y-96052500D01*
X139634247Y-96052500D01*
X139575770Y-96064131D01*
X139575769Y-96064132D01*
X139509447Y-96108447D01*
X139465132Y-96174769D01*
X139465131Y-96174770D01*
X139453500Y-96233247D01*
X135434180Y-96233247D01*
X135438867Y-96226232D01*
X135438867Y-96226230D01*
X135438868Y-96226230D01*
X135443495Y-96202969D01*
X135450499Y-96167753D01*
X135450500Y-96167751D01*
X135450500Y-95594247D01*
X159097500Y-95594247D01*
X159097500Y-97133752D01*
X159109131Y-97192229D01*
X159109132Y-97192230D01*
X159153447Y-97258552D01*
X159219769Y-97302867D01*
X159219770Y-97302868D01*
X159278247Y-97314499D01*
X159278250Y-97314500D01*
X159278252Y-97314500D01*
X159767749Y-97314500D01*
X159798481Y-97308386D01*
X159823808Y-97303349D01*
X159872191Y-97303349D01*
X159928248Y-97314500D01*
X159928251Y-97314500D01*
X160417748Y-97314500D01*
X160432406Y-97311583D01*
X160473807Y-97303349D01*
X160522188Y-97303349D01*
X160578247Y-97314499D01*
X160578250Y-97314500D01*
X160578252Y-97314500D01*
X161067750Y-97314500D01*
X161123808Y-97303349D01*
X161172192Y-97303349D01*
X161228249Y-97314500D01*
X161228252Y-97314500D01*
X161717750Y-97314500D01*
X161773808Y-97303349D01*
X161822192Y-97303349D01*
X161878249Y-97314500D01*
X161878252Y-97314500D01*
X162367750Y-97314500D01*
X162423808Y-97303349D01*
X162472192Y-97303349D01*
X162528249Y-97314500D01*
X162528252Y-97314500D01*
X163017749Y-97314500D01*
X163032407Y-97311583D01*
X163073808Y-97303349D01*
X163122189Y-97303349D01*
X163178248Y-97314499D01*
X163178251Y-97314500D01*
X163178253Y-97314500D01*
X163667750Y-97314500D01*
X163698482Y-97308386D01*
X163723809Y-97303349D01*
X163772192Y-97303349D01*
X163828249Y-97314500D01*
X163828252Y-97314500D01*
X164317750Y-97314500D01*
X164317751Y-97314499D01*
X164332568Y-97311552D01*
X164376229Y-97302868D01*
X164376229Y-97302867D01*
X164376231Y-97302867D01*
X164442552Y-97258552D01*
X164486867Y-97192231D01*
X164486867Y-97192229D01*
X164486868Y-97192229D01*
X164498499Y-97133752D01*
X164498500Y-97133750D01*
X164498500Y-95594249D01*
X164498499Y-95594247D01*
X164486868Y-95535770D01*
X164486867Y-95535769D01*
X164442552Y-95469447D01*
X164376230Y-95425132D01*
X164376229Y-95425131D01*
X164317752Y-95413500D01*
X164317748Y-95413500D01*
X163828252Y-95413500D01*
X163772190Y-95424651D01*
X163723809Y-95424650D01*
X163667753Y-95413500D01*
X163667749Y-95413500D01*
X163178253Y-95413500D01*
X163122190Y-95424651D01*
X163073810Y-95424651D01*
X163017748Y-95413500D01*
X162528252Y-95413500D01*
X162472190Y-95424651D01*
X162423810Y-95424651D01*
X162367748Y-95413500D01*
X161878252Y-95413500D01*
X161822190Y-95424651D01*
X161773810Y-95424651D01*
X161717748Y-95413500D01*
X161228252Y-95413500D01*
X161172190Y-95424651D01*
X161123810Y-95424651D01*
X161067748Y-95413500D01*
X160578252Y-95413500D01*
X160522189Y-95424651D01*
X160473809Y-95424651D01*
X160417747Y-95413500D01*
X159928251Y-95413500D01*
X159872189Y-95424651D01*
X159823808Y-95424650D01*
X159767752Y-95413500D01*
X159767748Y-95413500D01*
X159278252Y-95413500D01*
X159278247Y-95413500D01*
X159219770Y-95425131D01*
X159219769Y-95425132D01*
X159153447Y-95469447D01*
X159109132Y-95535769D01*
X159109131Y-95535770D01*
X159097500Y-95594247D01*
X135450500Y-95594247D01*
X135450500Y-94128250D01*
X135450499Y-94128248D01*
X135438868Y-94069771D01*
X135438867Y-94069770D01*
X135394552Y-94003448D01*
X135328230Y-93959133D01*
X135328229Y-93959132D01*
X135269752Y-93947501D01*
X135269748Y-93947501D01*
X131430252Y-93947501D01*
X131430247Y-93947501D01*
X131371770Y-93959132D01*
X131371769Y-93959133D01*
X131305447Y-94003448D01*
X131261132Y-94069770D01*
X131261131Y-94069771D01*
X131249500Y-94128248D01*
X89998019Y-94128248D01*
X89998019Y-92084247D01*
X145375500Y-92084247D01*
X145375500Y-93323752D01*
X145387131Y-93382229D01*
X145387132Y-93382230D01*
X145431447Y-93448552D01*
X145497769Y-93492867D01*
X145497770Y-93492868D01*
X145556247Y-93504499D01*
X145556250Y-93504500D01*
X145556252Y-93504500D01*
X147795750Y-93504500D01*
X147795751Y-93504499D01*
X147810568Y-93501552D01*
X147854229Y-93492868D01*
X147854229Y-93492867D01*
X147854231Y-93492867D01*
X147920552Y-93448552D01*
X147964867Y-93382231D01*
X147964867Y-93382229D01*
X147964868Y-93382229D01*
X147976499Y-93323752D01*
X147976500Y-93323750D01*
X147976500Y-92084249D01*
X147976499Y-92084247D01*
X147964868Y-92025770D01*
X147964867Y-92025769D01*
X147920552Y-91959447D01*
X147854230Y-91915132D01*
X147854229Y-91915131D01*
X147795752Y-91903500D01*
X147795748Y-91903500D01*
X145556252Y-91903500D01*
X145556247Y-91903500D01*
X145497770Y-91915131D01*
X145497769Y-91915132D01*
X145431447Y-91959447D01*
X145387132Y-92025769D01*
X145387131Y-92025770D01*
X145375500Y-92084247D01*
X89998019Y-92084247D01*
X89998019Y-88388247D01*
X128935500Y-88388247D01*
X128935500Y-90427752D01*
X128947131Y-90486229D01*
X128947132Y-90486230D01*
X128991447Y-90552552D01*
X129057769Y-90596867D01*
X129057770Y-90596868D01*
X129116247Y-90608499D01*
X129116250Y-90608500D01*
X129116252Y-90608500D01*
X133655750Y-90608500D01*
X133655751Y-90608499D01*
X133670568Y-90605552D01*
X133714229Y-90596868D01*
X133714229Y-90596867D01*
X133714231Y-90596867D01*
X133780552Y-90552552D01*
X133824867Y-90486231D01*
X133824867Y-90486229D01*
X133824868Y-90486229D01*
X133836499Y-90427752D01*
X133836500Y-90427750D01*
X133836500Y-88388249D01*
X133836499Y-88388247D01*
X137435500Y-88388247D01*
X137435500Y-90427752D01*
X137447131Y-90486229D01*
X137447132Y-90486230D01*
X137491447Y-90552552D01*
X137557769Y-90596867D01*
X137557770Y-90596868D01*
X137616247Y-90608499D01*
X137616250Y-90608500D01*
X137616252Y-90608500D01*
X142155750Y-90608500D01*
X142155751Y-90608499D01*
X142170568Y-90605552D01*
X142214229Y-90596868D01*
X142214229Y-90596867D01*
X142214231Y-90596867D01*
X142280552Y-90552552D01*
X142324867Y-90486231D01*
X142324867Y-90486229D01*
X142324868Y-90486229D01*
X142336499Y-90427752D01*
X142336500Y-90427750D01*
X142336500Y-89804247D01*
X145375500Y-89804247D01*
X145375500Y-91043752D01*
X145387131Y-91102229D01*
X145387132Y-91102230D01*
X145431447Y-91168552D01*
X145497769Y-91212867D01*
X145497770Y-91212868D01*
X145556247Y-91224499D01*
X145556250Y-91224500D01*
X145556252Y-91224500D01*
X147795750Y-91224500D01*
X147795751Y-91224499D01*
X147810568Y-91221552D01*
X147854229Y-91212868D01*
X147854229Y-91212867D01*
X147854231Y-91212867D01*
X147920552Y-91168552D01*
X147964867Y-91102231D01*
X147964867Y-91102229D01*
X147964868Y-91102229D01*
X147976499Y-91043752D01*
X147976500Y-91043750D01*
X147976500Y-89804249D01*
X147976499Y-89804247D01*
X147964868Y-89745770D01*
X147964867Y-89745769D01*
X147920552Y-89679447D01*
X147854230Y-89635132D01*
X147854229Y-89635131D01*
X147795752Y-89623500D01*
X147795748Y-89623500D01*
X145556252Y-89623500D01*
X145556247Y-89623500D01*
X145497770Y-89635131D01*
X145497769Y-89635132D01*
X145431447Y-89679447D01*
X145387132Y-89745769D01*
X145387131Y-89745770D01*
X145375500Y-89804247D01*
X142336500Y-89804247D01*
X142336500Y-88388249D01*
X142336499Y-88388247D01*
X142324868Y-88329770D01*
X142324867Y-88329769D01*
X142280552Y-88263447D01*
X142214230Y-88219132D01*
X142214229Y-88219131D01*
X142155752Y-88207500D01*
X142155748Y-88207500D01*
X137616252Y-88207500D01*
X137616247Y-88207500D01*
X137557770Y-88219131D01*
X137557769Y-88219132D01*
X137491447Y-88263447D01*
X137447132Y-88329769D01*
X137447131Y-88329770D01*
X137435500Y-88388247D01*
X133836499Y-88388247D01*
X133824868Y-88329770D01*
X133824867Y-88329769D01*
X133780552Y-88263447D01*
X133714230Y-88219132D01*
X133714229Y-88219131D01*
X133655752Y-88207500D01*
X133655748Y-88207500D01*
X129116252Y-88207500D01*
X129116247Y-88207500D01*
X129057770Y-88219131D01*
X129057769Y-88219132D01*
X128991447Y-88263447D01*
X128947132Y-88329769D01*
X128947131Y-88329770D01*
X128935500Y-88388247D01*
X89998019Y-88388247D01*
X89998019Y-87524247D01*
X145375500Y-87524247D01*
X145375500Y-88763752D01*
X145387131Y-88822229D01*
X145387132Y-88822230D01*
X145431447Y-88888552D01*
X145497769Y-88932867D01*
X145497770Y-88932868D01*
X145556247Y-88944499D01*
X145556250Y-88944500D01*
X145556252Y-88944500D01*
X147795750Y-88944500D01*
X147795751Y-88944499D01*
X147810568Y-88941552D01*
X147854229Y-88932868D01*
X147854229Y-88932867D01*
X147854231Y-88932867D01*
X147920552Y-88888552D01*
X147964867Y-88822231D01*
X147964867Y-88822229D01*
X147964868Y-88822229D01*
X147976499Y-88763752D01*
X147976500Y-88763750D01*
X147976500Y-87524250D01*
X147976121Y-87522345D01*
X147976121Y-87522342D01*
X147972521Y-87504247D01*
X149575500Y-87504247D01*
X149575500Y-93343752D01*
X149587131Y-93402229D01*
X149587132Y-93402230D01*
X149631447Y-93468552D01*
X149697769Y-93512867D01*
X149697770Y-93512868D01*
X149756247Y-93524499D01*
X149756250Y-93524500D01*
X149756252Y-93524500D01*
X156195750Y-93524500D01*
X156195751Y-93524499D01*
X156210568Y-93521552D01*
X156254229Y-93512868D01*
X156254229Y-93512867D01*
X156254231Y-93512867D01*
X156320552Y-93468552D01*
X156364867Y-93402231D01*
X156364867Y-93402229D01*
X156364868Y-93402229D01*
X156376499Y-93343752D01*
X156376500Y-93343750D01*
X156376500Y-92072247D01*
X159749500Y-92072247D01*
X159749500Y-92711752D01*
X159761131Y-92770229D01*
X159761132Y-92770230D01*
X159805447Y-92836552D01*
X159871769Y-92880867D01*
X159871770Y-92880868D01*
X159930247Y-92892499D01*
X159930250Y-92892500D01*
X159930252Y-92892500D01*
X160369750Y-92892500D01*
X160369751Y-92892499D01*
X160384568Y-92889552D01*
X160428229Y-92880868D01*
X160428229Y-92880867D01*
X160428231Y-92880867D01*
X160494552Y-92836552D01*
X160496897Y-92833043D01*
X160550508Y-92788237D01*
X160619833Y-92779528D01*
X160682861Y-92809682D01*
X160703103Y-92833043D01*
X160705447Y-92836552D01*
X160771769Y-92880867D01*
X160771770Y-92880868D01*
X160830247Y-92892499D01*
X160830250Y-92892500D01*
X160830252Y-92892500D01*
X161269750Y-92892500D01*
X161269751Y-92892499D01*
X161284568Y-92889552D01*
X161328229Y-92880868D01*
X161328229Y-92880867D01*
X161328231Y-92880867D01*
X161394552Y-92836552D01*
X161438867Y-92770231D01*
X161438867Y-92770229D01*
X161438868Y-92770229D01*
X161450499Y-92711752D01*
X161450500Y-92711750D01*
X161450500Y-92072249D01*
X161450499Y-92072247D01*
X161438868Y-92013770D01*
X161438867Y-92013769D01*
X161394552Y-91947447D01*
X161328230Y-91903132D01*
X161328229Y-91903131D01*
X161269752Y-91891500D01*
X161269748Y-91891500D01*
X160830252Y-91891500D01*
X160830247Y-91891500D01*
X160771770Y-91903131D01*
X160771769Y-91903132D01*
X160705446Y-91947448D01*
X160703101Y-91950959D01*
X160649488Y-91995764D01*
X160580163Y-92004470D01*
X160517136Y-91974314D01*
X160496899Y-91950959D01*
X160494553Y-91947448D01*
X160428230Y-91903132D01*
X160428229Y-91903131D01*
X160369752Y-91891500D01*
X160369748Y-91891500D01*
X159930252Y-91891500D01*
X159930247Y-91891500D01*
X159871770Y-91903131D01*
X159871769Y-91903132D01*
X159805447Y-91947447D01*
X159761132Y-92013769D01*
X159761131Y-92013770D01*
X159749500Y-92072247D01*
X156376500Y-92072247D01*
X156376500Y-91722247D01*
X163599500Y-91722247D01*
X163599500Y-93061752D01*
X163611131Y-93120229D01*
X163611132Y-93120230D01*
X163655447Y-93186552D01*
X163721769Y-93230867D01*
X163721770Y-93230868D01*
X163780247Y-93242499D01*
X163780250Y-93242500D01*
X163780252Y-93242500D01*
X164519750Y-93242500D01*
X164519751Y-93242499D01*
X164534568Y-93239552D01*
X164578229Y-93230868D01*
X164578229Y-93230867D01*
X164578231Y-93230867D01*
X164644552Y-93186552D01*
X164688867Y-93120231D01*
X164688867Y-93120229D01*
X164688868Y-93120229D01*
X164700499Y-93061752D01*
X164700500Y-93061750D01*
X164700500Y-91722249D01*
X164700499Y-91722247D01*
X165499500Y-91722247D01*
X165499500Y-93061752D01*
X165511131Y-93120229D01*
X165511132Y-93120230D01*
X165555447Y-93186552D01*
X165621769Y-93230867D01*
X165621770Y-93230868D01*
X165680247Y-93242499D01*
X165680250Y-93242500D01*
X165680252Y-93242500D01*
X166419750Y-93242500D01*
X166419751Y-93242499D01*
X166434568Y-93239552D01*
X166478229Y-93230868D01*
X166478229Y-93230867D01*
X166478231Y-93230867D01*
X166544552Y-93186552D01*
X166588867Y-93120231D01*
X166588867Y-93120229D01*
X166588868Y-93120229D01*
X166600499Y-93061752D01*
X166600500Y-93061750D01*
X166600500Y-91722249D01*
X166600499Y-91722247D01*
X166588868Y-91663770D01*
X166588867Y-91663769D01*
X166544552Y-91597447D01*
X166478230Y-91553132D01*
X166478229Y-91553131D01*
X166419752Y-91541500D01*
X166419748Y-91541500D01*
X165680252Y-91541500D01*
X165680247Y-91541500D01*
X165621770Y-91553131D01*
X165621769Y-91553132D01*
X165555447Y-91597447D01*
X165511132Y-91663769D01*
X165511131Y-91663770D01*
X165499500Y-91722247D01*
X164700499Y-91722247D01*
X164688868Y-91663770D01*
X164688867Y-91663769D01*
X164644552Y-91597447D01*
X164578230Y-91553132D01*
X164578229Y-91553131D01*
X164519752Y-91541500D01*
X164519748Y-91541500D01*
X163780252Y-91541500D01*
X163780247Y-91541500D01*
X163721770Y-91553131D01*
X163721769Y-91553132D01*
X163655447Y-91597447D01*
X163611132Y-91663769D01*
X163611131Y-91663770D01*
X163599500Y-91722247D01*
X156376500Y-91722247D01*
X156376500Y-87922247D01*
X159399500Y-87922247D01*
X159399500Y-88861752D01*
X159411131Y-88920229D01*
X159411132Y-88920230D01*
X159455447Y-88986552D01*
X159521769Y-89030867D01*
X159521770Y-89030868D01*
X159580247Y-89042499D01*
X159580250Y-89042500D01*
X159580252Y-89042500D01*
X160119750Y-89042500D01*
X160119751Y-89042499D01*
X160134568Y-89039552D01*
X160178229Y-89030868D01*
X160178229Y-89030867D01*
X160178231Y-89030867D01*
X160244552Y-88986552D01*
X160288867Y-88920231D01*
X160288867Y-88920229D01*
X160288868Y-88920229D01*
X160300499Y-88861752D01*
X160300500Y-88861750D01*
X160300500Y-87922249D01*
X160300499Y-87922247D01*
X160899500Y-87922247D01*
X160899500Y-88861752D01*
X160911131Y-88920229D01*
X160911132Y-88920230D01*
X160955447Y-88986552D01*
X161021769Y-89030867D01*
X161021770Y-89030868D01*
X161080247Y-89042499D01*
X161080250Y-89042500D01*
X161080252Y-89042500D01*
X161619750Y-89042500D01*
X161619751Y-89042499D01*
X161634568Y-89039552D01*
X161678229Y-89030868D01*
X161678229Y-89030867D01*
X161678231Y-89030867D01*
X161744552Y-88986552D01*
X161788867Y-88920231D01*
X161788867Y-88920229D01*
X161788868Y-88920229D01*
X161800499Y-88861752D01*
X161800500Y-88861750D01*
X161800500Y-87922249D01*
X161800499Y-87922247D01*
X161788868Y-87863770D01*
X161788867Y-87863769D01*
X161744552Y-87797447D01*
X161678230Y-87753132D01*
X161678229Y-87753131D01*
X161619752Y-87741500D01*
X161619748Y-87741500D01*
X161080252Y-87741500D01*
X161080247Y-87741500D01*
X161021770Y-87753131D01*
X161021769Y-87753132D01*
X160955447Y-87797447D01*
X160911132Y-87863769D01*
X160911131Y-87863770D01*
X160899500Y-87922247D01*
X160300499Y-87922247D01*
X160288868Y-87863770D01*
X160288867Y-87863769D01*
X160244552Y-87797447D01*
X160178230Y-87753132D01*
X160178229Y-87753131D01*
X160119752Y-87741500D01*
X160119748Y-87741500D01*
X159580252Y-87741500D01*
X159580247Y-87741500D01*
X159521770Y-87753131D01*
X159521769Y-87753132D01*
X159455447Y-87797447D01*
X159411132Y-87863769D01*
X159411131Y-87863770D01*
X159399500Y-87922247D01*
X156376500Y-87922247D01*
X156376500Y-87522247D01*
X162999500Y-87522247D01*
X162999500Y-89261752D01*
X163011131Y-89320229D01*
X163011132Y-89320230D01*
X163055447Y-89386552D01*
X163121769Y-89430867D01*
X163121770Y-89430868D01*
X163180247Y-89442499D01*
X163180250Y-89442500D01*
X163180252Y-89442500D01*
X164119750Y-89442500D01*
X164119751Y-89442499D01*
X164134568Y-89439552D01*
X164178229Y-89430868D01*
X164178229Y-89430867D01*
X164178231Y-89430867D01*
X164244552Y-89386552D01*
X164288867Y-89320231D01*
X164288867Y-89320229D01*
X164288868Y-89320229D01*
X164300499Y-89261752D01*
X164300500Y-89261750D01*
X164300500Y-87522249D01*
X164300499Y-87522247D01*
X165899500Y-87522247D01*
X165899500Y-89261752D01*
X165911131Y-89320229D01*
X165911132Y-89320230D01*
X165955447Y-89386552D01*
X166021769Y-89430867D01*
X166021770Y-89430868D01*
X166080247Y-89442499D01*
X166080250Y-89442500D01*
X166080252Y-89442500D01*
X167019750Y-89442500D01*
X167019751Y-89442499D01*
X167034568Y-89439552D01*
X167078229Y-89430868D01*
X167078229Y-89430867D01*
X167078231Y-89430867D01*
X167144552Y-89386552D01*
X167188867Y-89320231D01*
X167188867Y-89320229D01*
X167188868Y-89320229D01*
X167200499Y-89261752D01*
X167200500Y-89261750D01*
X167200500Y-87522249D01*
X167200499Y-87522247D01*
X167188868Y-87463770D01*
X167188867Y-87463769D01*
X167144552Y-87397447D01*
X167078230Y-87353132D01*
X167078229Y-87353131D01*
X167019752Y-87341500D01*
X167019748Y-87341500D01*
X166080252Y-87341500D01*
X166080247Y-87341500D01*
X166021770Y-87353131D01*
X166021769Y-87353132D01*
X165955447Y-87397447D01*
X165911132Y-87463769D01*
X165911131Y-87463770D01*
X165899500Y-87522247D01*
X164300499Y-87522247D01*
X164288868Y-87463770D01*
X164288867Y-87463769D01*
X164244552Y-87397447D01*
X164178230Y-87353132D01*
X164178229Y-87353131D01*
X164119752Y-87341500D01*
X164119748Y-87341500D01*
X163180252Y-87341500D01*
X163180247Y-87341500D01*
X163121770Y-87353131D01*
X163121769Y-87353132D01*
X163055447Y-87397447D01*
X163011132Y-87463769D01*
X163011131Y-87463770D01*
X162999500Y-87522247D01*
X156376500Y-87522247D01*
X156376500Y-87504249D01*
X156376499Y-87504247D01*
X156364868Y-87445770D01*
X156364867Y-87445769D01*
X156320552Y-87379447D01*
X156254230Y-87335132D01*
X156254229Y-87335131D01*
X156195752Y-87323500D01*
X156195748Y-87323500D01*
X149756252Y-87323500D01*
X149756247Y-87323500D01*
X149697770Y-87335131D01*
X149697769Y-87335132D01*
X149631447Y-87379447D01*
X149587132Y-87445769D01*
X149587131Y-87445770D01*
X149575500Y-87504247D01*
X147972521Y-87504247D01*
X147964867Y-87465770D01*
X147964867Y-87465769D01*
X147920552Y-87399447D01*
X147854230Y-87355132D01*
X147854229Y-87355131D01*
X147795752Y-87343500D01*
X147795748Y-87343500D01*
X145556252Y-87343500D01*
X145556247Y-87343500D01*
X145497770Y-87355131D01*
X145497769Y-87355132D01*
X145431447Y-87399447D01*
X145387132Y-87465769D01*
X145387131Y-87465770D01*
X145375500Y-87524247D01*
X89998019Y-87524247D01*
X89998019Y-78781669D01*
X139999500Y-78781669D01*
X139999500Y-79218330D01*
X140037557Y-79653320D01*
X140037557Y-79653324D01*
X140113379Y-80083327D01*
X140113383Y-80083344D01*
X140226392Y-80505105D01*
X140375740Y-80915434D01*
X140375746Y-80915449D01*
X140560272Y-81311164D01*
X140560280Y-81311180D01*
X140713739Y-81576978D01*
X140778603Y-81689326D01*
X140778615Y-81689343D01*
X140821477Y-81750558D01*
X140824055Y-81754239D01*
X140825031Y-81755873D01*
X140829673Y-81762262D01*
X140830273Y-81763119D01*
X140830301Y-81763158D01*
X141029057Y-82047013D01*
X141082169Y-82110308D01*
X141082171Y-82110311D01*
X141084957Y-82113631D01*
X141088872Y-82119020D01*
X141104165Y-82136525D01*
X141104977Y-82137492D01*
X141105004Y-82137523D01*
X141309734Y-82381509D01*
X141376762Y-82448537D01*
X141384204Y-82457055D01*
X141408712Y-82480487D01*
X141618493Y-82690268D01*
X141618498Y-82690272D01*
X141694139Y-82753743D01*
X141697215Y-82756324D01*
X141708648Y-82767255D01*
X141740797Y-82792893D01*
X141821614Y-82860707D01*
X141952986Y-82970942D01*
X141961828Y-82977133D01*
X142043807Y-83034535D01*
X142059593Y-83047124D01*
X142097875Y-83072393D01*
X142310674Y-83221397D01*
X142413839Y-83280959D01*
X142434211Y-83294407D01*
X142477184Y-83317531D01*
X142688826Y-83439723D01*
X142804433Y-83493631D01*
X142829488Y-83507115D01*
X142875765Y-83526894D01*
X143025610Y-83596768D01*
X143084550Y-83624253D01*
X143084554Y-83624254D01*
X143084568Y-83624261D01*
X143212530Y-83670835D01*
X143242240Y-83683534D01*
X143290505Y-83699216D01*
X143494888Y-83773605D01*
X143494889Y-83773605D01*
X143494894Y-83773607D01*
X143547663Y-83787746D01*
X143635000Y-83811147D01*
X143669145Y-83822243D01*
X143718138Y-83833424D01*
X143916663Y-83886619D01*
X144068496Y-83913391D01*
X144106766Y-83922127D01*
X144155392Y-83928713D01*
X144346682Y-83962443D01*
X144509648Y-83976700D01*
X144551578Y-83982381D01*
X144598822Y-83984502D01*
X144781671Y-84000499D01*
X144781672Y-84000500D01*
X144955022Y-84000500D01*
X145000000Y-84002520D01*
X145044978Y-84000500D01*
X145218328Y-84000500D01*
X145218328Y-84000499D01*
X145401182Y-83984502D01*
X145448422Y-83982381D01*
X145490357Y-83976700D01*
X145653318Y-83962443D01*
X145844619Y-83928711D01*
X145893234Y-83922127D01*
X145931500Y-83913391D01*
X146083337Y-83886619D01*
X146281847Y-83833428D01*
X146330855Y-83822243D01*
X146365009Y-83811145D01*
X146452988Y-83787571D01*
X146505099Y-83773609D01*
X146505104Y-83773607D01*
X146505112Y-83773605D01*
X146709500Y-83699213D01*
X146757760Y-83683534D01*
X146787460Y-83670838D01*
X146874621Y-83639114D01*
X146915420Y-83624266D01*
X146915424Y-83624263D01*
X146915432Y-83624261D01*
X147124248Y-83526887D01*
X147170512Y-83507115D01*
X147195563Y-83493633D01*
X147311174Y-83439723D01*
X147522826Y-83317525D01*
X147565789Y-83294407D01*
X147586151Y-83280964D01*
X147689326Y-83221397D01*
X147796651Y-83146247D01*
X157217500Y-83146247D01*
X157217500Y-83985752D01*
X157229131Y-84044229D01*
X157229132Y-84044230D01*
X157273447Y-84110552D01*
X157339769Y-84154867D01*
X157339770Y-84154868D01*
X157398247Y-84166499D01*
X157398250Y-84166500D01*
X157398252Y-84166500D01*
X158337750Y-84166500D01*
X158337751Y-84166499D01*
X158352568Y-84163552D01*
X158396229Y-84154868D01*
X158396229Y-84154867D01*
X158396231Y-84154867D01*
X158462552Y-84110552D01*
X158506867Y-84044231D01*
X158506867Y-84044229D01*
X158506868Y-84044229D01*
X158518499Y-83985752D01*
X158518500Y-83985750D01*
X158518500Y-83146249D01*
X158518499Y-83146247D01*
X158506868Y-83087770D01*
X158506867Y-83087769D01*
X158462552Y-83021447D01*
X158396230Y-82977132D01*
X158396229Y-82977131D01*
X158337752Y-82965500D01*
X158337748Y-82965500D01*
X157398252Y-82965500D01*
X157398247Y-82965500D01*
X157339770Y-82977131D01*
X157339769Y-82977132D01*
X157273447Y-83021447D01*
X157229132Y-83087769D01*
X157229131Y-83087770D01*
X157217500Y-83146247D01*
X147796651Y-83146247D01*
X147878707Y-83088791D01*
X147900744Y-83073361D01*
X147901780Y-83072643D01*
X147902639Y-83072054D01*
X147940407Y-83047124D01*
X147953217Y-83036908D01*
X147959312Y-83032350D01*
X148047012Y-82970943D01*
X148259223Y-82792876D01*
X148291352Y-82767255D01*
X148302779Y-82756328D01*
X148381507Y-82690268D01*
X148591309Y-82480465D01*
X148615796Y-82457055D01*
X148623230Y-82448544D01*
X148690268Y-82381507D01*
X148895833Y-82136525D01*
X148911128Y-82119020D01*
X148915042Y-82113631D01*
X148970943Y-82047012D01*
X149170338Y-81762245D01*
X149174969Y-81755873D01*
X149175940Y-81754244D01*
X149221397Y-81689326D01*
X149439723Y-81311174D01*
X149469999Y-81246247D01*
X157217500Y-81246247D01*
X157217500Y-82085752D01*
X157229131Y-82144229D01*
X157229132Y-82144230D01*
X157273447Y-82210552D01*
X157339769Y-82254867D01*
X157339770Y-82254868D01*
X157398247Y-82266499D01*
X157398250Y-82266500D01*
X157398252Y-82266500D01*
X158337750Y-82266500D01*
X158337751Y-82266499D01*
X158352568Y-82263552D01*
X158396229Y-82254868D01*
X158396229Y-82254867D01*
X158396231Y-82254867D01*
X158462552Y-82210552D01*
X158472110Y-82196247D01*
X159217500Y-82196247D01*
X159217500Y-83035752D01*
X159229131Y-83094229D01*
X159229132Y-83094230D01*
X159273447Y-83160552D01*
X159339769Y-83204867D01*
X159339770Y-83204868D01*
X159398247Y-83216499D01*
X159398250Y-83216500D01*
X159398252Y-83216500D01*
X160337750Y-83216500D01*
X160337751Y-83216499D01*
X160352568Y-83213552D01*
X160396229Y-83204868D01*
X160396229Y-83204867D01*
X160396231Y-83204867D01*
X160462552Y-83160552D01*
X160506867Y-83094231D01*
X160506867Y-83094229D01*
X160506868Y-83094229D01*
X160518499Y-83035752D01*
X160518500Y-83035750D01*
X160518500Y-82196249D01*
X160518499Y-82196247D01*
X160506868Y-82137770D01*
X160506867Y-82137769D01*
X160462552Y-82071447D01*
X160396230Y-82027132D01*
X160396229Y-82027131D01*
X160337752Y-82015500D01*
X160337748Y-82015500D01*
X159398252Y-82015500D01*
X159398247Y-82015500D01*
X159339770Y-82027131D01*
X159339769Y-82027132D01*
X159273447Y-82071447D01*
X159229132Y-82137769D01*
X159229131Y-82137770D01*
X159217500Y-82196247D01*
X158472110Y-82196247D01*
X158506867Y-82144231D01*
X158518500Y-82085748D01*
X158518500Y-81321247D01*
X162337500Y-81321247D01*
X162337500Y-82010752D01*
X162349131Y-82069229D01*
X162349132Y-82069231D01*
X162351058Y-82072113D01*
X162353322Y-82079344D01*
X162353806Y-82080513D01*
X162353701Y-82080556D01*
X162371933Y-82138791D01*
X162353446Y-82206171D01*
X162351058Y-82209887D01*
X162349132Y-82212768D01*
X162349131Y-82212770D01*
X162337500Y-82271247D01*
X162337500Y-82960752D01*
X162349131Y-83019229D01*
X162349132Y-83019231D01*
X162351058Y-83022113D01*
X162353322Y-83029344D01*
X162353806Y-83030513D01*
X162353701Y-83030556D01*
X162371933Y-83088791D01*
X162353446Y-83156171D01*
X162351058Y-83159887D01*
X162349132Y-83162768D01*
X162349131Y-83162770D01*
X162337500Y-83221247D01*
X162337500Y-83910752D01*
X162349131Y-83969229D01*
X162349132Y-83969230D01*
X162393447Y-84035552D01*
X162459769Y-84079867D01*
X162459770Y-84079868D01*
X162518247Y-84091499D01*
X162518250Y-84091500D01*
X162518252Y-84091500D01*
X163617750Y-84091500D01*
X163617751Y-84091499D01*
X163632568Y-84088552D01*
X163676229Y-84079868D01*
X163676229Y-84079867D01*
X163676231Y-84079867D01*
X163742552Y-84035552D01*
X163786867Y-83969231D01*
X163786867Y-83969229D01*
X163786868Y-83969229D01*
X163797975Y-83913386D01*
X163798500Y-83910748D01*
X163798500Y-83221252D01*
X163798499Y-83221247D01*
X164537500Y-83221247D01*
X164537500Y-83910752D01*
X164549131Y-83969229D01*
X164549132Y-83969230D01*
X164593447Y-84035552D01*
X164659769Y-84079867D01*
X164659770Y-84079868D01*
X164718247Y-84091499D01*
X164718250Y-84091500D01*
X164718252Y-84091500D01*
X165817750Y-84091500D01*
X165817751Y-84091499D01*
X165832568Y-84088552D01*
X165876229Y-84079868D01*
X165876229Y-84079867D01*
X165876231Y-84079867D01*
X165942552Y-84035552D01*
X165986867Y-83969231D01*
X165986867Y-83969229D01*
X165986868Y-83969229D01*
X165997975Y-83913386D01*
X165998500Y-83910748D01*
X165998500Y-83221252D01*
X165998500Y-83221249D01*
X165998499Y-83221247D01*
X165986868Y-83162770D01*
X165986867Y-83162769D01*
X165942552Y-83096447D01*
X165876230Y-83052132D01*
X165876229Y-83052131D01*
X165817752Y-83040500D01*
X165817748Y-83040500D01*
X164718252Y-83040500D01*
X164718247Y-83040500D01*
X164659770Y-83052131D01*
X164659769Y-83052132D01*
X164593447Y-83096447D01*
X164549132Y-83162769D01*
X164549131Y-83162770D01*
X164537500Y-83221247D01*
X163798499Y-83221247D01*
X163786867Y-83162769D01*
X163773883Y-83143338D01*
X163768561Y-83124157D01*
X163768797Y-83108323D01*
X163764066Y-83093215D01*
X163769307Y-83074108D01*
X163769603Y-83054295D01*
X163778361Y-83041103D01*
X163782550Y-83025835D01*
X163784945Y-83022108D01*
X163786867Y-83019231D01*
X163786868Y-83019229D01*
X163798499Y-82960752D01*
X163798500Y-82960750D01*
X163798500Y-82271249D01*
X163798499Y-82271247D01*
X163786868Y-82212770D01*
X163786867Y-82212768D01*
X163784945Y-82209892D01*
X163782681Y-82202664D01*
X163782194Y-82201487D01*
X163782299Y-82201443D01*
X163764066Y-82143215D01*
X163782550Y-82075835D01*
X163784945Y-82072108D01*
X163786867Y-82069231D01*
X163786868Y-82069229D01*
X163798499Y-82010752D01*
X163798500Y-82010750D01*
X163798500Y-81321249D01*
X163798499Y-81321247D01*
X164537500Y-81321247D01*
X164537500Y-82010752D01*
X164549131Y-82069229D01*
X164549132Y-82069230D01*
X164593447Y-82135552D01*
X164659769Y-82179867D01*
X164659770Y-82179868D01*
X164718247Y-82191499D01*
X164718250Y-82191500D01*
X164718252Y-82191500D01*
X165817750Y-82191500D01*
X165817751Y-82191499D01*
X165832568Y-82188552D01*
X165876229Y-82179868D01*
X165876229Y-82179867D01*
X165876231Y-82179867D01*
X165942552Y-82135552D01*
X165986867Y-82069231D01*
X165986867Y-82069229D01*
X165986868Y-82069229D01*
X165998499Y-82010752D01*
X165998500Y-82010750D01*
X165998500Y-81321249D01*
X165998499Y-81321247D01*
X165986868Y-81262770D01*
X165986867Y-81262769D01*
X165942552Y-81196447D01*
X165876230Y-81152132D01*
X165876229Y-81152131D01*
X165817752Y-81140500D01*
X165817748Y-81140500D01*
X164718252Y-81140500D01*
X164718247Y-81140500D01*
X164659770Y-81152131D01*
X164659769Y-81152132D01*
X164593447Y-81196447D01*
X164549132Y-81262769D01*
X164549131Y-81262770D01*
X164537500Y-81321247D01*
X163798499Y-81321247D01*
X163786868Y-81262770D01*
X163786867Y-81262769D01*
X163742552Y-81196447D01*
X163676230Y-81152132D01*
X163676229Y-81152131D01*
X163617752Y-81140500D01*
X163617748Y-81140500D01*
X162518252Y-81140500D01*
X162518247Y-81140500D01*
X162459770Y-81152131D01*
X162459769Y-81152132D01*
X162393447Y-81196447D01*
X162349132Y-81262769D01*
X162349131Y-81262770D01*
X162337500Y-81321247D01*
X158518500Y-81321247D01*
X158518500Y-81246252D01*
X158518500Y-81246249D01*
X158518499Y-81246247D01*
X158506868Y-81187770D01*
X158506867Y-81187769D01*
X158462552Y-81121447D01*
X158396230Y-81077132D01*
X158396229Y-81077131D01*
X158337752Y-81065500D01*
X158337748Y-81065500D01*
X157398252Y-81065500D01*
X157398247Y-81065500D01*
X157339770Y-81077131D01*
X157339769Y-81077132D01*
X157273447Y-81121447D01*
X157229132Y-81187769D01*
X157229131Y-81187770D01*
X157217500Y-81246247D01*
X149469999Y-81246247D01*
X149493221Y-81196448D01*
X149497275Y-81187755D01*
X149624253Y-80915449D01*
X149624261Y-80915432D01*
X149773605Y-80505112D01*
X149886619Y-80083337D01*
X149962443Y-79653318D01*
X150000500Y-79218327D01*
X150000500Y-78781673D01*
X149962443Y-78346682D01*
X149886619Y-77916663D01*
X149809110Y-77627398D01*
X149773607Y-77494894D01*
X149773604Y-77494886D01*
X149763967Y-77468407D01*
X149763961Y-77468392D01*
X149751483Y-77434108D01*
X162499499Y-77434108D01*
X162499499Y-77565891D01*
X162533607Y-77693187D01*
X162566553Y-77750250D01*
X162599499Y-77807314D01*
X162599501Y-77807316D01*
X162618170Y-77825985D01*
X162620181Y-77829114D01*
X162628555Y-77836370D01*
X162692685Y-77900500D01*
X162712034Y-77911671D01*
X162722291Y-77917593D01*
X162728289Y-77922790D01*
X162742658Y-77929352D01*
X162806813Y-77966392D01*
X162847832Y-77977383D01*
X162858408Y-77982213D01*
X162874483Y-77984524D01*
X162934107Y-78000500D01*
X162934108Y-78000500D01*
X162985595Y-78000500D01*
X162999999Y-78002571D01*
X163014403Y-78000500D01*
X163065890Y-78000500D01*
X163065891Y-78000500D01*
X163125519Y-77984522D01*
X163141590Y-77982213D01*
X163152166Y-77977382D01*
X163193185Y-77966392D01*
X163257345Y-77929348D01*
X163271709Y-77922790D01*
X163277702Y-77917595D01*
X163307313Y-77900500D01*
X163371448Y-77836364D01*
X163379817Y-77829114D01*
X163381825Y-77825987D01*
X163400499Y-77807314D01*
X163466391Y-77693186D01*
X163500499Y-77565892D01*
X163500499Y-77434108D01*
X163466391Y-77306814D01*
X163400499Y-77192686D01*
X163381827Y-77174014D01*
X163379817Y-77170886D01*
X163371442Y-77163629D01*
X163307312Y-77099499D01*
X163301660Y-77096236D01*
X163277703Y-77082404D01*
X163271709Y-77077210D01*
X163257342Y-77070648D01*
X163252221Y-77067692D01*
X163193185Y-77033608D01*
X163193183Y-77033607D01*
X163162160Y-77025294D01*
X163162160Y-77025293D01*
X163152157Y-77022612D01*
X163141590Y-77017787D01*
X163125525Y-77015477D01*
X163118381Y-77013563D01*
X163118377Y-77013563D01*
X163065892Y-76999500D01*
X163065891Y-76999500D01*
X163014403Y-76999500D01*
X162999999Y-76997429D01*
X162985595Y-76999500D01*
X162934103Y-76999500D01*
X162881615Y-77013563D01*
X162881616Y-77013564D01*
X162874477Y-77015476D01*
X162858408Y-77017787D01*
X162847840Y-77022612D01*
X162837837Y-77025293D01*
X162837834Y-77025295D01*
X162806816Y-77033607D01*
X162806814Y-77033607D01*
X162747767Y-77067697D01*
X162747766Y-77067696D01*
X162742635Y-77070658D01*
X162728289Y-77077210D01*
X162722300Y-77082399D01*
X162712051Y-77088317D01*
X162712044Y-77088323D01*
X162692685Y-77099500D01*
X162692681Y-77099503D01*
X162631676Y-77160506D01*
X162628533Y-77163648D01*
X162620181Y-77170886D01*
X162618175Y-77174006D01*
X162609801Y-77182381D01*
X162599500Y-77192683D01*
X162599498Y-77192685D01*
X162533608Y-77306810D01*
X162533608Y-77306811D01*
X162533608Y-77306812D01*
X162533607Y-77306814D01*
X162499499Y-77434108D01*
X149751483Y-77434108D01*
X149624261Y-77084568D01*
X149616393Y-77067696D01*
X149439727Y-76688835D01*
X149439719Y-76688819D01*
X149408618Y-76634950D01*
X149221397Y-76310674D01*
X149203102Y-76284546D01*
X149178526Y-76249447D01*
X149175947Y-76245764D01*
X149174969Y-76244127D01*
X149170321Y-76237729D01*
X149169696Y-76236837D01*
X149169695Y-76236836D01*
X149169694Y-76236834D01*
X149114042Y-76157354D01*
X149069932Y-76094358D01*
X157499499Y-76094358D01*
X157499499Y-76095052D01*
X157499499Y-76226142D01*
X157516553Y-76289789D01*
X157533607Y-76353437D01*
X157566553Y-76410500D01*
X157599499Y-76467564D01*
X157599501Y-76467566D01*
X157618170Y-76486235D01*
X157620181Y-76489364D01*
X157628555Y-76496620D01*
X157692685Y-76560750D01*
X157712034Y-76571921D01*
X157722291Y-76577843D01*
X157728289Y-76583040D01*
X157742658Y-76589602D01*
X157806813Y-76626642D01*
X157847832Y-76637633D01*
X157858408Y-76642463D01*
X157874483Y-76644774D01*
X157934107Y-76660750D01*
X157934108Y-76660750D01*
X157985595Y-76660750D01*
X157999999Y-76662821D01*
X158014403Y-76660750D01*
X158065890Y-76660750D01*
X158065891Y-76660750D01*
X158125519Y-76644772D01*
X158141590Y-76642463D01*
X158152166Y-76637632D01*
X158193185Y-76626642D01*
X158257345Y-76589598D01*
X158271709Y-76583040D01*
X158277702Y-76577845D01*
X158307313Y-76560750D01*
X158371448Y-76496614D01*
X158379817Y-76489364D01*
X158381825Y-76486237D01*
X158400499Y-76467564D01*
X158466391Y-76353436D01*
X158500499Y-76226142D01*
X158500499Y-76094358D01*
X158466391Y-75967064D01*
X158400499Y-75852936D01*
X158381827Y-75834264D01*
X158379817Y-75831136D01*
X158371442Y-75823879D01*
X158307312Y-75759749D01*
X158301660Y-75756486D01*
X158277703Y-75742654D01*
X158271709Y-75737460D01*
X158257342Y-75730898D01*
X158252221Y-75727942D01*
X158193185Y-75693858D01*
X158193183Y-75693857D01*
X158162160Y-75685544D01*
X158162160Y-75685543D01*
X158152157Y-75682862D01*
X158141590Y-75678037D01*
X158125525Y-75675727D01*
X158118381Y-75673813D01*
X158118377Y-75673813D01*
X158065892Y-75659750D01*
X158065891Y-75659750D01*
X158014403Y-75659750D01*
X157999999Y-75657679D01*
X157985595Y-75659750D01*
X157934103Y-75659750D01*
X157881615Y-75673813D01*
X157881616Y-75673814D01*
X157874477Y-75675726D01*
X157858408Y-75678037D01*
X157847840Y-75682862D01*
X157837837Y-75685543D01*
X157837834Y-75685545D01*
X157806816Y-75693857D01*
X157806814Y-75693857D01*
X157747767Y-75727947D01*
X157747766Y-75727946D01*
X157742635Y-75730908D01*
X157728289Y-75737460D01*
X157722300Y-75742649D01*
X157712051Y-75748567D01*
X157712044Y-75748573D01*
X157692685Y-75759750D01*
X157692681Y-75759753D01*
X157631676Y-75820756D01*
X157628533Y-75823898D01*
X157620181Y-75831136D01*
X157618175Y-75834256D01*
X157609801Y-75842631D01*
X157599500Y-75852933D01*
X157599498Y-75852935D01*
X157533608Y-75967060D01*
X157533608Y-75967061D01*
X157533608Y-75967062D01*
X157533607Y-75967064D01*
X157499499Y-76094358D01*
X149069932Y-76094358D01*
X148970948Y-75952994D01*
X148970946Y-75952993D01*
X148970943Y-75952988D01*
X148915040Y-75886365D01*
X148911128Y-75880980D01*
X148895789Y-75863423D01*
X148894991Y-75862472D01*
X148894990Y-75862470D01*
X148746531Y-75685545D01*
X148690268Y-75618493D01*
X148623237Y-75551462D01*
X148615796Y-75542945D01*
X148591287Y-75519512D01*
X148381509Y-75309734D01*
X148378399Y-75307124D01*
X148302785Y-75243676D01*
X148291352Y-75232745D01*
X148259212Y-75207114D01*
X148258020Y-75206114D01*
X148047013Y-75029057D01*
X147959362Y-74967684D01*
X147956194Y-74965466D01*
X147940407Y-74952876D01*
X147902146Y-74927620D01*
X147900742Y-74926637D01*
X147900741Y-74926636D01*
X147689343Y-74778615D01*
X147689326Y-74778603D01*
X147589378Y-74720898D01*
X147589378Y-74720897D01*
X147586151Y-74719034D01*
X147565789Y-74705593D01*
X147522827Y-74682474D01*
X147521190Y-74681529D01*
X147385811Y-74603368D01*
X147311180Y-74560280D01*
X147311164Y-74560272D01*
X147198804Y-74507877D01*
X147195564Y-74506366D01*
X147191368Y-74504108D01*
X155429499Y-74504108D01*
X155429499Y-74504802D01*
X155429499Y-74635892D01*
X155441981Y-74682475D01*
X155463607Y-74763187D01*
X155489814Y-74808578D01*
X155529499Y-74877314D01*
X155529501Y-74877316D01*
X155548170Y-74895985D01*
X155550181Y-74899114D01*
X155558555Y-74906370D01*
X155622685Y-74970500D01*
X155642034Y-74981671D01*
X155652291Y-74987593D01*
X155658289Y-74992790D01*
X155672658Y-74999352D01*
X155736813Y-75036392D01*
X155777832Y-75047383D01*
X155788408Y-75052213D01*
X155804483Y-75054524D01*
X155864107Y-75070500D01*
X155864108Y-75070500D01*
X155915595Y-75070500D01*
X155929999Y-75072571D01*
X155944403Y-75070500D01*
X155995890Y-75070500D01*
X155995891Y-75070500D01*
X156055519Y-75054522D01*
X156071590Y-75052213D01*
X156082166Y-75047382D01*
X156123185Y-75036392D01*
X156187345Y-74999348D01*
X156201709Y-74992790D01*
X156207702Y-74987595D01*
X156237313Y-74970500D01*
X156301448Y-74906364D01*
X156309817Y-74899114D01*
X156311825Y-74895987D01*
X156330499Y-74877314D01*
X156396391Y-74763186D01*
X156430499Y-74635892D01*
X156430499Y-74504108D01*
X156396391Y-74376814D01*
X156395774Y-74375746D01*
X156369549Y-74330323D01*
X156330499Y-74262686D01*
X156311827Y-74244014D01*
X156309817Y-74240886D01*
X156301442Y-74233629D01*
X156237312Y-74169499D01*
X156231197Y-74165969D01*
X156207703Y-74152404D01*
X156201709Y-74147210D01*
X156187342Y-74140648D01*
X156182221Y-74137692D01*
X156123185Y-74103608D01*
X156123183Y-74103607D01*
X156092160Y-74095294D01*
X156092160Y-74095293D01*
X156082157Y-74092612D01*
X156071590Y-74087787D01*
X156055525Y-74085477D01*
X156048381Y-74083563D01*
X156048377Y-74083563D01*
X155995892Y-74069500D01*
X155995891Y-74069500D01*
X155944403Y-74069500D01*
X155929999Y-74067429D01*
X155915595Y-74069500D01*
X155864103Y-74069500D01*
X155811615Y-74083563D01*
X155811616Y-74083564D01*
X155804477Y-74085476D01*
X155788408Y-74087787D01*
X155777840Y-74092612D01*
X155767837Y-74095293D01*
X155767834Y-74095295D01*
X155736816Y-74103607D01*
X155736814Y-74103607D01*
X155677767Y-74137697D01*
X155677766Y-74137696D01*
X155672635Y-74140658D01*
X155658289Y-74147210D01*
X155652300Y-74152399D01*
X155642051Y-74158317D01*
X155642044Y-74158323D01*
X155622685Y-74169500D01*
X155622681Y-74169503D01*
X155561676Y-74230506D01*
X155558533Y-74233648D01*
X155550181Y-74240886D01*
X155548175Y-74244006D01*
X155539801Y-74252381D01*
X155529500Y-74262683D01*
X155529498Y-74262685D01*
X155463608Y-74376810D01*
X155463608Y-74376811D01*
X155463608Y-74376812D01*
X155463607Y-74376814D01*
X155429499Y-74504108D01*
X147191368Y-74504108D01*
X147170512Y-74492885D01*
X147124250Y-74473111D01*
X147122413Y-74472255D01*
X146915449Y-74375746D01*
X146915428Y-74375737D01*
X146790657Y-74330322D01*
X146790657Y-74330323D01*
X146787443Y-74329153D01*
X146757760Y-74316466D01*
X146709525Y-74300793D01*
X146707460Y-74300042D01*
X146505105Y-74226392D01*
X146368139Y-74189693D01*
X146368138Y-74189693D01*
X146365014Y-74188856D01*
X146330855Y-74177757D01*
X146281856Y-74166573D01*
X146279612Y-74165972D01*
X146279611Y-74165971D01*
X146083344Y-74113383D01*
X146083346Y-74113383D01*
X146083337Y-74113381D01*
X146046066Y-74106809D01*
X145934557Y-74087146D01*
X145934557Y-74087145D01*
X145931481Y-74086602D01*
X145893234Y-74077873D01*
X145844619Y-74071287D01*
X145842154Y-74070853D01*
X145842146Y-74070852D01*
X145653323Y-74037557D01*
X145493293Y-74023556D01*
X145493292Y-74023556D01*
X145490350Y-74023298D01*
X145448422Y-74017619D01*
X145401206Y-74015498D01*
X145398549Y-74015266D01*
X145398548Y-74015265D01*
X145218332Y-73999500D01*
X145218327Y-73999500D01*
X145044978Y-73999500D01*
X145000000Y-73997480D01*
X144955022Y-73999500D01*
X144781666Y-73999500D01*
X144601448Y-74015265D01*
X144601449Y-74015266D01*
X144598789Y-74015498D01*
X144551578Y-74017619D01*
X144509653Y-74023298D01*
X144506706Y-74023556D01*
X144506705Y-74023555D01*
X144506705Y-74023556D01*
X144346677Y-74037557D01*
X144346675Y-74037557D01*
X144157855Y-74070850D01*
X144157856Y-74070851D01*
X144155375Y-74071288D01*
X144106766Y-74077873D01*
X144068496Y-74086607D01*
X144065427Y-74087149D01*
X143916668Y-74113380D01*
X143916654Y-74113383D01*
X143720397Y-74165969D01*
X143718127Y-74166576D01*
X143669145Y-74177757D01*
X143635015Y-74188846D01*
X143631848Y-74189695D01*
X143631846Y-74189694D01*
X143494902Y-74226391D01*
X143494868Y-74226401D01*
X143292544Y-74300039D01*
X143292545Y-74300040D01*
X143290470Y-74300795D01*
X143242240Y-74316466D01*
X143212560Y-74329151D01*
X143209334Y-74330326D01*
X143209333Y-74330326D01*
X143084561Y-74375741D01*
X143084558Y-74375742D01*
X142877594Y-74472250D01*
X142877595Y-74472251D01*
X142875742Y-74473115D01*
X142829488Y-74492885D01*
X142804448Y-74506359D01*
X142801211Y-74507869D01*
X142801198Y-74507876D01*
X142688826Y-74560276D01*
X142688819Y-74560280D01*
X142478797Y-74681536D01*
X142478796Y-74681537D01*
X142477169Y-74682475D01*
X142434211Y-74705593D01*
X142413863Y-74719023D01*
X142410630Y-74720891D01*
X142410627Y-74720894D01*
X142310669Y-74778606D01*
X142099286Y-74926615D01*
X142099287Y-74926616D01*
X142097835Y-74927632D01*
X142059593Y-74952876D01*
X142043821Y-74965452D01*
X142040650Y-74967674D01*
X141952985Y-75029059D01*
X141741949Y-75206136D01*
X141741950Y-75206137D01*
X141740735Y-75207155D01*
X141708648Y-75232745D01*
X141697225Y-75243666D01*
X141694133Y-75246261D01*
X141694130Y-75246262D01*
X141618510Y-75309716D01*
X141618496Y-75309729D01*
X141409717Y-75518507D01*
X141409716Y-75518507D01*
X141408665Y-75519557D01*
X141384204Y-75542945D01*
X141376788Y-75551432D01*
X141373831Y-75554390D01*
X141373817Y-75554406D01*
X141309740Y-75618484D01*
X141309728Y-75618497D01*
X141105012Y-75862464D01*
X141105013Y-75862465D01*
X141104162Y-75863478D01*
X141088872Y-75880980D01*
X141084965Y-75886356D01*
X141082172Y-75889686D01*
X141029061Y-75952982D01*
X140830283Y-76236865D01*
X140830282Y-76236864D01*
X140829598Y-76237840D01*
X140825031Y-76244127D01*
X140824060Y-76245750D01*
X140821488Y-76249426D01*
X140821486Y-76249429D01*
X140778612Y-76310660D01*
X140778598Y-76310682D01*
X140560280Y-76688819D01*
X140560272Y-76688835D01*
X140375746Y-77084550D01*
X140375740Y-77084565D01*
X140226392Y-77494894D01*
X140113383Y-77916655D01*
X140113379Y-77916672D01*
X140037557Y-78346675D01*
X140037557Y-78346679D01*
X139999500Y-78781669D01*
X89998019Y-78781669D01*
X89998019Y-73359568D01*
X132999500Y-73359568D01*
X132999500Y-73640431D01*
X133030942Y-73919494D01*
X133030945Y-73919513D01*
X133040035Y-73959336D01*
X133040035Y-73959337D01*
X133041398Y-73965312D01*
X133041854Y-73968916D01*
X133045157Y-73981783D01*
X133045529Y-73983410D01*
X133045537Y-73983442D01*
X133093439Y-74193316D01*
X133093440Y-74193318D01*
X133114346Y-74253065D01*
X133116092Y-74258056D01*
X133120008Y-74273306D01*
X133132231Y-74304178D01*
X133133066Y-74306564D01*
X133133066Y-74306566D01*
X133186196Y-74458401D01*
X133186205Y-74458423D01*
X133224167Y-74537251D01*
X133226101Y-74541268D01*
X133235696Y-74565501D01*
X133252429Y-74595938D01*
X133253877Y-74598945D01*
X133253885Y-74598960D01*
X133256008Y-74603368D01*
X133308055Y-74711445D01*
X133308057Y-74711449D01*
X133308059Y-74711452D01*
X133369087Y-74808577D01*
X133369087Y-74808578D01*
X133371020Y-74811654D01*
X133387093Y-74840891D01*
X133404088Y-74864283D01*
X133406314Y-74867825D01*
X133406318Y-74867831D01*
X133457474Y-74949244D01*
X133457477Y-74949248D01*
X133472179Y-74967684D01*
X133549538Y-75064689D01*
X133551275Y-75066868D01*
X133571813Y-75095135D01*
X133585111Y-75109296D01*
X133588234Y-75113212D01*
X133632583Y-75168824D01*
X133770883Y-75307124D01*
X133786940Y-75324223D01*
X133792972Y-75329213D01*
X133831175Y-75367416D01*
X134050752Y-75542523D01*
X134288555Y-75691945D01*
X134541592Y-75813801D01*
X134680686Y-75862472D01*
X134806670Y-75906556D01*
X134806672Y-75906557D01*
X134806676Y-75906557D01*
X134806682Y-75906560D01*
X134866377Y-75920185D01*
X134877661Y-75923852D01*
X134906772Y-75929404D01*
X135080491Y-75969055D01*
X135163872Y-75978449D01*
X135186357Y-75982739D01*
X135221627Y-75984957D01*
X135334541Y-75997679D01*
X135359573Y-76000500D01*
X135468656Y-76000500D01*
X135500000Y-76002472D01*
X135531344Y-76000500D01*
X135640427Y-76000500D01*
X135663332Y-75997918D01*
X135778365Y-75984957D01*
X135813643Y-75982739D01*
X135836123Y-75978450D01*
X135919509Y-75969055D01*
X136093231Y-75929403D01*
X136122339Y-75923852D01*
X136133621Y-75920185D01*
X136193318Y-75906560D01*
X136458408Y-75813801D01*
X136711445Y-75691945D01*
X136949248Y-75542523D01*
X137168825Y-75367416D01*
X137207033Y-75329207D01*
X137213060Y-75324223D01*
X137229100Y-75307140D01*
X137367416Y-75168825D01*
X137414893Y-75109290D01*
X137428187Y-75095135D01*
X137448717Y-75066876D01*
X137542523Y-74949248D01*
X137595904Y-74864291D01*
X137612907Y-74840891D01*
X137628982Y-74811648D01*
X137691945Y-74711445D01*
X137747572Y-74595933D01*
X137764304Y-74565501D01*
X137773898Y-74541266D01*
X137813801Y-74458408D01*
X137867772Y-74304166D01*
X137879992Y-74273306D01*
X137883907Y-74258056D01*
X137906560Y-74193318D01*
X137954840Y-73981787D01*
X137958146Y-73968916D01*
X137958600Y-73965314D01*
X137969055Y-73919509D01*
X138000500Y-73640425D01*
X138000500Y-73359575D01*
X137969055Y-73080491D01*
X137958599Y-73034683D01*
X137958146Y-73031084D01*
X137954839Y-73018207D01*
X137906560Y-72806682D01*
X137906555Y-72806669D01*
X137885657Y-72746946D01*
X137883907Y-72741943D01*
X137879992Y-72726694D01*
X137867769Y-72695825D01*
X137813801Y-72541592D01*
X137775813Y-72462709D01*
X137772273Y-72454627D01*
X137764304Y-72434499D01*
X137764089Y-72434108D01*
X153839299Y-72434108D01*
X153839299Y-72565891D01*
X153873407Y-72693187D01*
X153874908Y-72695786D01*
X153939299Y-72807314D01*
X153939301Y-72807316D01*
X153957970Y-72825985D01*
X153959981Y-72829114D01*
X153968355Y-72836370D01*
X154032485Y-72900500D01*
X154051834Y-72911671D01*
X154062091Y-72917593D01*
X154068089Y-72922790D01*
X154082458Y-72929352D01*
X154146613Y-72966392D01*
X154187632Y-72977383D01*
X154198208Y-72982213D01*
X154214283Y-72984524D01*
X154273907Y-73000500D01*
X154273908Y-73000500D01*
X154325395Y-73000500D01*
X154339799Y-73002571D01*
X154354203Y-73000500D01*
X154405690Y-73000500D01*
X154405691Y-73000500D01*
X154465319Y-72984522D01*
X154481390Y-72982213D01*
X154491966Y-72977382D01*
X154532985Y-72966392D01*
X154597145Y-72929348D01*
X154611509Y-72922790D01*
X154617502Y-72917595D01*
X154647113Y-72900500D01*
X154711248Y-72836364D01*
X154719617Y-72829114D01*
X154721625Y-72825987D01*
X154740299Y-72807314D01*
X154806191Y-72693186D01*
X154840299Y-72565892D01*
X154840299Y-72434108D01*
X154806191Y-72306814D01*
X154740299Y-72192686D01*
X154721627Y-72174014D01*
X154719617Y-72170886D01*
X154711242Y-72163629D01*
X154647112Y-72099499D01*
X154641460Y-72096236D01*
X154617503Y-72082404D01*
X154611509Y-72077210D01*
X154597142Y-72070648D01*
X154592021Y-72067692D01*
X154532985Y-72033608D01*
X154532983Y-72033607D01*
X154501960Y-72025294D01*
X154501960Y-72025293D01*
X154491957Y-72022612D01*
X154481390Y-72017787D01*
X154465325Y-72015477D01*
X154458181Y-72013563D01*
X154458177Y-72013563D01*
X154405692Y-71999500D01*
X154405691Y-71999500D01*
X154354203Y-71999500D01*
X154339799Y-71997429D01*
X154325395Y-71999500D01*
X154273903Y-71999500D01*
X154221415Y-72013563D01*
X154221416Y-72013564D01*
X154214277Y-72015476D01*
X154198208Y-72017787D01*
X154187640Y-72022612D01*
X154177637Y-72025293D01*
X154177634Y-72025295D01*
X154146616Y-72033607D01*
X154146614Y-72033607D01*
X154087567Y-72067697D01*
X154087566Y-72067696D01*
X154082435Y-72070658D01*
X154068089Y-72077210D01*
X154062100Y-72082399D01*
X154051851Y-72088317D01*
X154051844Y-72088323D01*
X154032485Y-72099500D01*
X154032481Y-72099503D01*
X153971476Y-72160506D01*
X153968333Y-72163648D01*
X153959981Y-72170886D01*
X153957975Y-72174006D01*
X153949601Y-72182381D01*
X153939300Y-72192683D01*
X153939298Y-72192685D01*
X153873408Y-72306810D01*
X153873408Y-72306811D01*
X153873408Y-72306812D01*
X153873407Y-72306814D01*
X153848161Y-72401036D01*
X153839299Y-72434108D01*
X137764089Y-72434108D01*
X137749171Y-72406972D01*
X137746116Y-72401041D01*
X137691948Y-72288560D01*
X137691945Y-72288556D01*
X137691945Y-72288555D01*
X137628984Y-72188354D01*
X137612907Y-72159109D01*
X137595901Y-72135703D01*
X137593691Y-72132185D01*
X137593683Y-72132172D01*
X137542521Y-72050749D01*
X137542520Y-72050747D01*
X137450453Y-71935298D01*
X137450453Y-71935299D01*
X137448718Y-71933123D01*
X137428187Y-71904865D01*
X137414893Y-71890709D01*
X137367416Y-71831175D01*
X137229116Y-71692875D01*
X137213060Y-71675777D01*
X137207027Y-71670786D01*
X137168824Y-71632583D01*
X137113060Y-71588113D01*
X136949248Y-71457477D01*
X136711445Y-71308055D01*
X136711442Y-71308053D01*
X136458411Y-71186200D01*
X136193329Y-71093443D01*
X136193320Y-71093440D01*
X136139055Y-71081054D01*
X136139055Y-71081053D01*
X136133611Y-71079810D01*
X136122339Y-71076148D01*
X136093242Y-71070597D01*
X136091045Y-71070096D01*
X135919502Y-71030943D01*
X135919503Y-71030943D01*
X135840834Y-71022080D01*
X135840834Y-71022079D01*
X135836109Y-71021546D01*
X135813643Y-71017261D01*
X135778369Y-71015041D01*
X135775317Y-71014698D01*
X135775313Y-71014698D01*
X135640429Y-70999500D01*
X135640425Y-70999500D01*
X135531329Y-70999500D01*
X135500000Y-70997529D01*
X135468671Y-70999500D01*
X135359570Y-70999500D01*
X135224687Y-71014698D01*
X135224686Y-71014698D01*
X135221637Y-71015041D01*
X135186357Y-71017261D01*
X135163887Y-71021547D01*
X135159168Y-71022079D01*
X135159166Y-71022080D01*
X135080496Y-71030943D01*
X135080493Y-71030944D01*
X134908956Y-71070094D01*
X134908957Y-71070095D01*
X134906743Y-71070600D01*
X134877661Y-71076148D01*
X134866388Y-71079810D01*
X134860963Y-71081049D01*
X134860949Y-71081053D01*
X134806676Y-71093441D01*
X134806670Y-71093443D01*
X134541588Y-71186200D01*
X134288557Y-71308053D01*
X134050753Y-71457476D01*
X133831179Y-71632579D01*
X133797106Y-71666652D01*
X133792965Y-71670791D01*
X133786940Y-71675777D01*
X133770913Y-71692843D01*
X133769514Y-71694243D01*
X133769511Y-71694244D01*
X133632587Y-71831171D01*
X133632584Y-71831174D01*
X133588234Y-71886784D01*
X133588235Y-71886785D01*
X133585101Y-71890713D01*
X133571813Y-71904865D01*
X133551301Y-71933096D01*
X133549545Y-71935299D01*
X133549537Y-71935309D01*
X133457481Y-72050746D01*
X133457466Y-72050767D01*
X133406321Y-72132159D01*
X133406322Y-72132160D01*
X133404078Y-72135730D01*
X133387093Y-72159109D01*
X133371029Y-72188329D01*
X133369087Y-72191420D01*
X133308059Y-72288547D01*
X133308052Y-72288559D01*
X133253884Y-72401036D01*
X133253885Y-72401037D01*
X133252423Y-72404071D01*
X133235696Y-72434499D01*
X133226108Y-72458715D01*
X133224166Y-72462748D01*
X133224162Y-72462760D01*
X133186199Y-72541591D01*
X133186198Y-72541593D01*
X133133062Y-72693445D01*
X133132223Y-72695840D01*
X133120008Y-72726694D01*
X133116096Y-72741926D01*
X133114344Y-72746936D01*
X133093443Y-72806669D01*
X133093439Y-72806683D01*
X133045539Y-73016549D01*
X133045162Y-73018196D01*
X133041854Y-73031084D01*
X133041398Y-73034686D01*
X133040037Y-73040653D01*
X133040036Y-73040660D01*
X133030945Y-73080491D01*
X133030944Y-73080495D01*
X133030943Y-73080502D01*
X132999500Y-73359568D01*
X89998019Y-73359568D01*
X89998019Y-67499998D01*
X122497429Y-67499998D01*
X122498238Y-67505625D01*
X122499500Y-67523273D01*
X122499500Y-67565893D01*
X122513563Y-67618378D01*
X122513563Y-67618379D01*
X122515476Y-67625520D01*
X122517787Y-67641591D01*
X122522613Y-67652158D01*
X122525291Y-67662154D01*
X122525294Y-67662161D01*
X122533607Y-67693184D01*
X122533608Y-67693186D01*
X122567692Y-67752222D01*
X122570648Y-67757343D01*
X122577210Y-67771710D01*
X122582404Y-67777704D01*
X122596236Y-67801661D01*
X122599499Y-67807313D01*
X122663629Y-67871443D01*
X122670886Y-67879818D01*
X122674014Y-67881828D01*
X122692686Y-67900500D01*
X122806814Y-67966392D01*
X122934108Y-68000500D01*
X122999793Y-68000500D01*
X162948136Y-68000500D01*
X162948139Y-68000501D01*
X162999499Y-68000501D01*
X163065889Y-68000501D01*
X163065891Y-68000501D01*
X163193186Y-67966393D01*
X163208697Y-67957437D01*
X163208880Y-67957385D01*
X163209687Y-67956865D01*
X163271797Y-67921006D01*
X163307312Y-67900503D01*
X163307312Y-67900502D01*
X163307311Y-67900502D01*
X163307314Y-67900501D01*
X163325158Y-67882656D01*
X163329279Y-67880009D01*
X163338832Y-67868982D01*
X163400500Y-67807315D01*
X163416937Y-67778844D01*
X163423002Y-67771847D01*
X163430660Y-67755076D01*
X163466393Y-67693186D01*
X163476995Y-67653617D01*
X163482456Y-67641662D01*
X163485068Y-67623486D01*
X163500501Y-67565892D01*
X163500501Y-67516156D01*
X163502824Y-67500000D01*
X163500501Y-67483843D01*
X163500501Y-67434109D01*
X163500500Y-67434104D01*
X163485069Y-67376514D01*
X163482456Y-67358338D01*
X163476994Y-67346378D01*
X163466393Y-67306814D01*
X163466391Y-67306810D01*
X163433616Y-67250042D01*
X163430661Y-67244924D01*
X163423002Y-67228153D01*
X163416936Y-67221152D01*
X163411016Y-67210899D01*
X163411015Y-67210898D01*
X163400500Y-67192685D01*
X163338840Y-67131025D01*
X163329279Y-67119991D01*
X163325156Y-67117341D01*
X163307315Y-67099500D01*
X163307310Y-67099496D01*
X163212267Y-67044623D01*
X163209696Y-67043139D01*
X163208880Y-67042615D01*
X163208691Y-67042559D01*
X163203343Y-67039471D01*
X163193190Y-67033609D01*
X163193188Y-67033608D01*
X163193186Y-67033607D01*
X163065891Y-66999499D01*
X162999999Y-66999499D01*
X162999499Y-66999499D01*
X162948145Y-66999499D01*
X162948136Y-66999500D01*
X123000500Y-66999500D01*
X123000000Y-66999500D01*
X122934108Y-66999500D01*
X122806814Y-67033608D01*
X122806813Y-67033608D01*
X122806811Y-67033609D01*
X122806810Y-67033609D01*
X122692685Y-67099499D01*
X122692683Y-67099501D01*
X122682381Y-67109802D01*
X122674006Y-67118176D01*
X122670886Y-67120182D01*
X122663648Y-67128534D01*
X122660506Y-67131677D01*
X122599503Y-67192682D01*
X122599500Y-67192686D01*
X122588323Y-67212045D01*
X122588322Y-67212045D01*
X122582401Y-67222298D01*
X122577210Y-67228290D01*
X122570657Y-67242639D01*
X122567706Y-67247750D01*
X122567697Y-67247768D01*
X122533607Y-67306815D01*
X122533607Y-67306817D01*
X122525295Y-67337835D01*
X122522614Y-67347837D01*
X122517787Y-67358409D01*
X122515476Y-67374478D01*
X122513564Y-67381616D01*
X122499500Y-67434104D01*
X122499500Y-67476726D01*
X122498238Y-67494371D01*
X122497429Y-67499998D01*
X89998019Y-67499998D01*
X89998019Y-63181692D01*
X89998189Y-63175203D01*
X89998558Y-63168158D01*
X90013590Y-62881335D01*
X90014191Y-62874046D01*
X90021727Y-62807163D01*
X90022459Y-62801761D01*
X90063074Y-62545329D01*
X90064636Y-62537233D01*
X90078239Y-62477633D01*
X90079332Y-62473228D01*
X90148363Y-62215603D01*
X90151068Y-62206833D01*
X90167195Y-62160747D01*
X90168374Y-62157531D01*
X90268656Y-61896288D01*
X90272679Y-61886971D01*
X90283611Y-61864270D01*
X90284722Y-61862028D01*
X90421050Y-61594471D01*
X90427520Y-61583264D01*
X90601722Y-61315018D01*
X90609331Y-61304546D01*
X90810612Y-61055984D01*
X90819279Y-61046359D01*
X91045430Y-60820208D01*
X91055055Y-60811541D01*
X91303618Y-60610259D01*
X91314099Y-60602644D01*
X91582328Y-60428455D01*
X91593543Y-60421979D01*
X91861067Y-60285668D01*
X91863445Y-60284490D01*
X91886024Y-60273617D01*
X91895357Y-60269586D01*
X92156601Y-60169304D01*
X92159901Y-60168094D01*
X92205871Y-60152008D01*
X92214675Y-60149292D01*
X92472398Y-60080236D01*
X92476737Y-60079160D01*
X92536242Y-60065579D01*
X92544390Y-60064005D01*
X92800860Y-60023384D01*
X92806301Y-60022648D01*
X92873048Y-60015127D01*
X92880405Y-60014520D01*
X93133488Y-60001256D01*
X93174333Y-59999116D01*
X93180823Y-59998946D01*
X172414272Y-59998946D01*
X172420761Y-59999115D01*
G37*
%TD.AperFunction*%
%TA.AperFunction,NonConductor*%
G36*
X154331899Y-100692694D02*
G01*
X154391247Y-100704499D01*
X154391250Y-100704500D01*
X154391252Y-100704500D01*
X154980749Y-100704500D01*
X154991909Y-100702280D01*
X155061501Y-100708507D01*
X155116679Y-100751369D01*
X155139924Y-100817258D01*
X155137721Y-100848082D01*
X155135500Y-100859250D01*
X155135500Y-101448752D01*
X155149515Y-101519209D01*
X155148239Y-101519462D01*
X155154317Y-101576023D01*
X155147303Y-101599910D01*
X155135500Y-101659247D01*
X155135500Y-102248752D01*
X155149515Y-102319209D01*
X155148239Y-102319462D01*
X155154317Y-102376023D01*
X155147303Y-102399910D01*
X155135500Y-102459247D01*
X155135500Y-103048752D01*
X155149515Y-103119209D01*
X155148239Y-103119462D01*
X155154317Y-103176023D01*
X155147303Y-103199910D01*
X155135500Y-103259247D01*
X155135500Y-103848752D01*
X155149515Y-103919209D01*
X155148239Y-103919462D01*
X155154317Y-103976023D01*
X155147303Y-103999910D01*
X155135500Y-104059247D01*
X155135500Y-104648752D01*
X155149515Y-104719209D01*
X155148239Y-104719462D01*
X155154317Y-104776023D01*
X155147303Y-104799910D01*
X155135500Y-104859247D01*
X155135500Y-105448752D01*
X155149515Y-105519209D01*
X155148239Y-105519462D01*
X155154317Y-105576023D01*
X155147303Y-105599910D01*
X155135500Y-105659247D01*
X155135500Y-106248752D01*
X155149515Y-106319209D01*
X155148239Y-106319462D01*
X155154317Y-106376023D01*
X155147303Y-106399910D01*
X155135500Y-106459247D01*
X155135500Y-107048755D01*
X155137720Y-107059916D01*
X155131490Y-107129507D01*
X155088624Y-107184683D01*
X155022734Y-107207925D01*
X154991916Y-107205720D01*
X154980755Y-107203500D01*
X154980748Y-107203500D01*
X154391252Y-107203500D01*
X154391249Y-107203500D01*
X154320791Y-107217515D01*
X154320537Y-107216239D01*
X154263977Y-107222317D01*
X154240089Y-107215303D01*
X154180751Y-107203500D01*
X154180748Y-107203500D01*
X153591252Y-107203500D01*
X153591249Y-107203500D01*
X153520791Y-107217515D01*
X153520537Y-107216239D01*
X153463977Y-107222317D01*
X153440089Y-107215303D01*
X153380751Y-107203500D01*
X153380748Y-107203500D01*
X152791252Y-107203500D01*
X152791249Y-107203500D01*
X152720791Y-107217515D01*
X152720537Y-107216239D01*
X152663977Y-107222317D01*
X152640089Y-107215303D01*
X152580751Y-107203500D01*
X152580748Y-107203500D01*
X151991252Y-107203500D01*
X151991249Y-107203500D01*
X151920791Y-107217515D01*
X151920537Y-107216239D01*
X151863977Y-107222317D01*
X151840089Y-107215303D01*
X151780751Y-107203500D01*
X151780748Y-107203500D01*
X151191252Y-107203500D01*
X151191249Y-107203500D01*
X151120791Y-107217515D01*
X151120537Y-107216239D01*
X151063977Y-107222317D01*
X151040089Y-107215303D01*
X150980751Y-107203500D01*
X150980748Y-107203500D01*
X150391252Y-107203500D01*
X150391249Y-107203500D01*
X150320791Y-107217515D01*
X150320537Y-107216239D01*
X150263977Y-107222317D01*
X150240089Y-107215303D01*
X150180751Y-107203500D01*
X150180748Y-107203500D01*
X149591252Y-107203500D01*
X149591249Y-107203500D01*
X149520791Y-107217515D01*
X149520537Y-107216239D01*
X149463977Y-107222317D01*
X149440089Y-107215303D01*
X149380751Y-107203500D01*
X149380748Y-107203500D01*
X148791252Y-107203500D01*
X148791251Y-107203500D01*
X148780082Y-107205721D01*
X148710490Y-107199489D01*
X148655315Y-107156623D01*
X148632074Y-107090732D01*
X148634280Y-107059909D01*
X148636500Y-107048749D01*
X148636500Y-106459249D01*
X148636499Y-106459247D01*
X148622485Y-106388790D01*
X148623762Y-106388535D01*
X148617680Y-106331991D01*
X148624694Y-106308100D01*
X148628404Y-106289448D01*
X148636500Y-106248748D01*
X148636500Y-105659252D01*
X148636500Y-105659249D01*
X148636499Y-105659247D01*
X148622485Y-105588790D01*
X148623762Y-105588535D01*
X148617680Y-105531991D01*
X148624694Y-105508100D01*
X148624867Y-105507231D01*
X148636500Y-105448748D01*
X148636500Y-104859252D01*
X148636500Y-104859249D01*
X148636499Y-104859247D01*
X148622485Y-104788790D01*
X148623762Y-104788535D01*
X148617680Y-104731991D01*
X148624694Y-104708100D01*
X148636499Y-104648752D01*
X148636500Y-104648750D01*
X148636500Y-104059249D01*
X148636499Y-104059247D01*
X148622485Y-103988790D01*
X148623762Y-103988535D01*
X148617680Y-103931991D01*
X148624694Y-103908100D01*
X148636499Y-103848752D01*
X148636500Y-103848750D01*
X148636500Y-103259249D01*
X148636499Y-103259247D01*
X148622485Y-103188790D01*
X148623762Y-103188535D01*
X148617680Y-103131991D01*
X148624694Y-103108100D01*
X148636499Y-103048752D01*
X148636500Y-103048750D01*
X148636500Y-102459249D01*
X148636499Y-102459247D01*
X148622485Y-102388790D01*
X148623762Y-102388535D01*
X148617680Y-102331991D01*
X148624694Y-102308100D01*
X148636499Y-102248752D01*
X148636500Y-102248750D01*
X148636500Y-101659249D01*
X148636499Y-101659247D01*
X148622485Y-101588790D01*
X148623762Y-101588535D01*
X148617680Y-101531991D01*
X148624694Y-101508100D01*
X148633440Y-101464131D01*
X148636500Y-101448748D01*
X148636500Y-100859252D01*
X148636500Y-100859250D01*
X148636500Y-100859249D01*
X148636499Y-100859247D01*
X148634280Y-100848088D01*
X148640507Y-100778497D01*
X148683370Y-100723319D01*
X148749260Y-100700075D01*
X148780088Y-100702280D01*
X148791247Y-100704499D01*
X148791250Y-100704500D01*
X148791252Y-100704500D01*
X149380750Y-100704500D01*
X149380751Y-100704499D01*
X149402994Y-100700075D01*
X149451210Y-100690485D01*
X149451464Y-100691762D01*
X149508009Y-100685680D01*
X149531899Y-100692694D01*
X149591247Y-100704499D01*
X149591250Y-100704500D01*
X149591252Y-100704500D01*
X150180750Y-100704500D01*
X150180751Y-100704499D01*
X150202994Y-100700075D01*
X150251210Y-100690485D01*
X150251464Y-100691762D01*
X150308009Y-100685680D01*
X150331899Y-100692694D01*
X150391247Y-100704499D01*
X150391250Y-100704500D01*
X150391252Y-100704500D01*
X150980750Y-100704500D01*
X150980751Y-100704499D01*
X151002994Y-100700075D01*
X151051210Y-100690485D01*
X151051464Y-100691762D01*
X151108009Y-100685680D01*
X151131899Y-100692694D01*
X151191247Y-100704499D01*
X151191250Y-100704500D01*
X151191252Y-100704500D01*
X151780750Y-100704500D01*
X151780751Y-100704499D01*
X151802994Y-100700075D01*
X151851210Y-100690485D01*
X151851464Y-100691762D01*
X151908009Y-100685680D01*
X151931899Y-100692694D01*
X151991247Y-100704499D01*
X151991250Y-100704500D01*
X151991252Y-100704500D01*
X152580750Y-100704500D01*
X152580751Y-100704499D01*
X152602994Y-100700075D01*
X152651210Y-100690485D01*
X152651464Y-100691762D01*
X152708009Y-100685680D01*
X152731899Y-100692694D01*
X152791247Y-100704499D01*
X152791250Y-100704500D01*
X152791252Y-100704500D01*
X153380750Y-100704500D01*
X153380751Y-100704499D01*
X153402994Y-100700075D01*
X153451210Y-100690485D01*
X153451464Y-100691762D01*
X153508009Y-100685680D01*
X153531899Y-100692694D01*
X153591247Y-100704499D01*
X153591250Y-100704500D01*
X153591252Y-100704500D01*
X154180750Y-100704500D01*
X154180751Y-100704499D01*
X154202994Y-100700075D01*
X154251210Y-100690485D01*
X154251464Y-100691762D01*
X154308009Y-100685680D01*
X154331899Y-100692694D01*
G37*
%TD.AperFunction*%
M02*
