%TF.GenerationSoftware,KiCad,Pcbnew,9.0.0*%
%TF.CreationDate,2025-03-10T22:23:41-04:00*%
%TF.ProjectId,cinnruler,63696e6e-7275-46c6-9572-2e6b69636164,rev?*%
%TF.SameCoordinates,Original*%
%TF.FileFunction,Copper,L1,Top*%
%TF.FilePolarity,Positive*%
%FSLAX46Y46*%
G04 Gerber Fmt 4.6, Leading zero omitted, Abs format (unit mm)*
G04 Created by KiCad (PCBNEW 9.0.0) date 2025-03-10 22:23:41*
%MOMM*%
%LPD*%
G01*
G04 APERTURE LIST*
G04 APERTURE END LIST*
%TA.AperFunction,NonConductor*%
G36*
X172420986Y-60499141D02*
G01*
X172450878Y-60500819D01*
X172710573Y-60515405D01*
X172724377Y-60516961D01*
X173006889Y-60564963D01*
X173020440Y-60568056D01*
X173295805Y-60647390D01*
X173308909Y-60651975D01*
X173559114Y-60755615D01*
X173573662Y-60761642D01*
X173586190Y-60767676D01*
X173836978Y-60906284D01*
X173848752Y-60913682D01*
X174082450Y-61079503D01*
X174093322Y-61088173D01*
X174306990Y-61279122D01*
X174316822Y-61288955D01*
X174507758Y-61502617D01*
X174516428Y-61513489D01*
X174682245Y-61747190D01*
X174689643Y-61758964D01*
X174828248Y-62009757D01*
X174834282Y-62022286D01*
X174943939Y-62287033D01*
X174948531Y-62300158D01*
X175027854Y-62575509D01*
X175030948Y-62589066D01*
X175078943Y-62871565D01*
X175080500Y-62885383D01*
X175096822Y-63176100D01*
X175097017Y-63183049D01*
X175097017Y-63214892D01*
X175097017Y-63244331D01*
X175097017Y-63244333D01*
X175097018Y-63254325D01*
X175097018Y-73089842D01*
X175077333Y-73156881D01*
X175024529Y-73202636D01*
X174955371Y-73212580D01*
X174891815Y-73183555D01*
X174885337Y-73177523D01*
X173307316Y-71599502D01*
X173307314Y-71599500D01*
X173200707Y-71537950D01*
X173193187Y-71533608D01*
X173129539Y-71516554D01*
X173065892Y-71499500D01*
X171565892Y-71499500D01*
X171434107Y-71499500D01*
X171306812Y-71533608D01*
X171192686Y-71599500D01*
X171192683Y-71599502D01*
X167599502Y-75192683D01*
X167599500Y-75192686D01*
X167533608Y-75306812D01*
X167499500Y-75434108D01*
X167499500Y-84065891D01*
X167533608Y-84193187D01*
X167566554Y-84250250D01*
X167599500Y-84307314D01*
X167599501Y-84307315D01*
X167599502Y-84307316D01*
X171595159Y-88302972D01*
X171595169Y-88302983D01*
X171599499Y-88307313D01*
X171599500Y-88307314D01*
X171692686Y-88400500D01*
X171806814Y-88466392D01*
X171934107Y-88500500D01*
X171934108Y-88500500D01*
X171934109Y-88500500D01*
X173065890Y-88500500D01*
X173065892Y-88500500D01*
X173193186Y-88466392D01*
X173307314Y-88400500D01*
X174885337Y-86822475D01*
X174946660Y-86788991D01*
X175016352Y-86793975D01*
X175072285Y-86835847D01*
X175096702Y-86901311D01*
X175097018Y-86910157D01*
X175097018Y-110794956D01*
X175096823Y-110801911D01*
X175080556Y-111091493D01*
X175078999Y-111105310D01*
X175030995Y-111387818D01*
X175027900Y-111401375D01*
X174948572Y-111676716D01*
X174943980Y-111689841D01*
X174834314Y-111954591D01*
X174828280Y-111967119D01*
X174689671Y-112217909D01*
X174682273Y-112229683D01*
X174516449Y-112463388D01*
X174507779Y-112474260D01*
X174316837Y-112687921D01*
X174307005Y-112697753D01*
X174093343Y-112888692D01*
X174082471Y-112897362D01*
X173848764Y-113063185D01*
X173836990Y-113070583D01*
X173586192Y-113209194D01*
X173573664Y-113215227D01*
X173308928Y-113324885D01*
X173295802Y-113329478D01*
X173020443Y-113408807D01*
X173006887Y-113411901D01*
X172724387Y-113459901D01*
X172710570Y-113461458D01*
X172550096Y-113470471D01*
X172420481Y-113477751D01*
X172413541Y-113477946D01*
X93251015Y-113477946D01*
X93243410Y-113477945D01*
X93243407Y-113477945D01*
X93213147Y-113477945D01*
X93180991Y-113477945D01*
X93180990Y-113477944D01*
X93174041Y-113477750D01*
X92884454Y-113461489D01*
X92870636Y-113459932D01*
X92588130Y-113411934D01*
X92574573Y-113408840D01*
X92299216Y-113329513D01*
X92286091Y-113324921D01*
X92021334Y-113215258D01*
X92008806Y-113209224D01*
X91758010Y-113070617D01*
X91746236Y-113063219D01*
X91512529Y-112897398D01*
X91501657Y-112888728D01*
X91287990Y-112697787D01*
X91278157Y-112687955D01*
X91087202Y-112474282D01*
X91078532Y-112463410D01*
X90912702Y-112229699D01*
X90905312Y-112217937D01*
X90766691Y-111967127D01*
X90760658Y-111954599D01*
X90752285Y-111934386D01*
X90650993Y-111689856D01*
X90646407Y-111676749D01*
X90567070Y-111401375D01*
X90563978Y-111387829D01*
X90534766Y-111215911D01*
X90515972Y-111105309D01*
X90514416Y-111091497D01*
X90511811Y-111045131D01*
X90498214Y-110803066D01*
X90498019Y-110796112D01*
X90498019Y-108345528D01*
X167249500Y-108345528D01*
X167249500Y-108654471D01*
X167284086Y-108961437D01*
X167284089Y-108961455D01*
X167352831Y-109262635D01*
X167352835Y-109262647D01*
X167454862Y-109554222D01*
X167454868Y-109554236D01*
X167588903Y-109832562D01*
X167588905Y-109832565D01*
X167753265Y-110094143D01*
X167945880Y-110335674D01*
X168164326Y-110554120D01*
X168405857Y-110746735D01*
X168667435Y-110911095D01*
X168945771Y-111045135D01*
X168945777Y-111045137D01*
X169237352Y-111147164D01*
X169237364Y-111147168D01*
X169538548Y-111215911D01*
X169538554Y-111215911D01*
X169538562Y-111215913D01*
X169743206Y-111238970D01*
X169845529Y-111250499D01*
X169845532Y-111250500D01*
X169845535Y-111250500D01*
X170154468Y-111250500D01*
X170154469Y-111250499D01*
X170311356Y-111232822D01*
X170461437Y-111215913D01*
X170461442Y-111215912D01*
X170461452Y-111215911D01*
X170762636Y-111147168D01*
X171054229Y-111045135D01*
X171332565Y-110911095D01*
X171594143Y-110746735D01*
X171835674Y-110554120D01*
X172054120Y-110335674D01*
X172246735Y-110094143D01*
X172411095Y-109832565D01*
X172545135Y-109554229D01*
X172647168Y-109262636D01*
X172715911Y-108961452D01*
X172750500Y-108654465D01*
X172750500Y-108345535D01*
X172715911Y-108038548D01*
X172647168Y-107737364D01*
X172545135Y-107445771D01*
X172411095Y-107167435D01*
X172246735Y-106905857D01*
X172054120Y-106664326D01*
X171835674Y-106445880D01*
X171594143Y-106253265D01*
X171332565Y-106088905D01*
X171332562Y-106088903D01*
X171054236Y-105954868D01*
X171054222Y-105954862D01*
X170762647Y-105852835D01*
X170762635Y-105852831D01*
X170461455Y-105784089D01*
X170461437Y-105784086D01*
X170154471Y-105749500D01*
X170154465Y-105749500D01*
X169845535Y-105749500D01*
X169845528Y-105749500D01*
X169538562Y-105784086D01*
X169538544Y-105784089D01*
X169237364Y-105852831D01*
X169237352Y-105852835D01*
X168945777Y-105954862D01*
X168945763Y-105954868D01*
X168667437Y-106088903D01*
X168405858Y-106253264D01*
X168164326Y-106445879D01*
X167945879Y-106664326D01*
X167753264Y-106905858D01*
X167588903Y-107167437D01*
X167454868Y-107445763D01*
X167454862Y-107445777D01*
X167352835Y-107737352D01*
X167352831Y-107737364D01*
X167284089Y-108038544D01*
X167284086Y-108038562D01*
X167249500Y-108345528D01*
X90498019Y-108345528D01*
X90498019Y-78783885D01*
X139499500Y-78783885D01*
X139499500Y-78803735D01*
X139499500Y-79216115D01*
X139533412Y-79647013D01*
X139601028Y-80073922D01*
X139701930Y-80494210D01*
X139701934Y-80494221D01*
X139835494Y-80905280D01*
X139906887Y-81077638D01*
X140000904Y-81304615D01*
X140058463Y-81417580D01*
X140197136Y-81689740D01*
X140197142Y-81689751D01*
X140422966Y-82058262D01*
X140422974Y-82058273D01*
X140677025Y-82407946D01*
X140677035Y-82407960D01*
X140957737Y-82736617D01*
X140957743Y-82736624D01*
X141263376Y-83042257D01*
X141263382Y-83042262D01*
X141592039Y-83322964D01*
X141592046Y-83322969D01*
X141941728Y-83577027D01*
X141941732Y-83577029D01*
X141941737Y-83577033D01*
X142310248Y-83802857D01*
X142310254Y-83802860D01*
X142310265Y-83802867D01*
X142695385Y-83999096D01*
X143094714Y-84164503D01*
X143094719Y-84164505D01*
X143182991Y-84193186D01*
X143505790Y-84298070D01*
X143926078Y-84398972D01*
X144352987Y-84466588D01*
X144783885Y-84500500D01*
X144783893Y-84500500D01*
X145216107Y-84500500D01*
X145216115Y-84500500D01*
X145647013Y-84466588D01*
X146073922Y-84398972D01*
X146494210Y-84298070D01*
X146905286Y-84164503D01*
X147304615Y-83999096D01*
X147689735Y-83802867D01*
X148058272Y-83577027D01*
X148407954Y-83322969D01*
X148736624Y-83042257D01*
X149042257Y-82736624D01*
X149322969Y-82407954D01*
X149577027Y-82058272D01*
X149802867Y-81689735D01*
X149999096Y-81304615D01*
X150164503Y-80905286D01*
X150298070Y-80494210D01*
X150398972Y-80073922D01*
X150466588Y-79647013D01*
X150500500Y-79216115D01*
X150500500Y-78783885D01*
X150466588Y-78352987D01*
X150398972Y-77926078D01*
X150320338Y-77598543D01*
X161999498Y-77598543D01*
X162037946Y-77791829D01*
X162037949Y-77791839D01*
X162113363Y-77973907D01*
X162113370Y-77973920D01*
X162222859Y-78137781D01*
X162222862Y-78137785D01*
X162362213Y-78277136D01*
X162362217Y-78277139D01*
X162526078Y-78386628D01*
X162526091Y-78386635D01*
X162708159Y-78462049D01*
X162708164Y-78462051D01*
X162708168Y-78462051D01*
X162708169Y-78462052D01*
X162901455Y-78500500D01*
X162901458Y-78500500D01*
X163098542Y-78500500D01*
X163228581Y-78474632D01*
X163291834Y-78462051D01*
X163473913Y-78386632D01*
X163637781Y-78277139D01*
X163777138Y-78137782D01*
X163886631Y-77973914D01*
X163962050Y-77791835D01*
X164000499Y-77598541D01*
X164000499Y-77401459D01*
X164000499Y-77401456D01*
X163962051Y-77208170D01*
X163962050Y-77208169D01*
X163962050Y-77208165D01*
X163926485Y-77122302D01*
X163886634Y-77026092D01*
X163886627Y-77026079D01*
X163777138Y-76862218D01*
X163777135Y-76862214D01*
X163637784Y-76722863D01*
X163637780Y-76722860D01*
X163473919Y-76613371D01*
X163473906Y-76613364D01*
X163291838Y-76537950D01*
X163291828Y-76537947D01*
X163098542Y-76499500D01*
X163098540Y-76499500D01*
X162901458Y-76499500D01*
X162901456Y-76499500D01*
X162708169Y-76537947D01*
X162708159Y-76537950D01*
X162526091Y-76613364D01*
X162526078Y-76613371D01*
X162362217Y-76722860D01*
X162362213Y-76722863D01*
X162222862Y-76862214D01*
X162222859Y-76862218D01*
X162113370Y-77026079D01*
X162113363Y-77026092D01*
X162037949Y-77208160D01*
X162037946Y-77208170D01*
X161999499Y-77401456D01*
X161999499Y-77401459D01*
X161999499Y-77598541D01*
X161999499Y-77598543D01*
X161999498Y-77598543D01*
X150320338Y-77598543D01*
X150298070Y-77505790D01*
X150201364Y-77208160D01*
X150164505Y-77094719D01*
X150164503Y-77094714D01*
X149999096Y-76695385D01*
X149802867Y-76310265D01*
X149771325Y-76258793D01*
X156999498Y-76258793D01*
X157037946Y-76452079D01*
X157037949Y-76452089D01*
X157113363Y-76634157D01*
X157113370Y-76634170D01*
X157222859Y-76798031D01*
X157222862Y-76798035D01*
X157362213Y-76937386D01*
X157362217Y-76937389D01*
X157526078Y-77046878D01*
X157526091Y-77046885D01*
X157708159Y-77122299D01*
X157708164Y-77122301D01*
X157708168Y-77122301D01*
X157708169Y-77122302D01*
X157901455Y-77160750D01*
X157901458Y-77160750D01*
X158098542Y-77160750D01*
X158228581Y-77134882D01*
X158291834Y-77122301D01*
X158473913Y-77046882D01*
X158637781Y-76937389D01*
X158777138Y-76798032D01*
X158886631Y-76634164D01*
X158962050Y-76452085D01*
X158990260Y-76310265D01*
X159000499Y-76258793D01*
X159000499Y-76061706D01*
X158962051Y-75868420D01*
X158962050Y-75868419D01*
X158962050Y-75868415D01*
X158909201Y-75740825D01*
X158886634Y-75686342D01*
X158886627Y-75686329D01*
X158777138Y-75522468D01*
X158777135Y-75522464D01*
X158637784Y-75383113D01*
X158637780Y-75383110D01*
X158473919Y-75273621D01*
X158473906Y-75273614D01*
X158291838Y-75198200D01*
X158291828Y-75198197D01*
X158098542Y-75159750D01*
X158098540Y-75159750D01*
X157901458Y-75159750D01*
X157901456Y-75159750D01*
X157708169Y-75198197D01*
X157708159Y-75198200D01*
X157526091Y-75273614D01*
X157526078Y-75273621D01*
X157362217Y-75383110D01*
X157362213Y-75383113D01*
X157222862Y-75522464D01*
X157222859Y-75522468D01*
X157113370Y-75686329D01*
X157113363Y-75686342D01*
X157037949Y-75868410D01*
X157037946Y-75868420D01*
X156999499Y-76061706D01*
X156999499Y-76061709D01*
X156999499Y-76258791D01*
X156999499Y-76258793D01*
X156999498Y-76258793D01*
X149771325Y-76258793D01*
X149577027Y-75941728D01*
X149322969Y-75592046D01*
X149322964Y-75592039D01*
X149051007Y-75273621D01*
X149042257Y-75263376D01*
X148736624Y-74957743D01*
X148731870Y-74953683D01*
X148407960Y-74677035D01*
X148407946Y-74677025D01*
X148396271Y-74668543D01*
X154929498Y-74668543D01*
X154967946Y-74861829D01*
X154967949Y-74861839D01*
X155043363Y-75043907D01*
X155043370Y-75043920D01*
X155152859Y-75207781D01*
X155152862Y-75207785D01*
X155292213Y-75347136D01*
X155292217Y-75347139D01*
X155456078Y-75456628D01*
X155456091Y-75456635D01*
X155615028Y-75522468D01*
X155638164Y-75532051D01*
X155638168Y-75532051D01*
X155638169Y-75532052D01*
X155831455Y-75570500D01*
X155831458Y-75570500D01*
X156028542Y-75570500D01*
X156158581Y-75544632D01*
X156221834Y-75532051D01*
X156362654Y-75473721D01*
X156403906Y-75456635D01*
X156403906Y-75456634D01*
X156403913Y-75456632D01*
X156567781Y-75347139D01*
X156707138Y-75207782D01*
X156816631Y-75043914D01*
X156892050Y-74861835D01*
X156922501Y-74708751D01*
X156930499Y-74668543D01*
X156930499Y-74471456D01*
X156892051Y-74278170D01*
X156892050Y-74278169D01*
X156892050Y-74278165D01*
X156892048Y-74278160D01*
X156816634Y-74096092D01*
X156816627Y-74096079D01*
X156707138Y-73932218D01*
X156707135Y-73932214D01*
X156567784Y-73792863D01*
X156567780Y-73792860D01*
X156403919Y-73683371D01*
X156403906Y-73683364D01*
X156221838Y-73607950D01*
X156221828Y-73607947D01*
X156028542Y-73569500D01*
X156028540Y-73569500D01*
X155831458Y-73569500D01*
X155831456Y-73569500D01*
X155638169Y-73607947D01*
X155638159Y-73607950D01*
X155456091Y-73683364D01*
X155456078Y-73683371D01*
X155292217Y-73792860D01*
X155292213Y-73792863D01*
X155152862Y-73932214D01*
X155152859Y-73932218D01*
X155043370Y-74096079D01*
X155043363Y-74096092D01*
X154967949Y-74278160D01*
X154967946Y-74278170D01*
X154929499Y-74471456D01*
X154929499Y-74471459D01*
X154929499Y-74668541D01*
X154929499Y-74668543D01*
X154929498Y-74668543D01*
X148396271Y-74668543D01*
X148254699Y-74565685D01*
X148058273Y-74422974D01*
X148058262Y-74422966D01*
X147689751Y-74197142D01*
X147689740Y-74197136D01*
X147689739Y-74197135D01*
X147689735Y-74197133D01*
X147304615Y-74000904D01*
X147037069Y-73890083D01*
X146905280Y-73835494D01*
X146612796Y-73740461D01*
X146494210Y-73701930D01*
X146073922Y-73601028D01*
X145647013Y-73533412D01*
X145216120Y-73499500D01*
X145216115Y-73499500D01*
X144783885Y-73499500D01*
X144783879Y-73499500D01*
X144352986Y-73533412D01*
X144352985Y-73533412D01*
X143926083Y-73601027D01*
X143926080Y-73601027D01*
X143926078Y-73601028D01*
X143897246Y-73607950D01*
X143505801Y-73701927D01*
X143505795Y-73701928D01*
X143505790Y-73701930D01*
X143505778Y-73701934D01*
X143094719Y-73835494D01*
X142695387Y-74000903D01*
X142310259Y-74197136D01*
X142310248Y-74197142D01*
X141941737Y-74422966D01*
X141941726Y-74422974D01*
X141592053Y-74677025D01*
X141592039Y-74677035D01*
X141263382Y-74957737D01*
X141263368Y-74957750D01*
X140957750Y-75263368D01*
X140957737Y-75263382D01*
X140677035Y-75592039D01*
X140677025Y-75592053D01*
X140422974Y-75941726D01*
X140422966Y-75941737D01*
X140197142Y-76310248D01*
X140197136Y-76310259D01*
X140000903Y-76695387D01*
X139835494Y-77094719D01*
X139701934Y-77505778D01*
X139701927Y-77505801D01*
X139601027Y-77926083D01*
X139533412Y-78352985D01*
X139533412Y-78352986D01*
X139521803Y-78500500D01*
X139499500Y-78783885D01*
X90498019Y-78783885D01*
X90498019Y-73331491D01*
X132499500Y-73331491D01*
X132499500Y-73668508D01*
X132537231Y-74003381D01*
X132537233Y-74003397D01*
X132612223Y-74331953D01*
X132612227Y-74331965D01*
X132723532Y-74650054D01*
X132869752Y-74953683D01*
X132900931Y-75003304D01*
X133049054Y-75239039D01*
X133259175Y-75502523D01*
X133497477Y-75740825D01*
X133760961Y-75950946D01*
X134046314Y-76130246D01*
X134349949Y-76276469D01*
X134588848Y-76360063D01*
X134668034Y-76387772D01*
X134668046Y-76387776D01*
X134996606Y-76462767D01*
X135331492Y-76500499D01*
X135331493Y-76500500D01*
X135331496Y-76500500D01*
X135668507Y-76500500D01*
X135668507Y-76500499D01*
X136003394Y-76462767D01*
X136331954Y-76387776D01*
X136650051Y-76276469D01*
X136953686Y-76130246D01*
X137239039Y-75950946D01*
X137502523Y-75740825D01*
X137740825Y-75502523D01*
X137950946Y-75239039D01*
X138130246Y-74953686D01*
X138276469Y-74650051D01*
X138387776Y-74331954D01*
X138462767Y-74003394D01*
X138500500Y-73668504D01*
X138500500Y-73331496D01*
X138462767Y-72996606D01*
X138387776Y-72668046D01*
X138363456Y-72598543D01*
X153339298Y-72598543D01*
X153377746Y-72791829D01*
X153377749Y-72791839D01*
X153453163Y-72973907D01*
X153453170Y-72973920D01*
X153562659Y-73137781D01*
X153562662Y-73137785D01*
X153702013Y-73277136D01*
X153702017Y-73277139D01*
X153865878Y-73386628D01*
X153865891Y-73386635D01*
X154047959Y-73462049D01*
X154047964Y-73462051D01*
X154047968Y-73462051D01*
X154047969Y-73462052D01*
X154241255Y-73500500D01*
X154241258Y-73500500D01*
X154438342Y-73500500D01*
X154568381Y-73474632D01*
X154631634Y-73462051D01*
X154813713Y-73386632D01*
X154977581Y-73277139D01*
X155116938Y-73137782D01*
X155226431Y-72973914D01*
X155301850Y-72791835D01*
X155314431Y-72728582D01*
X155340299Y-72598543D01*
X155340299Y-72401456D01*
X155301851Y-72208170D01*
X155301850Y-72208169D01*
X155301850Y-72208165D01*
X155290862Y-72181638D01*
X155226434Y-72026092D01*
X155226427Y-72026079D01*
X155116938Y-71862218D01*
X155116935Y-71862214D01*
X154977584Y-71722863D01*
X154977580Y-71722860D01*
X154813719Y-71613371D01*
X154813706Y-71613364D01*
X154631638Y-71537950D01*
X154631628Y-71537947D01*
X154438342Y-71499500D01*
X154438340Y-71499500D01*
X154241258Y-71499500D01*
X154241256Y-71499500D01*
X154047969Y-71537947D01*
X154047959Y-71537950D01*
X153865891Y-71613364D01*
X153865878Y-71613371D01*
X153702017Y-71722860D01*
X153702013Y-71722863D01*
X153562662Y-71862214D01*
X153562659Y-71862218D01*
X153453170Y-72026079D01*
X153453163Y-72026092D01*
X153377749Y-72208160D01*
X153377746Y-72208170D01*
X153339299Y-72401456D01*
X153339299Y-72401459D01*
X153339299Y-72598541D01*
X153339299Y-72598543D01*
X153339298Y-72598543D01*
X138363456Y-72598543D01*
X138276469Y-72349949D01*
X138130246Y-72046314D01*
X137950946Y-71760961D01*
X137740825Y-71497477D01*
X137502523Y-71259175D01*
X137239039Y-71049054D01*
X136953686Y-70869754D01*
X136953683Y-70869752D01*
X136650054Y-70723532D01*
X136331965Y-70612227D01*
X136331953Y-70612223D01*
X136003397Y-70537233D01*
X136003381Y-70537231D01*
X135668508Y-70499500D01*
X135668504Y-70499500D01*
X135331496Y-70499500D01*
X135331491Y-70499500D01*
X134996618Y-70537231D01*
X134996602Y-70537233D01*
X134668046Y-70612223D01*
X134668034Y-70612227D01*
X134349945Y-70723532D01*
X134046316Y-70869752D01*
X133760962Y-71049053D01*
X133497477Y-71259174D01*
X133259174Y-71497477D01*
X133049053Y-71760962D01*
X132869752Y-72046316D01*
X132723532Y-72349945D01*
X132612227Y-72668034D01*
X132612223Y-72668046D01*
X132537233Y-72996602D01*
X132537231Y-72996618D01*
X132499500Y-73331491D01*
X90498019Y-73331491D01*
X90498019Y-67499999D01*
X121995214Y-67499999D01*
X121995214Y-67500000D01*
X122012321Y-67684628D01*
X122063064Y-67862968D01*
X122063069Y-67862981D01*
X122145714Y-68028952D01*
X122257455Y-68176922D01*
X122394480Y-68301836D01*
X122394482Y-68301838D01*
X122552124Y-68399446D01*
X122552125Y-68399446D01*
X122552128Y-68399448D01*
X122725027Y-68466429D01*
X122907290Y-68500500D01*
X122934108Y-68500500D01*
X162926494Y-68500500D01*
X162926510Y-68500501D01*
X162934106Y-68500501D01*
X163092706Y-68500501D01*
X163092708Y-68500501D01*
X163274971Y-68466430D01*
X163447871Y-68399449D01*
X163605519Y-68301838D01*
X163742546Y-68176921D01*
X163854287Y-68028953D01*
X163936936Y-67862971D01*
X163987679Y-67684629D01*
X164004787Y-67500000D01*
X163987679Y-67315371D01*
X163936936Y-67137029D01*
X163854287Y-66971047D01*
X163742546Y-66823079D01*
X163742544Y-66823076D01*
X163605519Y-66698162D01*
X163605517Y-66698160D01*
X163447876Y-66600554D01*
X163447873Y-66600552D01*
X163447871Y-66600551D01*
X163447870Y-66600550D01*
X163447869Y-66600550D01*
X163274976Y-66533572D01*
X163274971Y-66533570D01*
X163092708Y-66499499D01*
X162999998Y-66499499D01*
X162934106Y-66499499D01*
X162926510Y-66499499D01*
X162926494Y-66499500D01*
X123065892Y-66499500D01*
X123000000Y-66499500D01*
X122907290Y-66499500D01*
X122725027Y-66533571D01*
X122725024Y-66533571D01*
X122725024Y-66533572D01*
X122552130Y-66600551D01*
X122552124Y-66600553D01*
X122394482Y-66698161D01*
X122394480Y-66698163D01*
X122257455Y-66823077D01*
X122145714Y-66971047D01*
X122063069Y-67137018D01*
X122063064Y-67137031D01*
X122012321Y-67315371D01*
X121995214Y-67499999D01*
X90498019Y-67499999D01*
X90498019Y-63181919D01*
X90498214Y-63174966D01*
X90508173Y-62997634D01*
X90514477Y-62885379D01*
X90516031Y-62871582D01*
X90564034Y-62589066D01*
X90567127Y-62575513D01*
X90646457Y-62300153D01*
X90651050Y-62287028D01*
X90652686Y-62283079D01*
X90760714Y-62022276D01*
X90766734Y-62009776D01*
X90905358Y-61758954D01*
X90912748Y-61747193D01*
X91078579Y-61513479D01*
X91087233Y-61502626D01*
X91278197Y-61288936D01*
X91288012Y-61279122D01*
X91501695Y-61088162D01*
X91512549Y-61079507D01*
X91746266Y-60913677D01*
X91758034Y-60906284D01*
X91777336Y-60895615D01*
X92008841Y-60767666D01*
X92021352Y-60761642D01*
X92286103Y-60651978D01*
X92299220Y-60647388D01*
X92574589Y-60568055D01*
X92588136Y-60564963D01*
X92870656Y-60516961D01*
X92884451Y-60515407D01*
X93069559Y-60505011D01*
X93174105Y-60499141D01*
X93181057Y-60498946D01*
X93243410Y-60498946D01*
X172351623Y-60498946D01*
X172414033Y-60498946D01*
X172420986Y-60499141D01*
G37*
%TD.AperFunction*%
M02*
