%TF.GenerationSoftware,KiCad,Pcbnew,9.0.0*%
%TF.CreationDate,2025-03-10T22:23:41-04:00*%
%TF.ProjectId,cinnruler,63696e6e-7275-46c6-9572-2e6b69636164,rev?*%
%TF.SameCoordinates,Original*%
%TF.FileFunction,Copper,L2,Bot*%
%TF.FilePolarity,Positive*%
%FSLAX46Y46*%
G04 Gerber Fmt 4.6, Leading zero omitted, Abs format (unit mm)*
G04 Created by KiCad (PCBNEW 9.0.0) date 2025-03-10 22:23:41*
%MOMM*%
%LPD*%
G01*
G04 APERTURE LIST*
G04 Aperture macros list*
%AMOutline4P*
0 Free polygon, 4 corners , with rotation*
0 The origin of the aperture is its center*
0 number of corners: always 4*
0 $1 to $8 corner X, Y*
0 $9 Rotation angle, in degrees counterclockwise*
0 create outline with 4 corners*
4,1,4,$1,$2,$3,$4,$5,$6,$7,$8,$1,$2,$9*%
G04 Aperture macros list end*
%TA.AperFunction,SMDPad,CuDef*%
%ADD10R,0.800000X0.200000*%
%TD*%
%TA.AperFunction,SMDPad,CuDef*%
%ADD11R,0.200000X0.800000*%
%TD*%
%TA.AperFunction,SMDPad,CuDef*%
%ADD12R,1.200000X1.200000*%
%TD*%
%TA.AperFunction,SMDPad,CuDef*%
%ADD13R,0.600000X1.550000*%
%TD*%
%TA.AperFunction,SMDPad,CuDef*%
%ADD14R,2.500000X1.800000*%
%TD*%
%TA.AperFunction,SMDPad,CuDef*%
%ADD15R,1.500000X1.000000*%
%TD*%
%TA.AperFunction,SMDPad,CuDef*%
%ADD16R,1.800000X1.000000*%
%TD*%
%TA.AperFunction,SMDPad,CuDef*%
%ADD17Outline4P,-0.400000X-0.500000X0.400000X-0.500000X1.100000X0.500000X-1.100000X0.500000X270.000000*%
%TD*%
%TA.AperFunction,SMDPad,CuDef*%
%ADD18R,1.840000X2.200000*%
%TD*%
%TA.AperFunction,SMDPad,CuDef*%
%ADD19Outline4P,-0.500000X-0.425000X0.500000X-0.425000X1.100000X0.425000X-1.100000X0.425000X90.000000*%
%TD*%
%TA.AperFunction,SMDPad,CuDef*%
%ADD20R,0.900000X0.800000*%
%TD*%
%TA.AperFunction,SMDPad,CuDef*%
%ADD21R,0.700000X1.300000*%
%TD*%
%TA.AperFunction,SMDPad,CuDef*%
%ADD22R,0.450000X0.700000*%
%TD*%
%TA.AperFunction,SMDPad,CuDef*%
%ADD23R,1.060000X0.650000*%
%TD*%
%TA.AperFunction,SMDPad,CuDef*%
%ADD24R,2.200000X1.200000*%
%TD*%
%TA.AperFunction,SMDPad,CuDef*%
%ADD25R,3.050000X2.750000*%
%TD*%
%TA.AperFunction,SMDPad,CuDef*%
%ADD26R,6.400000X5.800000*%
%TD*%
%TA.AperFunction,SMDPad,CuDef*%
%ADD27R,4.500000X2.000000*%
%TD*%
%TA.AperFunction,SMDPad,CuDef*%
%ADD28R,2.500000X2.300000*%
%TD*%
%TA.AperFunction,SMDPad,CuDef*%
%ADD29R,0.450000X1.500000*%
%TD*%
%TA.AperFunction,SMDPad,CuDef*%
%ADD30R,1.600000X0.550000*%
%TD*%
%TA.AperFunction,SMDPad,CuDef*%
%ADD31R,0.550000X1.600000*%
%TD*%
%TA.AperFunction,SMDPad,CuDef*%
%ADD32C,0.250000*%
%TD*%
%TA.AperFunction,SMDPad,CuDef*%
%ADD33R,0.400000X0.600000*%
%TD*%
%TA.AperFunction,SMDPad,CuDef*%
%ADD34R,0.500000X0.900000*%
%TD*%
%TA.AperFunction,SMDPad,CuDef*%
%ADD35R,0.900000X1.700000*%
%TD*%
%TA.AperFunction,SMDPad,CuDef*%
%ADD36R,1.500000X2.000000*%
%TD*%
%TA.AperFunction,SMDPad,CuDef*%
%ADD37R,3.800000X2.000000*%
%TD*%
%TA.AperFunction,SMDPad,CuDef*%
%ADD38R,1.600000X1.000000*%
%TD*%
G04 APERTURE END LIST*
D10*
%TO.P,QFN28,1*%
%TO.N,N/C*%
X160172000Y-108052000D03*
%TO.P,QFN28,2*%
X160172000Y-107652000D03*
%TO.P,QFN28,3*%
X160172000Y-107252000D03*
%TO.P,QFN28,4*%
X160172000Y-106852000D03*
%TO.P,QFN28,5*%
X160172000Y-106452000D03*
%TO.P,QFN28,6*%
X160172000Y-106052000D03*
%TO.P,QFN28,7*%
X160172000Y-105652000D03*
D11*
%TO.P,QFN28,8*%
X160922000Y-104902000D03*
%TO.P,QFN28,9*%
X161322000Y-104902000D03*
%TO.P,QFN28,10*%
X161722000Y-104902000D03*
%TO.P,QFN28,11*%
X162122000Y-104902000D03*
%TO.P,QFN28,12*%
X162522000Y-104902000D03*
%TO.P,QFN28,13*%
X162922000Y-104902000D03*
%TO.P,QFN28,14*%
X163322000Y-104902000D03*
D10*
%TO.P,QFN28,15*%
X164072000Y-105652000D03*
%TO.P,QFN28,16*%
X164072000Y-106052000D03*
%TO.P,QFN28,17*%
X164072000Y-106452000D03*
%TO.P,QFN28,18*%
X164072000Y-106852000D03*
%TO.P,QFN28,19*%
X164072000Y-107252000D03*
%TO.P,QFN28,20*%
X164072000Y-107652000D03*
%TO.P,QFN28,21*%
X164072000Y-108052000D03*
D11*
%TO.P,QFN28,22*%
X163322000Y-108802000D03*
%TO.P,QFN28,23*%
X162922000Y-108802000D03*
%TO.P,QFN28,24*%
X162522000Y-108802000D03*
%TO.P,QFN28,25*%
X162122000Y-108802000D03*
%TO.P,QFN28,26*%
X161722000Y-108802000D03*
%TO.P,QFN28,27*%
X161322000Y-108802000D03*
%TO.P,QFN28,28*%
X160922000Y-108802000D03*
D12*
%TO.P,QFN28,29*%
X161522000Y-106252000D03*
X161522000Y-107452000D03*
X162722000Y-106252000D03*
X162722000Y-107452000D03*
%TD*%
D13*
%TO.P,SOIC8,1*%
%TO.N,N/C*%
X143764000Y-102428000D03*
%TO.P,SOIC8,2*%
X142494000Y-102428000D03*
%TO.P,SOIC8,3*%
X141224000Y-102428000D03*
%TO.P,SOIC8,4*%
X139954000Y-102428000D03*
%TO.P,SOIC8,5*%
X139954000Y-97028000D03*
%TO.P,SOIC8,6*%
X141224000Y-97028000D03*
%TO.P,SOIC8,7*%
X142494000Y-97028000D03*
%TO.P,SOIC8,8*%
X143764000Y-97028000D03*
%TD*%
D14*
%TO.P,SMA,1*%
%TO.N,N/C*%
X122238000Y-101442000D03*
%TO.P,SMA,2*%
X126238000Y-101442000D03*
%TD*%
D15*
%TO.P,SOT89,1*%
%TO.N,N/C*%
X139934500Y-108434000D03*
D16*
%TO.P,SOT89,2*%
X140081000Y-106934000D03*
D17*
X141338300Y-106934000D03*
D18*
X142748000Y-106934000D03*
D19*
X144081500Y-106934000D03*
D15*
%TO.P,SOT89,3*%
X139934500Y-105434000D03*
%TD*%
D20*
%TO.P,SOT23,1*%
%TO.N,N/C*%
X157868000Y-83566000D03*
%TO.P,SOT23,2*%
X157868000Y-81666000D03*
%TO.P,SOT23,3*%
X159868000Y-82616000D03*
%TD*%
D21*
%TO.P,0805,1*%
%TO.N,N/C*%
X166050000Y-92392000D03*
%TO.P,0805,2*%
X164150000Y-92392000D03*
%TD*%
D22*
%TO.P,SC70/,1*%
%TO.N,N/C*%
X118872000Y-108950000D03*
%TO.P,SC70/,2*%
X117572000Y-108950000D03*
%TO.P,SC70/,3*%
X118222000Y-106950000D03*
%TD*%
D23*
%TO.P,SOT23-5,1*%
%TO.N,N/C*%
X163068000Y-83566000D03*
%TO.P,SOT23-5,2*%
X163068000Y-82616000D03*
%TO.P,SOT23-5,3*%
X163068000Y-81666000D03*
%TO.P,SOT23-5,4*%
X165268000Y-81666000D03*
%TO.P,SOT23-5,5*%
X165268000Y-83566000D03*
%TD*%
D24*
%TO.P,D-PAK/TO-252,1*%
%TO.N,N/C*%
X146676000Y-92704000D03*
%TO.P,D-PAK/TO-252,2*%
X146676000Y-90424000D03*
D25*
X151301000Y-88899000D03*
X151301000Y-91949000D03*
D26*
X152976000Y-90424000D03*
D25*
X154651000Y-88899000D03*
X154651000Y-91949000D03*
D24*
%TO.P,D-PAK/TO-252,3*%
X146676000Y-88144000D03*
%TD*%
D27*
%TO.P,HC49,1*%
%TO.N,N/C*%
X131386000Y-89408000D03*
%TO.P,HC49,2*%
X139886000Y-89408000D03*
%TD*%
D28*
%TO.P,SMB,1*%
%TO.N,N/C*%
X126388000Y-107442000D03*
%TO.P,SMB,2*%
X122088000Y-107442000D03*
%TD*%
D29*
%TO.P,TSSOP,1*%
%TO.N,N/C*%
X164073000Y-102264000D03*
%TO.P,TSSOP,2*%
X163423001Y-102264000D03*
%TO.P,TSSOP,3*%
X162773000Y-102264000D03*
%TO.P,TSSOP,4*%
X162123000Y-102264000D03*
%TO.P,TSSOP,5*%
X161473000Y-102264000D03*
%TO.P,TSSOP,6*%
X160823000Y-102264000D03*
%TO.P,TSSOP,7*%
X160172999Y-102264000D03*
%TO.P,TSSOP,8*%
X159523000Y-102264000D03*
%TO.P,TSSOP,9*%
X159523000Y-96364000D03*
%TO.P,TSSOP,10*%
X160172999Y-96364000D03*
%TO.P,TSSOP,11*%
X160823000Y-96364000D03*
%TO.P,TSSOP,12*%
X161473000Y-96364000D03*
%TO.P,TSSOP,13*%
X162123000Y-96364000D03*
%TO.P,TSSOP,14*%
X162773000Y-96364000D03*
%TO.P,TSSOP,15*%
X163423001Y-96364000D03*
%TO.P,TSSOP,16*%
X164073000Y-96364000D03*
%TD*%
D30*
%TO.P,TQFP32,1*%
%TO.N,N/C*%
X147636000Y-106754000D03*
%TO.P,TQFP32,2*%
X147636000Y-105954000D03*
%TO.P,TQFP32,3*%
X147636000Y-105154000D03*
%TO.P,TQFP32,4*%
X147636000Y-104354000D03*
%TO.P,TQFP32,5*%
X147636000Y-103554000D03*
%TO.P,TQFP32,6*%
X147636000Y-102754000D03*
%TO.P,TQFP32,7*%
X147636000Y-101954000D03*
%TO.P,TQFP32,8*%
X147636000Y-101154000D03*
D31*
%TO.P,TQFP32,9*%
X149086000Y-99704000D03*
%TO.P,TQFP32,10*%
X149886000Y-99704000D03*
%TO.P,TQFP32,11*%
X150686000Y-99704000D03*
%TO.P,TQFP32,12*%
X151486000Y-99704000D03*
%TO.P,TQFP32,13*%
X152286000Y-99704000D03*
%TO.P,TQFP32,14*%
X153086000Y-99704000D03*
%TO.P,TQFP32,15*%
X153886000Y-99704000D03*
%TO.P,TQFP32,16*%
X154686000Y-99704000D03*
D30*
%TO.P,TQFP32,17*%
X156136000Y-101154000D03*
%TO.P,TQFP32,18*%
X156136000Y-101954000D03*
%TO.P,TQFP32,19*%
X156136000Y-102754000D03*
%TO.P,TQFP32,20*%
X156136000Y-103554000D03*
%TO.P,TQFP32,21*%
X156136000Y-104354000D03*
%TO.P,TQFP32,22*%
X156136000Y-105154000D03*
%TO.P,TQFP32,23*%
X156136000Y-105954000D03*
%TO.P,TQFP32,24*%
X156136000Y-106754000D03*
D31*
%TO.P,TQFP32,25*%
X154686000Y-108204000D03*
%TO.P,TQFP32,26*%
X153886000Y-108204000D03*
%TO.P,TQFP32,27*%
X153086000Y-108204000D03*
%TO.P,TQFP32,28*%
X152286000Y-108204000D03*
%TO.P,TQFP32,29*%
X151486000Y-108204000D03*
%TO.P,TQFP32,30*%
X150686000Y-108204000D03*
%TO.P,TQFP32,31*%
X149886000Y-108204000D03*
%TO.P,TQFP32,32*%
X149086000Y-108204000D03*
%TD*%
D32*
%TO.P,BGA16,A1*%
%TO.N,N/C*%
X112538000Y-108458000D03*
%TO.P,BGA16,A2*%
X113038000Y-108458000D03*
%TO.P,BGA16,A3*%
X113538000Y-108458000D03*
%TO.P,BGA16,A4*%
X114038000Y-108458000D03*
%TO.P,BGA16,B1*%
X112538000Y-107958000D03*
%TO.P,BGA16,B2*%
X113038000Y-107958000D03*
%TO.P,BGA16,B3*%
X113538000Y-107958000D03*
%TO.P,BGA16,B4*%
X114038000Y-107958000D03*
%TO.P,BGA16,C1*%
X112538000Y-107458000D03*
%TO.P,BGA16,C2*%
X113038000Y-107458000D03*
%TO.P,BGA16,C3*%
X113538000Y-107458000D03*
%TO.P,BGA16,C4*%
X114038000Y-107458000D03*
%TO.P,BGA16,D1*%
X112538000Y-106958000D03*
%TO.P,BGA16,D2*%
X113038000Y-106958000D03*
%TO.P,BGA16,D3*%
X113538000Y-106958000D03*
%TO.P,BGA16,D4*%
X114038000Y-106958000D03*
%TD*%
D33*
%TO.P,0402,1*%
%TO.N,N/C*%
X160150000Y-92392000D03*
%TO.P,0402,2*%
X161050000Y-92392000D03*
%TD*%
D34*
%TO.P,0603,1*%
%TO.N,N/C*%
X159850000Y-88392000D03*
%TO.P,0603,2*%
X161350000Y-88392000D03*
%TD*%
D35*
%TO.P,1206,1*%
%TO.N,N/C*%
X166550000Y-88392000D03*
%TO.P,1206,2*%
X163650000Y-88392000D03*
%TD*%
D36*
%TO.P,SOT223,1*%
%TO.N,N/C*%
X135650000Y-101448000D03*
%TO.P,SOT223,2*%
X133350000Y-101447999D03*
%TO.P,SOT223,3*%
X131050000Y-101448000D03*
D37*
%TO.P,SOT223,4*%
X133350000Y-95148001D03*
%TD*%
D38*
%TO.P,WS2812,1*%
%TO.N,N/C*%
X130850000Y-108280000D03*
%TO.P,WS2812,2*%
X130850000Y-106680000D03*
%TO.P,WS2812,3*%
X130850000Y-105080000D03*
%TO.P,WS2812,4*%
X135850000Y-105080000D03*
%TO.P,WS2812,5*%
X135850000Y-106680000D03*
%TO.P,WS2812,6*%
X135850000Y-108280000D03*
%TD*%
%TA.AperFunction,NonConductor*%
G36*
X172420986Y-60499141D02*
G01*
X172450878Y-60500819D01*
X172710573Y-60515405D01*
X172724377Y-60516961D01*
X173006889Y-60564963D01*
X173020440Y-60568056D01*
X173295805Y-60647390D01*
X173308909Y-60651975D01*
X173559114Y-60755615D01*
X173573662Y-60761642D01*
X173586190Y-60767676D01*
X173836978Y-60906284D01*
X173848752Y-60913682D01*
X174082450Y-61079503D01*
X174093322Y-61088173D01*
X174306990Y-61279122D01*
X174316822Y-61288955D01*
X174507758Y-61502617D01*
X174516428Y-61513489D01*
X174682245Y-61747190D01*
X174689643Y-61758964D01*
X174828248Y-62009757D01*
X174834282Y-62022286D01*
X174943939Y-62287033D01*
X174948531Y-62300158D01*
X175027854Y-62575509D01*
X175030948Y-62589066D01*
X175078943Y-62871565D01*
X175080500Y-62885383D01*
X175096822Y-63176100D01*
X175097017Y-63183049D01*
X175097017Y-63214892D01*
X175097017Y-63244331D01*
X175097017Y-63244333D01*
X175097018Y-63254325D01*
X175097018Y-73089842D01*
X175077333Y-73156881D01*
X175024529Y-73202636D01*
X174955371Y-73212580D01*
X174891815Y-73183555D01*
X174885337Y-73177523D01*
X173307316Y-71599502D01*
X173307314Y-71599500D01*
X173200707Y-71537950D01*
X173193187Y-71533608D01*
X173129539Y-71516554D01*
X173065892Y-71499500D01*
X171565892Y-71499500D01*
X171434107Y-71499500D01*
X171306812Y-71533608D01*
X171192686Y-71599500D01*
X171192683Y-71599502D01*
X167599502Y-75192683D01*
X167599500Y-75192686D01*
X167533608Y-75306812D01*
X167522803Y-75347139D01*
X167499500Y-75434108D01*
X167499500Y-83934108D01*
X167499500Y-84065892D01*
X167516554Y-84129539D01*
X167533608Y-84193187D01*
X167566554Y-84250250D01*
X167599500Y-84307314D01*
X167599501Y-84307315D01*
X167599502Y-84307316D01*
X171595159Y-88302972D01*
X171595169Y-88302983D01*
X171599499Y-88307313D01*
X171599500Y-88307314D01*
X171692686Y-88400500D01*
X171806814Y-88466392D01*
X171934107Y-88500500D01*
X171934108Y-88500500D01*
X171934109Y-88500500D01*
X173065890Y-88500500D01*
X173065892Y-88500500D01*
X173193186Y-88466392D01*
X173307314Y-88400500D01*
X174885337Y-86822475D01*
X174946660Y-86788991D01*
X175016352Y-86793975D01*
X175072285Y-86835847D01*
X175096702Y-86901311D01*
X175097018Y-86910157D01*
X175097018Y-110794956D01*
X175096823Y-110801911D01*
X175080556Y-111091493D01*
X175078999Y-111105310D01*
X175030995Y-111387818D01*
X175027900Y-111401375D01*
X174948572Y-111676716D01*
X174943980Y-111689841D01*
X174834314Y-111954591D01*
X174828280Y-111967119D01*
X174689671Y-112217909D01*
X174682273Y-112229683D01*
X174516449Y-112463388D01*
X174507779Y-112474260D01*
X174316837Y-112687921D01*
X174307005Y-112697753D01*
X174093343Y-112888692D01*
X174082471Y-112897362D01*
X173848764Y-113063185D01*
X173836990Y-113070583D01*
X173586192Y-113209194D01*
X173573664Y-113215227D01*
X173308928Y-113324885D01*
X173295802Y-113329478D01*
X173020443Y-113408807D01*
X173006887Y-113411901D01*
X172724387Y-113459901D01*
X172710570Y-113461458D01*
X172550096Y-113470471D01*
X172420481Y-113477751D01*
X172413541Y-113477946D01*
X93251015Y-113477946D01*
X93243410Y-113477945D01*
X93243407Y-113477945D01*
X93213147Y-113477945D01*
X93180991Y-113477945D01*
X93180990Y-113477944D01*
X93174041Y-113477750D01*
X92884454Y-113461489D01*
X92870636Y-113459932D01*
X92588130Y-113411934D01*
X92574573Y-113408840D01*
X92299216Y-113329513D01*
X92286091Y-113324921D01*
X92021334Y-113215258D01*
X92008806Y-113209224D01*
X91758010Y-113070617D01*
X91746236Y-113063219D01*
X91512529Y-112897398D01*
X91501657Y-112888728D01*
X91287990Y-112697787D01*
X91278157Y-112687955D01*
X91087202Y-112474282D01*
X91078532Y-112463410D01*
X90912702Y-112229699D01*
X90905312Y-112217937D01*
X90766691Y-111967127D01*
X90760658Y-111954599D01*
X90752285Y-111934386D01*
X90650993Y-111689856D01*
X90646407Y-111676749D01*
X90567070Y-111401375D01*
X90563978Y-111387829D01*
X90534766Y-111215911D01*
X90515972Y-111105309D01*
X90514416Y-111091497D01*
X90511811Y-111045131D01*
X90498214Y-110803066D01*
X90498019Y-110796112D01*
X90498019Y-106915147D01*
X112212500Y-106915147D01*
X112212500Y-107000853D01*
X112232687Y-107076190D01*
X112234682Y-107083637D01*
X112234682Y-107083638D01*
X112270687Y-107146001D01*
X112287159Y-107213901D01*
X112270687Y-107269999D01*
X112234682Y-107332361D01*
X112234682Y-107332362D01*
X112212500Y-107415147D01*
X112212500Y-107500853D01*
X112233574Y-107579500D01*
X112234682Y-107583637D01*
X112234682Y-107583638D01*
X112270687Y-107646001D01*
X112287159Y-107713901D01*
X112270687Y-107769999D01*
X112234682Y-107832361D01*
X112234682Y-107832362D01*
X112212500Y-107915147D01*
X112212500Y-108000853D01*
X112222601Y-108038548D01*
X112234682Y-108083637D01*
X112234682Y-108083638D01*
X112270687Y-108146001D01*
X112287159Y-108213901D01*
X112270687Y-108269999D01*
X112234682Y-108332361D01*
X112234682Y-108332362D01*
X112212500Y-108415147D01*
X112212500Y-108500853D01*
X112234682Y-108583636D01*
X112234682Y-108583637D01*
X112234685Y-108583644D01*
X112277530Y-108657855D01*
X112277534Y-108657860D01*
X112277535Y-108657862D01*
X112338138Y-108718465D01*
X112338140Y-108718466D01*
X112338144Y-108718469D01*
X112412355Y-108761314D01*
X112412362Y-108761318D01*
X112495147Y-108783500D01*
X112495149Y-108783500D01*
X112580851Y-108783500D01*
X112580853Y-108783500D01*
X112663638Y-108761318D01*
X112726001Y-108725312D01*
X112793900Y-108708840D01*
X112849998Y-108725312D01*
X112912362Y-108761318D01*
X112995147Y-108783500D01*
X112995149Y-108783500D01*
X113080851Y-108783500D01*
X113080853Y-108783500D01*
X113163638Y-108761318D01*
X113226001Y-108725312D01*
X113293900Y-108708840D01*
X113349998Y-108725312D01*
X113412362Y-108761318D01*
X113495147Y-108783500D01*
X113495149Y-108783500D01*
X113580851Y-108783500D01*
X113580853Y-108783500D01*
X113663638Y-108761318D01*
X113726001Y-108725312D01*
X113793900Y-108708840D01*
X113849998Y-108725312D01*
X113912362Y-108761318D01*
X113995147Y-108783500D01*
X113995149Y-108783500D01*
X114080851Y-108783500D01*
X114080853Y-108783500D01*
X114163638Y-108761318D01*
X114237862Y-108718465D01*
X114298465Y-108657862D01*
X114341318Y-108583638D01*
X114342227Y-108580247D01*
X117146500Y-108580247D01*
X117146500Y-109319752D01*
X117158131Y-109378229D01*
X117158132Y-109378230D01*
X117202447Y-109444552D01*
X117268769Y-109488867D01*
X117268770Y-109488868D01*
X117327247Y-109500499D01*
X117327250Y-109500500D01*
X117327252Y-109500500D01*
X117816750Y-109500500D01*
X117816751Y-109500499D01*
X117831568Y-109497552D01*
X117875229Y-109488868D01*
X117875229Y-109488867D01*
X117875231Y-109488867D01*
X117941552Y-109444552D01*
X117985867Y-109378231D01*
X117985867Y-109378229D01*
X117985868Y-109378229D01*
X117997499Y-109319752D01*
X117997500Y-109319750D01*
X117997500Y-108580249D01*
X117997499Y-108580247D01*
X118446500Y-108580247D01*
X118446500Y-109319752D01*
X118458131Y-109378229D01*
X118458132Y-109378230D01*
X118502447Y-109444552D01*
X118568769Y-109488867D01*
X118568770Y-109488868D01*
X118627247Y-109500499D01*
X118627250Y-109500500D01*
X118627252Y-109500500D01*
X119116750Y-109500500D01*
X119116751Y-109500499D01*
X119131568Y-109497552D01*
X119175229Y-109488868D01*
X119175229Y-109488867D01*
X119175231Y-109488867D01*
X119241552Y-109444552D01*
X119285867Y-109378231D01*
X119285867Y-109378229D01*
X119285868Y-109378229D01*
X119297499Y-109319752D01*
X119297500Y-109319750D01*
X119297500Y-108580249D01*
X119297499Y-108580247D01*
X119285868Y-108521770D01*
X119285867Y-108521769D01*
X119241552Y-108455447D01*
X119175230Y-108411132D01*
X119175229Y-108411131D01*
X119116752Y-108399500D01*
X119116748Y-108399500D01*
X118627252Y-108399500D01*
X118627247Y-108399500D01*
X118568770Y-108411131D01*
X118568769Y-108411132D01*
X118502447Y-108455447D01*
X118458132Y-108521769D01*
X118458131Y-108521770D01*
X118446500Y-108580247D01*
X117997499Y-108580247D01*
X117985868Y-108521770D01*
X117985867Y-108521769D01*
X117941552Y-108455447D01*
X117875230Y-108411132D01*
X117875229Y-108411131D01*
X117816752Y-108399500D01*
X117816748Y-108399500D01*
X117327252Y-108399500D01*
X117327247Y-108399500D01*
X117268770Y-108411131D01*
X117268769Y-108411132D01*
X117202447Y-108455447D01*
X117158132Y-108521769D01*
X117158131Y-108521770D01*
X117146500Y-108580247D01*
X114342227Y-108580247D01*
X114363500Y-108500853D01*
X114363500Y-108415147D01*
X114341318Y-108332362D01*
X114305312Y-108269998D01*
X114288840Y-108202100D01*
X114305313Y-108146000D01*
X114341318Y-108083638D01*
X114363500Y-108000853D01*
X114363500Y-107915147D01*
X114341318Y-107832362D01*
X114305312Y-107769998D01*
X114288840Y-107702100D01*
X114305313Y-107646000D01*
X114311272Y-107635679D01*
X114341318Y-107583638D01*
X114363500Y-107500853D01*
X114363500Y-107415147D01*
X114341318Y-107332362D01*
X114305312Y-107269998D01*
X114288840Y-107202100D01*
X114305313Y-107146000D01*
X114341318Y-107083638D01*
X114363500Y-107000853D01*
X114363500Y-106915147D01*
X114341318Y-106832362D01*
X114341314Y-106832355D01*
X114298469Y-106758144D01*
X114298463Y-106758136D01*
X114237863Y-106697536D01*
X114237862Y-106697535D01*
X114163638Y-106654682D01*
X114080853Y-106632500D01*
X113995147Y-106632500D01*
X113912362Y-106654682D01*
X113912361Y-106654682D01*
X113849999Y-106690687D01*
X113782099Y-106707159D01*
X113726001Y-106690687D01*
X113663638Y-106654682D01*
X113580853Y-106632500D01*
X113495147Y-106632500D01*
X113412362Y-106654682D01*
X113412361Y-106654682D01*
X113349999Y-106690687D01*
X113282099Y-106707159D01*
X113226001Y-106690687D01*
X113163638Y-106654682D01*
X113080853Y-106632500D01*
X112995147Y-106632500D01*
X112912362Y-106654682D01*
X112912361Y-106654682D01*
X112849999Y-106690687D01*
X112782099Y-106707159D01*
X112726001Y-106690687D01*
X112663638Y-106654682D01*
X112580853Y-106632500D01*
X112495147Y-106632500D01*
X112412362Y-106654682D01*
X112412355Y-106654685D01*
X112338144Y-106697530D01*
X112338136Y-106697536D01*
X112277536Y-106758136D01*
X112277530Y-106758144D01*
X112234685Y-106832355D01*
X112234682Y-106832362D01*
X112212500Y-106915147D01*
X90498019Y-106915147D01*
X90498019Y-106580247D01*
X117796500Y-106580247D01*
X117796500Y-107319752D01*
X117808131Y-107378229D01*
X117808132Y-107378230D01*
X117852447Y-107444552D01*
X117918769Y-107488867D01*
X117918770Y-107488868D01*
X117977247Y-107500499D01*
X117977250Y-107500500D01*
X117977252Y-107500500D01*
X118466750Y-107500500D01*
X118466751Y-107500499D01*
X118481568Y-107497552D01*
X118525229Y-107488868D01*
X118525229Y-107488867D01*
X118525231Y-107488867D01*
X118591552Y-107444552D01*
X118635867Y-107378231D01*
X118635867Y-107378229D01*
X118635868Y-107378229D01*
X118644991Y-107332361D01*
X118647500Y-107319748D01*
X118647500Y-106580252D01*
X118647500Y-106580249D01*
X118647499Y-106580247D01*
X118635868Y-106521770D01*
X118635867Y-106521769D01*
X118591552Y-106455447D01*
X118525230Y-106411132D01*
X118525229Y-106411131D01*
X118466752Y-106399500D01*
X118466748Y-106399500D01*
X117977252Y-106399500D01*
X117977247Y-106399500D01*
X117918770Y-106411131D01*
X117918769Y-106411132D01*
X117852447Y-106455447D01*
X117808132Y-106521769D01*
X117808131Y-106521770D01*
X117796500Y-106580247D01*
X90498019Y-106580247D01*
X90498019Y-106272247D01*
X120637500Y-106272247D01*
X120637500Y-108611752D01*
X120649131Y-108670229D01*
X120649132Y-108670230D01*
X120693447Y-108736552D01*
X120759769Y-108780867D01*
X120759770Y-108780868D01*
X120818247Y-108792499D01*
X120818250Y-108792500D01*
X120818252Y-108792500D01*
X123357750Y-108792500D01*
X123357751Y-108792499D01*
X123372568Y-108789552D01*
X123416229Y-108780868D01*
X123416229Y-108780867D01*
X123416231Y-108780867D01*
X123482552Y-108736552D01*
X123526867Y-108670231D01*
X123526867Y-108670229D01*
X123526868Y-108670229D01*
X123538499Y-108611752D01*
X123538500Y-108611750D01*
X123538500Y-106272249D01*
X123538499Y-106272247D01*
X124937500Y-106272247D01*
X124937500Y-108611752D01*
X124949131Y-108670229D01*
X124949132Y-108670230D01*
X124993447Y-108736552D01*
X125059769Y-108780867D01*
X125059770Y-108780868D01*
X125118247Y-108792499D01*
X125118250Y-108792500D01*
X125118252Y-108792500D01*
X127657750Y-108792500D01*
X127657751Y-108792499D01*
X127672568Y-108789552D01*
X127716229Y-108780868D01*
X127716229Y-108780867D01*
X127716231Y-108780867D01*
X127782552Y-108736552D01*
X127826867Y-108670231D01*
X127826867Y-108670229D01*
X127826868Y-108670229D01*
X127838499Y-108611752D01*
X127838500Y-108611750D01*
X127838500Y-106272249D01*
X127838499Y-106272247D01*
X127826868Y-106213770D01*
X127826867Y-106213769D01*
X127782552Y-106147447D01*
X127716230Y-106103132D01*
X127716229Y-106103131D01*
X127657752Y-106091500D01*
X127657748Y-106091500D01*
X125118252Y-106091500D01*
X125118247Y-106091500D01*
X125059770Y-106103131D01*
X125059769Y-106103132D01*
X124993447Y-106147447D01*
X124949132Y-106213769D01*
X124949131Y-106213770D01*
X124937500Y-106272247D01*
X123538499Y-106272247D01*
X123526868Y-106213770D01*
X123526867Y-106213769D01*
X123482552Y-106147447D01*
X123416230Y-106103132D01*
X123416229Y-106103131D01*
X123357752Y-106091500D01*
X123357748Y-106091500D01*
X120818252Y-106091500D01*
X120818247Y-106091500D01*
X120759770Y-106103131D01*
X120759769Y-106103132D01*
X120693447Y-106147447D01*
X120649132Y-106213769D01*
X120649131Y-106213770D01*
X120637500Y-106272247D01*
X90498019Y-106272247D01*
X90498019Y-104560247D01*
X129849500Y-104560247D01*
X129849500Y-105599752D01*
X129861131Y-105658229D01*
X129861132Y-105658230D01*
X129905447Y-105724552D01*
X129981923Y-105775652D01*
X129979908Y-105778666D01*
X130017904Y-105809293D01*
X130039961Y-105875590D01*
X130022673Y-105943287D01*
X129980632Y-105982417D01*
X129981923Y-105984348D01*
X129905447Y-106035447D01*
X129861132Y-106101769D01*
X129861131Y-106101770D01*
X129849500Y-106160247D01*
X129849500Y-107199752D01*
X129861131Y-107258229D01*
X129861132Y-107258230D01*
X129905447Y-107324552D01*
X129981923Y-107375652D01*
X129979908Y-107378666D01*
X130017904Y-107409293D01*
X130039961Y-107475590D01*
X130022673Y-107543287D01*
X129980632Y-107582417D01*
X129981923Y-107584348D01*
X129905447Y-107635447D01*
X129861132Y-107701769D01*
X129861131Y-107701770D01*
X129849500Y-107760247D01*
X129849500Y-108799752D01*
X129861131Y-108858229D01*
X129861132Y-108858230D01*
X129905447Y-108924552D01*
X129971769Y-108968867D01*
X129971770Y-108968868D01*
X130030247Y-108980499D01*
X130030250Y-108980500D01*
X130030252Y-108980500D01*
X131669750Y-108980500D01*
X131669751Y-108980499D01*
X131684568Y-108977552D01*
X131728229Y-108968868D01*
X131728229Y-108968867D01*
X131728231Y-108968867D01*
X131794552Y-108924552D01*
X131838867Y-108858231D01*
X131838867Y-108858229D01*
X131838868Y-108858229D01*
X131850499Y-108799752D01*
X131850500Y-108799750D01*
X131850500Y-107760249D01*
X131850499Y-107760247D01*
X131838868Y-107701770D01*
X131838867Y-107701769D01*
X131794552Y-107635447D01*
X131718077Y-107584348D01*
X131720091Y-107581332D01*
X131682103Y-107550719D01*
X131660039Y-107484424D01*
X131677319Y-107416725D01*
X131719365Y-107377579D01*
X131718077Y-107375652D01*
X131794552Y-107324552D01*
X131831003Y-107270000D01*
X131838867Y-107258231D01*
X131838867Y-107258229D01*
X131838868Y-107258229D01*
X131847685Y-107213901D01*
X131850500Y-107199748D01*
X131850500Y-106160252D01*
X131850500Y-106160249D01*
X131850499Y-106160247D01*
X131838868Y-106101770D01*
X131838867Y-106101769D01*
X131794552Y-106035447D01*
X131718077Y-105984348D01*
X131720091Y-105981332D01*
X131682103Y-105950719D01*
X131660039Y-105884424D01*
X131677319Y-105816725D01*
X131719365Y-105777579D01*
X131718077Y-105775652D01*
X131794552Y-105724552D01*
X131806262Y-105707027D01*
X131838867Y-105658231D01*
X131838867Y-105658229D01*
X131838868Y-105658229D01*
X131850499Y-105599752D01*
X131850500Y-105599750D01*
X131850500Y-104560249D01*
X131850499Y-104560247D01*
X134849500Y-104560247D01*
X134849500Y-105599752D01*
X134861131Y-105658229D01*
X134861132Y-105658230D01*
X134905447Y-105724552D01*
X134981923Y-105775652D01*
X134979908Y-105778666D01*
X135017904Y-105809293D01*
X135039961Y-105875590D01*
X135022673Y-105943287D01*
X134980632Y-105982417D01*
X134981923Y-105984348D01*
X134905447Y-106035447D01*
X134861132Y-106101769D01*
X134861131Y-106101770D01*
X134849500Y-106160247D01*
X134849500Y-107199752D01*
X134861131Y-107258229D01*
X134861132Y-107258230D01*
X134905447Y-107324552D01*
X134981923Y-107375652D01*
X134979908Y-107378666D01*
X135017904Y-107409293D01*
X135039961Y-107475590D01*
X135022673Y-107543287D01*
X134980632Y-107582417D01*
X134981923Y-107584348D01*
X134905447Y-107635447D01*
X134861132Y-107701769D01*
X134861131Y-107701770D01*
X134849500Y-107760247D01*
X134849500Y-108799752D01*
X134861131Y-108858229D01*
X134861132Y-108858230D01*
X134905447Y-108924552D01*
X134971769Y-108968867D01*
X134971770Y-108968868D01*
X135030247Y-108980499D01*
X135030250Y-108980500D01*
X135030252Y-108980500D01*
X136669750Y-108980500D01*
X136669751Y-108980499D01*
X136684568Y-108977552D01*
X136728229Y-108968868D01*
X136728229Y-108968867D01*
X136728231Y-108968867D01*
X136794552Y-108924552D01*
X136838867Y-108858231D01*
X136838867Y-108858229D01*
X136838868Y-108858229D01*
X136850499Y-108799752D01*
X136850500Y-108799750D01*
X136850500Y-107760249D01*
X136850499Y-107760247D01*
X136838868Y-107701770D01*
X136838867Y-107701769D01*
X136794552Y-107635447D01*
X136718077Y-107584348D01*
X136720091Y-107581332D01*
X136682103Y-107550719D01*
X136660039Y-107484424D01*
X136677319Y-107416725D01*
X136719365Y-107377579D01*
X136718077Y-107375652D01*
X136794552Y-107324552D01*
X136831003Y-107270000D01*
X136838867Y-107258231D01*
X136838867Y-107258229D01*
X136838868Y-107258229D01*
X136847685Y-107213901D01*
X136850500Y-107199748D01*
X136850500Y-106414247D01*
X138980500Y-106414247D01*
X138980500Y-107453752D01*
X138992131Y-107512229D01*
X138992132Y-107512230D01*
X139036447Y-107578552D01*
X139041708Y-107582067D01*
X139086513Y-107635679D01*
X139095220Y-107705004D01*
X139065066Y-107768032D01*
X139041712Y-107788269D01*
X139039947Y-107789448D01*
X138995632Y-107855769D01*
X138995631Y-107855770D01*
X138984000Y-107914247D01*
X138984000Y-108953752D01*
X138995631Y-109012229D01*
X138995632Y-109012230D01*
X139039947Y-109078552D01*
X139106269Y-109122867D01*
X139106270Y-109122868D01*
X139164747Y-109134499D01*
X139164750Y-109134500D01*
X139164752Y-109134500D01*
X140704250Y-109134500D01*
X140704251Y-109134499D01*
X140719068Y-109131552D01*
X140762729Y-109122868D01*
X140762729Y-109122867D01*
X140762731Y-109122867D01*
X140829052Y-109078552D01*
X140873367Y-109012231D01*
X140873367Y-109012229D01*
X140873368Y-109012229D01*
X140883467Y-108961455D01*
X140885000Y-108953748D01*
X140885000Y-107914252D01*
X140885000Y-107914249D01*
X140875263Y-107865301D01*
X140881490Y-107795710D01*
X140924352Y-107740532D01*
X140990242Y-107717287D01*
X141058239Y-107733354D01*
X141067989Y-107739524D01*
X141318882Y-107915149D01*
X141673144Y-108163132D01*
X141683448Y-108178552D01*
X141749769Y-108222867D01*
X141774396Y-108227765D01*
X141776841Y-108228971D01*
X141784878Y-108229850D01*
X141785455Y-108229964D01*
X141785923Y-108230251D01*
X141790198Y-108230909D01*
X141808248Y-108234500D01*
X141808252Y-108234500D01*
X141820592Y-108234500D01*
X141834083Y-108235236D01*
X141856131Y-108237649D01*
X141868294Y-108236584D01*
X141868315Y-108236831D01*
X141884639Y-108234500D01*
X143628071Y-108234500D01*
X143639070Y-108237683D01*
X143667633Y-108234500D01*
X143687748Y-108234500D01*
X143709106Y-108230251D01*
X143713374Y-108229401D01*
X143718343Y-108228849D01*
X143719801Y-108228123D01*
X143723809Y-108227325D01*
X143746231Y-108222867D01*
X143746232Y-108222866D01*
X143746233Y-108222866D01*
X143768481Y-108208000D01*
X143812552Y-108178552D01*
X143812556Y-108178545D01*
X143821187Y-108169916D01*
X143821319Y-108170048D01*
X143843102Y-108147698D01*
X144375699Y-107771750D01*
X144644748Y-107581834D01*
X144644750Y-107581832D01*
X144644749Y-107581832D01*
X144644756Y-107581828D01*
X144666173Y-107561653D01*
X144702869Y-107490832D01*
X144707000Y-107461700D01*
X144707000Y-106406299D01*
X144702869Y-106377168D01*
X144666173Y-106306347D01*
X144666171Y-106306345D01*
X144644757Y-106286173D01*
X143846453Y-105722665D01*
X143846444Y-105722659D01*
X143824298Y-105707027D01*
X143812552Y-105689448D01*
X143746231Y-105645133D01*
X143719802Y-105639876D01*
X143718343Y-105639151D01*
X143713372Y-105638597D01*
X143706732Y-105637276D01*
X143687749Y-105633500D01*
X143687748Y-105633500D01*
X143674528Y-105633500D01*
X143660793Y-105632737D01*
X143639068Y-105630315D01*
X143626902Y-105631357D01*
X143626886Y-105631174D01*
X143610486Y-105633500D01*
X141866932Y-105633500D01*
X141856131Y-105630351D01*
X141827359Y-105633500D01*
X141808252Y-105633500D01*
X141790178Y-105637094D01*
X141790177Y-105637093D01*
X141784859Y-105638151D01*
X141776841Y-105639029D01*
X141774399Y-105640232D01*
X141763765Y-105642348D01*
X141749768Y-105645132D01*
X141683448Y-105689447D01*
X141674814Y-105698082D01*
X141674292Y-105697560D01*
X141654081Y-105718211D01*
X141067989Y-106128476D01*
X141001780Y-106150794D01*
X140934015Y-106133774D01*
X140886209Y-106082820D01*
X140873541Y-106014108D01*
X140875263Y-106002699D01*
X140885000Y-105953750D01*
X140885000Y-104914249D01*
X140884999Y-104914247D01*
X140873368Y-104855770D01*
X140873367Y-104855769D01*
X140829052Y-104789447D01*
X140762730Y-104745132D01*
X140762729Y-104745131D01*
X140704252Y-104733500D01*
X140704248Y-104733500D01*
X139164752Y-104733500D01*
X139164747Y-104733500D01*
X139106270Y-104745131D01*
X139106269Y-104745132D01*
X139039947Y-104789447D01*
X138995632Y-104855769D01*
X138995631Y-104855770D01*
X138984000Y-104914247D01*
X138984000Y-105953752D01*
X138995631Y-106012229D01*
X138995632Y-106012230D01*
X139039946Y-106078550D01*
X139039947Y-106078550D01*
X139039948Y-106078552D01*
X139041707Y-106079727D01*
X139044682Y-106083287D01*
X139048583Y-106087188D01*
X139048234Y-106087536D01*
X139086512Y-106133338D01*
X139095221Y-106202663D01*
X139065067Y-106265691D01*
X139041712Y-106285929D01*
X139036449Y-106289445D01*
X139036448Y-106289446D01*
X138992132Y-106355769D01*
X138992131Y-106355770D01*
X138980500Y-106414247D01*
X136850500Y-106414247D01*
X136850500Y-106160252D01*
X136850500Y-106160249D01*
X136850499Y-106160247D01*
X136838868Y-106101770D01*
X136838867Y-106101769D01*
X136794552Y-106035447D01*
X136718077Y-105984348D01*
X136720091Y-105981332D01*
X136682103Y-105950719D01*
X136660039Y-105884424D01*
X136677319Y-105816725D01*
X136719365Y-105777579D01*
X136718077Y-105775652D01*
X136794552Y-105724552D01*
X136806262Y-105707027D01*
X136838867Y-105658231D01*
X136838867Y-105658229D01*
X136838868Y-105658229D01*
X136850499Y-105599752D01*
X136850500Y-105599750D01*
X136850500Y-104560249D01*
X136850499Y-104560247D01*
X136838868Y-104501770D01*
X136838867Y-104501769D01*
X136794552Y-104435447D01*
X136728230Y-104391132D01*
X136728229Y-104391131D01*
X136669752Y-104379500D01*
X136669748Y-104379500D01*
X135030252Y-104379500D01*
X135030247Y-104379500D01*
X134971770Y-104391131D01*
X134971769Y-104391132D01*
X134905447Y-104435447D01*
X134861132Y-104501769D01*
X134861131Y-104501770D01*
X134849500Y-104560247D01*
X131850499Y-104560247D01*
X131838868Y-104501770D01*
X131838867Y-104501769D01*
X131794552Y-104435447D01*
X131728230Y-104391132D01*
X131728229Y-104391131D01*
X131669752Y-104379500D01*
X131669748Y-104379500D01*
X130030252Y-104379500D01*
X130030247Y-104379500D01*
X129971770Y-104391131D01*
X129971769Y-104391132D01*
X129905447Y-104435447D01*
X129861132Y-104501769D01*
X129861131Y-104501770D01*
X129849500Y-104560247D01*
X90498019Y-104560247D01*
X90498019Y-100522247D01*
X120787500Y-100522247D01*
X120787500Y-102361752D01*
X120799131Y-102420229D01*
X120799132Y-102420230D01*
X120843447Y-102486552D01*
X120909769Y-102530867D01*
X120909770Y-102530868D01*
X120968247Y-102542499D01*
X120968250Y-102542500D01*
X120968252Y-102542500D01*
X123507750Y-102542500D01*
X123507751Y-102542499D01*
X123522568Y-102539552D01*
X123566229Y-102530868D01*
X123566229Y-102530867D01*
X123566231Y-102530867D01*
X123632552Y-102486552D01*
X123676867Y-102420231D01*
X123676867Y-102420229D01*
X123676868Y-102420229D01*
X123688499Y-102361752D01*
X123688500Y-102361750D01*
X123688500Y-100522249D01*
X123688499Y-100522247D01*
X124787500Y-100522247D01*
X124787500Y-102361752D01*
X124799131Y-102420229D01*
X124799132Y-102420230D01*
X124843447Y-102486552D01*
X124909769Y-102530867D01*
X124909770Y-102530868D01*
X124968247Y-102542499D01*
X124968250Y-102542500D01*
X124968252Y-102542500D01*
X127507750Y-102542500D01*
X127507751Y-102542499D01*
X127522568Y-102539552D01*
X127566229Y-102530868D01*
X127566229Y-102530867D01*
X127566231Y-102530867D01*
X127632552Y-102486552D01*
X127676867Y-102420231D01*
X127676867Y-102420229D01*
X127676868Y-102420229D01*
X127688499Y-102361752D01*
X127688500Y-102361750D01*
X127688500Y-100522249D01*
X127688499Y-100522247D01*
X127676868Y-100463770D01*
X127676867Y-100463769D01*
X127653132Y-100428247D01*
X130099500Y-100428247D01*
X130099500Y-102467752D01*
X130111131Y-102526229D01*
X130111132Y-102526230D01*
X130155447Y-102592552D01*
X130221769Y-102636867D01*
X130221770Y-102636868D01*
X130280247Y-102648499D01*
X130280250Y-102648500D01*
X130280252Y-102648500D01*
X131819750Y-102648500D01*
X131819751Y-102648499D01*
X131834568Y-102645552D01*
X131878229Y-102636868D01*
X131878229Y-102636867D01*
X131878231Y-102636867D01*
X131944552Y-102592552D01*
X131988867Y-102526231D01*
X131988867Y-102526229D01*
X131988868Y-102526229D01*
X132000499Y-102467752D01*
X132000500Y-102467750D01*
X132000500Y-100428250D01*
X132000499Y-100428246D01*
X132399500Y-100428246D01*
X132399500Y-102467751D01*
X132411131Y-102526228D01*
X132411132Y-102526229D01*
X132455447Y-102592551D01*
X132521769Y-102636866D01*
X132521770Y-102636867D01*
X132580247Y-102648498D01*
X132580250Y-102648499D01*
X132580252Y-102648499D01*
X134119750Y-102648499D01*
X134119751Y-102648498D01*
X134134568Y-102645551D01*
X134178229Y-102636867D01*
X134178229Y-102636866D01*
X134178231Y-102636866D01*
X134244552Y-102592551D01*
X134288867Y-102526230D01*
X134288867Y-102526228D01*
X134288868Y-102526228D01*
X134300499Y-102467751D01*
X134300500Y-102467749D01*
X134300500Y-100428248D01*
X134300499Y-100428247D01*
X134699500Y-100428247D01*
X134699500Y-102467752D01*
X134711131Y-102526229D01*
X134711132Y-102526230D01*
X134755447Y-102592552D01*
X134821769Y-102636867D01*
X134821770Y-102636868D01*
X134880247Y-102648499D01*
X134880250Y-102648500D01*
X134880252Y-102648500D01*
X136419750Y-102648500D01*
X136419751Y-102648499D01*
X136434568Y-102645552D01*
X136478229Y-102636868D01*
X136478229Y-102636867D01*
X136478231Y-102636867D01*
X136544552Y-102592552D01*
X136588867Y-102526231D01*
X136588867Y-102526229D01*
X136588868Y-102526229D01*
X136600499Y-102467752D01*
X136600500Y-102467750D01*
X136600500Y-101633247D01*
X139453500Y-101633247D01*
X139453500Y-103222752D01*
X139465131Y-103281229D01*
X139465132Y-103281230D01*
X139509447Y-103347552D01*
X139575769Y-103391867D01*
X139575770Y-103391868D01*
X139634247Y-103403499D01*
X139634250Y-103403500D01*
X139634252Y-103403500D01*
X140273750Y-103403500D01*
X140273751Y-103403499D01*
X140288568Y-103400552D01*
X140332229Y-103391868D01*
X140332229Y-103391867D01*
X140332231Y-103391867D01*
X140398552Y-103347552D01*
X140442867Y-103281231D01*
X140442867Y-103281229D01*
X140442868Y-103281229D01*
X140454499Y-103222752D01*
X140454500Y-103222750D01*
X140454500Y-101633249D01*
X140454499Y-101633247D01*
X140723500Y-101633247D01*
X140723500Y-103222752D01*
X140735131Y-103281229D01*
X140735132Y-103281230D01*
X140779447Y-103347552D01*
X140845769Y-103391867D01*
X140845770Y-103391868D01*
X140904247Y-103403499D01*
X140904250Y-103403500D01*
X140904252Y-103403500D01*
X141543750Y-103403500D01*
X141543751Y-103403499D01*
X141558568Y-103400552D01*
X141602229Y-103391868D01*
X141602229Y-103391867D01*
X141602231Y-103391867D01*
X141668552Y-103347552D01*
X141712867Y-103281231D01*
X141712867Y-103281229D01*
X141712868Y-103281229D01*
X141724499Y-103222752D01*
X141724500Y-103222750D01*
X141724500Y-101633249D01*
X141724499Y-101633247D01*
X141993500Y-101633247D01*
X141993500Y-103222752D01*
X142005131Y-103281229D01*
X142005132Y-103281230D01*
X142049447Y-103347552D01*
X142115769Y-103391867D01*
X142115770Y-103391868D01*
X142174247Y-103403499D01*
X142174250Y-103403500D01*
X142174252Y-103403500D01*
X142813750Y-103403500D01*
X142813751Y-103403499D01*
X142828568Y-103400552D01*
X142872229Y-103391868D01*
X142872229Y-103391867D01*
X142872231Y-103391867D01*
X142938552Y-103347552D01*
X142982867Y-103281231D01*
X142982867Y-103281229D01*
X142982868Y-103281229D01*
X142994499Y-103222752D01*
X142994500Y-103222750D01*
X142994500Y-101633249D01*
X142994499Y-101633247D01*
X143263500Y-101633247D01*
X143263500Y-103222752D01*
X143275131Y-103281229D01*
X143275132Y-103281230D01*
X143319447Y-103347552D01*
X143385769Y-103391867D01*
X143385770Y-103391868D01*
X143444247Y-103403499D01*
X143444250Y-103403500D01*
X143444252Y-103403500D01*
X144083750Y-103403500D01*
X144083751Y-103403499D01*
X144098568Y-103400552D01*
X144142229Y-103391868D01*
X144142229Y-103391867D01*
X144142231Y-103391867D01*
X144208552Y-103347552D01*
X144252867Y-103281231D01*
X144252867Y-103281229D01*
X144252868Y-103281229D01*
X144264499Y-103222752D01*
X144264500Y-103222750D01*
X144264500Y-101633249D01*
X144264499Y-101633247D01*
X144252868Y-101574770D01*
X144252867Y-101574769D01*
X144208552Y-101508447D01*
X144142230Y-101464132D01*
X144142229Y-101464131D01*
X144083752Y-101452500D01*
X144083748Y-101452500D01*
X143444252Y-101452500D01*
X143444247Y-101452500D01*
X143385770Y-101464131D01*
X143385769Y-101464132D01*
X143319447Y-101508447D01*
X143275132Y-101574769D01*
X143275131Y-101574770D01*
X143263500Y-101633247D01*
X142994499Y-101633247D01*
X142982868Y-101574770D01*
X142982867Y-101574769D01*
X142938552Y-101508447D01*
X142872230Y-101464132D01*
X142872229Y-101464131D01*
X142813752Y-101452500D01*
X142813748Y-101452500D01*
X142174252Y-101452500D01*
X142174247Y-101452500D01*
X142115770Y-101464131D01*
X142115769Y-101464132D01*
X142049447Y-101508447D01*
X142005132Y-101574769D01*
X142005131Y-101574770D01*
X141993500Y-101633247D01*
X141724499Y-101633247D01*
X141712868Y-101574770D01*
X141712867Y-101574769D01*
X141668552Y-101508447D01*
X141602230Y-101464132D01*
X141602229Y-101464131D01*
X141543752Y-101452500D01*
X141543748Y-101452500D01*
X140904252Y-101452500D01*
X140904247Y-101452500D01*
X140845770Y-101464131D01*
X140845769Y-101464132D01*
X140779447Y-101508447D01*
X140735132Y-101574769D01*
X140735131Y-101574770D01*
X140723500Y-101633247D01*
X140454499Y-101633247D01*
X140442868Y-101574770D01*
X140442867Y-101574769D01*
X140398552Y-101508447D01*
X140332230Y-101464132D01*
X140332229Y-101464131D01*
X140273752Y-101452500D01*
X140273748Y-101452500D01*
X139634252Y-101452500D01*
X139634247Y-101452500D01*
X139575770Y-101464131D01*
X139575769Y-101464132D01*
X139509447Y-101508447D01*
X139465132Y-101574769D01*
X139465131Y-101574770D01*
X139453500Y-101633247D01*
X136600500Y-101633247D01*
X136600500Y-100859247D01*
X146635500Y-100859247D01*
X146635500Y-101448752D01*
X146649515Y-101519209D01*
X146648239Y-101519462D01*
X146654317Y-101576023D01*
X146647303Y-101599910D01*
X146635500Y-101659247D01*
X146635500Y-102248752D01*
X146649515Y-102319209D01*
X146648239Y-102319462D01*
X146654317Y-102376023D01*
X146647303Y-102399910D01*
X146635500Y-102459247D01*
X146635500Y-103048752D01*
X146649515Y-103119209D01*
X146648239Y-103119462D01*
X146654317Y-103176023D01*
X146647303Y-103199910D01*
X146635500Y-103259247D01*
X146635500Y-103848752D01*
X146649515Y-103919209D01*
X146648239Y-103919462D01*
X146654317Y-103976023D01*
X146647303Y-103999910D01*
X146635500Y-104059247D01*
X146635500Y-104648752D01*
X146649515Y-104719209D01*
X146648239Y-104719462D01*
X146654317Y-104776023D01*
X146647303Y-104799910D01*
X146635500Y-104859247D01*
X146635500Y-105448752D01*
X146649515Y-105519209D01*
X146648239Y-105519462D01*
X146654317Y-105576023D01*
X146647303Y-105599910D01*
X146635500Y-105659247D01*
X146635500Y-106248752D01*
X146649515Y-106319209D01*
X146648239Y-106319462D01*
X146654317Y-106376023D01*
X146647303Y-106399910D01*
X146635500Y-106459247D01*
X146635500Y-107048752D01*
X146647131Y-107107229D01*
X146647132Y-107107230D01*
X146691447Y-107173552D01*
X146757769Y-107217867D01*
X146757770Y-107217868D01*
X146816247Y-107229499D01*
X146816250Y-107229500D01*
X146816252Y-107229500D01*
X148455749Y-107229500D01*
X148466909Y-107227280D01*
X148536501Y-107233507D01*
X148591679Y-107276369D01*
X148614924Y-107342258D01*
X148612721Y-107373082D01*
X148610500Y-107384250D01*
X148610500Y-109023752D01*
X148622131Y-109082229D01*
X148622132Y-109082230D01*
X148666447Y-109148552D01*
X148732769Y-109192867D01*
X148732770Y-109192868D01*
X148791247Y-109204499D01*
X148791250Y-109204500D01*
X148791252Y-109204500D01*
X149380750Y-109204500D01*
X149380751Y-109204499D01*
X149395485Y-109201568D01*
X149451210Y-109190485D01*
X149451464Y-109191762D01*
X149508009Y-109185680D01*
X149531899Y-109192694D01*
X149591247Y-109204499D01*
X149591250Y-109204500D01*
X149591252Y-109204500D01*
X150180750Y-109204500D01*
X150180751Y-109204499D01*
X150195485Y-109201568D01*
X150251210Y-109190485D01*
X150251464Y-109191762D01*
X150308009Y-109185680D01*
X150331899Y-109192694D01*
X150391247Y-109204499D01*
X150391250Y-109204500D01*
X150391252Y-109204500D01*
X150980750Y-109204500D01*
X150980751Y-109204499D01*
X150995485Y-109201568D01*
X151051210Y-109190485D01*
X151051464Y-109191762D01*
X151108009Y-109185680D01*
X151131899Y-109192694D01*
X151191247Y-109204499D01*
X151191250Y-109204500D01*
X151191252Y-109204500D01*
X151780750Y-109204500D01*
X151780751Y-109204499D01*
X151795485Y-109201568D01*
X151851210Y-109190485D01*
X151851464Y-109191762D01*
X151908009Y-109185680D01*
X151931899Y-109192694D01*
X151991247Y-109204499D01*
X151991250Y-109204500D01*
X151991252Y-109204500D01*
X152580750Y-109204500D01*
X152580751Y-109204499D01*
X152595485Y-109201568D01*
X152651210Y-109190485D01*
X152651464Y-109191762D01*
X152708009Y-109185680D01*
X152731899Y-109192694D01*
X152791247Y-109204499D01*
X152791250Y-109204500D01*
X152791252Y-109204500D01*
X153380750Y-109204500D01*
X153380751Y-109204499D01*
X153395485Y-109201568D01*
X153451210Y-109190485D01*
X153451464Y-109191762D01*
X153508009Y-109185680D01*
X153531899Y-109192694D01*
X153591247Y-109204499D01*
X153591250Y-109204500D01*
X153591252Y-109204500D01*
X154180750Y-109204500D01*
X154180751Y-109204499D01*
X154195485Y-109201568D01*
X154251210Y-109190485D01*
X154251464Y-109191762D01*
X154308009Y-109185680D01*
X154331899Y-109192694D01*
X154391247Y-109204499D01*
X154391250Y-109204500D01*
X154391252Y-109204500D01*
X154980750Y-109204500D01*
X154980751Y-109204499D01*
X154995568Y-109201552D01*
X155039229Y-109192868D01*
X155039229Y-109192867D01*
X155039231Y-109192867D01*
X155105552Y-109148552D01*
X155149867Y-109082231D01*
X155149867Y-109082229D01*
X155149868Y-109082229D01*
X155161499Y-109023752D01*
X155161500Y-109023750D01*
X155161500Y-107384249D01*
X155161499Y-107384247D01*
X155159280Y-107373088D01*
X155165507Y-107303497D01*
X155208370Y-107248319D01*
X155274260Y-107225075D01*
X155305088Y-107227280D01*
X155316247Y-107229499D01*
X155316250Y-107229500D01*
X155316252Y-107229500D01*
X156955750Y-107229500D01*
X156955751Y-107229499D01*
X156977994Y-107225075D01*
X157014229Y-107217868D01*
X157014229Y-107217867D01*
X157014231Y-107217867D01*
X157080552Y-107173552D01*
X157124867Y-107107231D01*
X157124867Y-107107229D01*
X157124868Y-107107229D01*
X157133552Y-107063568D01*
X157136500Y-107048748D01*
X157136500Y-106459252D01*
X157136500Y-106459249D01*
X157136499Y-106459247D01*
X157122485Y-106388790D01*
X157123762Y-106388535D01*
X157117680Y-106331991D01*
X157124694Y-106308100D01*
X157128404Y-106289448D01*
X157136500Y-106248748D01*
X157136500Y-105659252D01*
X157136500Y-105659249D01*
X157136499Y-105659247D01*
X157122485Y-105588790D01*
X157123762Y-105588535D01*
X157122630Y-105578009D01*
X157115720Y-105555459D01*
X157118598Y-105540530D01*
X157117708Y-105532247D01*
X159571500Y-105532247D01*
X159571500Y-105532252D01*
X159571500Y-105771748D01*
X159572277Y-105775652D01*
X159582651Y-105827810D01*
X159582651Y-105876190D01*
X159571501Y-105932249D01*
X159571500Y-105932252D01*
X159571500Y-106171748D01*
X159575011Y-106189399D01*
X159582651Y-106227810D01*
X159582651Y-106276190D01*
X159580014Y-106289448D01*
X159571500Y-106332252D01*
X159571500Y-106571748D01*
X159573191Y-106580247D01*
X159582651Y-106627810D01*
X159582651Y-106676190D01*
X159578405Y-106697536D01*
X159571500Y-106732252D01*
X159571500Y-106971748D01*
X159575011Y-106989399D01*
X159582651Y-107027810D01*
X159582651Y-107076190D01*
X159579759Y-107090732D01*
X159571500Y-107132252D01*
X159571500Y-107371748D01*
X159571767Y-107373088D01*
X159582651Y-107427810D01*
X159582651Y-107476190D01*
X159575482Y-107512231D01*
X159571500Y-107532252D01*
X159571500Y-107771748D01*
X159574786Y-107788269D01*
X159582651Y-107827810D01*
X159582651Y-107876190D01*
X159571500Y-107932252D01*
X159571500Y-108171752D01*
X159583131Y-108230229D01*
X159583132Y-108230230D01*
X159627447Y-108296552D01*
X159693769Y-108340867D01*
X159693770Y-108340868D01*
X159752247Y-108352499D01*
X159752250Y-108352500D01*
X160497500Y-108352500D01*
X160564539Y-108372185D01*
X160610294Y-108424989D01*
X160621500Y-108476500D01*
X160621500Y-109221752D01*
X160633131Y-109280229D01*
X160633132Y-109280230D01*
X160677447Y-109346552D01*
X160743769Y-109390867D01*
X160743770Y-109390868D01*
X160802247Y-109402499D01*
X160802250Y-109402500D01*
X160802252Y-109402500D01*
X161041750Y-109402500D01*
X161097808Y-109391349D01*
X161146192Y-109391349D01*
X161202249Y-109402500D01*
X161202252Y-109402500D01*
X161441750Y-109402500D01*
X161497808Y-109391349D01*
X161546192Y-109391349D01*
X161602249Y-109402500D01*
X161602252Y-109402500D01*
X161841750Y-109402500D01*
X161897808Y-109391349D01*
X161946192Y-109391349D01*
X162002249Y-109402500D01*
X162002252Y-109402500D01*
X162241750Y-109402500D01*
X162297808Y-109391349D01*
X162346192Y-109391349D01*
X162402249Y-109402500D01*
X162402252Y-109402500D01*
X162641750Y-109402500D01*
X162697808Y-109391349D01*
X162746192Y-109391349D01*
X162802249Y-109402500D01*
X162802252Y-109402500D01*
X163041750Y-109402500D01*
X163097808Y-109391349D01*
X163146192Y-109391349D01*
X163202249Y-109402500D01*
X163202252Y-109402500D01*
X163441750Y-109402500D01*
X163441751Y-109402499D01*
X163456568Y-109399552D01*
X163500229Y-109390868D01*
X163500229Y-109390867D01*
X163500231Y-109390867D01*
X163566552Y-109346552D01*
X163610867Y-109280231D01*
X163610867Y-109280229D01*
X163610868Y-109280229D01*
X163622499Y-109221752D01*
X163622500Y-109221750D01*
X163622500Y-108476500D01*
X163642185Y-108409461D01*
X163694989Y-108363706D01*
X163746500Y-108352500D01*
X164491750Y-108352500D01*
X164491751Y-108352499D01*
X164506568Y-108349552D01*
X164526800Y-108345528D01*
X167249500Y-108345528D01*
X167249500Y-108654471D01*
X167284086Y-108961437D01*
X167284089Y-108961455D01*
X167352831Y-109262635D01*
X167352835Y-109262647D01*
X167454862Y-109554222D01*
X167454868Y-109554236D01*
X167588903Y-109832562D01*
X167588905Y-109832565D01*
X167753265Y-110094143D01*
X167945880Y-110335674D01*
X168164326Y-110554120D01*
X168405857Y-110746735D01*
X168667435Y-110911095D01*
X168945771Y-111045135D01*
X168945777Y-111045137D01*
X169237352Y-111147164D01*
X169237364Y-111147168D01*
X169538548Y-111215911D01*
X169538554Y-111215911D01*
X169538562Y-111215913D01*
X169743206Y-111238970D01*
X169845529Y-111250499D01*
X169845532Y-111250500D01*
X169845535Y-111250500D01*
X170154468Y-111250500D01*
X170154469Y-111250499D01*
X170311356Y-111232822D01*
X170461437Y-111215913D01*
X170461442Y-111215912D01*
X170461452Y-111215911D01*
X170762636Y-111147168D01*
X171054229Y-111045135D01*
X171332565Y-110911095D01*
X171594143Y-110746735D01*
X171835674Y-110554120D01*
X172054120Y-110335674D01*
X172246735Y-110094143D01*
X172411095Y-109832565D01*
X172545135Y-109554229D01*
X172647168Y-109262636D01*
X172715911Y-108961452D01*
X172750500Y-108654465D01*
X172750500Y-108345535D01*
X172737508Y-108230228D01*
X172715913Y-108038562D01*
X172715910Y-108038544D01*
X172647168Y-107737364D01*
X172647164Y-107737352D01*
X172564408Y-107500851D01*
X172545135Y-107445771D01*
X172411095Y-107167435D01*
X172246735Y-106905857D01*
X172054120Y-106664326D01*
X171835674Y-106445880D01*
X171792101Y-106411132D01*
X171722680Y-106355770D01*
X171594143Y-106253265D01*
X171332565Y-106088905D01*
X171332562Y-106088903D01*
X171054236Y-105954868D01*
X171054222Y-105954862D01*
X170762647Y-105852835D01*
X170762635Y-105852831D01*
X170461455Y-105784089D01*
X170461437Y-105784086D01*
X170154471Y-105749500D01*
X170154465Y-105749500D01*
X169845535Y-105749500D01*
X169845528Y-105749500D01*
X169538562Y-105784086D01*
X169538544Y-105784089D01*
X169237364Y-105852831D01*
X169237352Y-105852835D01*
X168945777Y-105954862D01*
X168945763Y-105954868D01*
X168667437Y-106088903D01*
X168405858Y-106253264D01*
X168164326Y-106445879D01*
X167945879Y-106664326D01*
X167753264Y-106905858D01*
X167588903Y-107167437D01*
X167454868Y-107445763D01*
X167454862Y-107445777D01*
X167352835Y-107737352D01*
X167352831Y-107737364D01*
X167284089Y-108038544D01*
X167284086Y-108038562D01*
X167249500Y-108345528D01*
X164526800Y-108345528D01*
X164550229Y-108340868D01*
X164550229Y-108340867D01*
X164550231Y-108340867D01*
X164616552Y-108296552D01*
X164660867Y-108230231D01*
X164661287Y-108228123D01*
X164671146Y-108178554D01*
X164672500Y-108171748D01*
X164672500Y-107932252D01*
X164672500Y-107932249D01*
X164661349Y-107876192D01*
X164661349Y-107827808D01*
X164672500Y-107771750D01*
X164672500Y-107532249D01*
X164661349Y-107476192D01*
X164661349Y-107427808D01*
X164672500Y-107371750D01*
X164672500Y-107132249D01*
X164661349Y-107076192D01*
X164661349Y-107027808D01*
X164672500Y-106971750D01*
X164672500Y-106732249D01*
X164661349Y-106676192D01*
X164661349Y-106627808D01*
X164672500Y-106571750D01*
X164672500Y-106332249D01*
X164661349Y-106276192D01*
X164661349Y-106227808D01*
X164672500Y-106171750D01*
X164672500Y-105932249D01*
X164661349Y-105876192D01*
X164661349Y-105827808D01*
X164672500Y-105771750D01*
X164672500Y-105532249D01*
X164672499Y-105532247D01*
X164660868Y-105473770D01*
X164660867Y-105473769D01*
X164616552Y-105407447D01*
X164550230Y-105363132D01*
X164550229Y-105363131D01*
X164491752Y-105351500D01*
X164491748Y-105351500D01*
X163746500Y-105351500D01*
X163679461Y-105331815D01*
X163633706Y-105279011D01*
X163622500Y-105227500D01*
X163622500Y-104482249D01*
X163622499Y-104482247D01*
X163610868Y-104423770D01*
X163610867Y-104423769D01*
X163566552Y-104357447D01*
X163500230Y-104313132D01*
X163500229Y-104313131D01*
X163441752Y-104301500D01*
X163441748Y-104301500D01*
X163202252Y-104301500D01*
X163146190Y-104312651D01*
X163097810Y-104312651D01*
X163041748Y-104301500D01*
X162802252Y-104301500D01*
X162746190Y-104312651D01*
X162697810Y-104312651D01*
X162641748Y-104301500D01*
X162402252Y-104301500D01*
X162346190Y-104312651D01*
X162297810Y-104312651D01*
X162241748Y-104301500D01*
X162002252Y-104301500D01*
X161946190Y-104312651D01*
X161897810Y-104312651D01*
X161841748Y-104301500D01*
X161602252Y-104301500D01*
X161546190Y-104312651D01*
X161497810Y-104312651D01*
X161441748Y-104301500D01*
X161202252Y-104301500D01*
X161146190Y-104312651D01*
X161097810Y-104312651D01*
X161041748Y-104301500D01*
X160802252Y-104301500D01*
X160802247Y-104301500D01*
X160743770Y-104313131D01*
X160743769Y-104313132D01*
X160677447Y-104357447D01*
X160633132Y-104423769D01*
X160633131Y-104423770D01*
X160621500Y-104482247D01*
X160621500Y-105227500D01*
X160601815Y-105294539D01*
X160549011Y-105340294D01*
X160497500Y-105351500D01*
X159752247Y-105351500D01*
X159693770Y-105363131D01*
X159693769Y-105363132D01*
X159627447Y-105407447D01*
X159583132Y-105473769D01*
X159583131Y-105473770D01*
X159571500Y-105532247D01*
X157117708Y-105532247D01*
X157117680Y-105531991D01*
X157120331Y-105520467D01*
X157123454Y-105509344D01*
X157124867Y-105507231D01*
X157132427Y-105469222D01*
X157136500Y-105448750D01*
X157136500Y-104859249D01*
X157136499Y-104859247D01*
X157122485Y-104788790D01*
X157123762Y-104788535D01*
X157117680Y-104731991D01*
X157124694Y-104708100D01*
X157136499Y-104648752D01*
X157136500Y-104648750D01*
X157136500Y-104059249D01*
X157136499Y-104059247D01*
X157122485Y-103988790D01*
X157123762Y-103988535D01*
X157117680Y-103931991D01*
X157124694Y-103908100D01*
X157136499Y-103848752D01*
X157136500Y-103848750D01*
X157136500Y-103259249D01*
X157136499Y-103259247D01*
X157122485Y-103188790D01*
X157123762Y-103188535D01*
X157117680Y-103131991D01*
X157124694Y-103108100D01*
X157136499Y-103048752D01*
X157136500Y-103048750D01*
X157136500Y-102459249D01*
X157136499Y-102459247D01*
X157122485Y-102388790D01*
X157123762Y-102388535D01*
X157117680Y-102331991D01*
X157124694Y-102308100D01*
X157136499Y-102248752D01*
X157136500Y-102248750D01*
X157136500Y-101659249D01*
X157136499Y-101659247D01*
X157122485Y-101588790D01*
X157123762Y-101588535D01*
X157117680Y-101531991D01*
X157118961Y-101525795D01*
X157122453Y-101510843D01*
X157124867Y-101507231D01*
X157127450Y-101494247D01*
X159097500Y-101494247D01*
X159097500Y-103033752D01*
X159109131Y-103092229D01*
X159109132Y-103092230D01*
X159153447Y-103158552D01*
X159219769Y-103202867D01*
X159219770Y-103202868D01*
X159278247Y-103214499D01*
X159278250Y-103214500D01*
X159278252Y-103214500D01*
X159767749Y-103214500D01*
X159798481Y-103208386D01*
X159823808Y-103203349D01*
X159872191Y-103203349D01*
X159928248Y-103214500D01*
X159928251Y-103214500D01*
X160417748Y-103214500D01*
X160432406Y-103211583D01*
X160473807Y-103203349D01*
X160522188Y-103203349D01*
X160578247Y-103214499D01*
X160578250Y-103214500D01*
X160578252Y-103214500D01*
X161067750Y-103214500D01*
X161123808Y-103203349D01*
X161172192Y-103203349D01*
X161228249Y-103214500D01*
X161228252Y-103214500D01*
X161717750Y-103214500D01*
X161773808Y-103203349D01*
X161822192Y-103203349D01*
X161878249Y-103214500D01*
X161878252Y-103214500D01*
X162367750Y-103214500D01*
X162423808Y-103203349D01*
X162472192Y-103203349D01*
X162528249Y-103214500D01*
X162528252Y-103214500D01*
X163017749Y-103214500D01*
X163032407Y-103211583D01*
X163073808Y-103203349D01*
X163122189Y-103203349D01*
X163178248Y-103214499D01*
X163178251Y-103214500D01*
X163178253Y-103214500D01*
X163667750Y-103214500D01*
X163698482Y-103208386D01*
X163723809Y-103203349D01*
X163772192Y-103203349D01*
X163828249Y-103214500D01*
X163828252Y-103214500D01*
X164317750Y-103214500D01*
X164317751Y-103214499D01*
X164332568Y-103211552D01*
X164376229Y-103202868D01*
X164376229Y-103202867D01*
X164376231Y-103202867D01*
X164442552Y-103158552D01*
X164486867Y-103092231D01*
X164486867Y-103092229D01*
X164486868Y-103092229D01*
X164498499Y-103033752D01*
X164498500Y-103033750D01*
X164498500Y-101494249D01*
X164498499Y-101494247D01*
X164486868Y-101435770D01*
X164486867Y-101435769D01*
X164442552Y-101369447D01*
X164376230Y-101325132D01*
X164376229Y-101325131D01*
X164317752Y-101313500D01*
X164317748Y-101313500D01*
X163828252Y-101313500D01*
X163772190Y-101324651D01*
X163723809Y-101324650D01*
X163667753Y-101313500D01*
X163667749Y-101313500D01*
X163178253Y-101313500D01*
X163122190Y-101324651D01*
X163073810Y-101324651D01*
X163017748Y-101313500D01*
X162528252Y-101313500D01*
X162472190Y-101324651D01*
X162423810Y-101324651D01*
X162367748Y-101313500D01*
X161878252Y-101313500D01*
X161822190Y-101324651D01*
X161773810Y-101324651D01*
X161717748Y-101313500D01*
X161228252Y-101313500D01*
X161172190Y-101324651D01*
X161123810Y-101324651D01*
X161067748Y-101313500D01*
X160578252Y-101313500D01*
X160522189Y-101324651D01*
X160473809Y-101324651D01*
X160417747Y-101313500D01*
X159928251Y-101313500D01*
X159872189Y-101324651D01*
X159823808Y-101324650D01*
X159767752Y-101313500D01*
X159767748Y-101313500D01*
X159278252Y-101313500D01*
X159278247Y-101313500D01*
X159219770Y-101325131D01*
X159219769Y-101325132D01*
X159153447Y-101369447D01*
X159109132Y-101435769D01*
X159109131Y-101435770D01*
X159097500Y-101494247D01*
X157127450Y-101494247D01*
X157136500Y-101448748D01*
X157136500Y-100859252D01*
X157136500Y-100859250D01*
X157136500Y-100859249D01*
X157136499Y-100859247D01*
X157124868Y-100800770D01*
X157124867Y-100800769D01*
X157080552Y-100734447D01*
X157014230Y-100690132D01*
X157014229Y-100690131D01*
X156955752Y-100678500D01*
X156955748Y-100678500D01*
X155316252Y-100678500D01*
X155316251Y-100678500D01*
X155305082Y-100680721D01*
X155235490Y-100674489D01*
X155180315Y-100631623D01*
X155157074Y-100565732D01*
X155159280Y-100534909D01*
X155161500Y-100523749D01*
X155161500Y-98884249D01*
X155161499Y-98884247D01*
X155149868Y-98825770D01*
X155149867Y-98825769D01*
X155105552Y-98759447D01*
X155039230Y-98715132D01*
X155039229Y-98715131D01*
X154980752Y-98703500D01*
X154980748Y-98703500D01*
X154391252Y-98703500D01*
X154391249Y-98703500D01*
X154320791Y-98717515D01*
X154320537Y-98716239D01*
X154263977Y-98722317D01*
X154240089Y-98715303D01*
X154180751Y-98703500D01*
X154180748Y-98703500D01*
X153591252Y-98703500D01*
X153591249Y-98703500D01*
X153520791Y-98717515D01*
X153520537Y-98716239D01*
X153463977Y-98722317D01*
X153440089Y-98715303D01*
X153380751Y-98703500D01*
X153380748Y-98703500D01*
X152791252Y-98703500D01*
X152791249Y-98703500D01*
X152720791Y-98717515D01*
X152720537Y-98716239D01*
X152663977Y-98722317D01*
X152640089Y-98715303D01*
X152580751Y-98703500D01*
X152580748Y-98703500D01*
X151991252Y-98703500D01*
X151991249Y-98703500D01*
X151920791Y-98717515D01*
X151920537Y-98716239D01*
X151863977Y-98722317D01*
X151840089Y-98715303D01*
X151780751Y-98703500D01*
X151780748Y-98703500D01*
X151191252Y-98703500D01*
X151191249Y-98703500D01*
X151120791Y-98717515D01*
X151120537Y-98716239D01*
X151063977Y-98722317D01*
X151040089Y-98715303D01*
X150980751Y-98703500D01*
X150980748Y-98703500D01*
X150391252Y-98703500D01*
X150391249Y-98703500D01*
X150320791Y-98717515D01*
X150320537Y-98716239D01*
X150263977Y-98722317D01*
X150240089Y-98715303D01*
X150180751Y-98703500D01*
X150180748Y-98703500D01*
X149591252Y-98703500D01*
X149591249Y-98703500D01*
X149520791Y-98717515D01*
X149520537Y-98716239D01*
X149463977Y-98722317D01*
X149440089Y-98715303D01*
X149380751Y-98703500D01*
X149380748Y-98703500D01*
X148791252Y-98703500D01*
X148791247Y-98703500D01*
X148732770Y-98715131D01*
X148732769Y-98715132D01*
X148666447Y-98759447D01*
X148622132Y-98825769D01*
X148622131Y-98825770D01*
X148610500Y-98884247D01*
X148610500Y-100523755D01*
X148612720Y-100534916D01*
X148606490Y-100604507D01*
X148563624Y-100659683D01*
X148497734Y-100682925D01*
X148466916Y-100680720D01*
X148455755Y-100678500D01*
X148455748Y-100678500D01*
X146816252Y-100678500D01*
X146816247Y-100678500D01*
X146757770Y-100690131D01*
X146757769Y-100690132D01*
X146691447Y-100734447D01*
X146647132Y-100800769D01*
X146647131Y-100800770D01*
X146635500Y-100859247D01*
X136600500Y-100859247D01*
X136600500Y-100428249D01*
X136600499Y-100428247D01*
X136588868Y-100369770D01*
X136588867Y-100369769D01*
X136544552Y-100303447D01*
X136478230Y-100259132D01*
X136478229Y-100259131D01*
X136419752Y-100247500D01*
X136419748Y-100247500D01*
X134880252Y-100247500D01*
X134880247Y-100247500D01*
X134821770Y-100259131D01*
X134821769Y-100259132D01*
X134755447Y-100303447D01*
X134711132Y-100369769D01*
X134711131Y-100369770D01*
X134699500Y-100428247D01*
X134300499Y-100428247D01*
X134300499Y-100428246D01*
X134288868Y-100369769D01*
X134288867Y-100369768D01*
X134244552Y-100303446D01*
X134178230Y-100259131D01*
X134178229Y-100259130D01*
X134119752Y-100247499D01*
X134119748Y-100247499D01*
X132580252Y-100247499D01*
X132580247Y-100247499D01*
X132521770Y-100259130D01*
X132521769Y-100259131D01*
X132455447Y-100303446D01*
X132411132Y-100369768D01*
X132411131Y-100369769D01*
X132399500Y-100428246D01*
X132000499Y-100428246D01*
X131988868Y-100369770D01*
X131988867Y-100369769D01*
X131944552Y-100303447D01*
X131878230Y-100259132D01*
X131878229Y-100259131D01*
X131819752Y-100247500D01*
X131819748Y-100247500D01*
X130280252Y-100247500D01*
X130280247Y-100247500D01*
X130221770Y-100259131D01*
X130221769Y-100259132D01*
X130155447Y-100303447D01*
X130111132Y-100369769D01*
X130111131Y-100369770D01*
X130099500Y-100428247D01*
X127653132Y-100428247D01*
X127632552Y-100397447D01*
X127566230Y-100353132D01*
X127566229Y-100353131D01*
X127507752Y-100341500D01*
X127507748Y-100341500D01*
X124968252Y-100341500D01*
X124968247Y-100341500D01*
X124909770Y-100353131D01*
X124909769Y-100353132D01*
X124843447Y-100397447D01*
X124799132Y-100463769D01*
X124799131Y-100463770D01*
X124787500Y-100522247D01*
X123688499Y-100522247D01*
X123676868Y-100463770D01*
X123676867Y-100463769D01*
X123632552Y-100397447D01*
X123566230Y-100353132D01*
X123566229Y-100353131D01*
X123507752Y-100341500D01*
X123507748Y-100341500D01*
X120968252Y-100341500D01*
X120968247Y-100341500D01*
X120909770Y-100353131D01*
X120909769Y-100353132D01*
X120843447Y-100397447D01*
X120799132Y-100463769D01*
X120799131Y-100463770D01*
X120787500Y-100522247D01*
X90498019Y-100522247D01*
X90498019Y-94128248D01*
X131249500Y-94128248D01*
X131249500Y-96167753D01*
X131261131Y-96226230D01*
X131261132Y-96226231D01*
X131305447Y-96292553D01*
X131371769Y-96336868D01*
X131371770Y-96336869D01*
X131430247Y-96348500D01*
X131430250Y-96348501D01*
X131430252Y-96348501D01*
X135269750Y-96348501D01*
X135269751Y-96348500D01*
X135284568Y-96345553D01*
X135328229Y-96336869D01*
X135328229Y-96336868D01*
X135328231Y-96336868D01*
X135394552Y-96292553D01*
X135434180Y-96233247D01*
X139453500Y-96233247D01*
X139453500Y-97822752D01*
X139465131Y-97881229D01*
X139465132Y-97881230D01*
X139509447Y-97947552D01*
X139575769Y-97991867D01*
X139575770Y-97991868D01*
X139634247Y-98003499D01*
X139634250Y-98003500D01*
X139634252Y-98003500D01*
X140273750Y-98003500D01*
X140273751Y-98003499D01*
X140288568Y-98000552D01*
X140332229Y-97991868D01*
X140332229Y-97991867D01*
X140332231Y-97991867D01*
X140398552Y-97947552D01*
X140442867Y-97881231D01*
X140442867Y-97881229D01*
X140442868Y-97881229D01*
X140454499Y-97822752D01*
X140454500Y-97822750D01*
X140454500Y-96233249D01*
X140454499Y-96233247D01*
X140723500Y-96233247D01*
X140723500Y-97822752D01*
X140735131Y-97881229D01*
X140735132Y-97881230D01*
X140779447Y-97947552D01*
X140845769Y-97991867D01*
X140845770Y-97991868D01*
X140904247Y-98003499D01*
X140904250Y-98003500D01*
X140904252Y-98003500D01*
X141543750Y-98003500D01*
X141543751Y-98003499D01*
X141558568Y-98000552D01*
X141602229Y-97991868D01*
X141602229Y-97991867D01*
X141602231Y-97991867D01*
X141668552Y-97947552D01*
X141712867Y-97881231D01*
X141712867Y-97881229D01*
X141712868Y-97881229D01*
X141724499Y-97822752D01*
X141724500Y-97822750D01*
X141724500Y-96233249D01*
X141724499Y-96233247D01*
X141993500Y-96233247D01*
X141993500Y-97822752D01*
X142005131Y-97881229D01*
X142005132Y-97881230D01*
X142049447Y-97947552D01*
X142115769Y-97991867D01*
X142115770Y-97991868D01*
X142174247Y-98003499D01*
X142174250Y-98003500D01*
X142174252Y-98003500D01*
X142813750Y-98003500D01*
X142813751Y-98003499D01*
X142828568Y-98000552D01*
X142872229Y-97991868D01*
X142872229Y-97991867D01*
X142872231Y-97991867D01*
X142938552Y-97947552D01*
X142982867Y-97881231D01*
X142982867Y-97881229D01*
X142982868Y-97881229D01*
X142994499Y-97822752D01*
X142994500Y-97822750D01*
X142994500Y-96233249D01*
X142994499Y-96233247D01*
X143263500Y-96233247D01*
X143263500Y-97822752D01*
X143275131Y-97881229D01*
X143275132Y-97881230D01*
X143319447Y-97947552D01*
X143385769Y-97991867D01*
X143385770Y-97991868D01*
X143444247Y-98003499D01*
X143444250Y-98003500D01*
X143444252Y-98003500D01*
X144083750Y-98003500D01*
X144083751Y-98003499D01*
X144098568Y-98000552D01*
X144142229Y-97991868D01*
X144142229Y-97991867D01*
X144142231Y-97991867D01*
X144208552Y-97947552D01*
X144252867Y-97881231D01*
X144252867Y-97881229D01*
X144252868Y-97881229D01*
X144264499Y-97822752D01*
X144264500Y-97822750D01*
X144264500Y-96233249D01*
X144264499Y-96233247D01*
X144252868Y-96174770D01*
X144252867Y-96174769D01*
X144208552Y-96108447D01*
X144142230Y-96064132D01*
X144142229Y-96064131D01*
X144083752Y-96052500D01*
X144083748Y-96052500D01*
X143444252Y-96052500D01*
X143444247Y-96052500D01*
X143385770Y-96064131D01*
X143385769Y-96064132D01*
X143319447Y-96108447D01*
X143275132Y-96174769D01*
X143275131Y-96174770D01*
X143263500Y-96233247D01*
X142994499Y-96233247D01*
X142982868Y-96174770D01*
X142982867Y-96174769D01*
X142938552Y-96108447D01*
X142872230Y-96064132D01*
X142872229Y-96064131D01*
X142813752Y-96052500D01*
X142813748Y-96052500D01*
X142174252Y-96052500D01*
X142174247Y-96052500D01*
X142115770Y-96064131D01*
X142115769Y-96064132D01*
X142049447Y-96108447D01*
X142005132Y-96174769D01*
X142005131Y-96174770D01*
X141993500Y-96233247D01*
X141724499Y-96233247D01*
X141712868Y-96174770D01*
X141712867Y-96174769D01*
X141668552Y-96108447D01*
X141602230Y-96064132D01*
X141602229Y-96064131D01*
X141543752Y-96052500D01*
X141543748Y-96052500D01*
X140904252Y-96052500D01*
X140904247Y-96052500D01*
X140845770Y-96064131D01*
X140845769Y-96064132D01*
X140779447Y-96108447D01*
X140735132Y-96174769D01*
X140735131Y-96174770D01*
X140723500Y-96233247D01*
X140454499Y-96233247D01*
X140442868Y-96174770D01*
X140442867Y-96174769D01*
X140398552Y-96108447D01*
X140332230Y-96064132D01*
X140332229Y-96064131D01*
X140273752Y-96052500D01*
X140273748Y-96052500D01*
X139634252Y-96052500D01*
X139634247Y-96052500D01*
X139575770Y-96064131D01*
X139575769Y-96064132D01*
X139509447Y-96108447D01*
X139465132Y-96174769D01*
X139465131Y-96174770D01*
X139453500Y-96233247D01*
X135434180Y-96233247D01*
X135438867Y-96226232D01*
X135438867Y-96226230D01*
X135438868Y-96226230D01*
X135443495Y-96202969D01*
X135450499Y-96167753D01*
X135450500Y-96167751D01*
X135450500Y-95594247D01*
X159097500Y-95594247D01*
X159097500Y-97133752D01*
X159109131Y-97192229D01*
X159109132Y-97192230D01*
X159153447Y-97258552D01*
X159219769Y-97302867D01*
X159219770Y-97302868D01*
X159278247Y-97314499D01*
X159278250Y-97314500D01*
X159278252Y-97314500D01*
X159767749Y-97314500D01*
X159798481Y-97308386D01*
X159823808Y-97303349D01*
X159872191Y-97303349D01*
X159928248Y-97314500D01*
X159928251Y-97314500D01*
X160417748Y-97314500D01*
X160432406Y-97311583D01*
X160473807Y-97303349D01*
X160522188Y-97303349D01*
X160578247Y-97314499D01*
X160578250Y-97314500D01*
X160578252Y-97314500D01*
X161067750Y-97314500D01*
X161123808Y-97303349D01*
X161172192Y-97303349D01*
X161228249Y-97314500D01*
X161228252Y-97314500D01*
X161717750Y-97314500D01*
X161773808Y-97303349D01*
X161822192Y-97303349D01*
X161878249Y-97314500D01*
X161878252Y-97314500D01*
X162367750Y-97314500D01*
X162423808Y-97303349D01*
X162472192Y-97303349D01*
X162528249Y-97314500D01*
X162528252Y-97314500D01*
X163017749Y-97314500D01*
X163032407Y-97311583D01*
X163073808Y-97303349D01*
X163122189Y-97303349D01*
X163178248Y-97314499D01*
X163178251Y-97314500D01*
X163178253Y-97314500D01*
X163667750Y-97314500D01*
X163698482Y-97308386D01*
X163723809Y-97303349D01*
X163772192Y-97303349D01*
X163828249Y-97314500D01*
X163828252Y-97314500D01*
X164317750Y-97314500D01*
X164317751Y-97314499D01*
X164332568Y-97311552D01*
X164376229Y-97302868D01*
X164376229Y-97302867D01*
X164376231Y-97302867D01*
X164442552Y-97258552D01*
X164486867Y-97192231D01*
X164486867Y-97192229D01*
X164486868Y-97192229D01*
X164498499Y-97133752D01*
X164498500Y-97133750D01*
X164498500Y-95594249D01*
X164498499Y-95594247D01*
X164486868Y-95535770D01*
X164486867Y-95535769D01*
X164442552Y-95469447D01*
X164376230Y-95425132D01*
X164376229Y-95425131D01*
X164317752Y-95413500D01*
X164317748Y-95413500D01*
X163828252Y-95413500D01*
X163772190Y-95424651D01*
X163723809Y-95424650D01*
X163667753Y-95413500D01*
X163667749Y-95413500D01*
X163178253Y-95413500D01*
X163122190Y-95424651D01*
X163073810Y-95424651D01*
X163017748Y-95413500D01*
X162528252Y-95413500D01*
X162472190Y-95424651D01*
X162423810Y-95424651D01*
X162367748Y-95413500D01*
X161878252Y-95413500D01*
X161822190Y-95424651D01*
X161773810Y-95424651D01*
X161717748Y-95413500D01*
X161228252Y-95413500D01*
X161172190Y-95424651D01*
X161123810Y-95424651D01*
X161067748Y-95413500D01*
X160578252Y-95413500D01*
X160522189Y-95424651D01*
X160473809Y-95424651D01*
X160417747Y-95413500D01*
X159928251Y-95413500D01*
X159872189Y-95424651D01*
X159823808Y-95424650D01*
X159767752Y-95413500D01*
X159767748Y-95413500D01*
X159278252Y-95413500D01*
X159278247Y-95413500D01*
X159219770Y-95425131D01*
X159219769Y-95425132D01*
X159153447Y-95469447D01*
X159109132Y-95535769D01*
X159109131Y-95535770D01*
X159097500Y-95594247D01*
X135450500Y-95594247D01*
X135450500Y-94128250D01*
X135450499Y-94128248D01*
X135438868Y-94069771D01*
X135438867Y-94069770D01*
X135394552Y-94003448D01*
X135328230Y-93959133D01*
X135328229Y-93959132D01*
X135269752Y-93947501D01*
X135269748Y-93947501D01*
X131430252Y-93947501D01*
X131430247Y-93947501D01*
X131371770Y-93959132D01*
X131371769Y-93959133D01*
X131305447Y-94003448D01*
X131261132Y-94069770D01*
X131261131Y-94069771D01*
X131249500Y-94128248D01*
X90498019Y-94128248D01*
X90498019Y-92084247D01*
X145375500Y-92084247D01*
X145375500Y-93323752D01*
X145387131Y-93382229D01*
X145387132Y-93382230D01*
X145431447Y-93448552D01*
X145497769Y-93492867D01*
X145497770Y-93492868D01*
X145556247Y-93504499D01*
X145556250Y-93504500D01*
X145556252Y-93504500D01*
X147795750Y-93504500D01*
X147795751Y-93504499D01*
X147810568Y-93501552D01*
X147854229Y-93492868D01*
X147854229Y-93492867D01*
X147854231Y-93492867D01*
X147920552Y-93448552D01*
X147964867Y-93382231D01*
X147964867Y-93382229D01*
X147964868Y-93382229D01*
X147976499Y-93323752D01*
X147976500Y-93323750D01*
X147976500Y-92084249D01*
X147976499Y-92084247D01*
X147964868Y-92025770D01*
X147964867Y-92025769D01*
X147920552Y-91959447D01*
X147854230Y-91915132D01*
X147854229Y-91915131D01*
X147795752Y-91903500D01*
X147795748Y-91903500D01*
X145556252Y-91903500D01*
X145556247Y-91903500D01*
X145497770Y-91915131D01*
X145497769Y-91915132D01*
X145431447Y-91959447D01*
X145387132Y-92025769D01*
X145387131Y-92025770D01*
X145375500Y-92084247D01*
X90498019Y-92084247D01*
X90498019Y-88388247D01*
X128935500Y-88388247D01*
X128935500Y-90427752D01*
X128947131Y-90486229D01*
X128947132Y-90486230D01*
X128991447Y-90552552D01*
X129057769Y-90596867D01*
X129057770Y-90596868D01*
X129116247Y-90608499D01*
X129116250Y-90608500D01*
X129116252Y-90608500D01*
X133655750Y-90608500D01*
X133655751Y-90608499D01*
X133670568Y-90605552D01*
X133714229Y-90596868D01*
X133714229Y-90596867D01*
X133714231Y-90596867D01*
X133780552Y-90552552D01*
X133824867Y-90486231D01*
X133824867Y-90486229D01*
X133824868Y-90486229D01*
X133836499Y-90427752D01*
X133836500Y-90427750D01*
X133836500Y-88388249D01*
X133836499Y-88388247D01*
X137435500Y-88388247D01*
X137435500Y-90427752D01*
X137447131Y-90486229D01*
X137447132Y-90486230D01*
X137491447Y-90552552D01*
X137557769Y-90596867D01*
X137557770Y-90596868D01*
X137616247Y-90608499D01*
X137616250Y-90608500D01*
X137616252Y-90608500D01*
X142155750Y-90608500D01*
X142155751Y-90608499D01*
X142170568Y-90605552D01*
X142214229Y-90596868D01*
X142214229Y-90596867D01*
X142214231Y-90596867D01*
X142280552Y-90552552D01*
X142324867Y-90486231D01*
X142324867Y-90486229D01*
X142324868Y-90486229D01*
X142336499Y-90427752D01*
X142336500Y-90427750D01*
X142336500Y-89804247D01*
X145375500Y-89804247D01*
X145375500Y-91043752D01*
X145387131Y-91102229D01*
X145387132Y-91102230D01*
X145431447Y-91168552D01*
X145497769Y-91212867D01*
X145497770Y-91212868D01*
X145556247Y-91224499D01*
X145556250Y-91224500D01*
X145556252Y-91224500D01*
X147795750Y-91224500D01*
X147795751Y-91224499D01*
X147810568Y-91221552D01*
X147854229Y-91212868D01*
X147854229Y-91212867D01*
X147854231Y-91212867D01*
X147920552Y-91168552D01*
X147964867Y-91102231D01*
X147964867Y-91102229D01*
X147964868Y-91102229D01*
X147976499Y-91043752D01*
X147976500Y-91043750D01*
X147976500Y-89804249D01*
X147976499Y-89804247D01*
X147964868Y-89745770D01*
X147964867Y-89745769D01*
X147920552Y-89679447D01*
X147854230Y-89635132D01*
X147854229Y-89635131D01*
X147795752Y-89623500D01*
X147795748Y-89623500D01*
X145556252Y-89623500D01*
X145556247Y-89623500D01*
X145497770Y-89635131D01*
X145497769Y-89635132D01*
X145431447Y-89679447D01*
X145387132Y-89745769D01*
X145387131Y-89745770D01*
X145375500Y-89804247D01*
X142336500Y-89804247D01*
X142336500Y-88388249D01*
X142336499Y-88388247D01*
X142324868Y-88329770D01*
X142324867Y-88329769D01*
X142280552Y-88263447D01*
X142214230Y-88219132D01*
X142214229Y-88219131D01*
X142155752Y-88207500D01*
X142155748Y-88207500D01*
X137616252Y-88207500D01*
X137616247Y-88207500D01*
X137557770Y-88219131D01*
X137557769Y-88219132D01*
X137491447Y-88263447D01*
X137447132Y-88329769D01*
X137447131Y-88329770D01*
X137435500Y-88388247D01*
X133836499Y-88388247D01*
X133824868Y-88329770D01*
X133824867Y-88329769D01*
X133780552Y-88263447D01*
X133714230Y-88219132D01*
X133714229Y-88219131D01*
X133655752Y-88207500D01*
X133655748Y-88207500D01*
X129116252Y-88207500D01*
X129116247Y-88207500D01*
X129057770Y-88219131D01*
X129057769Y-88219132D01*
X128991447Y-88263447D01*
X128947132Y-88329769D01*
X128947131Y-88329770D01*
X128935500Y-88388247D01*
X90498019Y-88388247D01*
X90498019Y-87524247D01*
X145375500Y-87524247D01*
X145375500Y-88763752D01*
X145387131Y-88822229D01*
X145387132Y-88822230D01*
X145431447Y-88888552D01*
X145497769Y-88932867D01*
X145497770Y-88932868D01*
X145556247Y-88944499D01*
X145556250Y-88944500D01*
X145556252Y-88944500D01*
X147795750Y-88944500D01*
X147795751Y-88944499D01*
X147810568Y-88941552D01*
X147854229Y-88932868D01*
X147854229Y-88932867D01*
X147854231Y-88932867D01*
X147920552Y-88888552D01*
X147964867Y-88822231D01*
X147964867Y-88822229D01*
X147964868Y-88822229D01*
X147976499Y-88763752D01*
X147976500Y-88763750D01*
X147976500Y-87524250D01*
X147976121Y-87522345D01*
X147976121Y-87522342D01*
X147972521Y-87504247D01*
X149575500Y-87504247D01*
X149575500Y-93343752D01*
X149587131Y-93402229D01*
X149587132Y-93402230D01*
X149631447Y-93468552D01*
X149697769Y-93512867D01*
X149697770Y-93512868D01*
X149756247Y-93524499D01*
X149756250Y-93524500D01*
X149756252Y-93524500D01*
X156195750Y-93524500D01*
X156195751Y-93524499D01*
X156210568Y-93521552D01*
X156254229Y-93512868D01*
X156254229Y-93512867D01*
X156254231Y-93512867D01*
X156320552Y-93468552D01*
X156364867Y-93402231D01*
X156364867Y-93402229D01*
X156364868Y-93402229D01*
X156376499Y-93343752D01*
X156376500Y-93343750D01*
X156376500Y-92072247D01*
X159749500Y-92072247D01*
X159749500Y-92711752D01*
X159761131Y-92770229D01*
X159761132Y-92770230D01*
X159805447Y-92836552D01*
X159871769Y-92880867D01*
X159871770Y-92880868D01*
X159930247Y-92892499D01*
X159930250Y-92892500D01*
X159930252Y-92892500D01*
X160369750Y-92892500D01*
X160369751Y-92892499D01*
X160384568Y-92889552D01*
X160428229Y-92880868D01*
X160428229Y-92880867D01*
X160428231Y-92880867D01*
X160494552Y-92836552D01*
X160496897Y-92833043D01*
X160550508Y-92788237D01*
X160619833Y-92779528D01*
X160682861Y-92809682D01*
X160703103Y-92833043D01*
X160705447Y-92836552D01*
X160771769Y-92880867D01*
X160771770Y-92880868D01*
X160830247Y-92892499D01*
X160830250Y-92892500D01*
X160830252Y-92892500D01*
X161269750Y-92892500D01*
X161269751Y-92892499D01*
X161284568Y-92889552D01*
X161328229Y-92880868D01*
X161328229Y-92880867D01*
X161328231Y-92880867D01*
X161394552Y-92836552D01*
X161438867Y-92770231D01*
X161438867Y-92770229D01*
X161438868Y-92770229D01*
X161450499Y-92711752D01*
X161450500Y-92711750D01*
X161450500Y-92072249D01*
X161450499Y-92072247D01*
X161438868Y-92013770D01*
X161438867Y-92013769D01*
X161394552Y-91947447D01*
X161328230Y-91903132D01*
X161328229Y-91903131D01*
X161269752Y-91891500D01*
X161269748Y-91891500D01*
X160830252Y-91891500D01*
X160830247Y-91891500D01*
X160771770Y-91903131D01*
X160771769Y-91903132D01*
X160705446Y-91947448D01*
X160703101Y-91950959D01*
X160649488Y-91995764D01*
X160580163Y-92004470D01*
X160517136Y-91974314D01*
X160496899Y-91950959D01*
X160494553Y-91947448D01*
X160428230Y-91903132D01*
X160428229Y-91903131D01*
X160369752Y-91891500D01*
X160369748Y-91891500D01*
X159930252Y-91891500D01*
X159930247Y-91891500D01*
X159871770Y-91903131D01*
X159871769Y-91903132D01*
X159805447Y-91947447D01*
X159761132Y-92013769D01*
X159761131Y-92013770D01*
X159749500Y-92072247D01*
X156376500Y-92072247D01*
X156376500Y-91722247D01*
X163599500Y-91722247D01*
X163599500Y-93061752D01*
X163611131Y-93120229D01*
X163611132Y-93120230D01*
X163655447Y-93186552D01*
X163721769Y-93230867D01*
X163721770Y-93230868D01*
X163780247Y-93242499D01*
X163780250Y-93242500D01*
X163780252Y-93242500D01*
X164519750Y-93242500D01*
X164519751Y-93242499D01*
X164534568Y-93239552D01*
X164578229Y-93230868D01*
X164578229Y-93230867D01*
X164578231Y-93230867D01*
X164644552Y-93186552D01*
X164688867Y-93120231D01*
X164688867Y-93120229D01*
X164688868Y-93120229D01*
X164700499Y-93061752D01*
X164700500Y-93061750D01*
X164700500Y-91722249D01*
X164700499Y-91722247D01*
X165499500Y-91722247D01*
X165499500Y-93061752D01*
X165511131Y-93120229D01*
X165511132Y-93120230D01*
X165555447Y-93186552D01*
X165621769Y-93230867D01*
X165621770Y-93230868D01*
X165680247Y-93242499D01*
X165680250Y-93242500D01*
X165680252Y-93242500D01*
X166419750Y-93242500D01*
X166419751Y-93242499D01*
X166434568Y-93239552D01*
X166478229Y-93230868D01*
X166478229Y-93230867D01*
X166478231Y-93230867D01*
X166544552Y-93186552D01*
X166588867Y-93120231D01*
X166588867Y-93120229D01*
X166588868Y-93120229D01*
X166600499Y-93061752D01*
X166600500Y-93061750D01*
X166600500Y-91722249D01*
X166600499Y-91722247D01*
X166588868Y-91663770D01*
X166588867Y-91663769D01*
X166544552Y-91597447D01*
X166478230Y-91553132D01*
X166478229Y-91553131D01*
X166419752Y-91541500D01*
X166419748Y-91541500D01*
X165680252Y-91541500D01*
X165680247Y-91541500D01*
X165621770Y-91553131D01*
X165621769Y-91553132D01*
X165555447Y-91597447D01*
X165511132Y-91663769D01*
X165511131Y-91663770D01*
X165499500Y-91722247D01*
X164700499Y-91722247D01*
X164688868Y-91663770D01*
X164688867Y-91663769D01*
X164644552Y-91597447D01*
X164578230Y-91553132D01*
X164578229Y-91553131D01*
X164519752Y-91541500D01*
X164519748Y-91541500D01*
X163780252Y-91541500D01*
X163780247Y-91541500D01*
X163721770Y-91553131D01*
X163721769Y-91553132D01*
X163655447Y-91597447D01*
X163611132Y-91663769D01*
X163611131Y-91663770D01*
X163599500Y-91722247D01*
X156376500Y-91722247D01*
X156376500Y-87922247D01*
X159399500Y-87922247D01*
X159399500Y-88861752D01*
X159411131Y-88920229D01*
X159411132Y-88920230D01*
X159455447Y-88986552D01*
X159521769Y-89030867D01*
X159521770Y-89030868D01*
X159580247Y-89042499D01*
X159580250Y-89042500D01*
X159580252Y-89042500D01*
X160119750Y-89042500D01*
X160119751Y-89042499D01*
X160134568Y-89039552D01*
X160178229Y-89030868D01*
X160178229Y-89030867D01*
X160178231Y-89030867D01*
X160244552Y-88986552D01*
X160288867Y-88920231D01*
X160288867Y-88920229D01*
X160288868Y-88920229D01*
X160300499Y-88861752D01*
X160300500Y-88861750D01*
X160300500Y-87922249D01*
X160300499Y-87922247D01*
X160899500Y-87922247D01*
X160899500Y-88861752D01*
X160911131Y-88920229D01*
X160911132Y-88920230D01*
X160955447Y-88986552D01*
X161021769Y-89030867D01*
X161021770Y-89030868D01*
X161080247Y-89042499D01*
X161080250Y-89042500D01*
X161080252Y-89042500D01*
X161619750Y-89042500D01*
X161619751Y-89042499D01*
X161634568Y-89039552D01*
X161678229Y-89030868D01*
X161678229Y-89030867D01*
X161678231Y-89030867D01*
X161744552Y-88986552D01*
X161788867Y-88920231D01*
X161788867Y-88920229D01*
X161788868Y-88920229D01*
X161800499Y-88861752D01*
X161800500Y-88861750D01*
X161800500Y-87922249D01*
X161800499Y-87922247D01*
X161788868Y-87863770D01*
X161788867Y-87863769D01*
X161744552Y-87797447D01*
X161678230Y-87753132D01*
X161678229Y-87753131D01*
X161619752Y-87741500D01*
X161619748Y-87741500D01*
X161080252Y-87741500D01*
X161080247Y-87741500D01*
X161021770Y-87753131D01*
X161021769Y-87753132D01*
X160955447Y-87797447D01*
X160911132Y-87863769D01*
X160911131Y-87863770D01*
X160899500Y-87922247D01*
X160300499Y-87922247D01*
X160288868Y-87863770D01*
X160288867Y-87863769D01*
X160244552Y-87797447D01*
X160178230Y-87753132D01*
X160178229Y-87753131D01*
X160119752Y-87741500D01*
X160119748Y-87741500D01*
X159580252Y-87741500D01*
X159580247Y-87741500D01*
X159521770Y-87753131D01*
X159521769Y-87753132D01*
X159455447Y-87797447D01*
X159411132Y-87863769D01*
X159411131Y-87863770D01*
X159399500Y-87922247D01*
X156376500Y-87922247D01*
X156376500Y-87522247D01*
X162999500Y-87522247D01*
X162999500Y-89261752D01*
X163011131Y-89320229D01*
X163011132Y-89320230D01*
X163055447Y-89386552D01*
X163121769Y-89430867D01*
X163121770Y-89430868D01*
X163180247Y-89442499D01*
X163180250Y-89442500D01*
X163180252Y-89442500D01*
X164119750Y-89442500D01*
X164119751Y-89442499D01*
X164134568Y-89439552D01*
X164178229Y-89430868D01*
X164178229Y-89430867D01*
X164178231Y-89430867D01*
X164244552Y-89386552D01*
X164288867Y-89320231D01*
X164288867Y-89320229D01*
X164288868Y-89320229D01*
X164300499Y-89261752D01*
X164300500Y-89261750D01*
X164300500Y-87522249D01*
X164300499Y-87522247D01*
X165899500Y-87522247D01*
X165899500Y-89261752D01*
X165911131Y-89320229D01*
X165911132Y-89320230D01*
X165955447Y-89386552D01*
X166021769Y-89430867D01*
X166021770Y-89430868D01*
X166080247Y-89442499D01*
X166080250Y-89442500D01*
X166080252Y-89442500D01*
X167019750Y-89442500D01*
X167019751Y-89442499D01*
X167034568Y-89439552D01*
X167078229Y-89430868D01*
X167078229Y-89430867D01*
X167078231Y-89430867D01*
X167144552Y-89386552D01*
X167188867Y-89320231D01*
X167188867Y-89320229D01*
X167188868Y-89320229D01*
X167200499Y-89261752D01*
X167200500Y-89261750D01*
X167200500Y-87522249D01*
X167200499Y-87522247D01*
X167188868Y-87463770D01*
X167188867Y-87463769D01*
X167144552Y-87397447D01*
X167078230Y-87353132D01*
X167078229Y-87353131D01*
X167019752Y-87341500D01*
X167019748Y-87341500D01*
X166080252Y-87341500D01*
X166080247Y-87341500D01*
X166021770Y-87353131D01*
X166021769Y-87353132D01*
X165955447Y-87397447D01*
X165911132Y-87463769D01*
X165911131Y-87463770D01*
X165899500Y-87522247D01*
X164300499Y-87522247D01*
X164288868Y-87463770D01*
X164288867Y-87463769D01*
X164244552Y-87397447D01*
X164178230Y-87353132D01*
X164178229Y-87353131D01*
X164119752Y-87341500D01*
X164119748Y-87341500D01*
X163180252Y-87341500D01*
X163180247Y-87341500D01*
X163121770Y-87353131D01*
X163121769Y-87353132D01*
X163055447Y-87397447D01*
X163011132Y-87463769D01*
X163011131Y-87463770D01*
X162999500Y-87522247D01*
X156376500Y-87522247D01*
X156376500Y-87504249D01*
X156376499Y-87504247D01*
X156364868Y-87445770D01*
X156364867Y-87445769D01*
X156320552Y-87379447D01*
X156254230Y-87335132D01*
X156254229Y-87335131D01*
X156195752Y-87323500D01*
X156195748Y-87323500D01*
X149756252Y-87323500D01*
X149756247Y-87323500D01*
X149697770Y-87335131D01*
X149697769Y-87335132D01*
X149631447Y-87379447D01*
X149587132Y-87445769D01*
X149587131Y-87445770D01*
X149575500Y-87504247D01*
X147972521Y-87504247D01*
X147964867Y-87465770D01*
X147964867Y-87465769D01*
X147920552Y-87399447D01*
X147854230Y-87355132D01*
X147854229Y-87355131D01*
X147795752Y-87343500D01*
X147795748Y-87343500D01*
X145556252Y-87343500D01*
X145556247Y-87343500D01*
X145497770Y-87355131D01*
X145497769Y-87355132D01*
X145431447Y-87399447D01*
X145387132Y-87465769D01*
X145387131Y-87465770D01*
X145375500Y-87524247D01*
X90498019Y-87524247D01*
X90498019Y-78783885D01*
X139499500Y-78783885D01*
X139499500Y-78803735D01*
X139499500Y-79216115D01*
X139533412Y-79647013D01*
X139601028Y-80073922D01*
X139701930Y-80494210D01*
X139701934Y-80494221D01*
X139835494Y-80905280D01*
X139937743Y-81152131D01*
X140000904Y-81304615D01*
X140058463Y-81417580D01*
X140197136Y-81689740D01*
X140197142Y-81689751D01*
X140422966Y-82058262D01*
X140422971Y-82058269D01*
X140422973Y-82058272D01*
X140527880Y-82202664D01*
X140677025Y-82407946D01*
X140677035Y-82407960D01*
X140957737Y-82736617D01*
X140957743Y-82736624D01*
X141263376Y-83042257D01*
X141263382Y-83042262D01*
X141592039Y-83322964D01*
X141592046Y-83322969D01*
X141941728Y-83577027D01*
X141941732Y-83577029D01*
X141941737Y-83577033D01*
X142310248Y-83802857D01*
X142310254Y-83802860D01*
X142310265Y-83802867D01*
X142695385Y-83999096D01*
X143071451Y-84154867D01*
X143094719Y-84164505D01*
X143182991Y-84193186D01*
X143505790Y-84298070D01*
X143926078Y-84398972D01*
X144352987Y-84466588D01*
X144783885Y-84500500D01*
X144783893Y-84500500D01*
X145216107Y-84500500D01*
X145216115Y-84500500D01*
X145647013Y-84466588D01*
X146073922Y-84398972D01*
X146494210Y-84298070D01*
X146905286Y-84164503D01*
X147304615Y-83999096D01*
X147689735Y-83802867D01*
X148058272Y-83577027D01*
X148407954Y-83322969D01*
X148614868Y-83146247D01*
X157217500Y-83146247D01*
X157217500Y-83985752D01*
X157229131Y-84044229D01*
X157229132Y-84044230D01*
X157273447Y-84110552D01*
X157339769Y-84154867D01*
X157339770Y-84154868D01*
X157398247Y-84166499D01*
X157398250Y-84166500D01*
X157398252Y-84166500D01*
X158337750Y-84166500D01*
X158337751Y-84166499D01*
X158352568Y-84163552D01*
X158396229Y-84154868D01*
X158396229Y-84154867D01*
X158396231Y-84154867D01*
X158462552Y-84110552D01*
X158506867Y-84044231D01*
X158506867Y-84044229D01*
X158506868Y-84044229D01*
X158518499Y-83985752D01*
X158518500Y-83985750D01*
X158518500Y-83146249D01*
X158518499Y-83146247D01*
X158506868Y-83087770D01*
X158506867Y-83087769D01*
X158462552Y-83021447D01*
X158396230Y-82977132D01*
X158396229Y-82977131D01*
X158337752Y-82965500D01*
X158337748Y-82965500D01*
X157398252Y-82965500D01*
X157398247Y-82965500D01*
X157339770Y-82977131D01*
X157339769Y-82977132D01*
X157273447Y-83021447D01*
X157229132Y-83087769D01*
X157229131Y-83087770D01*
X157217500Y-83146247D01*
X148614868Y-83146247D01*
X148736624Y-83042257D01*
X149042257Y-82736624D01*
X149322969Y-82407954D01*
X149577027Y-82058272D01*
X149802867Y-81689735D01*
X149999096Y-81304615D01*
X150023273Y-81246247D01*
X157217500Y-81246247D01*
X157217500Y-82085752D01*
X157229131Y-82144229D01*
X157229132Y-82144230D01*
X157273447Y-82210552D01*
X157339769Y-82254867D01*
X157339770Y-82254868D01*
X157398247Y-82266499D01*
X157398250Y-82266500D01*
X157398252Y-82266500D01*
X158337750Y-82266500D01*
X158337751Y-82266499D01*
X158352568Y-82263552D01*
X158396229Y-82254868D01*
X158396229Y-82254867D01*
X158396231Y-82254867D01*
X158462552Y-82210552D01*
X158472110Y-82196247D01*
X159217500Y-82196247D01*
X159217500Y-83035752D01*
X159229131Y-83094229D01*
X159229132Y-83094230D01*
X159273447Y-83160552D01*
X159339769Y-83204867D01*
X159339770Y-83204868D01*
X159398247Y-83216499D01*
X159398250Y-83216500D01*
X159398252Y-83216500D01*
X160337750Y-83216500D01*
X160337751Y-83216499D01*
X160352568Y-83213552D01*
X160396229Y-83204868D01*
X160396229Y-83204867D01*
X160396231Y-83204867D01*
X160462552Y-83160552D01*
X160506867Y-83094231D01*
X160506867Y-83094229D01*
X160506868Y-83094229D01*
X160518499Y-83035752D01*
X160518500Y-83035750D01*
X160518500Y-82196249D01*
X160518499Y-82196247D01*
X160506868Y-82137770D01*
X160506867Y-82137769D01*
X160462552Y-82071447D01*
X160396230Y-82027132D01*
X160396229Y-82027131D01*
X160337752Y-82015500D01*
X160337748Y-82015500D01*
X159398252Y-82015500D01*
X159398247Y-82015500D01*
X159339770Y-82027131D01*
X159339769Y-82027132D01*
X159273447Y-82071447D01*
X159229132Y-82137769D01*
X159229131Y-82137770D01*
X159217500Y-82196247D01*
X158472110Y-82196247D01*
X158506867Y-82144231D01*
X158518500Y-82085748D01*
X158518500Y-81321247D01*
X162337500Y-81321247D01*
X162337500Y-82010752D01*
X162349131Y-82069229D01*
X162349132Y-82069231D01*
X162351058Y-82072113D01*
X162353322Y-82079344D01*
X162353806Y-82080513D01*
X162353701Y-82080556D01*
X162371933Y-82138791D01*
X162353446Y-82206171D01*
X162351058Y-82209887D01*
X162349132Y-82212768D01*
X162349131Y-82212770D01*
X162337500Y-82271247D01*
X162337500Y-82960752D01*
X162349131Y-83019229D01*
X162349132Y-83019231D01*
X162351058Y-83022113D01*
X162353322Y-83029344D01*
X162353806Y-83030513D01*
X162353701Y-83030556D01*
X162371933Y-83088791D01*
X162353446Y-83156171D01*
X162351058Y-83159887D01*
X162349132Y-83162768D01*
X162349131Y-83162770D01*
X162337500Y-83221247D01*
X162337500Y-83910752D01*
X162349131Y-83969229D01*
X162349132Y-83969230D01*
X162393447Y-84035552D01*
X162459769Y-84079867D01*
X162459770Y-84079868D01*
X162518247Y-84091499D01*
X162518250Y-84091500D01*
X162518252Y-84091500D01*
X163617750Y-84091500D01*
X163617751Y-84091499D01*
X163632568Y-84088552D01*
X163676229Y-84079868D01*
X163676229Y-84079867D01*
X163676231Y-84079867D01*
X163742552Y-84035552D01*
X163786867Y-83969231D01*
X163786867Y-83969229D01*
X163786868Y-83969229D01*
X163798499Y-83910752D01*
X163798500Y-83910750D01*
X163798500Y-83232046D01*
X163798500Y-83221252D01*
X163798499Y-83221247D01*
X164537500Y-83221247D01*
X164537500Y-83910752D01*
X164549131Y-83969229D01*
X164549132Y-83969230D01*
X164593447Y-84035552D01*
X164659769Y-84079867D01*
X164659770Y-84079868D01*
X164718247Y-84091499D01*
X164718250Y-84091500D01*
X164718252Y-84091500D01*
X165817750Y-84091500D01*
X165817751Y-84091499D01*
X165832568Y-84088552D01*
X165876229Y-84079868D01*
X165876229Y-84079867D01*
X165876231Y-84079867D01*
X165942552Y-84035552D01*
X165986867Y-83969231D01*
X165986867Y-83969229D01*
X165986868Y-83969229D01*
X165998499Y-83910752D01*
X165998500Y-83910750D01*
X165998500Y-83221249D01*
X165998499Y-83221247D01*
X165986868Y-83162770D01*
X165986867Y-83162769D01*
X165942552Y-83096447D01*
X165876230Y-83052132D01*
X165876229Y-83052131D01*
X165817752Y-83040500D01*
X165817748Y-83040500D01*
X164718252Y-83040500D01*
X164718247Y-83040500D01*
X164659770Y-83052131D01*
X164659769Y-83052132D01*
X164593447Y-83096447D01*
X164549132Y-83162769D01*
X164549131Y-83162770D01*
X164537500Y-83221247D01*
X163798499Y-83221247D01*
X163786867Y-83162769D01*
X163773883Y-83143338D01*
X163768561Y-83124157D01*
X163768797Y-83108323D01*
X163764066Y-83093215D01*
X163769307Y-83074108D01*
X163769603Y-83054295D01*
X163778361Y-83041103D01*
X163782550Y-83025835D01*
X163784945Y-83022108D01*
X163786867Y-83019231D01*
X163786868Y-83019229D01*
X163798499Y-82960752D01*
X163798500Y-82960750D01*
X163798500Y-82271249D01*
X163798499Y-82271247D01*
X163786868Y-82212770D01*
X163786867Y-82212768D01*
X163784945Y-82209892D01*
X163782681Y-82202664D01*
X163782194Y-82201487D01*
X163782299Y-82201443D01*
X163764066Y-82143215D01*
X163782550Y-82075835D01*
X163784945Y-82072108D01*
X163786867Y-82069231D01*
X163786868Y-82069229D01*
X163798499Y-82010752D01*
X163798500Y-82010750D01*
X163798500Y-81321249D01*
X163798499Y-81321247D01*
X164537500Y-81321247D01*
X164537500Y-82010752D01*
X164549131Y-82069229D01*
X164549132Y-82069230D01*
X164593447Y-82135552D01*
X164659769Y-82179867D01*
X164659770Y-82179868D01*
X164718247Y-82191499D01*
X164718250Y-82191500D01*
X164718252Y-82191500D01*
X165817750Y-82191500D01*
X165817751Y-82191499D01*
X165832568Y-82188552D01*
X165876229Y-82179868D01*
X165876229Y-82179867D01*
X165876231Y-82179867D01*
X165942552Y-82135552D01*
X165986867Y-82069231D01*
X165986867Y-82069229D01*
X165986868Y-82069229D01*
X165998499Y-82010752D01*
X165998500Y-82010750D01*
X165998500Y-81321249D01*
X165998499Y-81321247D01*
X165986868Y-81262770D01*
X165986867Y-81262769D01*
X165942552Y-81196447D01*
X165876230Y-81152132D01*
X165876229Y-81152131D01*
X165817752Y-81140500D01*
X165817748Y-81140500D01*
X164718252Y-81140500D01*
X164718247Y-81140500D01*
X164659770Y-81152131D01*
X164659769Y-81152132D01*
X164593447Y-81196447D01*
X164549132Y-81262769D01*
X164549131Y-81262770D01*
X164537500Y-81321247D01*
X163798499Y-81321247D01*
X163786868Y-81262770D01*
X163786867Y-81262769D01*
X163742552Y-81196447D01*
X163676230Y-81152132D01*
X163676229Y-81152131D01*
X163617752Y-81140500D01*
X163617748Y-81140500D01*
X162518252Y-81140500D01*
X162518247Y-81140500D01*
X162459770Y-81152131D01*
X162459769Y-81152132D01*
X162393447Y-81196447D01*
X162349132Y-81262769D01*
X162349131Y-81262770D01*
X162337500Y-81321247D01*
X158518500Y-81321247D01*
X158518500Y-81246252D01*
X158518500Y-81246249D01*
X158518499Y-81246247D01*
X158506868Y-81187770D01*
X158506867Y-81187769D01*
X158462552Y-81121447D01*
X158396230Y-81077132D01*
X158396229Y-81077131D01*
X158337752Y-81065500D01*
X158337748Y-81065500D01*
X157398252Y-81065500D01*
X157398247Y-81065500D01*
X157339770Y-81077131D01*
X157339769Y-81077132D01*
X157273447Y-81121447D01*
X157229132Y-81187769D01*
X157229131Y-81187770D01*
X157217500Y-81246247D01*
X150023273Y-81246247D01*
X150164503Y-80905286D01*
X150298070Y-80494210D01*
X150398972Y-80073922D01*
X150466588Y-79647013D01*
X150500500Y-79216115D01*
X150500500Y-78783885D01*
X150466588Y-78352987D01*
X150398972Y-77926078D01*
X150320338Y-77598543D01*
X161999498Y-77598543D01*
X162037946Y-77791829D01*
X162037949Y-77791839D01*
X162113363Y-77973907D01*
X162113370Y-77973920D01*
X162222859Y-78137781D01*
X162222862Y-78137785D01*
X162362213Y-78277136D01*
X162362217Y-78277139D01*
X162526078Y-78386628D01*
X162526091Y-78386635D01*
X162708159Y-78462049D01*
X162708164Y-78462051D01*
X162708168Y-78462051D01*
X162708169Y-78462052D01*
X162901455Y-78500500D01*
X162901458Y-78500500D01*
X163098542Y-78500500D01*
X163228581Y-78474632D01*
X163291834Y-78462051D01*
X163473913Y-78386632D01*
X163637781Y-78277139D01*
X163777138Y-78137782D01*
X163886631Y-77973914D01*
X163962050Y-77791835D01*
X164000499Y-77598541D01*
X164000499Y-77401459D01*
X164000499Y-77401456D01*
X163962051Y-77208170D01*
X163962050Y-77208169D01*
X163962050Y-77208165D01*
X163926485Y-77122302D01*
X163886634Y-77026092D01*
X163886627Y-77026079D01*
X163777138Y-76862218D01*
X163777135Y-76862214D01*
X163637784Y-76722863D01*
X163637780Y-76722860D01*
X163473919Y-76613371D01*
X163473906Y-76613364D01*
X163291838Y-76537950D01*
X163291828Y-76537947D01*
X163098542Y-76499500D01*
X163098540Y-76499500D01*
X162901458Y-76499500D01*
X162901456Y-76499500D01*
X162708169Y-76537947D01*
X162708159Y-76537950D01*
X162526091Y-76613364D01*
X162526078Y-76613371D01*
X162362217Y-76722860D01*
X162362213Y-76722863D01*
X162222862Y-76862214D01*
X162222859Y-76862218D01*
X162113370Y-77026079D01*
X162113363Y-77026092D01*
X162037949Y-77208160D01*
X162037946Y-77208170D01*
X161999499Y-77401456D01*
X161999499Y-77401459D01*
X161999499Y-77598541D01*
X161999499Y-77598543D01*
X161999498Y-77598543D01*
X150320338Y-77598543D01*
X150298070Y-77505790D01*
X150201364Y-77208160D01*
X150164505Y-77094719D01*
X150164503Y-77094714D01*
X149999096Y-76695385D01*
X149802867Y-76310265D01*
X149771325Y-76258793D01*
X156999498Y-76258793D01*
X157037946Y-76452079D01*
X157037949Y-76452089D01*
X157113363Y-76634157D01*
X157113370Y-76634170D01*
X157222859Y-76798031D01*
X157222862Y-76798035D01*
X157362213Y-76937386D01*
X157362217Y-76937389D01*
X157526078Y-77046878D01*
X157526091Y-77046885D01*
X157708159Y-77122299D01*
X157708164Y-77122301D01*
X157708168Y-77122301D01*
X157708169Y-77122302D01*
X157901455Y-77160750D01*
X157901458Y-77160750D01*
X158098542Y-77160750D01*
X158228581Y-77134882D01*
X158291834Y-77122301D01*
X158473913Y-77046882D01*
X158637781Y-76937389D01*
X158777138Y-76798032D01*
X158886631Y-76634164D01*
X158962050Y-76452085D01*
X158990260Y-76310265D01*
X159000499Y-76258793D01*
X159000499Y-76061706D01*
X158962051Y-75868420D01*
X158962050Y-75868419D01*
X158962050Y-75868415D01*
X158909201Y-75740825D01*
X158886634Y-75686342D01*
X158886627Y-75686329D01*
X158777138Y-75522468D01*
X158777135Y-75522464D01*
X158637784Y-75383113D01*
X158637780Y-75383110D01*
X158473919Y-75273621D01*
X158473906Y-75273614D01*
X158291838Y-75198200D01*
X158291828Y-75198197D01*
X158098542Y-75159750D01*
X158098540Y-75159750D01*
X157901458Y-75159750D01*
X157901456Y-75159750D01*
X157708169Y-75198197D01*
X157708159Y-75198200D01*
X157526091Y-75273614D01*
X157526078Y-75273621D01*
X157362217Y-75383110D01*
X157362213Y-75383113D01*
X157222862Y-75522464D01*
X157222859Y-75522468D01*
X157113370Y-75686329D01*
X157113363Y-75686342D01*
X157037949Y-75868410D01*
X157037946Y-75868420D01*
X156999499Y-76061706D01*
X156999499Y-76061709D01*
X156999499Y-76258791D01*
X156999499Y-76258793D01*
X156999498Y-76258793D01*
X149771325Y-76258793D01*
X149577027Y-75941728D01*
X149322969Y-75592046D01*
X149322964Y-75592039D01*
X149051007Y-75273621D01*
X149042257Y-75263376D01*
X148736624Y-74957743D01*
X148731870Y-74953683D01*
X148407960Y-74677035D01*
X148407946Y-74677025D01*
X148396271Y-74668543D01*
X154929498Y-74668543D01*
X154967946Y-74861829D01*
X154967949Y-74861839D01*
X155043363Y-75043907D01*
X155043370Y-75043920D01*
X155152859Y-75207781D01*
X155152862Y-75207785D01*
X155292213Y-75347136D01*
X155292217Y-75347139D01*
X155456078Y-75456628D01*
X155456091Y-75456635D01*
X155615028Y-75522468D01*
X155638164Y-75532051D01*
X155638168Y-75532051D01*
X155638169Y-75532052D01*
X155831455Y-75570500D01*
X155831458Y-75570500D01*
X156028542Y-75570500D01*
X156158581Y-75544632D01*
X156221834Y-75532051D01*
X156362654Y-75473721D01*
X156403906Y-75456635D01*
X156403906Y-75456634D01*
X156403913Y-75456632D01*
X156567781Y-75347139D01*
X156707138Y-75207782D01*
X156816631Y-75043914D01*
X156892050Y-74861835D01*
X156922501Y-74708751D01*
X156930499Y-74668543D01*
X156930499Y-74471456D01*
X156892051Y-74278170D01*
X156892050Y-74278169D01*
X156892050Y-74278165D01*
X156892048Y-74278160D01*
X156816634Y-74096092D01*
X156816627Y-74096079D01*
X156707138Y-73932218D01*
X156707135Y-73932214D01*
X156567784Y-73792863D01*
X156567780Y-73792860D01*
X156403919Y-73683371D01*
X156403906Y-73683364D01*
X156221838Y-73607950D01*
X156221828Y-73607947D01*
X156028542Y-73569500D01*
X156028540Y-73569500D01*
X155831458Y-73569500D01*
X155831456Y-73569500D01*
X155638169Y-73607947D01*
X155638159Y-73607950D01*
X155456091Y-73683364D01*
X155456078Y-73683371D01*
X155292217Y-73792860D01*
X155292213Y-73792863D01*
X155152862Y-73932214D01*
X155152859Y-73932218D01*
X155043370Y-74096079D01*
X155043363Y-74096092D01*
X154967949Y-74278160D01*
X154967946Y-74278170D01*
X154929499Y-74471456D01*
X154929499Y-74471459D01*
X154929499Y-74668541D01*
X154929499Y-74668543D01*
X154929498Y-74668543D01*
X148396271Y-74668543D01*
X148254699Y-74565685D01*
X148058273Y-74422974D01*
X148058262Y-74422966D01*
X147689751Y-74197142D01*
X147689740Y-74197136D01*
X147689739Y-74197135D01*
X147689735Y-74197133D01*
X147304615Y-74000904D01*
X147037069Y-73890083D01*
X146905280Y-73835494D01*
X146612796Y-73740461D01*
X146494210Y-73701930D01*
X146073922Y-73601028D01*
X145647013Y-73533412D01*
X145216120Y-73499500D01*
X145216115Y-73499500D01*
X144783885Y-73499500D01*
X144783879Y-73499500D01*
X144352986Y-73533412D01*
X144352985Y-73533412D01*
X143926083Y-73601027D01*
X143926080Y-73601027D01*
X143926078Y-73601028D01*
X143897246Y-73607950D01*
X143505801Y-73701927D01*
X143505795Y-73701928D01*
X143505790Y-73701930D01*
X143505778Y-73701934D01*
X143094719Y-73835494D01*
X142695387Y-74000903D01*
X142310259Y-74197136D01*
X142310248Y-74197142D01*
X141941737Y-74422966D01*
X141941726Y-74422974D01*
X141592053Y-74677025D01*
X141592039Y-74677035D01*
X141263382Y-74957737D01*
X141263368Y-74957750D01*
X140957750Y-75263368D01*
X140957737Y-75263382D01*
X140677035Y-75592039D01*
X140677025Y-75592053D01*
X140422974Y-75941726D01*
X140422966Y-75941737D01*
X140197142Y-76310248D01*
X140197136Y-76310259D01*
X140000903Y-76695387D01*
X139835494Y-77094719D01*
X139701934Y-77505778D01*
X139701927Y-77505801D01*
X139601027Y-77926083D01*
X139533412Y-78352985D01*
X139533412Y-78352986D01*
X139521803Y-78500500D01*
X139499500Y-78783885D01*
X90498019Y-78783885D01*
X90498019Y-73331491D01*
X132499500Y-73331491D01*
X132499500Y-73668508D01*
X132537231Y-74003381D01*
X132537233Y-74003397D01*
X132612223Y-74331953D01*
X132612227Y-74331965D01*
X132723532Y-74650054D01*
X132869752Y-74953683D01*
X132900931Y-75003304D01*
X133049054Y-75239039D01*
X133259175Y-75502523D01*
X133497477Y-75740825D01*
X133760961Y-75950946D01*
X134046314Y-76130246D01*
X134349949Y-76276469D01*
X134588848Y-76360063D01*
X134668034Y-76387772D01*
X134668046Y-76387776D01*
X134996606Y-76462767D01*
X135331492Y-76500499D01*
X135331493Y-76500500D01*
X135331496Y-76500500D01*
X135668507Y-76500500D01*
X135668507Y-76500499D01*
X136003394Y-76462767D01*
X136331954Y-76387776D01*
X136650051Y-76276469D01*
X136953686Y-76130246D01*
X137239039Y-75950946D01*
X137502523Y-75740825D01*
X137740825Y-75502523D01*
X137950946Y-75239039D01*
X138130246Y-74953686D01*
X138276469Y-74650051D01*
X138387776Y-74331954D01*
X138462767Y-74003394D01*
X138500500Y-73668504D01*
X138500500Y-73331496D01*
X138462767Y-72996606D01*
X138387776Y-72668046D01*
X138363456Y-72598543D01*
X153339298Y-72598543D01*
X153377746Y-72791829D01*
X153377749Y-72791839D01*
X153453163Y-72973907D01*
X153453170Y-72973920D01*
X153562659Y-73137781D01*
X153562662Y-73137785D01*
X153702013Y-73277136D01*
X153702017Y-73277139D01*
X153865878Y-73386628D01*
X153865891Y-73386635D01*
X154047959Y-73462049D01*
X154047964Y-73462051D01*
X154047968Y-73462051D01*
X154047969Y-73462052D01*
X154241255Y-73500500D01*
X154241258Y-73500500D01*
X154438342Y-73500500D01*
X154568381Y-73474632D01*
X154631634Y-73462051D01*
X154813713Y-73386632D01*
X154977581Y-73277139D01*
X155116938Y-73137782D01*
X155226431Y-72973914D01*
X155301850Y-72791835D01*
X155314431Y-72728582D01*
X155340299Y-72598543D01*
X155340299Y-72401456D01*
X155301851Y-72208170D01*
X155301850Y-72208169D01*
X155301850Y-72208165D01*
X155290862Y-72181638D01*
X155226434Y-72026092D01*
X155226427Y-72026079D01*
X155116938Y-71862218D01*
X155116935Y-71862214D01*
X154977584Y-71722863D01*
X154977580Y-71722860D01*
X154813719Y-71613371D01*
X154813706Y-71613364D01*
X154631638Y-71537950D01*
X154631628Y-71537947D01*
X154438342Y-71499500D01*
X154438340Y-71499500D01*
X154241258Y-71499500D01*
X154241256Y-71499500D01*
X154047969Y-71537947D01*
X154047959Y-71537950D01*
X153865891Y-71613364D01*
X153865878Y-71613371D01*
X153702017Y-71722860D01*
X153702013Y-71722863D01*
X153562662Y-71862214D01*
X153562659Y-71862218D01*
X153453170Y-72026079D01*
X153453163Y-72026092D01*
X153377749Y-72208160D01*
X153377746Y-72208170D01*
X153339299Y-72401456D01*
X153339299Y-72401459D01*
X153339299Y-72598541D01*
X153339299Y-72598543D01*
X153339298Y-72598543D01*
X138363456Y-72598543D01*
X138276469Y-72349949D01*
X138130246Y-72046314D01*
X137950946Y-71760961D01*
X137740825Y-71497477D01*
X137502523Y-71259175D01*
X137239039Y-71049054D01*
X136953686Y-70869754D01*
X136953683Y-70869752D01*
X136650054Y-70723532D01*
X136331965Y-70612227D01*
X136331953Y-70612223D01*
X136003397Y-70537233D01*
X136003381Y-70537231D01*
X135668508Y-70499500D01*
X135668504Y-70499500D01*
X135331496Y-70499500D01*
X135331491Y-70499500D01*
X134996618Y-70537231D01*
X134996602Y-70537233D01*
X134668046Y-70612223D01*
X134668034Y-70612227D01*
X134349945Y-70723532D01*
X134046316Y-70869752D01*
X133760962Y-71049053D01*
X133497477Y-71259174D01*
X133259174Y-71497477D01*
X133049053Y-71760962D01*
X132869752Y-72046316D01*
X132723532Y-72349945D01*
X132612227Y-72668034D01*
X132612223Y-72668046D01*
X132537233Y-72996602D01*
X132537231Y-72996618D01*
X132499500Y-73331491D01*
X90498019Y-73331491D01*
X90498019Y-67499999D01*
X121995214Y-67499999D01*
X121995214Y-67500000D01*
X122012321Y-67684628D01*
X122063064Y-67862968D01*
X122063069Y-67862981D01*
X122145714Y-68028952D01*
X122257455Y-68176922D01*
X122394480Y-68301836D01*
X122394482Y-68301838D01*
X122552124Y-68399446D01*
X122552125Y-68399446D01*
X122552128Y-68399448D01*
X122725027Y-68466429D01*
X122907290Y-68500500D01*
X122934108Y-68500500D01*
X162926494Y-68500500D01*
X162926510Y-68500501D01*
X162934106Y-68500501D01*
X163092706Y-68500501D01*
X163092708Y-68500501D01*
X163274971Y-68466430D01*
X163447871Y-68399449D01*
X163605519Y-68301838D01*
X163742546Y-68176921D01*
X163854287Y-68028953D01*
X163936936Y-67862971D01*
X163987679Y-67684629D01*
X164004787Y-67500000D01*
X163987679Y-67315371D01*
X163936936Y-67137029D01*
X163854287Y-66971047D01*
X163742546Y-66823079D01*
X163742544Y-66823076D01*
X163605519Y-66698162D01*
X163605517Y-66698160D01*
X163447876Y-66600554D01*
X163447873Y-66600552D01*
X163447871Y-66600551D01*
X163447870Y-66600550D01*
X163447869Y-66600550D01*
X163274976Y-66533572D01*
X163274971Y-66533570D01*
X163092708Y-66499499D01*
X162999998Y-66499499D01*
X162934106Y-66499499D01*
X162926510Y-66499499D01*
X162926494Y-66499500D01*
X123065892Y-66499500D01*
X123000000Y-66499500D01*
X122907290Y-66499500D01*
X122725027Y-66533571D01*
X122725024Y-66533571D01*
X122725024Y-66533572D01*
X122552130Y-66600551D01*
X122552124Y-66600553D01*
X122394482Y-66698161D01*
X122394480Y-66698163D01*
X122257455Y-66823077D01*
X122145714Y-66971047D01*
X122063069Y-67137018D01*
X122063064Y-67137031D01*
X122012321Y-67315371D01*
X121995214Y-67499999D01*
X90498019Y-67499999D01*
X90498019Y-63181919D01*
X90498214Y-63174966D01*
X90508173Y-62997634D01*
X90514477Y-62885379D01*
X90516031Y-62871582D01*
X90564034Y-62589066D01*
X90567127Y-62575513D01*
X90646457Y-62300153D01*
X90651050Y-62287028D01*
X90652686Y-62283079D01*
X90760714Y-62022276D01*
X90766734Y-62009776D01*
X90905358Y-61758954D01*
X90912748Y-61747193D01*
X91078579Y-61513479D01*
X91087233Y-61502626D01*
X91278197Y-61288936D01*
X91288012Y-61279122D01*
X91501695Y-61088162D01*
X91512549Y-61079507D01*
X91746266Y-60913677D01*
X91758034Y-60906284D01*
X91777336Y-60895615D01*
X92008841Y-60767666D01*
X92021352Y-60761642D01*
X92286103Y-60651978D01*
X92299220Y-60647388D01*
X92574589Y-60568055D01*
X92588136Y-60564963D01*
X92870656Y-60516961D01*
X92884451Y-60515407D01*
X93069559Y-60505011D01*
X93174105Y-60499141D01*
X93181057Y-60498946D01*
X93243410Y-60498946D01*
X172351623Y-60498946D01*
X172414033Y-60498946D01*
X172420986Y-60499141D01*
G37*
%TD.AperFunction*%
%TA.AperFunction,NonConductor*%
G36*
X154331899Y-100692694D02*
G01*
X154391247Y-100704499D01*
X154391250Y-100704500D01*
X154391252Y-100704500D01*
X154980749Y-100704500D01*
X154991909Y-100702280D01*
X155061501Y-100708507D01*
X155116679Y-100751369D01*
X155139924Y-100817258D01*
X155137721Y-100848082D01*
X155135500Y-100859250D01*
X155135500Y-101448752D01*
X155149515Y-101519209D01*
X155148239Y-101519462D01*
X155154317Y-101576023D01*
X155147303Y-101599910D01*
X155135500Y-101659247D01*
X155135500Y-102248752D01*
X155149515Y-102319209D01*
X155148239Y-102319462D01*
X155154317Y-102376023D01*
X155147303Y-102399910D01*
X155135500Y-102459247D01*
X155135500Y-103048752D01*
X155149515Y-103119209D01*
X155148239Y-103119462D01*
X155154317Y-103176023D01*
X155147303Y-103199910D01*
X155135500Y-103259247D01*
X155135500Y-103848752D01*
X155149515Y-103919209D01*
X155148239Y-103919462D01*
X155154317Y-103976023D01*
X155147303Y-103999910D01*
X155135500Y-104059247D01*
X155135500Y-104648752D01*
X155149515Y-104719209D01*
X155148239Y-104719462D01*
X155154317Y-104776023D01*
X155147303Y-104799910D01*
X155135500Y-104859247D01*
X155135500Y-105448752D01*
X155149515Y-105519209D01*
X155148239Y-105519462D01*
X155154317Y-105576023D01*
X155147303Y-105599910D01*
X155135500Y-105659247D01*
X155135500Y-106248752D01*
X155149515Y-106319209D01*
X155148239Y-106319462D01*
X155154317Y-106376023D01*
X155147303Y-106399910D01*
X155135500Y-106459247D01*
X155135500Y-107048755D01*
X155137720Y-107059916D01*
X155131490Y-107129507D01*
X155088624Y-107184683D01*
X155022734Y-107207925D01*
X154991916Y-107205720D01*
X154980755Y-107203500D01*
X154980748Y-107203500D01*
X154391252Y-107203500D01*
X154391249Y-107203500D01*
X154320791Y-107217515D01*
X154320537Y-107216239D01*
X154263977Y-107222317D01*
X154240089Y-107215303D01*
X154180751Y-107203500D01*
X154180748Y-107203500D01*
X153591252Y-107203500D01*
X153591249Y-107203500D01*
X153520791Y-107217515D01*
X153520537Y-107216239D01*
X153463977Y-107222317D01*
X153440089Y-107215303D01*
X153380751Y-107203500D01*
X153380748Y-107203500D01*
X152791252Y-107203500D01*
X152791249Y-107203500D01*
X152720791Y-107217515D01*
X152720537Y-107216239D01*
X152663977Y-107222317D01*
X152640089Y-107215303D01*
X152580751Y-107203500D01*
X152580748Y-107203500D01*
X151991252Y-107203500D01*
X151991249Y-107203500D01*
X151920791Y-107217515D01*
X151920537Y-107216239D01*
X151863977Y-107222317D01*
X151840089Y-107215303D01*
X151780751Y-107203500D01*
X151780748Y-107203500D01*
X151191252Y-107203500D01*
X151191249Y-107203500D01*
X151120791Y-107217515D01*
X151120537Y-107216239D01*
X151063977Y-107222317D01*
X151040089Y-107215303D01*
X150980751Y-107203500D01*
X150980748Y-107203500D01*
X150391252Y-107203500D01*
X150391249Y-107203500D01*
X150320791Y-107217515D01*
X150320537Y-107216239D01*
X150263977Y-107222317D01*
X150240089Y-107215303D01*
X150180751Y-107203500D01*
X150180748Y-107203500D01*
X149591252Y-107203500D01*
X149591249Y-107203500D01*
X149520791Y-107217515D01*
X149520537Y-107216239D01*
X149463977Y-107222317D01*
X149440089Y-107215303D01*
X149380751Y-107203500D01*
X149380748Y-107203500D01*
X148791252Y-107203500D01*
X148791251Y-107203500D01*
X148780082Y-107205721D01*
X148710490Y-107199489D01*
X148655315Y-107156623D01*
X148632074Y-107090732D01*
X148634280Y-107059909D01*
X148636500Y-107048749D01*
X148636500Y-106459249D01*
X148636499Y-106459247D01*
X148622485Y-106388790D01*
X148623762Y-106388535D01*
X148617680Y-106331991D01*
X148624694Y-106308100D01*
X148628404Y-106289448D01*
X148636500Y-106248748D01*
X148636500Y-105659252D01*
X148636500Y-105659249D01*
X148636499Y-105659247D01*
X148622485Y-105588790D01*
X148623762Y-105588535D01*
X148617680Y-105531991D01*
X148624694Y-105508100D01*
X148624867Y-105507231D01*
X148636500Y-105448748D01*
X148636500Y-104859252D01*
X148636500Y-104859249D01*
X148636499Y-104859247D01*
X148622485Y-104788790D01*
X148623762Y-104788535D01*
X148617680Y-104731991D01*
X148624694Y-104708100D01*
X148636499Y-104648752D01*
X148636500Y-104648750D01*
X148636500Y-104059249D01*
X148636499Y-104059247D01*
X148622485Y-103988790D01*
X148623762Y-103988535D01*
X148617680Y-103931991D01*
X148624694Y-103908100D01*
X148636499Y-103848752D01*
X148636500Y-103848750D01*
X148636500Y-103259249D01*
X148636499Y-103259247D01*
X148622485Y-103188790D01*
X148623762Y-103188535D01*
X148617680Y-103131991D01*
X148624694Y-103108100D01*
X148636499Y-103048752D01*
X148636500Y-103048750D01*
X148636500Y-102459249D01*
X148636499Y-102459247D01*
X148622485Y-102388790D01*
X148623762Y-102388535D01*
X148617680Y-102331991D01*
X148624694Y-102308100D01*
X148636499Y-102248752D01*
X148636500Y-102248750D01*
X148636500Y-101659249D01*
X148636499Y-101659247D01*
X148622485Y-101588790D01*
X148623762Y-101588535D01*
X148617680Y-101531991D01*
X148624694Y-101508100D01*
X148633440Y-101464131D01*
X148636500Y-101448748D01*
X148636500Y-100859252D01*
X148636500Y-100859250D01*
X148636500Y-100859249D01*
X148636499Y-100859247D01*
X148634280Y-100848088D01*
X148640507Y-100778497D01*
X148683370Y-100723319D01*
X148749260Y-100700075D01*
X148780088Y-100702280D01*
X148791247Y-100704499D01*
X148791250Y-100704500D01*
X148791252Y-100704500D01*
X149380750Y-100704500D01*
X149380751Y-100704499D01*
X149402994Y-100700075D01*
X149451210Y-100690485D01*
X149451464Y-100691762D01*
X149508009Y-100685680D01*
X149531899Y-100692694D01*
X149591247Y-100704499D01*
X149591250Y-100704500D01*
X149591252Y-100704500D01*
X150180750Y-100704500D01*
X150180751Y-100704499D01*
X150202994Y-100700075D01*
X150251210Y-100690485D01*
X150251464Y-100691762D01*
X150308009Y-100685680D01*
X150331899Y-100692694D01*
X150391247Y-100704499D01*
X150391250Y-100704500D01*
X150391252Y-100704500D01*
X150980750Y-100704500D01*
X150980751Y-100704499D01*
X151002994Y-100700075D01*
X151051210Y-100690485D01*
X151051464Y-100691762D01*
X151108009Y-100685680D01*
X151131899Y-100692694D01*
X151191247Y-100704499D01*
X151191250Y-100704500D01*
X151191252Y-100704500D01*
X151780750Y-100704500D01*
X151780751Y-100704499D01*
X151802994Y-100700075D01*
X151851210Y-100690485D01*
X151851464Y-100691762D01*
X151908009Y-100685680D01*
X151931899Y-100692694D01*
X151991247Y-100704499D01*
X151991250Y-100704500D01*
X151991252Y-100704500D01*
X152580750Y-100704500D01*
X152580751Y-100704499D01*
X152602994Y-100700075D01*
X152651210Y-100690485D01*
X152651464Y-100691762D01*
X152708009Y-100685680D01*
X152731899Y-100692694D01*
X152791247Y-100704499D01*
X152791250Y-100704500D01*
X152791252Y-100704500D01*
X153380750Y-100704500D01*
X153380751Y-100704499D01*
X153402994Y-100700075D01*
X153451210Y-100690485D01*
X153451464Y-100691762D01*
X153508009Y-100685680D01*
X153531899Y-100692694D01*
X153591247Y-100704499D01*
X153591250Y-100704500D01*
X153591252Y-100704500D01*
X154180750Y-100704500D01*
X154180751Y-100704499D01*
X154202994Y-100700075D01*
X154251210Y-100690485D01*
X154251464Y-100691762D01*
X154308009Y-100685680D01*
X154331899Y-100692694D01*
G37*
%TD.AperFunction*%
M02*
